G04 MADE WITH FRITZING*
G04 WWW.FRITZING.ORG*
G04 DOUBLE SIDED*
G04 HOLES PLATED*
G04 CONTOUR ON CENTER OF CONTOUR VECTOR*
%ASAXBY*%
%FSLAX23Y23*%
%MOIN*%
%OFA0B0*%
%SFA1.0B1.0*%
%ADD10C,0.010000*%
%ADD11C,0.008000*%
%ADD12C,0.005000*%
%ADD13R,0.001000X0.001000*%
%LNSILK1*%
G90*
G70*
G54D10*
X610Y540D02*
X810Y540D01*
D02*
X810Y540D02*
X810Y474D01*
D02*
X810Y474D02*
X610Y474D01*
D02*
X610Y474D02*
X610Y540D01*
G54D11*
D02*
X950Y486D02*
X950Y459D01*
D02*
X950Y171D02*
X950Y199D01*
D02*
X950Y459D02*
X1001Y459D01*
D02*
X950Y199D02*
X1001Y199D01*
G54D12*
D02*
X271Y442D02*
X331Y442D01*
D02*
X331Y387D02*
X331Y327D01*
D02*
X331Y272D02*
X271Y272D01*
D02*
X291Y357D02*
X301Y342D01*
D02*
X311Y357D02*
X301Y342D01*
D02*
X301Y342D02*
X301Y372D01*
G54D13*
X0Y693D02*
X1186Y693D01*
X0Y692D02*
X1186Y692D01*
X0Y691D02*
X1186Y691D01*
X0Y690D02*
X1186Y690D01*
X0Y689D02*
X1186Y689D01*
X0Y688D02*
X1186Y688D01*
X0Y687D02*
X1186Y687D01*
X0Y686D02*
X1186Y686D01*
X0Y685D02*
X7Y685D01*
X1179Y685D02*
X1186Y685D01*
X0Y684D02*
X7Y684D01*
X1179Y684D02*
X1186Y684D01*
X0Y683D02*
X7Y683D01*
X1179Y683D02*
X1186Y683D01*
X0Y682D02*
X7Y682D01*
X1179Y682D02*
X1186Y682D01*
X0Y681D02*
X7Y681D01*
X1179Y681D02*
X1186Y681D01*
X0Y680D02*
X7Y680D01*
X1179Y680D02*
X1186Y680D01*
X0Y679D02*
X7Y679D01*
X1179Y679D02*
X1186Y679D01*
X0Y678D02*
X7Y678D01*
X1179Y678D02*
X1186Y678D01*
X0Y677D02*
X7Y677D01*
X1179Y677D02*
X1186Y677D01*
X0Y676D02*
X7Y676D01*
X1179Y676D02*
X1186Y676D01*
X0Y675D02*
X7Y675D01*
X1179Y675D02*
X1186Y675D01*
X0Y674D02*
X7Y674D01*
X1179Y674D02*
X1186Y674D01*
X0Y673D02*
X7Y673D01*
X1179Y673D02*
X1186Y673D01*
X0Y672D02*
X7Y672D01*
X1179Y672D02*
X1186Y672D01*
X0Y671D02*
X7Y671D01*
X1179Y671D02*
X1186Y671D01*
X0Y670D02*
X7Y670D01*
X1179Y670D02*
X1186Y670D01*
X0Y669D02*
X7Y669D01*
X1179Y669D02*
X1186Y669D01*
X0Y668D02*
X7Y668D01*
X1179Y668D02*
X1186Y668D01*
X0Y667D02*
X7Y667D01*
X1179Y667D02*
X1186Y667D01*
X0Y666D02*
X7Y666D01*
X1179Y666D02*
X1186Y666D01*
X0Y665D02*
X7Y665D01*
X1179Y665D02*
X1186Y665D01*
X0Y664D02*
X7Y664D01*
X1179Y664D02*
X1186Y664D01*
X0Y663D02*
X7Y663D01*
X1179Y663D02*
X1186Y663D01*
X0Y662D02*
X7Y662D01*
X1179Y662D02*
X1186Y662D01*
X0Y661D02*
X7Y661D01*
X1179Y661D02*
X1186Y661D01*
X0Y660D02*
X7Y660D01*
X1179Y660D02*
X1186Y660D01*
X0Y659D02*
X7Y659D01*
X1179Y659D02*
X1186Y659D01*
X0Y658D02*
X7Y658D01*
X62Y658D02*
X69Y658D01*
X81Y658D02*
X87Y658D01*
X158Y658D02*
X161Y658D01*
X214Y658D02*
X225Y658D01*
X456Y658D02*
X458Y658D01*
X1179Y658D02*
X1186Y658D01*
X0Y657D02*
X7Y657D01*
X62Y657D02*
X69Y657D01*
X80Y657D02*
X87Y657D01*
X157Y657D02*
X161Y657D01*
X214Y657D02*
X226Y657D01*
X455Y657D02*
X459Y657D01*
X1179Y657D02*
X1186Y657D01*
X0Y656D02*
X7Y656D01*
X62Y656D02*
X70Y656D01*
X79Y656D02*
X87Y656D01*
X157Y656D02*
X161Y656D01*
X214Y656D02*
X226Y656D01*
X455Y656D02*
X459Y656D01*
X1179Y656D02*
X1186Y656D01*
X0Y655D02*
X7Y655D01*
X62Y655D02*
X71Y655D01*
X79Y655D02*
X87Y655D01*
X157Y655D02*
X161Y655D01*
X214Y655D02*
X226Y655D01*
X455Y655D02*
X459Y655D01*
X1179Y655D02*
X1186Y655D01*
X0Y654D02*
X7Y654D01*
X62Y654D02*
X71Y654D01*
X78Y654D02*
X87Y654D01*
X157Y654D02*
X161Y654D01*
X215Y654D02*
X226Y654D01*
X455Y654D02*
X459Y654D01*
X1179Y654D02*
X1186Y654D01*
X0Y653D02*
X7Y653D01*
X62Y653D02*
X72Y653D01*
X77Y653D02*
X87Y653D01*
X157Y653D02*
X161Y653D01*
X221Y653D02*
X226Y653D01*
X455Y653D02*
X459Y653D01*
X1179Y653D02*
X1186Y653D01*
X0Y652D02*
X7Y652D01*
X62Y652D02*
X73Y652D01*
X77Y652D02*
X87Y652D01*
X157Y652D02*
X161Y652D01*
X221Y652D02*
X226Y652D01*
X455Y652D02*
X459Y652D01*
X1179Y652D02*
X1186Y652D01*
X0Y651D02*
X7Y651D01*
X62Y651D02*
X73Y651D01*
X76Y651D02*
X81Y651D01*
X83Y651D02*
X87Y651D01*
X157Y651D02*
X161Y651D01*
X221Y651D02*
X226Y651D01*
X455Y651D02*
X459Y651D01*
X1179Y651D02*
X1186Y651D01*
X0Y650D02*
X7Y650D01*
X62Y650D02*
X67Y650D01*
X69Y650D02*
X81Y650D01*
X83Y650D02*
X87Y650D01*
X157Y650D02*
X161Y650D01*
X221Y650D02*
X226Y650D01*
X455Y650D02*
X459Y650D01*
X1179Y650D02*
X1186Y650D01*
X0Y649D02*
X7Y649D01*
X62Y649D02*
X67Y649D01*
X70Y649D02*
X80Y649D01*
X83Y649D02*
X87Y649D01*
X157Y649D02*
X161Y649D01*
X221Y649D02*
X226Y649D01*
X455Y649D02*
X459Y649D01*
X1179Y649D02*
X1186Y649D01*
X0Y648D02*
X7Y648D01*
X62Y648D02*
X67Y648D01*
X70Y648D02*
X79Y648D01*
X83Y648D02*
X87Y648D01*
X109Y648D02*
X115Y648D01*
X146Y648D02*
X150Y648D01*
X157Y648D02*
X161Y648D01*
X176Y648D02*
X176Y648D01*
X221Y648D02*
X226Y648D01*
X257Y648D02*
X264Y648D01*
X330Y648D02*
X341Y648D01*
X369Y648D02*
X376Y648D01*
X411Y648D02*
X414Y648D01*
X443Y648D02*
X447Y648D01*
X455Y648D02*
X459Y648D01*
X481Y648D02*
X488Y648D01*
X1179Y648D02*
X1186Y648D01*
X0Y647D02*
X7Y647D01*
X62Y647D02*
X67Y647D01*
X71Y647D02*
X78Y647D01*
X83Y647D02*
X87Y647D01*
X106Y647D02*
X118Y647D01*
X143Y647D02*
X153Y647D01*
X157Y647D02*
X161Y647D01*
X175Y647D02*
X178Y647D01*
X195Y647D02*
X198Y647D01*
X221Y647D02*
X226Y647D01*
X254Y647D02*
X267Y647D01*
X327Y647D02*
X344Y647D01*
X366Y647D02*
X379Y647D01*
X398Y647D02*
X401Y647D01*
X408Y647D02*
X417Y647D01*
X440Y647D02*
X451Y647D01*
X455Y647D02*
X459Y647D01*
X478Y647D02*
X491Y647D01*
X1179Y647D02*
X1186Y647D01*
X0Y646D02*
X7Y646D01*
X62Y646D02*
X67Y646D01*
X72Y646D02*
X78Y646D01*
X83Y646D02*
X87Y646D01*
X104Y646D02*
X120Y646D01*
X141Y646D02*
X155Y646D01*
X157Y646D02*
X161Y646D01*
X174Y646D02*
X178Y646D01*
X195Y646D02*
X199Y646D01*
X221Y646D02*
X226Y646D01*
X253Y646D02*
X269Y646D01*
X325Y646D02*
X345Y646D01*
X364Y646D02*
X380Y646D01*
X397Y646D02*
X401Y646D01*
X406Y646D02*
X419Y646D01*
X439Y646D02*
X452Y646D01*
X455Y646D02*
X459Y646D01*
X476Y646D02*
X492Y646D01*
X1179Y646D02*
X1186Y646D01*
X0Y645D02*
X7Y645D01*
X62Y645D02*
X67Y645D01*
X72Y645D02*
X77Y645D01*
X83Y645D02*
X87Y645D01*
X103Y645D02*
X121Y645D01*
X140Y645D02*
X161Y645D01*
X174Y645D02*
X178Y645D01*
X194Y645D02*
X199Y645D01*
X221Y645D02*
X226Y645D01*
X252Y645D02*
X270Y645D01*
X325Y645D02*
X346Y645D01*
X363Y645D02*
X382Y645D01*
X397Y645D02*
X401Y645D01*
X405Y645D02*
X420Y645D01*
X438Y645D02*
X453Y645D01*
X455Y645D02*
X459Y645D01*
X475Y645D02*
X493Y645D01*
X1179Y645D02*
X1186Y645D01*
X0Y644D02*
X7Y644D01*
X62Y644D02*
X67Y644D01*
X73Y644D02*
X77Y644D01*
X83Y644D02*
X87Y644D01*
X102Y644D02*
X122Y644D01*
X139Y644D02*
X161Y644D01*
X174Y644D02*
X178Y644D01*
X194Y644D02*
X199Y644D01*
X221Y644D02*
X226Y644D01*
X251Y644D02*
X271Y644D01*
X324Y644D02*
X347Y644D01*
X362Y644D02*
X383Y644D01*
X397Y644D02*
X420Y644D01*
X437Y644D02*
X459Y644D01*
X474Y644D02*
X494Y644D01*
X1179Y644D02*
X1186Y644D01*
X0Y643D02*
X7Y643D01*
X62Y643D02*
X67Y643D01*
X73Y643D02*
X77Y643D01*
X83Y643D02*
X87Y643D01*
X101Y643D02*
X123Y643D01*
X138Y643D02*
X161Y643D01*
X174Y643D02*
X178Y643D01*
X194Y643D02*
X199Y643D01*
X221Y643D02*
X226Y643D01*
X250Y643D02*
X272Y643D01*
X324Y643D02*
X347Y643D01*
X362Y643D02*
X383Y643D01*
X397Y643D02*
X421Y643D01*
X436Y643D02*
X459Y643D01*
X473Y643D02*
X495Y643D01*
X1179Y643D02*
X1186Y643D01*
X0Y642D02*
X7Y642D01*
X62Y642D02*
X67Y642D01*
X73Y642D02*
X76Y642D01*
X83Y642D02*
X87Y642D01*
X100Y642D02*
X106Y642D01*
X118Y642D02*
X124Y642D01*
X138Y642D02*
X143Y642D01*
X152Y642D02*
X161Y642D01*
X174Y642D02*
X178Y642D01*
X194Y642D02*
X199Y642D01*
X221Y642D02*
X226Y642D01*
X249Y642D02*
X255Y642D01*
X267Y642D02*
X272Y642D01*
X324Y642D02*
X328Y642D01*
X343Y642D02*
X347Y642D01*
X361Y642D02*
X367Y642D01*
X378Y642D02*
X384Y642D01*
X397Y642D02*
X409Y642D01*
X416Y642D02*
X421Y642D01*
X435Y642D02*
X441Y642D01*
X450Y642D02*
X459Y642D01*
X473Y642D02*
X478Y642D01*
X490Y642D02*
X496Y642D01*
X1179Y642D02*
X1186Y642D01*
X0Y641D02*
X7Y641D01*
X62Y641D02*
X67Y641D01*
X74Y641D02*
X75Y641D01*
X83Y641D02*
X87Y641D01*
X100Y641D02*
X105Y641D01*
X119Y641D02*
X124Y641D01*
X137Y641D02*
X142Y641D01*
X153Y641D02*
X161Y641D01*
X174Y641D02*
X178Y641D01*
X194Y641D02*
X199Y641D01*
X221Y641D02*
X226Y641D01*
X249Y641D02*
X254Y641D01*
X268Y641D02*
X273Y641D01*
X324Y641D02*
X328Y641D01*
X344Y641D02*
X346Y641D01*
X360Y641D02*
X366Y641D01*
X379Y641D02*
X384Y641D01*
X397Y641D02*
X407Y641D01*
X417Y641D02*
X421Y641D01*
X435Y641D02*
X440Y641D01*
X451Y641D02*
X459Y641D01*
X472Y641D02*
X477Y641D01*
X491Y641D02*
X496Y641D01*
X1179Y641D02*
X1186Y641D01*
X0Y640D02*
X7Y640D01*
X62Y640D02*
X67Y640D01*
X83Y640D02*
X87Y640D01*
X100Y640D02*
X104Y640D01*
X120Y640D02*
X124Y640D01*
X137Y640D02*
X141Y640D01*
X155Y640D02*
X161Y640D01*
X174Y640D02*
X178Y640D01*
X194Y640D02*
X199Y640D01*
X221Y640D02*
X226Y640D01*
X249Y640D02*
X253Y640D01*
X268Y640D02*
X273Y640D01*
X324Y640D02*
X329Y640D01*
X360Y640D02*
X365Y640D01*
X380Y640D02*
X385Y640D01*
X397Y640D02*
X405Y640D01*
X417Y640D02*
X421Y640D01*
X435Y640D02*
X439Y640D01*
X452Y640D02*
X459Y640D01*
X472Y640D02*
X476Y640D01*
X492Y640D02*
X496Y640D01*
X1179Y640D02*
X1186Y640D01*
X0Y639D02*
X7Y639D01*
X62Y639D02*
X67Y639D01*
X83Y639D02*
X87Y639D01*
X100Y639D02*
X104Y639D01*
X120Y639D02*
X124Y639D01*
X137Y639D02*
X141Y639D01*
X156Y639D02*
X161Y639D01*
X174Y639D02*
X178Y639D01*
X194Y639D02*
X199Y639D01*
X221Y639D02*
X226Y639D01*
X248Y639D02*
X253Y639D01*
X269Y639D02*
X273Y639D01*
X324Y639D02*
X331Y639D01*
X360Y639D02*
X364Y639D01*
X380Y639D02*
X385Y639D01*
X397Y639D02*
X404Y639D01*
X417Y639D02*
X421Y639D01*
X435Y639D02*
X439Y639D01*
X453Y639D02*
X459Y639D01*
X472Y639D02*
X476Y639D01*
X492Y639D02*
X496Y639D01*
X1179Y639D02*
X1186Y639D01*
X0Y638D02*
X7Y638D01*
X62Y638D02*
X67Y638D01*
X83Y638D02*
X87Y638D01*
X100Y638D02*
X104Y638D01*
X120Y638D02*
X124Y638D01*
X137Y638D02*
X141Y638D01*
X157Y638D02*
X161Y638D01*
X174Y638D02*
X178Y638D01*
X194Y638D02*
X199Y638D01*
X221Y638D02*
X226Y638D01*
X248Y638D02*
X253Y638D01*
X269Y638D02*
X273Y638D01*
X325Y638D02*
X333Y638D01*
X360Y638D02*
X364Y638D01*
X381Y638D02*
X385Y638D01*
X397Y638D02*
X402Y638D01*
X417Y638D02*
X421Y638D01*
X434Y638D02*
X439Y638D01*
X454Y638D02*
X459Y638D01*
X472Y638D02*
X476Y638D01*
X492Y638D02*
X496Y638D01*
X1179Y638D02*
X1186Y638D01*
X0Y637D02*
X7Y637D01*
X62Y637D02*
X67Y637D01*
X83Y637D02*
X87Y637D01*
X100Y637D02*
X104Y637D01*
X120Y637D02*
X124Y637D01*
X137Y637D02*
X141Y637D01*
X157Y637D02*
X161Y637D01*
X174Y637D02*
X178Y637D01*
X194Y637D02*
X199Y637D01*
X221Y637D02*
X226Y637D01*
X248Y637D02*
X253Y637D01*
X269Y637D02*
X273Y637D01*
X325Y637D02*
X336Y637D01*
X360Y637D02*
X364Y637D01*
X381Y637D02*
X385Y637D01*
X397Y637D02*
X401Y637D01*
X417Y637D02*
X421Y637D01*
X434Y637D02*
X439Y637D01*
X455Y637D02*
X459Y637D01*
X472Y637D02*
X476Y637D01*
X492Y637D02*
X496Y637D01*
X1179Y637D02*
X1186Y637D01*
X0Y636D02*
X7Y636D01*
X62Y636D02*
X67Y636D01*
X83Y636D02*
X87Y636D01*
X100Y636D02*
X104Y636D01*
X120Y636D02*
X124Y636D01*
X137Y636D02*
X141Y636D01*
X157Y636D02*
X161Y636D01*
X174Y636D02*
X179Y636D01*
X194Y636D02*
X199Y636D01*
X221Y636D02*
X226Y636D01*
X248Y636D02*
X253Y636D01*
X269Y636D02*
X273Y636D01*
X326Y636D02*
X338Y636D01*
X360Y636D02*
X364Y636D01*
X381Y636D02*
X385Y636D01*
X397Y636D02*
X401Y636D01*
X417Y636D02*
X421Y636D01*
X434Y636D02*
X439Y636D01*
X455Y636D02*
X459Y636D01*
X472Y636D02*
X476Y636D01*
X492Y636D02*
X496Y636D01*
X1179Y636D02*
X1186Y636D01*
X0Y635D02*
X7Y635D01*
X62Y635D02*
X67Y635D01*
X83Y635D02*
X87Y635D01*
X100Y635D02*
X104Y635D01*
X120Y635D02*
X124Y635D01*
X137Y635D02*
X141Y635D01*
X157Y635D02*
X161Y635D01*
X174Y635D02*
X179Y635D01*
X194Y635D02*
X199Y635D01*
X221Y635D02*
X226Y635D01*
X248Y635D02*
X253Y635D01*
X269Y635D02*
X273Y635D01*
X328Y635D02*
X340Y635D01*
X360Y635D02*
X364Y635D01*
X381Y635D02*
X385Y635D01*
X397Y635D02*
X401Y635D01*
X417Y635D02*
X421Y635D01*
X434Y635D02*
X439Y635D01*
X455Y635D02*
X459Y635D01*
X472Y635D02*
X476Y635D01*
X492Y635D02*
X496Y635D01*
X1179Y635D02*
X1186Y635D01*
X0Y634D02*
X7Y634D01*
X62Y634D02*
X67Y634D01*
X83Y634D02*
X87Y634D01*
X100Y634D02*
X104Y634D01*
X120Y634D02*
X124Y634D01*
X137Y634D02*
X141Y634D01*
X157Y634D02*
X161Y634D01*
X174Y634D02*
X179Y634D01*
X194Y634D02*
X199Y634D01*
X221Y634D02*
X226Y634D01*
X248Y634D02*
X273Y634D01*
X331Y634D02*
X343Y634D01*
X360Y634D02*
X364Y634D01*
X381Y634D02*
X385Y634D01*
X397Y634D02*
X401Y634D01*
X417Y634D02*
X421Y634D01*
X434Y634D02*
X439Y634D01*
X455Y634D02*
X459Y634D01*
X472Y634D02*
X496Y634D01*
X1179Y634D02*
X1186Y634D01*
X0Y633D02*
X7Y633D01*
X62Y633D02*
X67Y633D01*
X83Y633D02*
X87Y633D01*
X100Y633D02*
X104Y633D01*
X120Y633D02*
X124Y633D01*
X137Y633D02*
X141Y633D01*
X157Y633D02*
X161Y633D01*
X174Y633D02*
X179Y633D01*
X194Y633D02*
X199Y633D01*
X221Y633D02*
X226Y633D01*
X248Y633D02*
X273Y633D01*
X333Y633D02*
X344Y633D01*
X360Y633D02*
X364Y633D01*
X381Y633D02*
X385Y633D01*
X397Y633D02*
X401Y633D01*
X417Y633D02*
X421Y633D01*
X434Y633D02*
X439Y633D01*
X455Y633D02*
X459Y633D01*
X472Y633D02*
X496Y633D01*
X1179Y633D02*
X1186Y633D01*
X0Y632D02*
X7Y632D01*
X62Y632D02*
X67Y632D01*
X83Y632D02*
X87Y632D01*
X100Y632D02*
X104Y632D01*
X120Y632D02*
X124Y632D01*
X137Y632D02*
X141Y632D01*
X157Y632D02*
X161Y632D01*
X174Y632D02*
X179Y632D01*
X194Y632D02*
X199Y632D01*
X221Y632D02*
X226Y632D01*
X248Y632D02*
X273Y632D01*
X335Y632D02*
X345Y632D01*
X360Y632D02*
X364Y632D01*
X381Y632D02*
X385Y632D01*
X397Y632D02*
X401Y632D01*
X417Y632D02*
X422Y632D01*
X434Y632D02*
X439Y632D01*
X455Y632D02*
X459Y632D01*
X472Y632D02*
X496Y632D01*
X1179Y632D02*
X1186Y632D01*
X0Y631D02*
X7Y631D01*
X62Y631D02*
X67Y631D01*
X83Y631D02*
X87Y631D01*
X100Y631D02*
X104Y631D01*
X120Y631D02*
X124Y631D01*
X137Y631D02*
X141Y631D01*
X157Y631D02*
X161Y631D01*
X175Y631D02*
X179Y631D01*
X194Y631D02*
X199Y631D01*
X221Y631D02*
X226Y631D01*
X248Y631D02*
X273Y631D01*
X338Y631D02*
X346Y631D01*
X360Y631D02*
X364Y631D01*
X381Y631D02*
X385Y631D01*
X397Y631D02*
X401Y631D01*
X417Y631D02*
X422Y631D01*
X434Y631D02*
X439Y631D01*
X455Y631D02*
X459Y631D01*
X472Y631D02*
X496Y631D01*
X1179Y631D02*
X1186Y631D01*
X0Y630D02*
X7Y630D01*
X62Y630D02*
X67Y630D01*
X83Y630D02*
X87Y630D01*
X100Y630D02*
X104Y630D01*
X120Y630D02*
X124Y630D01*
X137Y630D02*
X141Y630D01*
X157Y630D02*
X161Y630D01*
X175Y630D02*
X179Y630D01*
X194Y630D02*
X199Y630D01*
X221Y630D02*
X226Y630D01*
X248Y630D02*
X272Y630D01*
X340Y630D02*
X347Y630D01*
X360Y630D02*
X364Y630D01*
X381Y630D02*
X385Y630D01*
X397Y630D02*
X401Y630D01*
X417Y630D02*
X422Y630D01*
X434Y630D02*
X439Y630D01*
X455Y630D02*
X459Y630D01*
X472Y630D02*
X495Y630D01*
X1074Y630D02*
X1077Y630D01*
X1179Y630D02*
X1186Y630D01*
X0Y629D02*
X7Y629D01*
X62Y629D02*
X67Y629D01*
X83Y629D02*
X87Y629D01*
X100Y629D02*
X104Y629D01*
X120Y629D02*
X124Y629D01*
X137Y629D02*
X141Y629D01*
X157Y629D02*
X161Y629D01*
X175Y629D02*
X179Y629D01*
X194Y629D02*
X199Y629D01*
X221Y629D02*
X226Y629D01*
X248Y629D02*
X253Y629D01*
X342Y629D02*
X347Y629D01*
X360Y629D02*
X364Y629D01*
X381Y629D02*
X385Y629D01*
X397Y629D02*
X401Y629D01*
X417Y629D02*
X422Y629D01*
X434Y629D02*
X439Y629D01*
X454Y629D02*
X459Y629D01*
X472Y629D02*
X476Y629D01*
X1072Y629D02*
X1079Y629D01*
X1179Y629D02*
X1186Y629D01*
X0Y628D02*
X7Y628D01*
X62Y628D02*
X67Y628D01*
X83Y628D02*
X87Y628D01*
X100Y628D02*
X104Y628D01*
X120Y628D02*
X124Y628D01*
X137Y628D02*
X141Y628D01*
X156Y628D02*
X161Y628D01*
X175Y628D02*
X179Y628D01*
X192Y628D02*
X199Y628D01*
X221Y628D02*
X226Y628D01*
X248Y628D02*
X253Y628D01*
X343Y628D02*
X347Y628D01*
X360Y628D02*
X364Y628D01*
X380Y628D02*
X385Y628D01*
X397Y628D02*
X401Y628D01*
X417Y628D02*
X422Y628D01*
X435Y628D02*
X439Y628D01*
X453Y628D02*
X459Y628D01*
X472Y628D02*
X476Y628D01*
X1072Y628D02*
X1079Y628D01*
X1179Y628D02*
X1186Y628D01*
X0Y627D02*
X7Y627D01*
X62Y627D02*
X67Y627D01*
X83Y627D02*
X87Y627D01*
X100Y627D02*
X104Y627D01*
X120Y627D02*
X124Y627D01*
X137Y627D02*
X141Y627D01*
X155Y627D02*
X161Y627D01*
X175Y627D02*
X179Y627D01*
X191Y627D02*
X199Y627D01*
X221Y627D02*
X226Y627D01*
X249Y627D02*
X253Y627D01*
X343Y627D02*
X347Y627D01*
X360Y627D02*
X365Y627D01*
X380Y627D02*
X385Y627D01*
X397Y627D02*
X401Y627D01*
X418Y627D02*
X422Y627D01*
X435Y627D02*
X439Y627D01*
X452Y627D02*
X459Y627D01*
X472Y627D02*
X476Y627D01*
X1071Y627D02*
X1080Y627D01*
X1179Y627D02*
X1186Y627D01*
X0Y626D02*
X7Y626D01*
X62Y626D02*
X67Y626D01*
X83Y626D02*
X87Y626D01*
X100Y626D02*
X105Y626D01*
X119Y626D02*
X124Y626D01*
X137Y626D02*
X142Y626D01*
X153Y626D02*
X161Y626D01*
X175Y626D02*
X179Y626D01*
X189Y626D02*
X199Y626D01*
X221Y626D02*
X226Y626D01*
X249Y626D02*
X254Y626D01*
X325Y626D02*
X325Y626D01*
X343Y626D02*
X347Y626D01*
X360Y626D02*
X365Y626D01*
X379Y626D02*
X384Y626D01*
X397Y626D02*
X401Y626D01*
X418Y626D02*
X422Y626D01*
X435Y626D02*
X440Y626D01*
X451Y626D02*
X459Y626D01*
X472Y626D02*
X477Y626D01*
X1071Y626D02*
X1080Y626D01*
X1179Y626D02*
X1186Y626D01*
X0Y625D02*
X7Y625D01*
X62Y625D02*
X67Y625D01*
X83Y625D02*
X87Y625D01*
X100Y625D02*
X106Y625D01*
X118Y625D02*
X124Y625D01*
X137Y625D02*
X143Y625D01*
X152Y625D02*
X161Y625D01*
X175Y625D02*
X179Y625D01*
X188Y625D02*
X199Y625D01*
X221Y625D02*
X226Y625D01*
X249Y625D02*
X255Y625D01*
X323Y625D02*
X327Y625D01*
X343Y625D02*
X347Y625D01*
X361Y625D02*
X367Y625D01*
X378Y625D02*
X384Y625D01*
X397Y625D02*
X401Y625D01*
X418Y625D02*
X422Y625D01*
X435Y625D02*
X441Y625D01*
X450Y625D02*
X459Y625D01*
X472Y625D02*
X478Y625D01*
X1071Y625D02*
X1080Y625D01*
X1179Y625D02*
X1186Y625D01*
X0Y624D02*
X7Y624D01*
X62Y624D02*
X67Y624D01*
X83Y624D02*
X87Y624D01*
X101Y624D02*
X123Y624D01*
X138Y624D02*
X161Y624D01*
X175Y624D02*
X199Y624D01*
X217Y624D02*
X230Y624D01*
X250Y624D02*
X270Y624D01*
X323Y624D02*
X347Y624D01*
X361Y624D02*
X383Y624D01*
X397Y624D02*
X401Y624D01*
X418Y624D02*
X422Y624D01*
X436Y624D02*
X459Y624D01*
X473Y624D02*
X493Y624D01*
X1071Y624D02*
X1080Y624D01*
X1179Y624D02*
X1186Y624D01*
X0Y623D02*
X7Y623D01*
X62Y623D02*
X67Y623D01*
X83Y623D02*
X87Y623D01*
X102Y623D02*
X122Y623D01*
X139Y623D02*
X161Y623D01*
X176Y623D02*
X199Y623D01*
X214Y623D02*
X233Y623D01*
X250Y623D02*
X272Y623D01*
X323Y623D02*
X346Y623D01*
X362Y623D02*
X383Y623D01*
X397Y623D02*
X401Y623D01*
X418Y623D02*
X422Y623D01*
X436Y623D02*
X459Y623D01*
X474Y623D02*
X496Y623D01*
X1071Y623D02*
X1080Y623D01*
X1179Y623D02*
X1186Y623D01*
X0Y622D02*
X7Y622D01*
X62Y622D02*
X67Y622D01*
X83Y622D02*
X87Y622D01*
X103Y622D02*
X121Y622D01*
X140Y622D02*
X161Y622D01*
X176Y622D02*
X192Y622D01*
X194Y622D02*
X199Y622D01*
X214Y622D02*
X233Y622D01*
X251Y622D02*
X273Y622D01*
X323Y622D02*
X346Y622D01*
X363Y622D02*
X382Y622D01*
X397Y622D02*
X401Y622D01*
X418Y622D02*
X422Y622D01*
X437Y622D02*
X459Y622D01*
X475Y622D02*
X496Y622D01*
X1071Y622D02*
X1080Y622D01*
X1179Y622D02*
X1186Y622D01*
X0Y621D02*
X7Y621D01*
X62Y621D02*
X67Y621D01*
X83Y621D02*
X87Y621D01*
X104Y621D02*
X120Y621D01*
X141Y621D02*
X155Y621D01*
X157Y621D02*
X161Y621D01*
X177Y621D02*
X190Y621D01*
X195Y621D02*
X199Y621D01*
X214Y621D02*
X233Y621D01*
X253Y621D02*
X273Y621D01*
X325Y621D02*
X345Y621D01*
X364Y621D02*
X381Y621D01*
X397Y621D02*
X401Y621D01*
X418Y621D02*
X422Y621D01*
X439Y621D02*
X453Y621D01*
X455Y621D02*
X459Y621D01*
X476Y621D02*
X496Y621D01*
X1071Y621D02*
X1080Y621D01*
X1179Y621D02*
X1186Y621D01*
X0Y620D02*
X7Y620D01*
X63Y620D02*
X66Y620D01*
X83Y620D02*
X87Y620D01*
X105Y620D02*
X119Y620D01*
X142Y620D02*
X153Y620D01*
X158Y620D02*
X161Y620D01*
X178Y620D02*
X188Y620D01*
X195Y620D02*
X198Y620D01*
X214Y620D02*
X233Y620D01*
X254Y620D02*
X273Y620D01*
X326Y620D02*
X344Y620D01*
X366Y620D02*
X379Y620D01*
X398Y620D02*
X401Y620D01*
X418Y620D02*
X421Y620D01*
X440Y620D02*
X451Y620D01*
X455Y620D02*
X459Y620D01*
X477Y620D02*
X496Y620D01*
X1071Y620D02*
X1080Y620D01*
X1179Y620D02*
X1186Y620D01*
X0Y619D02*
X7Y619D01*
X64Y619D02*
X65Y619D01*
X85Y619D02*
X85Y619D01*
X108Y619D02*
X116Y619D01*
X145Y619D02*
X151Y619D01*
X159Y619D02*
X160Y619D01*
X181Y619D02*
X186Y619D01*
X196Y619D02*
X197Y619D01*
X216Y619D02*
X232Y619D01*
X256Y619D02*
X271Y619D01*
X329Y619D02*
X341Y619D01*
X368Y619D02*
X377Y619D01*
X399Y619D02*
X400Y619D01*
X419Y619D02*
X420Y619D01*
X442Y619D02*
X449Y619D01*
X457Y619D02*
X457Y619D01*
X480Y619D02*
X495Y619D01*
X1071Y619D02*
X1080Y619D01*
X1179Y619D02*
X1186Y619D01*
X0Y618D02*
X7Y618D01*
X1071Y618D02*
X1080Y618D01*
X1179Y618D02*
X1186Y618D01*
X0Y617D02*
X7Y617D01*
X1071Y617D02*
X1080Y617D01*
X1179Y617D02*
X1186Y617D01*
X0Y616D02*
X7Y616D01*
X1071Y616D02*
X1080Y616D01*
X1179Y616D02*
X1186Y616D01*
X0Y615D02*
X7Y615D01*
X1071Y615D02*
X1080Y615D01*
X1179Y615D02*
X1186Y615D01*
X0Y614D02*
X7Y614D01*
X1071Y614D02*
X1080Y614D01*
X1179Y614D02*
X1186Y614D01*
X0Y613D02*
X7Y613D01*
X1071Y613D02*
X1080Y613D01*
X1179Y613D02*
X1186Y613D01*
X0Y612D02*
X7Y612D01*
X1071Y612D02*
X1080Y612D01*
X1179Y612D02*
X1186Y612D01*
X0Y611D02*
X7Y611D01*
X686Y611D02*
X713Y611D01*
X738Y611D02*
X756Y611D01*
X1071Y611D02*
X1080Y611D01*
X1179Y611D02*
X1186Y611D01*
X0Y610D02*
X7Y610D01*
X686Y610D02*
X715Y610D01*
X737Y610D02*
X756Y610D01*
X1054Y610D02*
X1097Y610D01*
X1179Y610D02*
X1186Y610D01*
X0Y609D02*
X7Y609D01*
X686Y609D02*
X716Y609D01*
X737Y609D02*
X756Y609D01*
X1052Y609D02*
X1099Y609D01*
X1179Y609D02*
X1186Y609D01*
X0Y608D02*
X7Y608D01*
X686Y608D02*
X717Y608D01*
X737Y608D02*
X756Y608D01*
X1052Y608D02*
X1099Y608D01*
X1179Y608D02*
X1186Y608D01*
X0Y607D02*
X7Y607D01*
X686Y607D02*
X718Y607D01*
X737Y607D02*
X756Y607D01*
X1051Y607D02*
X1100Y607D01*
X1179Y607D02*
X1186Y607D01*
X0Y606D02*
X7Y606D01*
X686Y606D02*
X719Y606D01*
X737Y606D02*
X756Y606D01*
X1051Y606D02*
X1100Y606D01*
X1179Y606D02*
X1186Y606D01*
X0Y605D02*
X7Y605D01*
X686Y605D02*
X719Y605D01*
X739Y605D02*
X756Y605D01*
X1051Y605D02*
X1100Y605D01*
X1179Y605D02*
X1186Y605D01*
X0Y604D02*
X7Y604D01*
X686Y604D02*
X692Y604D01*
X712Y604D02*
X719Y604D01*
X750Y604D02*
X756Y604D01*
X1051Y604D02*
X1100Y604D01*
X1179Y604D02*
X1186Y604D01*
X0Y603D02*
X7Y603D01*
X686Y603D02*
X692Y603D01*
X713Y603D02*
X720Y603D01*
X750Y603D02*
X756Y603D01*
X1052Y603D02*
X1099Y603D01*
X1179Y603D02*
X1186Y603D01*
X0Y602D02*
X7Y602D01*
X686Y602D02*
X692Y602D01*
X714Y602D02*
X720Y602D01*
X750Y602D02*
X756Y602D01*
X1053Y602D02*
X1098Y602D01*
X1179Y602D02*
X1186Y602D01*
X0Y601D02*
X7Y601D01*
X686Y601D02*
X692Y601D01*
X714Y601D02*
X720Y601D01*
X750Y601D02*
X756Y601D01*
X1054Y601D02*
X1096Y601D01*
X1179Y601D02*
X1186Y601D01*
X0Y600D02*
X7Y600D01*
X686Y600D02*
X692Y600D01*
X714Y600D02*
X720Y600D01*
X750Y600D02*
X756Y600D01*
X1071Y600D02*
X1080Y600D01*
X1179Y600D02*
X1186Y600D01*
X0Y599D02*
X7Y599D01*
X686Y599D02*
X692Y599D01*
X714Y599D02*
X720Y599D01*
X750Y599D02*
X756Y599D01*
X1071Y599D02*
X1080Y599D01*
X1179Y599D02*
X1186Y599D01*
X0Y598D02*
X7Y598D01*
X686Y598D02*
X692Y598D01*
X714Y598D02*
X720Y598D01*
X750Y598D02*
X756Y598D01*
X1071Y598D02*
X1080Y598D01*
X1179Y598D02*
X1186Y598D01*
X0Y597D02*
X7Y597D01*
X686Y597D02*
X692Y597D01*
X714Y597D02*
X720Y597D01*
X750Y597D02*
X756Y597D01*
X1071Y597D02*
X1080Y597D01*
X1179Y597D02*
X1186Y597D01*
X0Y596D02*
X7Y596D01*
X686Y596D02*
X692Y596D01*
X713Y596D02*
X720Y596D01*
X750Y596D02*
X756Y596D01*
X1071Y596D02*
X1080Y596D01*
X1179Y596D02*
X1186Y596D01*
X0Y595D02*
X7Y595D01*
X686Y595D02*
X692Y595D01*
X713Y595D02*
X720Y595D01*
X750Y595D02*
X756Y595D01*
X1071Y595D02*
X1080Y595D01*
X1179Y595D02*
X1186Y595D01*
X0Y594D02*
X7Y594D01*
X686Y594D02*
X693Y594D01*
X710Y594D02*
X719Y594D01*
X750Y594D02*
X756Y594D01*
X1071Y594D02*
X1080Y594D01*
X1179Y594D02*
X1186Y594D01*
X0Y593D02*
X7Y593D01*
X686Y593D02*
X719Y593D01*
X750Y593D02*
X756Y593D01*
X1071Y593D02*
X1080Y593D01*
X1179Y593D02*
X1186Y593D01*
X0Y592D02*
X7Y592D01*
X686Y592D02*
X718Y592D01*
X750Y592D02*
X756Y592D01*
X1071Y592D02*
X1080Y592D01*
X1179Y592D02*
X1186Y592D01*
X0Y591D02*
X7Y591D01*
X686Y591D02*
X717Y591D01*
X750Y591D02*
X756Y591D01*
X1071Y591D02*
X1080Y591D01*
X1179Y591D02*
X1186Y591D01*
X0Y590D02*
X7Y590D01*
X686Y590D02*
X717Y590D01*
X750Y590D02*
X756Y590D01*
X1071Y590D02*
X1080Y590D01*
X1179Y590D02*
X1186Y590D01*
X0Y589D02*
X7Y589D01*
X686Y589D02*
X715Y589D01*
X750Y589D02*
X756Y589D01*
X1071Y589D02*
X1080Y589D01*
X1179Y589D02*
X1186Y589D01*
X0Y588D02*
X7Y588D01*
X686Y588D02*
X714Y588D01*
X750Y588D02*
X756Y588D01*
X1071Y588D02*
X1080Y588D01*
X1179Y588D02*
X1186Y588D01*
X0Y587D02*
X7Y587D01*
X686Y587D02*
X710Y587D01*
X750Y587D02*
X756Y587D01*
X1071Y587D02*
X1080Y587D01*
X1179Y587D02*
X1186Y587D01*
X0Y586D02*
X7Y586D01*
X686Y586D02*
X692Y586D01*
X699Y586D02*
X706Y586D01*
X750Y586D02*
X756Y586D01*
X1071Y586D02*
X1080Y586D01*
X1179Y586D02*
X1186Y586D01*
X0Y585D02*
X7Y585D01*
X686Y585D02*
X692Y585D01*
X699Y585D02*
X706Y585D01*
X750Y585D02*
X756Y585D01*
X1071Y585D02*
X1080Y585D01*
X1179Y585D02*
X1186Y585D01*
X0Y584D02*
X7Y584D01*
X686Y584D02*
X692Y584D01*
X700Y584D02*
X707Y584D01*
X750Y584D02*
X756Y584D01*
X1071Y584D02*
X1080Y584D01*
X1179Y584D02*
X1186Y584D01*
X0Y583D02*
X7Y583D01*
X686Y583D02*
X692Y583D01*
X700Y583D02*
X708Y583D01*
X750Y583D02*
X756Y583D01*
X1072Y583D02*
X1079Y583D01*
X1179Y583D02*
X1186Y583D01*
X0Y582D02*
X7Y582D01*
X686Y582D02*
X692Y582D01*
X701Y582D02*
X708Y582D01*
X750Y582D02*
X756Y582D01*
X766Y582D02*
X768Y582D01*
X1073Y582D02*
X1078Y582D01*
X1179Y582D02*
X1186Y582D01*
X0Y581D02*
X7Y581D01*
X686Y581D02*
X692Y581D01*
X702Y581D02*
X709Y581D01*
X750Y581D02*
X756Y581D01*
X765Y581D02*
X769Y581D01*
X1075Y581D02*
X1076Y581D01*
X1179Y581D02*
X1186Y581D01*
X0Y580D02*
X7Y580D01*
X686Y580D02*
X692Y580D01*
X702Y580D02*
X709Y580D01*
X750Y580D02*
X756Y580D01*
X764Y580D02*
X770Y580D01*
X1179Y580D02*
X1186Y580D01*
X0Y579D02*
X7Y579D01*
X686Y579D02*
X692Y579D01*
X703Y579D02*
X710Y579D01*
X750Y579D02*
X756Y579D01*
X764Y579D02*
X770Y579D01*
X1179Y579D02*
X1186Y579D01*
X0Y578D02*
X7Y578D01*
X686Y578D02*
X692Y578D01*
X703Y578D02*
X710Y578D01*
X750Y578D02*
X756Y578D01*
X764Y578D02*
X770Y578D01*
X1179Y578D02*
X1186Y578D01*
X0Y577D02*
X7Y577D01*
X686Y577D02*
X692Y577D01*
X704Y577D02*
X711Y577D01*
X750Y577D02*
X756Y577D01*
X764Y577D02*
X770Y577D01*
X1179Y577D02*
X1186Y577D01*
X0Y576D02*
X7Y576D01*
X686Y576D02*
X692Y576D01*
X704Y576D02*
X712Y576D01*
X750Y576D02*
X756Y576D01*
X764Y576D02*
X770Y576D01*
X1179Y576D02*
X1186Y576D01*
X0Y575D02*
X7Y575D01*
X686Y575D02*
X692Y575D01*
X705Y575D02*
X712Y575D01*
X750Y575D02*
X756Y575D01*
X764Y575D02*
X770Y575D01*
X1179Y575D02*
X1186Y575D01*
X0Y574D02*
X7Y574D01*
X686Y574D02*
X692Y574D01*
X706Y574D02*
X713Y574D01*
X750Y574D02*
X756Y574D01*
X764Y574D02*
X770Y574D01*
X1179Y574D02*
X1186Y574D01*
X0Y573D02*
X7Y573D01*
X686Y573D02*
X692Y573D01*
X706Y573D02*
X713Y573D01*
X750Y573D02*
X756Y573D01*
X764Y573D02*
X770Y573D01*
X1179Y573D02*
X1186Y573D01*
X0Y572D02*
X7Y572D01*
X686Y572D02*
X692Y572D01*
X707Y572D02*
X714Y572D01*
X750Y572D02*
X756Y572D01*
X764Y572D02*
X770Y572D01*
X1179Y572D02*
X1186Y572D01*
X0Y571D02*
X7Y571D01*
X686Y571D02*
X692Y571D01*
X707Y571D02*
X715Y571D01*
X750Y571D02*
X756Y571D01*
X764Y571D02*
X770Y571D01*
X1179Y571D02*
X1186Y571D01*
X0Y570D02*
X7Y570D01*
X686Y570D02*
X692Y570D01*
X708Y570D02*
X715Y570D01*
X750Y570D02*
X756Y570D01*
X764Y570D02*
X770Y570D01*
X1179Y570D02*
X1186Y570D01*
X0Y569D02*
X7Y569D01*
X686Y569D02*
X692Y569D01*
X709Y569D02*
X716Y569D01*
X750Y569D02*
X756Y569D01*
X764Y569D02*
X770Y569D01*
X1179Y569D02*
X1186Y569D01*
X0Y568D02*
X7Y568D01*
X686Y568D02*
X692Y568D01*
X709Y568D02*
X716Y568D01*
X750Y568D02*
X756Y568D01*
X764Y568D02*
X770Y568D01*
X1179Y568D02*
X1186Y568D01*
X0Y567D02*
X7Y567D01*
X686Y567D02*
X692Y567D01*
X710Y567D02*
X717Y567D01*
X750Y567D02*
X756Y567D01*
X764Y567D02*
X770Y567D01*
X1179Y567D02*
X1186Y567D01*
X0Y566D02*
X7Y566D01*
X686Y566D02*
X692Y566D01*
X710Y566D02*
X717Y566D01*
X750Y566D02*
X756Y566D01*
X764Y566D02*
X770Y566D01*
X1179Y566D02*
X1186Y566D01*
X0Y565D02*
X7Y565D01*
X686Y565D02*
X692Y565D01*
X711Y565D02*
X718Y565D01*
X750Y565D02*
X756Y565D01*
X764Y565D02*
X770Y565D01*
X1179Y565D02*
X1186Y565D01*
X0Y564D02*
X7Y564D01*
X686Y564D02*
X692Y564D01*
X711Y564D02*
X719Y564D01*
X738Y564D02*
X770Y564D01*
X1179Y564D02*
X1186Y564D01*
X0Y563D02*
X7Y563D01*
X686Y563D02*
X692Y563D01*
X712Y563D02*
X719Y563D01*
X737Y563D02*
X770Y563D01*
X1179Y563D02*
X1186Y563D01*
X0Y562D02*
X7Y562D01*
X686Y562D02*
X692Y562D01*
X713Y562D02*
X720Y562D01*
X737Y562D02*
X770Y562D01*
X1179Y562D02*
X1186Y562D01*
X0Y561D02*
X7Y561D01*
X686Y561D02*
X692Y561D01*
X713Y561D02*
X720Y561D01*
X737Y561D02*
X770Y561D01*
X1179Y561D02*
X1186Y561D01*
X0Y560D02*
X7Y560D01*
X686Y560D02*
X692Y560D01*
X714Y560D02*
X720Y560D01*
X737Y560D02*
X770Y560D01*
X1179Y560D02*
X1186Y560D01*
X0Y559D02*
X7Y559D01*
X687Y559D02*
X692Y559D01*
X715Y559D02*
X719Y559D01*
X737Y559D02*
X769Y559D01*
X1179Y559D02*
X1186Y559D01*
X0Y558D02*
X7Y558D01*
X688Y558D02*
X690Y558D01*
X716Y558D02*
X718Y558D01*
X738Y558D02*
X768Y558D01*
X1179Y558D02*
X1186Y558D01*
X0Y557D02*
X7Y557D01*
X1179Y557D02*
X1186Y557D01*
X0Y556D02*
X7Y556D01*
X1179Y556D02*
X1186Y556D01*
X0Y555D02*
X7Y555D01*
X1179Y555D02*
X1186Y555D01*
X0Y554D02*
X7Y554D01*
X1179Y554D02*
X1186Y554D01*
X0Y553D02*
X7Y553D01*
X1179Y553D02*
X1186Y553D01*
X0Y552D02*
X7Y552D01*
X1179Y552D02*
X1186Y552D01*
X0Y551D02*
X7Y551D01*
X1064Y551D02*
X1064Y551D01*
X1087Y551D02*
X1111Y551D01*
X1140Y551D02*
X1157Y551D01*
X1179Y551D02*
X1186Y551D01*
X0Y550D02*
X7Y550D01*
X1062Y550D02*
X1066Y550D01*
X1087Y550D02*
X1115Y550D01*
X1138Y550D02*
X1157Y550D01*
X1179Y550D02*
X1186Y550D01*
X0Y549D02*
X7Y549D01*
X1061Y549D02*
X1067Y549D01*
X1087Y549D02*
X1116Y549D01*
X1137Y549D02*
X1157Y549D01*
X1179Y549D02*
X1186Y549D01*
X0Y548D02*
X7Y548D01*
X1061Y548D02*
X1067Y548D01*
X1087Y548D02*
X1117Y548D01*
X1137Y548D02*
X1157Y548D01*
X1179Y548D02*
X1186Y548D01*
X0Y547D02*
X7Y547D01*
X1061Y547D02*
X1067Y547D01*
X1087Y547D02*
X1118Y547D01*
X1137Y547D02*
X1157Y547D01*
X1179Y547D02*
X1186Y547D01*
X0Y546D02*
X7Y546D01*
X1061Y546D02*
X1067Y546D01*
X1087Y546D02*
X1119Y546D01*
X1138Y546D02*
X1157Y546D01*
X1179Y546D02*
X1186Y546D01*
X0Y545D02*
X7Y545D01*
X1061Y545D02*
X1067Y545D01*
X1087Y545D02*
X1120Y545D01*
X1138Y545D02*
X1157Y545D01*
X1179Y545D02*
X1186Y545D01*
X0Y544D02*
X7Y544D01*
X1061Y544D02*
X1067Y544D01*
X1087Y544D02*
X1093Y544D01*
X1112Y544D02*
X1120Y544D01*
X1151Y544D02*
X1157Y544D01*
X1179Y544D02*
X1186Y544D01*
X0Y543D02*
X7Y543D01*
X295Y543D02*
X320Y543D01*
X1061Y543D02*
X1067Y543D01*
X1087Y543D02*
X1093Y543D01*
X1113Y543D02*
X1120Y543D01*
X1151Y543D02*
X1157Y543D01*
X1179Y543D02*
X1186Y543D01*
X0Y542D02*
X7Y542D01*
X292Y542D02*
X321Y542D01*
X1061Y542D02*
X1067Y542D01*
X1087Y542D02*
X1093Y542D01*
X1114Y542D02*
X1120Y542D01*
X1151Y542D02*
X1157Y542D01*
X1179Y542D02*
X1186Y542D01*
X0Y541D02*
X7Y541D01*
X291Y541D02*
X322Y541D01*
X1061Y541D02*
X1067Y541D01*
X1087Y541D02*
X1093Y541D01*
X1114Y541D02*
X1121Y541D01*
X1151Y541D02*
X1157Y541D01*
X1179Y541D02*
X1186Y541D01*
X0Y540D02*
X7Y540D01*
X290Y540D02*
X322Y540D01*
X1061Y540D02*
X1067Y540D01*
X1087Y540D02*
X1093Y540D01*
X1115Y540D02*
X1121Y540D01*
X1151Y540D02*
X1157Y540D01*
X1179Y540D02*
X1186Y540D01*
X0Y539D02*
X7Y539D01*
X288Y539D02*
X322Y539D01*
X1061Y539D02*
X1067Y539D01*
X1087Y539D02*
X1093Y539D01*
X1115Y539D02*
X1121Y539D01*
X1151Y539D02*
X1157Y539D01*
X1179Y539D02*
X1186Y539D01*
X0Y538D02*
X7Y538D01*
X222Y538D02*
X238Y538D01*
X288Y538D02*
X322Y538D01*
X1061Y538D02*
X1067Y538D01*
X1087Y538D02*
X1093Y538D01*
X1115Y538D02*
X1121Y538D01*
X1151Y538D02*
X1157Y538D01*
X1179Y538D02*
X1186Y538D01*
X0Y537D02*
X7Y537D01*
X219Y537D02*
X241Y537D01*
X287Y537D02*
X322Y537D01*
X1061Y537D02*
X1067Y537D01*
X1087Y537D02*
X1093Y537D01*
X1115Y537D02*
X1121Y537D01*
X1151Y537D02*
X1157Y537D01*
X1179Y537D02*
X1186Y537D01*
X0Y536D02*
X7Y536D01*
X218Y536D02*
X241Y536D01*
X286Y536D02*
X321Y536D01*
X1061Y536D02*
X1067Y536D01*
X1087Y536D02*
X1093Y536D01*
X1115Y536D02*
X1121Y536D01*
X1151Y536D02*
X1157Y536D01*
X1179Y536D02*
X1186Y536D01*
X0Y535D02*
X7Y535D01*
X218Y535D02*
X242Y535D01*
X286Y535D02*
X321Y535D01*
X1061Y535D02*
X1067Y535D01*
X1087Y535D02*
X1093Y535D01*
X1115Y535D02*
X1121Y535D01*
X1151Y535D02*
X1157Y535D01*
X1179Y535D02*
X1186Y535D01*
X0Y534D02*
X7Y534D01*
X218Y534D02*
X242Y534D01*
X285Y534D02*
X319Y534D01*
X1061Y534D02*
X1067Y534D01*
X1087Y534D02*
X1093Y534D01*
X1115Y534D02*
X1121Y534D01*
X1151Y534D02*
X1157Y534D01*
X1179Y534D02*
X1186Y534D01*
X0Y533D02*
X7Y533D01*
X218Y533D02*
X242Y533D01*
X285Y533D02*
X296Y533D01*
X1061Y533D02*
X1067Y533D01*
X1087Y533D02*
X1093Y533D01*
X1115Y533D02*
X1121Y533D01*
X1151Y533D02*
X1157Y533D01*
X1179Y533D02*
X1186Y533D01*
X0Y532D02*
X7Y532D01*
X219Y532D02*
X242Y532D01*
X284Y532D02*
X295Y532D01*
X1061Y532D02*
X1067Y532D01*
X1087Y532D02*
X1093Y532D01*
X1115Y532D02*
X1121Y532D01*
X1151Y532D02*
X1157Y532D01*
X1179Y532D02*
X1186Y532D01*
X0Y531D02*
X7Y531D01*
X222Y531D02*
X242Y531D01*
X284Y531D02*
X294Y531D01*
X1061Y531D02*
X1067Y531D01*
X1087Y531D02*
X1093Y531D01*
X1115Y531D02*
X1121Y531D01*
X1151Y531D02*
X1157Y531D01*
X1179Y531D02*
X1186Y531D01*
X0Y530D02*
X7Y530D01*
X236Y530D02*
X242Y530D01*
X283Y530D02*
X294Y530D01*
X1061Y530D02*
X1067Y530D01*
X1087Y530D02*
X1093Y530D01*
X1115Y530D02*
X1121Y530D01*
X1151Y530D02*
X1157Y530D01*
X1179Y530D02*
X1186Y530D01*
X0Y529D02*
X7Y529D01*
X236Y529D02*
X242Y529D01*
X283Y529D02*
X293Y529D01*
X1061Y529D02*
X1067Y529D01*
X1087Y529D02*
X1093Y529D01*
X1115Y529D02*
X1121Y529D01*
X1151Y529D02*
X1157Y529D01*
X1179Y529D02*
X1186Y529D01*
X0Y528D02*
X7Y528D01*
X236Y528D02*
X242Y528D01*
X282Y528D02*
X293Y528D01*
X1061Y528D02*
X1067Y528D01*
X1087Y528D02*
X1093Y528D01*
X1114Y528D02*
X1121Y528D01*
X1151Y528D02*
X1157Y528D01*
X1179Y528D02*
X1186Y528D01*
X0Y527D02*
X7Y527D01*
X236Y527D02*
X242Y527D01*
X282Y527D02*
X292Y527D01*
X972Y527D02*
X1013Y527D01*
X1061Y527D02*
X1067Y527D01*
X1087Y527D02*
X1093Y527D01*
X1114Y527D02*
X1120Y527D01*
X1151Y527D02*
X1157Y527D01*
X1179Y527D02*
X1186Y527D01*
X0Y526D02*
X7Y526D01*
X236Y526D02*
X242Y526D01*
X281Y526D02*
X292Y526D01*
X970Y526D02*
X1015Y526D01*
X1061Y526D02*
X1067Y526D01*
X1087Y526D02*
X1093Y526D01*
X1114Y526D02*
X1120Y526D01*
X1151Y526D02*
X1157Y526D01*
X1179Y526D02*
X1186Y526D01*
X0Y525D02*
X7Y525D01*
X236Y525D02*
X242Y525D01*
X281Y525D02*
X291Y525D01*
X969Y525D02*
X1016Y525D01*
X1061Y525D02*
X1067Y525D01*
X1087Y525D02*
X1093Y525D01*
X1112Y525D02*
X1120Y525D01*
X1151Y525D02*
X1157Y525D01*
X1179Y525D02*
X1186Y525D01*
X0Y524D02*
X7Y524D01*
X189Y524D02*
X242Y524D01*
X280Y524D02*
X291Y524D01*
X968Y524D02*
X1017Y524D01*
X1061Y524D02*
X1067Y524D01*
X1087Y524D02*
X1120Y524D01*
X1151Y524D02*
X1157Y524D01*
X1179Y524D02*
X1186Y524D01*
X0Y523D02*
X7Y523D01*
X189Y523D02*
X242Y523D01*
X280Y523D02*
X290Y523D01*
X968Y523D02*
X1017Y523D01*
X1061Y523D02*
X1067Y523D01*
X1087Y523D02*
X1119Y523D01*
X1151Y523D02*
X1157Y523D01*
X1179Y523D02*
X1186Y523D01*
X0Y522D02*
X7Y522D01*
X189Y522D02*
X242Y522D01*
X279Y522D02*
X290Y522D01*
X968Y522D02*
X1017Y522D01*
X1061Y522D02*
X1067Y522D01*
X1087Y522D02*
X1118Y522D01*
X1151Y522D02*
X1157Y522D01*
X1179Y522D02*
X1186Y522D01*
X0Y521D02*
X7Y521D01*
X189Y521D02*
X242Y521D01*
X279Y521D02*
X289Y521D01*
X968Y521D02*
X1017Y521D01*
X1042Y521D02*
X1045Y521D01*
X1061Y521D02*
X1067Y521D01*
X1087Y521D02*
X1118Y521D01*
X1151Y521D02*
X1157Y521D01*
X1166Y521D02*
X1169Y521D01*
X1179Y521D02*
X1186Y521D01*
X0Y520D02*
X7Y520D01*
X189Y520D02*
X242Y520D01*
X278Y520D02*
X289Y520D01*
X968Y520D02*
X1017Y520D01*
X1041Y520D02*
X1046Y520D01*
X1061Y520D02*
X1067Y520D01*
X1087Y520D02*
X1117Y520D01*
X1151Y520D02*
X1157Y520D01*
X1165Y520D02*
X1170Y520D01*
X1179Y520D02*
X1186Y520D01*
X0Y519D02*
X7Y519D01*
X189Y519D02*
X242Y519D01*
X278Y519D02*
X288Y519D01*
X968Y519D02*
X1017Y519D01*
X1040Y519D02*
X1046Y519D01*
X1061Y519D02*
X1067Y519D01*
X1087Y519D02*
X1115Y519D01*
X1151Y519D02*
X1157Y519D01*
X1165Y519D02*
X1171Y519D01*
X1179Y519D02*
X1186Y519D01*
X0Y518D02*
X7Y518D01*
X189Y518D02*
X242Y518D01*
X277Y518D02*
X288Y518D01*
X968Y518D02*
X1017Y518D01*
X1040Y518D02*
X1046Y518D01*
X1061Y518D02*
X1067Y518D01*
X1087Y518D02*
X1113Y518D01*
X1151Y518D02*
X1157Y518D01*
X1165Y518D02*
X1171Y518D01*
X1179Y518D02*
X1186Y518D01*
X0Y517D02*
X7Y517D01*
X189Y517D02*
X195Y517D01*
X235Y517D02*
X242Y517D01*
X277Y517D02*
X287Y517D01*
X968Y517D02*
X1017Y517D01*
X1040Y517D02*
X1046Y517D01*
X1061Y517D02*
X1067Y517D01*
X1087Y517D02*
X1093Y517D01*
X1151Y517D02*
X1157Y517D01*
X1165Y517D02*
X1171Y517D01*
X1179Y517D02*
X1186Y517D01*
X0Y516D02*
X7Y516D01*
X189Y516D02*
X195Y516D01*
X236Y516D02*
X242Y516D01*
X276Y516D02*
X287Y516D01*
X969Y516D02*
X1016Y516D01*
X1040Y516D02*
X1046Y516D01*
X1061Y516D02*
X1067Y516D01*
X1087Y516D02*
X1093Y516D01*
X1151Y516D02*
X1157Y516D01*
X1165Y516D02*
X1171Y516D01*
X1179Y516D02*
X1186Y516D01*
X0Y515D02*
X7Y515D01*
X189Y515D02*
X195Y515D01*
X236Y515D02*
X242Y515D01*
X276Y515D02*
X286Y515D01*
X969Y515D02*
X1016Y515D01*
X1040Y515D02*
X1046Y515D01*
X1061Y515D02*
X1067Y515D01*
X1087Y515D02*
X1093Y515D01*
X1151Y515D02*
X1157Y515D01*
X1165Y515D02*
X1171Y515D01*
X1179Y515D02*
X1186Y515D01*
X0Y514D02*
X7Y514D01*
X189Y514D02*
X195Y514D01*
X236Y514D02*
X242Y514D01*
X276Y514D02*
X286Y514D01*
X970Y514D02*
X1015Y514D01*
X1040Y514D02*
X1046Y514D01*
X1061Y514D02*
X1067Y514D01*
X1087Y514D02*
X1093Y514D01*
X1151Y514D02*
X1157Y514D01*
X1165Y514D02*
X1171Y514D01*
X1179Y514D02*
X1186Y514D01*
X0Y513D02*
X7Y513D01*
X189Y513D02*
X195Y513D01*
X236Y513D02*
X242Y513D01*
X275Y513D02*
X285Y513D01*
X973Y513D02*
X1012Y513D01*
X1040Y513D02*
X1046Y513D01*
X1061Y513D02*
X1067Y513D01*
X1087Y513D02*
X1093Y513D01*
X1151Y513D02*
X1157Y513D01*
X1165Y513D02*
X1171Y513D01*
X1179Y513D02*
X1186Y513D01*
X0Y512D02*
X7Y512D01*
X189Y512D02*
X195Y512D01*
X236Y512D02*
X242Y512D01*
X275Y512D02*
X285Y512D01*
X543Y512D02*
X609Y512D01*
X810Y512D02*
X857Y512D01*
X1040Y512D02*
X1046Y512D01*
X1061Y512D02*
X1067Y512D01*
X1087Y512D02*
X1093Y512D01*
X1151Y512D02*
X1157Y512D01*
X1165Y512D02*
X1171Y512D01*
X1179Y512D02*
X1186Y512D01*
X0Y511D02*
X7Y511D01*
X189Y511D02*
X195Y511D01*
X236Y511D02*
X242Y511D01*
X275Y511D02*
X284Y511D01*
X543Y511D02*
X609Y511D01*
X810Y511D02*
X857Y511D01*
X1040Y511D02*
X1046Y511D01*
X1061Y511D02*
X1067Y511D01*
X1087Y511D02*
X1093Y511D01*
X1151Y511D02*
X1157Y511D01*
X1165Y511D02*
X1171Y511D01*
X1179Y511D02*
X1186Y511D01*
X0Y510D02*
X7Y510D01*
X189Y510D02*
X195Y510D01*
X236Y510D02*
X242Y510D01*
X274Y510D02*
X284Y510D01*
X543Y510D02*
X609Y510D01*
X810Y510D02*
X857Y510D01*
X1040Y510D02*
X1046Y510D01*
X1061Y510D02*
X1067Y510D01*
X1087Y510D02*
X1093Y510D01*
X1151Y510D02*
X1157Y510D01*
X1165Y510D02*
X1171Y510D01*
X1179Y510D02*
X1186Y510D01*
X0Y509D02*
X7Y509D01*
X189Y509D02*
X195Y509D01*
X236Y509D02*
X242Y509D01*
X274Y509D02*
X283Y509D01*
X543Y509D02*
X609Y509D01*
X810Y509D02*
X857Y509D01*
X1040Y509D02*
X1046Y509D01*
X1061Y509D02*
X1067Y509D01*
X1087Y509D02*
X1093Y509D01*
X1151Y509D02*
X1157Y509D01*
X1165Y509D02*
X1171Y509D01*
X1179Y509D02*
X1186Y509D01*
X0Y508D02*
X7Y508D01*
X189Y508D02*
X195Y508D01*
X236Y508D02*
X242Y508D01*
X274Y508D02*
X283Y508D01*
X543Y508D02*
X609Y508D01*
X810Y508D02*
X857Y508D01*
X1040Y508D02*
X1046Y508D01*
X1061Y508D02*
X1067Y508D01*
X1087Y508D02*
X1093Y508D01*
X1151Y508D02*
X1157Y508D01*
X1165Y508D02*
X1171Y508D01*
X1179Y508D02*
X1186Y508D01*
X0Y507D02*
X7Y507D01*
X189Y507D02*
X195Y507D01*
X236Y507D02*
X242Y507D01*
X274Y507D02*
X283Y507D01*
X543Y507D02*
X609Y507D01*
X810Y507D02*
X857Y507D01*
X1040Y507D02*
X1046Y507D01*
X1061Y507D02*
X1067Y507D01*
X1087Y507D02*
X1093Y507D01*
X1151Y507D02*
X1157Y507D01*
X1165Y507D02*
X1171Y507D01*
X1179Y507D02*
X1186Y507D01*
X0Y506D02*
X7Y506D01*
X189Y506D02*
X194Y506D01*
X236Y506D02*
X242Y506D01*
X274Y506D02*
X283Y506D01*
X543Y506D02*
X609Y506D01*
X810Y506D02*
X857Y506D01*
X1040Y506D02*
X1047Y506D01*
X1060Y506D02*
X1067Y506D01*
X1087Y506D02*
X1093Y506D01*
X1151Y506D02*
X1157Y506D01*
X1165Y506D02*
X1171Y506D01*
X1179Y506D02*
X1186Y506D01*
X0Y505D02*
X7Y505D01*
X189Y505D02*
X194Y505D01*
X236Y505D02*
X241Y505D01*
X274Y505D02*
X283Y505D01*
X543Y505D02*
X609Y505D01*
X810Y505D02*
X857Y505D01*
X1041Y505D02*
X1047Y505D01*
X1060Y505D02*
X1067Y505D01*
X1087Y505D02*
X1093Y505D01*
X1151Y505D02*
X1157Y505D01*
X1165Y505D02*
X1171Y505D01*
X1179Y505D02*
X1186Y505D01*
X0Y504D02*
X7Y504D01*
X190Y504D02*
X193Y504D01*
X237Y504D02*
X240Y504D01*
X274Y504D02*
X283Y504D01*
X543Y504D02*
X609Y504D01*
X810Y504D02*
X857Y504D01*
X1041Y504D02*
X1050Y504D01*
X1057Y504D02*
X1066Y504D01*
X1087Y504D02*
X1093Y504D01*
X1150Y504D02*
X1157Y504D01*
X1164Y504D02*
X1171Y504D01*
X1179Y504D02*
X1186Y504D01*
X0Y503D02*
X7Y503D01*
X274Y503D02*
X283Y503D01*
X543Y503D02*
X609Y503D01*
X810Y503D02*
X858Y503D01*
X1041Y503D02*
X1066Y503D01*
X1087Y503D02*
X1093Y503D01*
X1138Y503D02*
X1171Y503D01*
X1179Y503D02*
X1186Y503D01*
X0Y502D02*
X7Y502D01*
X274Y502D02*
X283Y502D01*
X1042Y502D02*
X1065Y502D01*
X1087Y502D02*
X1093Y502D01*
X1138Y502D02*
X1171Y502D01*
X1179Y502D02*
X1186Y502D01*
X0Y501D02*
X7Y501D01*
X274Y501D02*
X283Y501D01*
X1043Y501D02*
X1065Y501D01*
X1087Y501D02*
X1093Y501D01*
X1137Y501D02*
X1171Y501D01*
X1179Y501D02*
X1186Y501D01*
X0Y500D02*
X7Y500D01*
X274Y500D02*
X284Y500D01*
X1043Y500D02*
X1064Y500D01*
X1087Y500D02*
X1093Y500D01*
X1137Y500D02*
X1171Y500D01*
X1179Y500D02*
X1186Y500D01*
X0Y499D02*
X7Y499D01*
X274Y499D02*
X284Y499D01*
X1045Y499D02*
X1062Y499D01*
X1087Y499D02*
X1093Y499D01*
X1138Y499D02*
X1170Y499D01*
X1179Y499D02*
X1186Y499D01*
X0Y498D02*
X7Y498D01*
X275Y498D02*
X285Y498D01*
X1046Y498D02*
X1061Y498D01*
X1088Y498D02*
X1092Y498D01*
X1138Y498D02*
X1170Y498D01*
X1179Y498D02*
X1186Y498D01*
X0Y497D02*
X7Y497D01*
X275Y497D02*
X285Y497D01*
X1050Y497D02*
X1057Y497D01*
X1141Y497D02*
X1167Y497D01*
X1179Y497D02*
X1186Y497D01*
X0Y496D02*
X7Y496D01*
X275Y496D02*
X286Y496D01*
X1179Y496D02*
X1186Y496D01*
X0Y495D02*
X7Y495D01*
X276Y495D02*
X286Y495D01*
X1179Y495D02*
X1186Y495D01*
X0Y494D02*
X7Y494D01*
X276Y494D02*
X287Y494D01*
X1179Y494D02*
X1186Y494D01*
X0Y493D02*
X7Y493D01*
X277Y493D02*
X287Y493D01*
X1179Y493D02*
X1186Y493D01*
X0Y492D02*
X7Y492D01*
X277Y492D02*
X288Y492D01*
X1179Y492D02*
X1186Y492D01*
X0Y491D02*
X7Y491D01*
X278Y491D02*
X288Y491D01*
X1179Y491D02*
X1186Y491D01*
X0Y490D02*
X7Y490D01*
X278Y490D02*
X289Y490D01*
X0Y489D02*
X7Y489D01*
X279Y489D02*
X289Y489D01*
X0Y488D02*
X7Y488D01*
X279Y488D02*
X290Y488D01*
X0Y487D02*
X7Y487D01*
X194Y487D02*
X220Y487D01*
X237Y487D02*
X240Y487D01*
X280Y487D02*
X290Y487D01*
X0Y486D02*
X7Y486D01*
X192Y486D02*
X222Y486D01*
X236Y486D02*
X241Y486D01*
X280Y486D02*
X291Y486D01*
X0Y485D02*
X7Y485D01*
X191Y485D02*
X224Y485D01*
X236Y485D02*
X242Y485D01*
X281Y485D02*
X291Y485D01*
X0Y484D02*
X7Y484D01*
X190Y484D02*
X225Y484D01*
X236Y484D02*
X242Y484D01*
X281Y484D02*
X292Y484D01*
X0Y483D02*
X7Y483D01*
X189Y483D02*
X226Y483D01*
X236Y483D02*
X242Y483D01*
X282Y483D02*
X292Y483D01*
X0Y482D02*
X7Y482D01*
X189Y482D02*
X227Y482D01*
X236Y482D02*
X242Y482D01*
X282Y482D02*
X293Y482D01*
X1179Y482D02*
X1186Y482D01*
X0Y481D02*
X7Y481D01*
X189Y481D02*
X228Y481D01*
X236Y481D02*
X242Y481D01*
X283Y481D02*
X293Y481D01*
X1179Y481D02*
X1186Y481D01*
X0Y480D02*
X7Y480D01*
X189Y480D02*
X195Y480D01*
X220Y480D02*
X229Y480D01*
X236Y480D02*
X242Y480D01*
X283Y480D02*
X294Y480D01*
X1179Y480D02*
X1186Y480D01*
X0Y479D02*
X7Y479D01*
X189Y479D02*
X195Y479D01*
X221Y479D02*
X230Y479D01*
X234Y479D02*
X242Y479D01*
X284Y479D02*
X294Y479D01*
X1179Y479D02*
X1186Y479D01*
X0Y478D02*
X7Y478D01*
X189Y478D02*
X195Y478D01*
X222Y478D02*
X242Y478D01*
X284Y478D02*
X295Y478D01*
X1179Y478D02*
X1186Y478D01*
X0Y477D02*
X7Y477D01*
X189Y477D02*
X196Y477D01*
X223Y477D02*
X242Y477D01*
X285Y477D02*
X296Y477D01*
X1179Y477D02*
X1186Y477D01*
X0Y476D02*
X7Y476D01*
X189Y476D02*
X197Y476D01*
X224Y476D02*
X242Y476D01*
X285Y476D02*
X298Y476D01*
X1179Y476D02*
X1186Y476D01*
X0Y475D02*
X7Y475D01*
X190Y475D02*
X198Y475D01*
X223Y475D02*
X241Y475D01*
X286Y475D02*
X320Y475D01*
X1179Y475D02*
X1186Y475D01*
X0Y474D02*
X7Y474D01*
X190Y474D02*
X199Y474D01*
X221Y474D02*
X239Y474D01*
X286Y474D02*
X321Y474D01*
X1179Y474D02*
X1186Y474D01*
X0Y473D02*
X7Y473D01*
X191Y473D02*
X199Y473D01*
X219Y473D02*
X237Y473D01*
X287Y473D02*
X322Y473D01*
X1179Y473D02*
X1186Y473D01*
X0Y472D02*
X7Y472D01*
X192Y472D02*
X200Y472D01*
X218Y472D02*
X236Y472D01*
X288Y472D02*
X322Y472D01*
X1179Y472D02*
X1186Y472D01*
X0Y471D02*
X7Y471D01*
X193Y471D02*
X201Y471D01*
X218Y471D02*
X236Y471D01*
X288Y471D02*
X322Y471D01*
X1179Y471D02*
X1186Y471D01*
X0Y470D02*
X7Y470D01*
X194Y470D02*
X202Y470D01*
X218Y470D02*
X237Y470D01*
X290Y470D02*
X322Y470D01*
X1179Y470D02*
X1186Y470D01*
X0Y469D02*
X7Y469D01*
X195Y469D02*
X203Y469D01*
X218Y469D02*
X226Y469D01*
X230Y469D02*
X238Y469D01*
X291Y469D02*
X322Y469D01*
X1179Y469D02*
X1186Y469D01*
X0Y468D02*
X7Y468D01*
X195Y468D02*
X204Y468D01*
X219Y468D02*
X224Y468D01*
X231Y468D02*
X239Y468D01*
X292Y468D02*
X321Y468D01*
X1179Y468D02*
X1186Y468D01*
X0Y467D02*
X7Y467D01*
X196Y467D02*
X204Y467D01*
X232Y467D02*
X240Y467D01*
X294Y467D02*
X320Y467D01*
X1179Y467D02*
X1186Y467D01*
X0Y466D02*
X7Y466D01*
X197Y466D02*
X205Y466D01*
X232Y466D02*
X240Y466D01*
X297Y466D02*
X318Y466D01*
X1179Y466D02*
X1186Y466D01*
X0Y465D02*
X7Y465D01*
X198Y465D02*
X206Y465D01*
X233Y465D02*
X241Y465D01*
X1179Y465D02*
X1186Y465D01*
X0Y464D02*
X7Y464D01*
X199Y464D02*
X207Y464D01*
X234Y464D02*
X241Y464D01*
X1179Y464D02*
X1186Y464D01*
X0Y463D02*
X7Y463D01*
X200Y463D02*
X208Y463D01*
X235Y463D02*
X242Y463D01*
X1179Y463D02*
X1186Y463D01*
X0Y462D02*
X7Y462D01*
X201Y462D02*
X209Y462D01*
X236Y462D02*
X242Y462D01*
X1179Y462D02*
X1186Y462D01*
X0Y461D02*
X7Y461D01*
X201Y461D02*
X210Y461D01*
X235Y461D02*
X242Y461D01*
X1179Y461D02*
X1186Y461D01*
X0Y460D02*
X7Y460D01*
X202Y460D02*
X242Y460D01*
X1179Y460D02*
X1186Y460D01*
X0Y459D02*
X7Y459D01*
X203Y459D02*
X241Y459D01*
X1179Y459D02*
X1186Y459D01*
X0Y458D02*
X7Y458D01*
X204Y458D02*
X241Y458D01*
X1179Y458D02*
X1186Y458D01*
X0Y457D02*
X7Y457D01*
X205Y457D02*
X240Y457D01*
X1179Y457D02*
X1186Y457D01*
X0Y456D02*
X7Y456D01*
X206Y456D02*
X239Y456D01*
X1179Y456D02*
X1186Y456D01*
X0Y455D02*
X7Y455D01*
X208Y455D02*
X238Y455D01*
X1179Y455D02*
X1186Y455D01*
X0Y454D02*
X7Y454D01*
X210Y454D02*
X237Y454D01*
X1179Y454D02*
X1186Y454D01*
X0Y453D02*
X7Y453D01*
X1179Y453D02*
X1186Y453D01*
X0Y452D02*
X7Y452D01*
X1114Y452D02*
X1136Y452D01*
X1179Y452D02*
X1186Y452D01*
X0Y451D02*
X7Y451D01*
X1112Y451D02*
X1137Y451D01*
X1179Y451D02*
X1186Y451D01*
X0Y450D02*
X7Y450D01*
X1110Y450D02*
X1138Y450D01*
X1179Y450D02*
X1186Y450D01*
X0Y449D02*
X7Y449D01*
X1109Y449D02*
X1138Y449D01*
X1179Y449D02*
X1186Y449D01*
X0Y448D02*
X7Y448D01*
X1108Y448D02*
X1138Y448D01*
X1179Y448D02*
X1186Y448D01*
X0Y447D02*
X7Y447D01*
X1107Y447D02*
X1138Y447D01*
X1179Y447D02*
X1186Y447D01*
X0Y446D02*
X7Y446D01*
X1106Y446D02*
X1138Y446D01*
X1179Y446D02*
X1186Y446D01*
X0Y445D02*
X7Y445D01*
X270Y445D02*
X271Y445D01*
X330Y445D02*
X331Y445D01*
X1105Y445D02*
X1137Y445D01*
X1179Y445D02*
X1186Y445D01*
X0Y444D02*
X7Y444D01*
X269Y444D02*
X272Y444D01*
X329Y444D02*
X332Y444D01*
X1105Y444D02*
X1136Y444D01*
X1179Y444D02*
X1186Y444D01*
X0Y443D02*
X7Y443D01*
X268Y443D02*
X272Y443D01*
X328Y443D02*
X332Y443D01*
X1104Y443D02*
X1134Y443D01*
X1179Y443D02*
X1186Y443D01*
X0Y442D02*
X7Y442D01*
X268Y442D02*
X272Y442D01*
X328Y442D02*
X332Y442D01*
X1103Y442D02*
X1115Y442D01*
X1179Y442D02*
X1186Y442D01*
X0Y441D02*
X7Y441D01*
X268Y441D02*
X272Y441D01*
X328Y441D02*
X332Y441D01*
X1102Y441D02*
X1114Y441D01*
X1179Y441D02*
X1186Y441D01*
X0Y440D02*
X7Y440D01*
X268Y440D02*
X272Y440D01*
X328Y440D02*
X332Y440D01*
X1102Y440D02*
X1113Y440D01*
X1179Y440D02*
X1186Y440D01*
X0Y439D02*
X7Y439D01*
X268Y439D02*
X272Y439D01*
X328Y439D02*
X332Y439D01*
X1101Y439D02*
X1113Y439D01*
X1179Y439D02*
X1186Y439D01*
X0Y438D02*
X7Y438D01*
X268Y438D02*
X272Y438D01*
X328Y438D02*
X332Y438D01*
X1100Y438D02*
X1112Y438D01*
X1179Y438D02*
X1186Y438D01*
X0Y437D02*
X7Y437D01*
X268Y437D02*
X272Y437D01*
X328Y437D02*
X332Y437D01*
X1099Y437D02*
X1111Y437D01*
X1179Y437D02*
X1186Y437D01*
X0Y436D02*
X7Y436D01*
X268Y436D02*
X272Y436D01*
X328Y436D02*
X332Y436D01*
X1099Y436D02*
X1110Y436D01*
X1179Y436D02*
X1186Y436D01*
X0Y435D02*
X7Y435D01*
X268Y435D02*
X272Y435D01*
X328Y435D02*
X332Y435D01*
X1098Y435D02*
X1110Y435D01*
X1179Y435D02*
X1186Y435D01*
X0Y434D02*
X7Y434D01*
X268Y434D02*
X272Y434D01*
X328Y434D02*
X332Y434D01*
X1097Y434D02*
X1109Y434D01*
X1179Y434D02*
X1186Y434D01*
X0Y433D02*
X7Y433D01*
X268Y433D02*
X272Y433D01*
X328Y433D02*
X332Y433D01*
X1096Y433D02*
X1108Y433D01*
X1179Y433D02*
X1186Y433D01*
X0Y432D02*
X7Y432D01*
X268Y432D02*
X272Y432D01*
X328Y432D02*
X332Y432D01*
X1095Y432D02*
X1107Y432D01*
X1179Y432D02*
X1186Y432D01*
X0Y431D02*
X7Y431D01*
X268Y431D02*
X272Y431D01*
X328Y431D02*
X332Y431D01*
X1095Y431D02*
X1106Y431D01*
X1179Y431D02*
X1186Y431D01*
X0Y430D02*
X7Y430D01*
X268Y430D02*
X272Y430D01*
X328Y430D02*
X332Y430D01*
X1094Y430D02*
X1106Y430D01*
X1179Y430D02*
X1186Y430D01*
X0Y429D02*
X7Y429D01*
X268Y429D02*
X272Y429D01*
X328Y429D02*
X332Y429D01*
X1093Y429D02*
X1105Y429D01*
X1179Y429D02*
X1186Y429D01*
X0Y428D02*
X7Y428D01*
X268Y428D02*
X272Y428D01*
X328Y428D02*
X332Y428D01*
X1093Y428D02*
X1104Y428D01*
X1179Y428D02*
X1186Y428D01*
X0Y427D02*
X7Y427D01*
X268Y427D02*
X272Y427D01*
X328Y427D02*
X332Y427D01*
X1092Y427D02*
X1103Y427D01*
X1179Y427D02*
X1186Y427D01*
X0Y426D02*
X7Y426D01*
X268Y426D02*
X272Y426D01*
X328Y426D02*
X332Y426D01*
X1091Y426D02*
X1103Y426D01*
X1179Y426D02*
X1186Y426D01*
X0Y425D02*
X7Y425D01*
X268Y425D02*
X272Y425D01*
X328Y425D02*
X332Y425D01*
X1091Y425D02*
X1102Y425D01*
X1179Y425D02*
X1186Y425D01*
X0Y424D02*
X7Y424D01*
X268Y424D02*
X272Y424D01*
X328Y424D02*
X332Y424D01*
X1090Y424D02*
X1101Y424D01*
X1179Y424D02*
X1186Y424D01*
X0Y423D02*
X7Y423D01*
X268Y423D02*
X272Y423D01*
X328Y423D02*
X332Y423D01*
X1090Y423D02*
X1100Y423D01*
X1179Y423D02*
X1186Y423D01*
X0Y422D02*
X7Y422D01*
X268Y422D02*
X272Y422D01*
X328Y422D02*
X332Y422D01*
X1090Y422D02*
X1100Y422D01*
X1179Y422D02*
X1186Y422D01*
X0Y421D02*
X7Y421D01*
X268Y421D02*
X272Y421D01*
X328Y421D02*
X332Y421D01*
X1090Y421D02*
X1099Y421D01*
X1179Y421D02*
X1186Y421D01*
X0Y420D02*
X7Y420D01*
X268Y420D02*
X272Y420D01*
X329Y420D02*
X332Y420D01*
X1090Y420D02*
X1099Y420D01*
X1179Y420D02*
X1186Y420D01*
X0Y419D02*
X7Y419D01*
X268Y419D02*
X271Y419D01*
X329Y419D02*
X332Y419D01*
X1089Y419D02*
X1099Y419D01*
X1179Y419D02*
X1186Y419D01*
X0Y418D02*
X7Y418D01*
X268Y418D02*
X271Y418D01*
X330Y418D02*
X332Y418D01*
X1089Y418D02*
X1099Y418D01*
X1179Y418D02*
X1186Y418D01*
X0Y417D02*
X7Y417D01*
X268Y417D02*
X271Y417D01*
X330Y417D02*
X332Y417D01*
X1089Y417D02*
X1098Y417D01*
X1179Y417D02*
X1186Y417D01*
X0Y416D02*
X7Y416D01*
X268Y416D02*
X270Y416D01*
X330Y416D02*
X332Y416D01*
X1089Y416D02*
X1098Y416D01*
X1179Y416D02*
X1186Y416D01*
X0Y415D02*
X7Y415D01*
X268Y415D02*
X270Y415D01*
X331Y415D02*
X332Y415D01*
X1089Y415D02*
X1098Y415D01*
X1179Y415D02*
X1186Y415D01*
X0Y414D02*
X7Y414D01*
X268Y414D02*
X270Y414D01*
X331Y414D02*
X332Y414D01*
X1089Y414D02*
X1098Y414D01*
X1179Y414D02*
X1186Y414D01*
X0Y413D02*
X7Y413D01*
X268Y413D02*
X270Y413D01*
X331Y413D02*
X332Y413D01*
X1089Y413D02*
X1098Y413D01*
X1179Y413D02*
X1186Y413D01*
X0Y412D02*
X7Y412D01*
X268Y412D02*
X270Y412D01*
X331Y412D02*
X332Y412D01*
X1089Y412D02*
X1098Y412D01*
X1179Y412D02*
X1186Y412D01*
X0Y411D02*
X7Y411D01*
X268Y411D02*
X269Y411D01*
X331Y411D02*
X332Y411D01*
X1089Y411D02*
X1098Y411D01*
X1179Y411D02*
X1186Y411D01*
X0Y410D02*
X7Y410D01*
X268Y410D02*
X269Y410D01*
X331Y410D02*
X332Y410D01*
X1089Y410D02*
X1098Y410D01*
X1117Y410D02*
X1138Y410D01*
X1179Y410D02*
X1186Y410D01*
X0Y409D02*
X7Y409D01*
X268Y409D02*
X269Y409D01*
X332Y409D02*
X332Y409D01*
X1089Y409D02*
X1098Y409D01*
X1116Y409D02*
X1138Y409D01*
X1179Y409D02*
X1186Y409D01*
X0Y408D02*
X7Y408D01*
X268Y408D02*
X269Y408D01*
X332Y408D02*
X332Y408D01*
X1089Y408D02*
X1098Y408D01*
X1115Y408D02*
X1138Y408D01*
X1179Y408D02*
X1186Y408D01*
X0Y407D02*
X7Y407D01*
X268Y407D02*
X269Y407D01*
X332Y407D02*
X332Y407D01*
X1089Y407D02*
X1098Y407D01*
X1114Y407D02*
X1138Y407D01*
X1179Y407D02*
X1186Y407D01*
X0Y406D02*
X7Y406D01*
X268Y406D02*
X269Y406D01*
X331Y406D02*
X332Y406D01*
X1089Y406D02*
X1098Y406D01*
X1114Y406D02*
X1138Y406D01*
X1179Y406D02*
X1186Y406D01*
X0Y405D02*
X7Y405D01*
X268Y405D02*
X269Y405D01*
X331Y405D02*
X332Y405D01*
X1089Y405D02*
X1098Y405D01*
X1114Y405D02*
X1138Y405D01*
X1179Y405D02*
X1186Y405D01*
X0Y404D02*
X7Y404D01*
X268Y404D02*
X269Y404D01*
X331Y404D02*
X332Y404D01*
X1089Y404D02*
X1098Y404D01*
X1114Y404D02*
X1138Y404D01*
X1179Y404D02*
X1186Y404D01*
X0Y403D02*
X7Y403D01*
X268Y403D02*
X270Y403D01*
X331Y403D02*
X332Y403D01*
X1089Y403D02*
X1098Y403D01*
X1115Y403D02*
X1138Y403D01*
X1179Y403D02*
X1186Y403D01*
X0Y402D02*
X7Y402D01*
X268Y402D02*
X270Y402D01*
X331Y402D02*
X332Y402D01*
X1089Y402D02*
X1098Y402D01*
X1116Y402D02*
X1138Y402D01*
X1179Y402D02*
X1186Y402D01*
X0Y401D02*
X7Y401D01*
X268Y401D02*
X270Y401D01*
X331Y401D02*
X332Y401D01*
X1089Y401D02*
X1098Y401D01*
X1117Y401D02*
X1138Y401D01*
X1179Y401D02*
X1186Y401D01*
X0Y400D02*
X7Y400D01*
X268Y400D02*
X270Y400D01*
X330Y400D02*
X332Y400D01*
X1089Y400D02*
X1098Y400D01*
X1129Y400D02*
X1138Y400D01*
X1179Y400D02*
X1186Y400D01*
X0Y399D02*
X7Y399D01*
X268Y399D02*
X271Y399D01*
X330Y399D02*
X332Y399D01*
X1089Y399D02*
X1098Y399D01*
X1129Y399D02*
X1138Y399D01*
X1179Y399D02*
X1186Y399D01*
X0Y398D02*
X7Y398D01*
X268Y398D02*
X271Y398D01*
X330Y398D02*
X332Y398D01*
X1089Y398D02*
X1098Y398D01*
X1129Y398D02*
X1138Y398D01*
X1179Y398D02*
X1186Y398D01*
X0Y397D02*
X7Y397D01*
X268Y397D02*
X271Y397D01*
X329Y397D02*
X332Y397D01*
X1089Y397D02*
X1098Y397D01*
X1129Y397D02*
X1138Y397D01*
X1179Y397D02*
X1186Y397D01*
X0Y396D02*
X7Y396D01*
X268Y396D02*
X272Y396D01*
X329Y396D02*
X332Y396D01*
X1089Y396D02*
X1098Y396D01*
X1129Y396D02*
X1138Y396D01*
X1179Y396D02*
X1186Y396D01*
X0Y395D02*
X7Y395D01*
X268Y395D02*
X272Y395D01*
X329Y395D02*
X332Y395D01*
X1089Y395D02*
X1098Y395D01*
X1129Y395D02*
X1138Y395D01*
X1179Y395D02*
X1186Y395D01*
X0Y394D02*
X7Y394D01*
X268Y394D02*
X272Y394D01*
X328Y394D02*
X332Y394D01*
X1089Y394D02*
X1098Y394D01*
X1129Y394D02*
X1138Y394D01*
X1179Y394D02*
X1186Y394D01*
X0Y393D02*
X7Y393D01*
X268Y393D02*
X272Y393D01*
X328Y393D02*
X332Y393D01*
X1089Y393D02*
X1098Y393D01*
X1129Y393D02*
X1138Y393D01*
X1179Y393D02*
X1186Y393D01*
X0Y392D02*
X7Y392D01*
X268Y392D02*
X272Y392D01*
X328Y392D02*
X332Y392D01*
X1089Y392D02*
X1098Y392D01*
X1129Y392D02*
X1138Y392D01*
X1179Y392D02*
X1186Y392D01*
X0Y391D02*
X7Y391D01*
X268Y391D02*
X272Y391D01*
X328Y391D02*
X332Y391D01*
X1089Y391D02*
X1098Y391D01*
X1129Y391D02*
X1138Y391D01*
X1179Y391D02*
X1186Y391D01*
X0Y390D02*
X7Y390D01*
X268Y390D02*
X272Y390D01*
X328Y390D02*
X335Y390D01*
X1089Y390D02*
X1098Y390D01*
X1129Y390D02*
X1138Y390D01*
X1179Y390D02*
X1186Y390D01*
X0Y389D02*
X7Y389D01*
X268Y389D02*
X272Y389D01*
X328Y389D02*
X339Y389D01*
X1089Y389D02*
X1099Y389D01*
X1129Y389D02*
X1138Y389D01*
X1179Y389D02*
X1186Y389D01*
X0Y388D02*
X7Y388D01*
X268Y388D02*
X272Y388D01*
X328Y388D02*
X342Y388D01*
X1090Y388D02*
X1099Y388D01*
X1128Y388D02*
X1138Y388D01*
X1179Y388D02*
X1186Y388D01*
X0Y387D02*
X7Y387D01*
X268Y387D02*
X272Y387D01*
X329Y387D02*
X344Y387D01*
X1090Y387D02*
X1100Y387D01*
X1128Y387D02*
X1138Y387D01*
X1179Y387D02*
X1186Y387D01*
X0Y386D02*
X7Y386D01*
X92Y386D02*
X117Y386D01*
X268Y386D02*
X272Y386D01*
X329Y386D02*
X346Y386D01*
X1090Y386D02*
X1101Y386D01*
X1127Y386D02*
X1137Y386D01*
X1179Y386D02*
X1186Y386D01*
X0Y385D02*
X7Y385D01*
X92Y385D02*
X119Y385D01*
X268Y385D02*
X272Y385D01*
X335Y385D02*
X347Y385D01*
X1090Y385D02*
X1137Y385D01*
X1179Y385D02*
X1186Y385D01*
X0Y384D02*
X7Y384D01*
X92Y384D02*
X120Y384D01*
X268Y384D02*
X272Y384D01*
X340Y384D02*
X349Y384D01*
X1091Y384D02*
X1137Y384D01*
X1179Y384D02*
X1186Y384D01*
X0Y383D02*
X7Y383D01*
X92Y383D02*
X121Y383D01*
X268Y383D02*
X272Y383D01*
X342Y383D02*
X350Y383D01*
X1091Y383D02*
X1136Y383D01*
X1179Y383D02*
X1186Y383D01*
X0Y382D02*
X7Y382D01*
X92Y382D02*
X122Y382D01*
X268Y382D02*
X272Y382D01*
X344Y382D02*
X351Y382D01*
X1092Y382D02*
X1136Y382D01*
X1179Y382D02*
X1186Y382D01*
X0Y381D02*
X7Y381D01*
X92Y381D02*
X123Y381D01*
X268Y381D02*
X272Y381D01*
X346Y381D02*
X352Y381D01*
X1092Y381D02*
X1135Y381D01*
X1179Y381D02*
X1186Y381D01*
X0Y380D02*
X7Y380D01*
X92Y380D02*
X124Y380D01*
X268Y380D02*
X272Y380D01*
X347Y380D02*
X353Y380D01*
X1093Y380D02*
X1134Y380D01*
X1179Y380D02*
X1186Y380D01*
X0Y379D02*
X7Y379D01*
X92Y379D02*
X98Y379D01*
X116Y379D02*
X124Y379D01*
X268Y379D02*
X272Y379D01*
X349Y379D02*
X354Y379D01*
X1094Y379D02*
X1133Y379D01*
X1179Y379D02*
X1186Y379D01*
X0Y378D02*
X7Y378D01*
X92Y378D02*
X98Y378D01*
X117Y378D02*
X125Y378D01*
X268Y378D02*
X272Y378D01*
X350Y378D02*
X355Y378D01*
X1095Y378D02*
X1132Y378D01*
X1179Y378D02*
X1186Y378D01*
X0Y377D02*
X7Y377D01*
X92Y377D02*
X98Y377D01*
X118Y377D02*
X125Y377D01*
X268Y377D02*
X272Y377D01*
X351Y377D02*
X356Y377D01*
X1097Y377D02*
X1130Y377D01*
X1179Y377D02*
X1186Y377D01*
X0Y376D02*
X7Y376D01*
X92Y376D02*
X98Y376D01*
X119Y376D02*
X126Y376D01*
X268Y376D02*
X272Y376D01*
X352Y376D02*
X357Y376D01*
X1099Y376D02*
X1128Y376D01*
X1179Y376D02*
X1186Y376D01*
X0Y375D02*
X7Y375D01*
X92Y375D02*
X98Y375D01*
X119Y375D02*
X126Y375D01*
X268Y375D02*
X272Y375D01*
X352Y375D02*
X357Y375D01*
X1104Y375D02*
X1123Y375D01*
X1179Y375D02*
X1186Y375D01*
X0Y374D02*
X7Y374D01*
X92Y374D02*
X98Y374D01*
X120Y374D02*
X126Y374D01*
X268Y374D02*
X272Y374D01*
X353Y374D02*
X358Y374D01*
X1179Y374D02*
X1186Y374D01*
X0Y373D02*
X7Y373D01*
X92Y373D02*
X98Y373D01*
X120Y373D02*
X126Y373D01*
X268Y373D02*
X272Y373D01*
X354Y373D02*
X358Y373D01*
X1179Y373D02*
X1186Y373D01*
X0Y372D02*
X7Y372D01*
X92Y372D02*
X98Y372D01*
X120Y372D02*
X126Y372D01*
X268Y372D02*
X272Y372D01*
X355Y372D02*
X359Y372D01*
X1179Y372D02*
X1186Y372D01*
X0Y371D02*
X7Y371D01*
X92Y371D02*
X98Y371D01*
X120Y371D02*
X126Y371D01*
X268Y371D02*
X272Y371D01*
X355Y371D02*
X359Y371D01*
X1179Y371D02*
X1186Y371D01*
X0Y370D02*
X7Y370D01*
X92Y370D02*
X98Y370D01*
X120Y370D02*
X126Y370D01*
X268Y370D02*
X272Y370D01*
X356Y370D02*
X360Y370D01*
X1179Y370D02*
X1186Y370D01*
X0Y369D02*
X7Y369D01*
X92Y369D02*
X98Y369D01*
X120Y369D02*
X126Y369D01*
X268Y369D02*
X272Y369D01*
X356Y369D02*
X360Y369D01*
X1179Y369D02*
X1186Y369D01*
X0Y368D02*
X7Y368D01*
X92Y368D02*
X98Y368D01*
X119Y368D02*
X126Y368D01*
X268Y368D02*
X272Y368D01*
X356Y368D02*
X361Y368D01*
X1179Y368D02*
X1186Y368D01*
X0Y367D02*
X7Y367D01*
X92Y367D02*
X98Y367D01*
X119Y367D02*
X125Y367D01*
X268Y367D02*
X272Y367D01*
X357Y367D02*
X361Y367D01*
X1179Y367D02*
X1186Y367D01*
X0Y366D02*
X7Y366D01*
X92Y366D02*
X98Y366D01*
X118Y366D02*
X125Y366D01*
X268Y366D02*
X272Y366D01*
X357Y366D02*
X361Y366D01*
X1179Y366D02*
X1186Y366D01*
X0Y365D02*
X7Y365D01*
X92Y365D02*
X98Y365D01*
X117Y365D02*
X125Y365D01*
X268Y365D02*
X272Y365D01*
X357Y365D02*
X361Y365D01*
X782Y365D02*
X826Y365D01*
X1179Y365D02*
X1186Y365D01*
X0Y364D02*
X7Y364D01*
X92Y364D02*
X98Y364D01*
X116Y364D02*
X124Y364D01*
X268Y364D02*
X272Y364D01*
X358Y364D02*
X362Y364D01*
X781Y364D02*
X827Y364D01*
X1179Y364D02*
X1186Y364D01*
X0Y363D02*
X7Y363D01*
X92Y363D02*
X124Y363D01*
X268Y363D02*
X272Y363D01*
X358Y363D02*
X362Y363D01*
X780Y363D02*
X828Y363D01*
X1179Y363D02*
X1186Y363D01*
X0Y362D02*
X7Y362D01*
X92Y362D02*
X123Y362D01*
X268Y362D02*
X272Y362D01*
X358Y362D02*
X362Y362D01*
X687Y362D02*
X713Y362D01*
X780Y362D02*
X828Y362D01*
X1092Y362D02*
X1095Y362D01*
X1132Y362D02*
X1135Y362D01*
X1179Y362D02*
X1186Y362D01*
X0Y361D02*
X7Y361D01*
X92Y361D02*
X122Y361D01*
X268Y361D02*
X272Y361D01*
X358Y361D02*
X362Y361D01*
X681Y361D02*
X719Y361D01*
X780Y361D02*
X828Y361D01*
X1091Y361D02*
X1097Y361D01*
X1131Y361D02*
X1136Y361D01*
X1179Y361D02*
X1186Y361D01*
X0Y360D02*
X7Y360D01*
X92Y360D02*
X121Y360D01*
X268Y360D02*
X272Y360D01*
X358Y360D02*
X362Y360D01*
X677Y360D02*
X724Y360D01*
X780Y360D02*
X829Y360D01*
X1090Y360D02*
X1097Y360D01*
X1130Y360D02*
X1137Y360D01*
X1179Y360D02*
X1186Y360D01*
X0Y359D02*
X7Y359D01*
X92Y359D02*
X122Y359D01*
X268Y359D02*
X272Y359D01*
X358Y359D02*
X362Y359D01*
X673Y359D02*
X728Y359D01*
X780Y359D02*
X829Y359D01*
X1090Y359D02*
X1098Y359D01*
X1129Y359D02*
X1138Y359D01*
X1179Y359D02*
X1186Y359D01*
X0Y358D02*
X7Y358D01*
X92Y358D02*
X123Y358D01*
X268Y358D02*
X272Y358D01*
X358Y358D02*
X362Y358D01*
X669Y358D02*
X731Y358D01*
X780Y358D02*
X829Y358D01*
X1089Y358D02*
X1098Y358D01*
X1129Y358D02*
X1138Y358D01*
X1179Y358D02*
X1186Y358D01*
X0Y357D02*
X7Y357D01*
X92Y357D02*
X123Y357D01*
X268Y357D02*
X272Y357D01*
X358Y357D02*
X362Y357D01*
X666Y357D02*
X734Y357D01*
X780Y357D02*
X829Y357D01*
X1089Y357D02*
X1098Y357D01*
X1129Y357D02*
X1138Y357D01*
X1179Y357D02*
X1186Y357D01*
X0Y356D02*
X7Y356D01*
X92Y356D02*
X98Y356D01*
X115Y356D02*
X124Y356D01*
X268Y356D02*
X272Y356D01*
X358Y356D02*
X362Y356D01*
X664Y356D02*
X737Y356D01*
X780Y356D02*
X828Y356D01*
X1089Y356D02*
X1098Y356D01*
X1129Y356D02*
X1138Y356D01*
X1179Y356D02*
X1186Y356D01*
X0Y355D02*
X7Y355D01*
X92Y355D02*
X98Y355D01*
X117Y355D02*
X125Y355D01*
X268Y355D02*
X272Y355D01*
X358Y355D02*
X362Y355D01*
X661Y355D02*
X739Y355D01*
X780Y355D02*
X828Y355D01*
X1089Y355D02*
X1098Y355D01*
X1129Y355D02*
X1138Y355D01*
X1179Y355D02*
X1186Y355D01*
X0Y354D02*
X7Y354D01*
X92Y354D02*
X98Y354D01*
X118Y354D02*
X125Y354D01*
X268Y354D02*
X272Y354D01*
X358Y354D02*
X362Y354D01*
X659Y354D02*
X742Y354D01*
X780Y354D02*
X828Y354D01*
X1089Y354D02*
X1098Y354D01*
X1129Y354D02*
X1138Y354D01*
X1179Y354D02*
X1186Y354D01*
X0Y353D02*
X7Y353D01*
X92Y353D02*
X98Y353D01*
X119Y353D02*
X125Y353D01*
X268Y353D02*
X272Y353D01*
X358Y353D02*
X362Y353D01*
X657Y353D02*
X744Y353D01*
X781Y353D02*
X827Y353D01*
X1089Y353D02*
X1098Y353D01*
X1129Y353D02*
X1138Y353D01*
X1179Y353D02*
X1186Y353D01*
X0Y352D02*
X7Y352D01*
X92Y352D02*
X98Y352D01*
X119Y352D02*
X126Y352D01*
X268Y352D02*
X272Y352D01*
X358Y352D02*
X362Y352D01*
X655Y352D02*
X687Y352D01*
X714Y352D02*
X746Y352D01*
X782Y352D02*
X826Y352D01*
X1089Y352D02*
X1098Y352D01*
X1129Y352D02*
X1138Y352D01*
X1179Y352D02*
X1186Y352D01*
X0Y351D02*
X7Y351D01*
X92Y351D02*
X98Y351D01*
X120Y351D02*
X126Y351D01*
X268Y351D02*
X272Y351D01*
X357Y351D02*
X362Y351D01*
X653Y351D02*
X681Y351D01*
X720Y351D02*
X748Y351D01*
X1089Y351D02*
X1098Y351D01*
X1129Y351D02*
X1138Y351D01*
X1179Y351D02*
X1186Y351D01*
X0Y350D02*
X7Y350D01*
X92Y350D02*
X98Y350D01*
X120Y350D02*
X126Y350D01*
X268Y350D02*
X272Y350D01*
X357Y350D02*
X361Y350D01*
X650Y350D02*
X657Y350D01*
X743Y350D02*
X750Y350D01*
X1089Y350D02*
X1098Y350D01*
X1129Y350D02*
X1138Y350D01*
X1179Y350D02*
X1186Y350D01*
X0Y349D02*
X7Y349D01*
X92Y349D02*
X98Y349D01*
X120Y349D02*
X126Y349D01*
X268Y349D02*
X272Y349D01*
X357Y349D02*
X361Y349D01*
X649Y349D02*
X657Y349D01*
X743Y349D02*
X752Y349D01*
X1089Y349D02*
X1098Y349D01*
X1129Y349D02*
X1138Y349D01*
X1179Y349D02*
X1186Y349D01*
X0Y348D02*
X7Y348D01*
X92Y348D02*
X98Y348D01*
X120Y348D02*
X126Y348D01*
X268Y348D02*
X272Y348D01*
X357Y348D02*
X361Y348D01*
X647Y348D02*
X657Y348D01*
X743Y348D02*
X753Y348D01*
X1089Y348D02*
X1098Y348D01*
X1129Y348D02*
X1138Y348D01*
X1179Y348D02*
X1186Y348D01*
X0Y347D02*
X7Y347D01*
X92Y347D02*
X98Y347D01*
X120Y347D02*
X126Y347D01*
X268Y347D02*
X272Y347D01*
X356Y347D02*
X360Y347D01*
X646Y347D02*
X657Y347D01*
X743Y347D02*
X755Y347D01*
X1089Y347D02*
X1098Y347D01*
X1129Y347D02*
X1138Y347D01*
X1179Y347D02*
X1186Y347D01*
X0Y346D02*
X7Y346D01*
X92Y346D02*
X98Y346D01*
X120Y346D02*
X126Y346D01*
X268Y346D02*
X272Y346D01*
X356Y346D02*
X360Y346D01*
X644Y346D02*
X657Y346D01*
X743Y346D02*
X757Y346D01*
X1089Y346D02*
X1098Y346D01*
X1129Y346D02*
X1138Y346D01*
X1179Y346D02*
X1186Y346D01*
X0Y345D02*
X7Y345D01*
X92Y345D02*
X98Y345D01*
X120Y345D02*
X126Y345D01*
X268Y345D02*
X272Y345D01*
X355Y345D02*
X360Y345D01*
X642Y345D02*
X657Y345D01*
X743Y345D02*
X758Y345D01*
X1089Y345D02*
X1098Y345D01*
X1129Y345D02*
X1138Y345D01*
X1179Y345D02*
X1186Y345D01*
X0Y344D02*
X7Y344D01*
X92Y344D02*
X98Y344D01*
X119Y344D02*
X126Y344D01*
X268Y344D02*
X272Y344D01*
X355Y344D02*
X359Y344D01*
X641Y344D02*
X657Y344D01*
X743Y344D02*
X760Y344D01*
X1089Y344D02*
X1098Y344D01*
X1129Y344D02*
X1138Y344D01*
X1179Y344D02*
X1186Y344D01*
X0Y343D02*
X7Y343D01*
X92Y343D02*
X98Y343D01*
X119Y343D02*
X125Y343D01*
X268Y343D02*
X272Y343D01*
X354Y343D02*
X359Y343D01*
X639Y343D02*
X657Y343D01*
X743Y343D02*
X761Y343D01*
X1089Y343D02*
X1098Y343D01*
X1129Y343D02*
X1138Y343D01*
X1179Y343D02*
X1186Y343D01*
X0Y342D02*
X7Y342D01*
X92Y342D02*
X98Y342D01*
X118Y342D02*
X125Y342D01*
X268Y342D02*
X272Y342D01*
X353Y342D02*
X358Y342D01*
X638Y342D02*
X655Y342D01*
X745Y342D02*
X762Y342D01*
X1089Y342D02*
X1098Y342D01*
X1129Y342D02*
X1138Y342D01*
X1179Y342D02*
X1186Y342D01*
X0Y341D02*
X7Y341D01*
X92Y341D02*
X98Y341D01*
X117Y341D02*
X125Y341D01*
X268Y341D02*
X272Y341D01*
X353Y341D02*
X357Y341D01*
X637Y341D02*
X654Y341D01*
X747Y341D02*
X764Y341D01*
X1089Y341D02*
X1098Y341D01*
X1129Y341D02*
X1138Y341D01*
X1179Y341D02*
X1186Y341D01*
X0Y340D02*
X7Y340D01*
X92Y340D02*
X99Y340D01*
X115Y340D02*
X124Y340D01*
X268Y340D02*
X272Y340D01*
X352Y340D02*
X357Y340D01*
X635Y340D02*
X652Y340D01*
X748Y340D02*
X765Y340D01*
X1089Y340D02*
X1099Y340D01*
X1128Y340D02*
X1138Y340D01*
X1179Y340D02*
X1186Y340D01*
X0Y339D02*
X7Y339D01*
X92Y339D02*
X123Y339D01*
X268Y339D02*
X272Y339D01*
X351Y339D02*
X356Y339D01*
X634Y339D02*
X650Y339D01*
X750Y339D02*
X766Y339D01*
X1089Y339D02*
X1099Y339D01*
X1128Y339D02*
X1138Y339D01*
X1179Y339D02*
X1186Y339D01*
X0Y338D02*
X7Y338D01*
X92Y338D02*
X123Y338D01*
X268Y338D02*
X272Y338D01*
X350Y338D02*
X355Y338D01*
X633Y338D02*
X649Y338D01*
X752Y338D02*
X767Y338D01*
X1090Y338D02*
X1100Y338D01*
X1128Y338D02*
X1137Y338D01*
X1179Y338D02*
X1186Y338D01*
X0Y337D02*
X7Y337D01*
X92Y337D02*
X122Y337D01*
X268Y337D02*
X272Y337D01*
X349Y337D02*
X354Y337D01*
X632Y337D02*
X647Y337D01*
X753Y337D02*
X769Y337D01*
X1090Y337D02*
X1100Y337D01*
X1127Y337D02*
X1137Y337D01*
X1179Y337D02*
X1186Y337D01*
X0Y336D02*
X7Y336D01*
X92Y336D02*
X121Y336D01*
X268Y336D02*
X272Y336D01*
X348Y336D02*
X354Y336D01*
X631Y336D02*
X646Y336D01*
X755Y336D02*
X770Y336D01*
X1090Y336D02*
X1100Y336D01*
X1127Y336D02*
X1137Y336D01*
X1179Y336D02*
X1186Y336D01*
X0Y335D02*
X7Y335D01*
X92Y335D02*
X119Y335D01*
X268Y335D02*
X272Y335D01*
X346Y335D02*
X353Y335D01*
X630Y335D02*
X644Y335D01*
X756Y335D02*
X771Y335D01*
X1091Y335D02*
X1101Y335D01*
X1126Y335D02*
X1136Y335D01*
X1179Y335D02*
X1186Y335D01*
X0Y334D02*
X7Y334D01*
X92Y334D02*
X118Y334D01*
X268Y334D02*
X272Y334D01*
X345Y334D02*
X352Y334D01*
X629Y334D02*
X643Y334D01*
X757Y334D02*
X772Y334D01*
X1091Y334D02*
X1101Y334D01*
X1126Y334D02*
X1136Y334D01*
X1179Y334D02*
X1186Y334D01*
X0Y333D02*
X7Y333D01*
X92Y333D02*
X115Y333D01*
X268Y333D02*
X272Y333D01*
X343Y333D02*
X350Y333D01*
X627Y333D02*
X642Y333D01*
X759Y333D02*
X773Y333D01*
X1092Y333D02*
X1102Y333D01*
X1126Y333D02*
X1136Y333D01*
X1179Y333D02*
X1186Y333D01*
X0Y332D02*
X7Y332D01*
X268Y332D02*
X272Y332D01*
X340Y332D02*
X349Y332D01*
X626Y332D02*
X640Y332D01*
X760Y332D02*
X774Y332D01*
X1092Y332D02*
X1102Y332D01*
X1125Y332D02*
X1135Y332D01*
X1179Y332D02*
X1186Y332D01*
X0Y331D02*
X7Y331D01*
X268Y331D02*
X272Y331D01*
X337Y331D02*
X348Y331D01*
X625Y331D02*
X639Y331D01*
X761Y331D02*
X775Y331D01*
X1092Y331D02*
X1102Y331D01*
X1125Y331D02*
X1135Y331D01*
X1179Y331D02*
X1186Y331D01*
X0Y330D02*
X7Y330D01*
X268Y330D02*
X272Y330D01*
X330Y330D02*
X346Y330D01*
X625Y330D02*
X638Y330D01*
X762Y330D02*
X776Y330D01*
X1093Y330D02*
X1103Y330D01*
X1125Y330D02*
X1134Y330D01*
X1179Y330D02*
X1186Y330D01*
X0Y329D02*
X7Y329D01*
X268Y329D02*
X272Y329D01*
X329Y329D02*
X344Y329D01*
X624Y329D02*
X637Y329D01*
X764Y329D02*
X777Y329D01*
X1093Y329D02*
X1103Y329D01*
X1124Y329D02*
X1134Y329D01*
X1179Y329D02*
X1186Y329D01*
X0Y328D02*
X7Y328D01*
X268Y328D02*
X272Y328D01*
X328Y328D02*
X342Y328D01*
X623Y328D02*
X636Y328D01*
X644Y328D02*
X647Y328D01*
X754Y328D02*
X757Y328D01*
X765Y328D02*
X778Y328D01*
X1094Y328D02*
X1104Y328D01*
X1124Y328D02*
X1134Y328D01*
X1179Y328D02*
X1186Y328D01*
X0Y327D02*
X7Y327D01*
X268Y327D02*
X272Y327D01*
X328Y327D02*
X340Y327D01*
X622Y327D02*
X635Y327D01*
X642Y327D02*
X648Y327D01*
X752Y327D02*
X758Y327D01*
X766Y327D02*
X779Y327D01*
X1094Y327D02*
X1104Y327D01*
X1123Y327D02*
X1133Y327D01*
X1179Y327D02*
X1186Y327D01*
X0Y326D02*
X7Y326D01*
X268Y326D02*
X272Y326D01*
X328Y326D02*
X336Y326D01*
X621Y326D02*
X634Y326D01*
X641Y326D02*
X649Y326D01*
X751Y326D02*
X759Y326D01*
X767Y326D02*
X780Y326D01*
X1094Y326D02*
X1104Y326D01*
X1123Y326D02*
X1133Y326D01*
X1179Y326D02*
X1186Y326D01*
X0Y325D02*
X7Y325D01*
X268Y325D02*
X272Y325D01*
X328Y325D02*
X332Y325D01*
X620Y325D02*
X633Y325D01*
X641Y325D02*
X650Y325D01*
X751Y325D02*
X760Y325D01*
X768Y325D02*
X780Y325D01*
X1095Y325D02*
X1105Y325D01*
X1123Y325D02*
X1132Y325D01*
X1179Y325D02*
X1186Y325D01*
X0Y324D02*
X7Y324D01*
X268Y324D02*
X272Y324D01*
X328Y324D02*
X332Y324D01*
X619Y324D02*
X632Y324D01*
X640Y324D02*
X650Y324D01*
X750Y324D02*
X760Y324D01*
X769Y324D02*
X781Y324D01*
X1095Y324D02*
X1105Y324D01*
X1122Y324D02*
X1132Y324D01*
X1179Y324D02*
X1186Y324D01*
X0Y323D02*
X7Y323D01*
X268Y323D02*
X272Y323D01*
X328Y323D02*
X332Y323D01*
X618Y323D02*
X631Y323D01*
X640Y323D02*
X650Y323D01*
X750Y323D02*
X760Y323D01*
X770Y323D02*
X782Y323D01*
X1096Y323D02*
X1105Y323D01*
X1122Y323D02*
X1132Y323D01*
X1179Y323D02*
X1186Y323D01*
X0Y322D02*
X7Y322D01*
X268Y322D02*
X272Y322D01*
X328Y322D02*
X332Y322D01*
X618Y322D02*
X630Y322D01*
X640Y322D02*
X650Y322D01*
X750Y322D02*
X760Y322D01*
X771Y322D02*
X783Y322D01*
X1096Y322D02*
X1106Y322D01*
X1121Y322D02*
X1131Y322D01*
X1179Y322D02*
X1186Y322D01*
X0Y321D02*
X7Y321D01*
X268Y321D02*
X272Y321D01*
X328Y321D02*
X332Y321D01*
X617Y321D02*
X629Y321D01*
X640Y321D02*
X650Y321D01*
X750Y321D02*
X760Y321D01*
X772Y321D02*
X783Y321D01*
X1096Y321D02*
X1106Y321D01*
X1121Y321D02*
X1131Y321D01*
X1179Y321D02*
X1186Y321D01*
X0Y320D02*
X7Y320D01*
X268Y320D02*
X272Y320D01*
X329Y320D02*
X332Y320D01*
X616Y320D02*
X628Y320D01*
X640Y320D02*
X650Y320D01*
X750Y320D02*
X760Y320D01*
X772Y320D02*
X784Y320D01*
X1097Y320D02*
X1107Y320D01*
X1121Y320D02*
X1130Y320D01*
X1179Y320D02*
X1186Y320D01*
X0Y319D02*
X7Y319D01*
X268Y319D02*
X271Y319D01*
X329Y319D02*
X332Y319D01*
X616Y319D02*
X627Y319D01*
X640Y319D02*
X650Y319D01*
X750Y319D02*
X760Y319D01*
X773Y319D02*
X785Y319D01*
X1097Y319D02*
X1107Y319D01*
X1120Y319D02*
X1130Y319D01*
X1179Y319D02*
X1186Y319D01*
X0Y318D02*
X7Y318D01*
X268Y318D02*
X271Y318D01*
X330Y318D02*
X332Y318D01*
X615Y318D02*
X626Y318D01*
X640Y318D02*
X650Y318D01*
X750Y318D02*
X760Y318D01*
X774Y318D02*
X786Y318D01*
X1097Y318D02*
X1107Y318D01*
X1120Y318D02*
X1130Y318D01*
X1179Y318D02*
X1186Y318D01*
X0Y317D02*
X7Y317D01*
X268Y317D02*
X271Y317D01*
X330Y317D02*
X332Y317D01*
X614Y317D02*
X625Y317D01*
X640Y317D02*
X650Y317D01*
X750Y317D02*
X760Y317D01*
X775Y317D02*
X786Y317D01*
X1098Y317D02*
X1108Y317D01*
X1119Y317D02*
X1129Y317D01*
X1179Y317D02*
X1186Y317D01*
X0Y316D02*
X7Y316D01*
X268Y316D02*
X270Y316D01*
X330Y316D02*
X332Y316D01*
X613Y316D02*
X625Y316D01*
X640Y316D02*
X650Y316D01*
X750Y316D02*
X760Y316D01*
X776Y316D02*
X787Y316D01*
X1098Y316D02*
X1108Y316D01*
X1119Y316D02*
X1129Y316D01*
X1179Y316D02*
X1186Y316D01*
X0Y315D02*
X7Y315D01*
X268Y315D02*
X270Y315D01*
X331Y315D02*
X332Y315D01*
X613Y315D02*
X624Y315D01*
X640Y315D02*
X650Y315D01*
X750Y315D02*
X760Y315D01*
X777Y315D02*
X788Y315D01*
X1099Y315D02*
X1109Y315D01*
X1119Y315D02*
X1129Y315D01*
X1179Y315D02*
X1186Y315D01*
X0Y314D02*
X7Y314D01*
X268Y314D02*
X270Y314D01*
X331Y314D02*
X332Y314D01*
X612Y314D02*
X623Y314D01*
X640Y314D02*
X650Y314D01*
X750Y314D02*
X760Y314D01*
X777Y314D02*
X788Y314D01*
X1099Y314D02*
X1109Y314D01*
X1118Y314D02*
X1128Y314D01*
X1179Y314D02*
X1186Y314D01*
X0Y313D02*
X7Y313D01*
X268Y313D02*
X270Y313D01*
X331Y313D02*
X332Y313D01*
X612Y313D02*
X622Y313D01*
X640Y313D02*
X650Y313D01*
X750Y313D02*
X760Y313D01*
X778Y313D02*
X789Y313D01*
X1099Y313D02*
X1109Y313D01*
X1118Y313D02*
X1128Y313D01*
X1179Y313D02*
X1186Y313D01*
X0Y312D02*
X7Y312D01*
X268Y312D02*
X269Y312D01*
X331Y312D02*
X332Y312D01*
X611Y312D02*
X622Y312D01*
X640Y312D02*
X650Y312D01*
X750Y312D02*
X760Y312D01*
X779Y312D02*
X789Y312D01*
X1100Y312D02*
X1110Y312D01*
X1117Y312D02*
X1127Y312D01*
X1179Y312D02*
X1186Y312D01*
X0Y311D02*
X7Y311D01*
X268Y311D02*
X269Y311D01*
X331Y311D02*
X332Y311D01*
X610Y311D02*
X621Y311D01*
X640Y311D02*
X650Y311D01*
X750Y311D02*
X760Y311D01*
X780Y311D02*
X790Y311D01*
X1100Y311D02*
X1110Y311D01*
X1117Y311D02*
X1127Y311D01*
X1179Y311D02*
X1186Y311D01*
X0Y310D02*
X7Y310D01*
X268Y310D02*
X269Y310D01*
X331Y310D02*
X332Y310D01*
X610Y310D02*
X620Y310D01*
X640Y310D02*
X650Y310D01*
X750Y310D02*
X760Y310D01*
X780Y310D02*
X791Y310D01*
X1101Y310D02*
X1111Y310D01*
X1117Y310D02*
X1127Y310D01*
X1179Y310D02*
X1186Y310D01*
X0Y309D02*
X7Y309D01*
X268Y309D02*
X269Y309D01*
X332Y309D02*
X332Y309D01*
X609Y309D02*
X620Y309D01*
X640Y309D02*
X650Y309D01*
X750Y309D02*
X760Y309D01*
X781Y309D02*
X791Y309D01*
X1101Y309D02*
X1111Y309D01*
X1116Y309D02*
X1126Y309D01*
X1179Y309D02*
X1186Y309D01*
X0Y308D02*
X7Y308D01*
X268Y308D02*
X269Y308D01*
X332Y308D02*
X332Y308D01*
X609Y308D02*
X619Y308D01*
X640Y308D02*
X650Y308D01*
X750Y308D02*
X760Y308D01*
X781Y308D02*
X792Y308D01*
X1101Y308D02*
X1111Y308D01*
X1116Y308D02*
X1126Y308D01*
X1179Y308D02*
X1186Y308D01*
X0Y307D02*
X7Y307D01*
X268Y307D02*
X269Y307D01*
X332Y307D02*
X332Y307D01*
X608Y307D02*
X618Y307D01*
X640Y307D02*
X650Y307D01*
X750Y307D02*
X760Y307D01*
X782Y307D02*
X792Y307D01*
X1102Y307D02*
X1112Y307D01*
X1116Y307D02*
X1125Y307D01*
X1179Y307D02*
X1186Y307D01*
X0Y306D02*
X7Y306D01*
X268Y306D02*
X269Y306D01*
X331Y306D02*
X332Y306D01*
X608Y306D02*
X618Y306D01*
X640Y306D02*
X650Y306D01*
X750Y306D02*
X760Y306D01*
X783Y306D02*
X793Y306D01*
X1102Y306D02*
X1112Y306D01*
X1115Y306D02*
X1125Y306D01*
X1179Y306D02*
X1186Y306D01*
X0Y305D02*
X7Y305D01*
X268Y305D02*
X269Y305D01*
X331Y305D02*
X332Y305D01*
X607Y305D02*
X617Y305D01*
X640Y305D02*
X650Y305D01*
X750Y305D02*
X760Y305D01*
X783Y305D02*
X793Y305D01*
X1103Y305D02*
X1113Y305D01*
X1115Y305D02*
X1125Y305D01*
X1179Y305D02*
X1186Y305D01*
X0Y304D02*
X7Y304D01*
X268Y304D02*
X269Y304D01*
X331Y304D02*
X332Y304D01*
X607Y304D02*
X617Y304D01*
X640Y304D02*
X650Y304D01*
X750Y304D02*
X760Y304D01*
X784Y304D02*
X794Y304D01*
X1103Y304D02*
X1124Y304D01*
X1179Y304D02*
X1186Y304D01*
X0Y303D02*
X7Y303D01*
X268Y303D02*
X270Y303D01*
X331Y303D02*
X332Y303D01*
X606Y303D02*
X616Y303D01*
X640Y303D02*
X650Y303D01*
X750Y303D02*
X760Y303D01*
X784Y303D02*
X794Y303D01*
X1103Y303D02*
X1124Y303D01*
X1179Y303D02*
X1186Y303D01*
X0Y302D02*
X7Y302D01*
X268Y302D02*
X270Y302D01*
X331Y302D02*
X332Y302D01*
X606Y302D02*
X616Y302D01*
X640Y302D02*
X650Y302D01*
X750Y302D02*
X760Y302D01*
X785Y302D02*
X795Y302D01*
X1104Y302D02*
X1123Y302D01*
X1179Y302D02*
X1186Y302D01*
X0Y301D02*
X7Y301D01*
X268Y301D02*
X270Y301D01*
X331Y301D02*
X332Y301D01*
X605Y301D02*
X615Y301D01*
X640Y301D02*
X650Y301D01*
X750Y301D02*
X760Y301D01*
X785Y301D02*
X795Y301D01*
X1104Y301D02*
X1123Y301D01*
X1179Y301D02*
X1186Y301D01*
X0Y300D02*
X7Y300D01*
X268Y300D02*
X270Y300D01*
X330Y300D02*
X332Y300D01*
X605Y300D02*
X615Y300D01*
X640Y300D02*
X650Y300D01*
X750Y300D02*
X760Y300D01*
X786Y300D02*
X796Y300D01*
X1104Y300D02*
X1123Y300D01*
X1179Y300D02*
X1186Y300D01*
X0Y299D02*
X7Y299D01*
X268Y299D02*
X271Y299D01*
X330Y299D02*
X332Y299D01*
X604Y299D02*
X614Y299D01*
X640Y299D02*
X650Y299D01*
X750Y299D02*
X760Y299D01*
X786Y299D02*
X796Y299D01*
X1105Y299D02*
X1122Y299D01*
X1179Y299D02*
X1186Y299D01*
X0Y298D02*
X7Y298D01*
X268Y298D02*
X271Y298D01*
X330Y298D02*
X332Y298D01*
X604Y298D02*
X614Y298D01*
X640Y298D02*
X650Y298D01*
X750Y298D02*
X760Y298D01*
X787Y298D02*
X797Y298D01*
X1105Y298D02*
X1122Y298D01*
X1179Y298D02*
X1186Y298D01*
X0Y297D02*
X7Y297D01*
X268Y297D02*
X271Y297D01*
X329Y297D02*
X332Y297D01*
X603Y297D02*
X613Y297D01*
X640Y297D02*
X650Y297D01*
X750Y297D02*
X760Y297D01*
X787Y297D02*
X797Y297D01*
X1106Y297D02*
X1122Y297D01*
X1179Y297D02*
X1186Y297D01*
X0Y296D02*
X7Y296D01*
X268Y296D02*
X272Y296D01*
X329Y296D02*
X332Y296D01*
X603Y296D02*
X613Y296D01*
X640Y296D02*
X650Y296D01*
X750Y296D02*
X760Y296D01*
X788Y296D02*
X797Y296D01*
X1106Y296D02*
X1121Y296D01*
X1179Y296D02*
X1186Y296D01*
X0Y295D02*
X7Y295D01*
X268Y295D02*
X272Y295D01*
X329Y295D02*
X332Y295D01*
X603Y295D02*
X612Y295D01*
X640Y295D02*
X650Y295D01*
X750Y295D02*
X760Y295D01*
X788Y295D02*
X798Y295D01*
X1106Y295D02*
X1121Y295D01*
X1179Y295D02*
X1186Y295D01*
X0Y294D02*
X7Y294D01*
X268Y294D02*
X272Y294D01*
X328Y294D02*
X332Y294D01*
X602Y294D02*
X612Y294D01*
X640Y294D02*
X650Y294D01*
X750Y294D02*
X760Y294D01*
X789Y294D02*
X798Y294D01*
X1107Y294D02*
X1120Y294D01*
X1179Y294D02*
X1186Y294D01*
X0Y293D02*
X7Y293D01*
X268Y293D02*
X272Y293D01*
X328Y293D02*
X332Y293D01*
X602Y293D02*
X611Y293D01*
X640Y293D02*
X650Y293D01*
X750Y293D02*
X760Y293D01*
X789Y293D02*
X799Y293D01*
X1107Y293D02*
X1120Y293D01*
X1179Y293D02*
X1186Y293D01*
X0Y292D02*
X7Y292D01*
X268Y292D02*
X272Y292D01*
X328Y292D02*
X332Y292D01*
X602Y292D02*
X611Y292D01*
X640Y292D02*
X650Y292D01*
X750Y292D02*
X760Y292D01*
X789Y292D02*
X799Y292D01*
X1108Y292D02*
X1120Y292D01*
X1179Y292D02*
X1186Y292D01*
X0Y291D02*
X7Y291D01*
X268Y291D02*
X272Y291D01*
X328Y291D02*
X332Y291D01*
X601Y291D02*
X611Y291D01*
X641Y291D02*
X650Y291D01*
X751Y291D02*
X760Y291D01*
X790Y291D02*
X799Y291D01*
X1108Y291D02*
X1119Y291D01*
X1179Y291D02*
X1186Y291D01*
X0Y290D02*
X7Y290D01*
X268Y290D02*
X272Y290D01*
X328Y290D02*
X332Y290D01*
X601Y290D02*
X610Y290D01*
X641Y290D02*
X649Y290D01*
X751Y290D02*
X759Y290D01*
X790Y290D02*
X800Y290D01*
X1108Y290D02*
X1119Y290D01*
X1179Y290D02*
X1186Y290D01*
X0Y289D02*
X7Y289D01*
X268Y289D02*
X272Y289D01*
X328Y289D02*
X332Y289D01*
X601Y289D02*
X610Y289D01*
X642Y289D02*
X649Y289D01*
X752Y289D02*
X758Y289D01*
X790Y289D02*
X800Y289D01*
X1109Y289D02*
X1118Y289D01*
X1179Y289D02*
X1186Y289D01*
X0Y288D02*
X7Y288D01*
X268Y288D02*
X272Y288D01*
X328Y288D02*
X332Y288D01*
X600Y288D02*
X610Y288D01*
X643Y288D02*
X647Y288D01*
X753Y288D02*
X757Y288D01*
X791Y288D02*
X800Y288D01*
X1109Y288D02*
X1118Y288D01*
X1179Y288D02*
X1186Y288D01*
X0Y287D02*
X7Y287D01*
X268Y287D02*
X272Y287D01*
X328Y287D02*
X332Y287D01*
X600Y287D02*
X609Y287D01*
X791Y287D02*
X800Y287D01*
X1110Y287D02*
X1118Y287D01*
X1179Y287D02*
X1186Y287D01*
X0Y286D02*
X7Y286D01*
X268Y286D02*
X272Y286D01*
X328Y286D02*
X332Y286D01*
X600Y286D02*
X609Y286D01*
X792Y286D02*
X801Y286D01*
X1110Y286D02*
X1117Y286D01*
X1179Y286D02*
X1186Y286D01*
X0Y285D02*
X7Y285D01*
X268Y285D02*
X272Y285D01*
X328Y285D02*
X332Y285D01*
X599Y285D02*
X609Y285D01*
X792Y285D02*
X801Y285D01*
X1112Y285D02*
X1116Y285D01*
X1179Y285D02*
X1186Y285D01*
X0Y284D02*
X7Y284D01*
X268Y284D02*
X272Y284D01*
X328Y284D02*
X332Y284D01*
X599Y284D02*
X608Y284D01*
X792Y284D02*
X801Y284D01*
X1179Y284D02*
X1186Y284D01*
X0Y283D02*
X7Y283D01*
X268Y283D02*
X272Y283D01*
X328Y283D02*
X332Y283D01*
X599Y283D02*
X608Y283D01*
X792Y283D02*
X802Y283D01*
X1179Y283D02*
X1186Y283D01*
X0Y282D02*
X7Y282D01*
X268Y282D02*
X272Y282D01*
X328Y282D02*
X332Y282D01*
X599Y282D02*
X608Y282D01*
X793Y282D02*
X802Y282D01*
X1179Y282D02*
X1186Y282D01*
X0Y281D02*
X7Y281D01*
X268Y281D02*
X272Y281D01*
X328Y281D02*
X332Y281D01*
X598Y281D02*
X608Y281D01*
X793Y281D02*
X802Y281D01*
X1179Y281D02*
X1186Y281D01*
X0Y280D02*
X7Y280D01*
X268Y280D02*
X272Y280D01*
X328Y280D02*
X332Y280D01*
X598Y280D02*
X607Y280D01*
X793Y280D02*
X802Y280D01*
X1179Y280D02*
X1186Y280D01*
X0Y279D02*
X7Y279D01*
X268Y279D02*
X272Y279D01*
X328Y279D02*
X332Y279D01*
X598Y279D02*
X607Y279D01*
X793Y279D02*
X803Y279D01*
X1179Y279D02*
X1186Y279D01*
X0Y278D02*
X7Y278D01*
X268Y278D02*
X272Y278D01*
X328Y278D02*
X332Y278D01*
X598Y278D02*
X607Y278D01*
X794Y278D02*
X803Y278D01*
X1101Y278D02*
X1129Y278D01*
X1179Y278D02*
X1186Y278D01*
X0Y277D02*
X7Y277D01*
X268Y277D02*
X272Y277D01*
X328Y277D02*
X332Y277D01*
X598Y277D02*
X607Y277D01*
X794Y277D02*
X803Y277D01*
X1098Y277D02*
X1132Y277D01*
X1179Y277D02*
X1186Y277D01*
X0Y276D02*
X7Y276D01*
X268Y276D02*
X272Y276D01*
X328Y276D02*
X332Y276D01*
X597Y276D02*
X606Y276D01*
X794Y276D02*
X803Y276D01*
X1096Y276D02*
X1134Y276D01*
X1179Y276D02*
X1186Y276D01*
X0Y275D02*
X7Y275D01*
X268Y275D02*
X272Y275D01*
X328Y275D02*
X332Y275D01*
X597Y275D02*
X606Y275D01*
X794Y275D02*
X803Y275D01*
X1095Y275D02*
X1135Y275D01*
X1179Y275D02*
X1186Y275D01*
X0Y274D02*
X7Y274D01*
X268Y274D02*
X272Y274D01*
X328Y274D02*
X332Y274D01*
X597Y274D02*
X606Y274D01*
X794Y274D02*
X803Y274D01*
X1094Y274D02*
X1136Y274D01*
X1179Y274D02*
X1186Y274D01*
X0Y273D02*
X7Y273D01*
X268Y273D02*
X272Y273D01*
X328Y273D02*
X332Y273D01*
X597Y273D02*
X606Y273D01*
X795Y273D02*
X804Y273D01*
X1093Y273D02*
X1137Y273D01*
X1179Y273D02*
X1186Y273D01*
X0Y272D02*
X7Y272D01*
X269Y272D02*
X272Y272D01*
X329Y272D02*
X332Y272D01*
X597Y272D02*
X606Y272D01*
X795Y272D02*
X804Y272D01*
X1093Y272D02*
X1138Y272D01*
X1179Y272D02*
X1186Y272D01*
X0Y271D02*
X7Y271D01*
X269Y271D02*
X271Y271D01*
X329Y271D02*
X331Y271D01*
X597Y271D02*
X606Y271D01*
X795Y271D02*
X804Y271D01*
X1092Y271D02*
X1139Y271D01*
X1179Y271D02*
X1186Y271D01*
X0Y270D02*
X7Y270D01*
X596Y270D02*
X606Y270D01*
X795Y270D02*
X804Y270D01*
X1092Y270D02*
X1139Y270D01*
X1179Y270D02*
X1186Y270D01*
X0Y269D02*
X7Y269D01*
X596Y269D02*
X605Y269D01*
X795Y269D02*
X804Y269D01*
X1092Y269D02*
X1140Y269D01*
X1179Y269D02*
X1186Y269D01*
X0Y268D02*
X7Y268D01*
X596Y268D02*
X605Y268D01*
X795Y268D02*
X804Y268D01*
X1092Y268D02*
X1102Y268D01*
X1128Y268D02*
X1140Y268D01*
X1179Y268D02*
X1186Y268D01*
X0Y267D02*
X7Y267D01*
X596Y267D02*
X605Y267D01*
X795Y267D02*
X804Y267D01*
X1092Y267D02*
X1101Y267D01*
X1130Y267D02*
X1140Y267D01*
X1179Y267D02*
X1186Y267D01*
X0Y266D02*
X7Y266D01*
X596Y266D02*
X605Y266D01*
X795Y266D02*
X804Y266D01*
X1092Y266D02*
X1101Y266D01*
X1131Y266D02*
X1140Y266D01*
X1179Y266D02*
X1186Y266D01*
X0Y265D02*
X7Y265D01*
X596Y265D02*
X605Y265D01*
X795Y265D02*
X804Y265D01*
X1092Y265D02*
X1102Y265D01*
X1131Y265D02*
X1140Y265D01*
X1179Y265D02*
X1186Y265D01*
X0Y264D02*
X7Y264D01*
X596Y264D02*
X605Y264D01*
X795Y264D02*
X804Y264D01*
X1092Y264D02*
X1103Y264D01*
X1131Y264D02*
X1140Y264D01*
X1179Y264D02*
X1186Y264D01*
X0Y263D02*
X7Y263D01*
X596Y263D02*
X605Y263D01*
X796Y263D02*
X805Y263D01*
X1092Y263D02*
X1103Y263D01*
X1132Y263D02*
X1140Y263D01*
X1179Y263D02*
X1186Y263D01*
X0Y262D02*
X7Y262D01*
X596Y262D02*
X605Y262D01*
X796Y262D02*
X805Y262D01*
X1093Y262D02*
X1104Y262D01*
X1132Y262D02*
X1139Y262D01*
X1179Y262D02*
X1186Y262D01*
X0Y261D02*
X7Y261D01*
X596Y261D02*
X605Y261D01*
X796Y261D02*
X805Y261D01*
X1093Y261D02*
X1105Y261D01*
X1133Y261D02*
X1139Y261D01*
X1179Y261D02*
X1186Y261D01*
X0Y260D02*
X7Y260D01*
X596Y260D02*
X605Y260D01*
X796Y260D02*
X805Y260D01*
X1094Y260D02*
X1106Y260D01*
X1134Y260D02*
X1137Y260D01*
X1179Y260D02*
X1186Y260D01*
X0Y259D02*
X7Y259D01*
X596Y259D02*
X605Y259D01*
X796Y259D02*
X805Y259D01*
X1094Y259D02*
X1106Y259D01*
X1179Y259D02*
X1186Y259D01*
X0Y258D02*
X7Y258D01*
X596Y258D02*
X605Y258D01*
X796Y258D02*
X805Y258D01*
X1095Y258D02*
X1107Y258D01*
X1179Y258D02*
X1186Y258D01*
X0Y257D02*
X7Y257D01*
X596Y257D02*
X605Y257D01*
X796Y257D02*
X805Y257D01*
X1096Y257D02*
X1108Y257D01*
X1179Y257D02*
X1186Y257D01*
X0Y256D02*
X7Y256D01*
X596Y256D02*
X605Y256D01*
X796Y256D02*
X805Y256D01*
X1097Y256D02*
X1109Y256D01*
X1179Y256D02*
X1186Y256D01*
X0Y255D02*
X7Y255D01*
X596Y255D02*
X605Y255D01*
X796Y255D02*
X805Y255D01*
X1098Y255D02*
X1110Y255D01*
X1179Y255D02*
X1186Y255D01*
X0Y254D02*
X7Y254D01*
X596Y254D02*
X605Y254D01*
X796Y254D02*
X805Y254D01*
X1098Y254D02*
X1110Y254D01*
X1179Y254D02*
X1186Y254D01*
X0Y253D02*
X7Y253D01*
X596Y253D02*
X605Y253D01*
X796Y253D02*
X805Y253D01*
X1099Y253D02*
X1111Y253D01*
X1179Y253D02*
X1186Y253D01*
X0Y252D02*
X7Y252D01*
X596Y252D02*
X605Y252D01*
X796Y252D02*
X805Y252D01*
X1100Y252D02*
X1112Y252D01*
X1179Y252D02*
X1186Y252D01*
X0Y251D02*
X7Y251D01*
X596Y251D02*
X605Y251D01*
X795Y251D02*
X804Y251D01*
X1101Y251D02*
X1113Y251D01*
X1179Y251D02*
X1186Y251D01*
X0Y250D02*
X7Y250D01*
X596Y250D02*
X605Y250D01*
X795Y250D02*
X804Y250D01*
X1101Y250D02*
X1113Y250D01*
X1179Y250D02*
X1186Y250D01*
X0Y249D02*
X7Y249D01*
X596Y249D02*
X605Y249D01*
X795Y249D02*
X804Y249D01*
X1102Y249D02*
X1114Y249D01*
X1179Y249D02*
X1186Y249D01*
X0Y248D02*
X7Y248D01*
X596Y248D02*
X605Y248D01*
X795Y248D02*
X804Y248D01*
X1103Y248D02*
X1115Y248D01*
X1179Y248D02*
X1186Y248D01*
X0Y247D02*
X7Y247D01*
X596Y247D02*
X605Y247D01*
X795Y247D02*
X804Y247D01*
X1104Y247D02*
X1116Y247D01*
X1179Y247D02*
X1186Y247D01*
X0Y246D02*
X7Y246D01*
X596Y246D02*
X605Y246D01*
X795Y246D02*
X804Y246D01*
X1105Y246D02*
X1117Y246D01*
X1179Y246D02*
X1186Y246D01*
X0Y245D02*
X7Y245D01*
X597Y245D02*
X606Y245D01*
X795Y245D02*
X804Y245D01*
X1105Y245D02*
X1117Y245D01*
X1179Y245D02*
X1186Y245D01*
X0Y244D02*
X7Y244D01*
X276Y244D02*
X319Y244D01*
X597Y244D02*
X606Y244D01*
X795Y244D02*
X804Y244D01*
X1106Y244D02*
X1118Y244D01*
X1179Y244D02*
X1186Y244D01*
X0Y243D02*
X7Y243D01*
X275Y243D02*
X322Y243D01*
X597Y243D02*
X606Y243D01*
X795Y243D02*
X804Y243D01*
X1107Y243D02*
X1119Y243D01*
X1179Y243D02*
X1186Y243D01*
X0Y242D02*
X7Y242D01*
X275Y242D02*
X323Y242D01*
X597Y242D02*
X606Y242D01*
X794Y242D02*
X803Y242D01*
X1108Y242D02*
X1120Y242D01*
X1179Y242D02*
X1186Y242D01*
X0Y241D02*
X7Y241D01*
X275Y241D02*
X324Y241D01*
X597Y241D02*
X606Y241D01*
X794Y241D02*
X803Y241D01*
X1108Y241D02*
X1120Y241D01*
X1179Y241D02*
X1186Y241D01*
X0Y240D02*
X7Y240D01*
X275Y240D02*
X324Y240D01*
X597Y240D02*
X606Y240D01*
X794Y240D02*
X803Y240D01*
X1109Y240D02*
X1121Y240D01*
X1179Y240D02*
X1186Y240D01*
X0Y239D02*
X7Y239D01*
X275Y239D02*
X324Y239D01*
X598Y239D02*
X607Y239D01*
X794Y239D02*
X803Y239D01*
X1110Y239D02*
X1122Y239D01*
X1179Y239D02*
X1186Y239D01*
X0Y238D02*
X7Y238D01*
X275Y238D02*
X324Y238D01*
X598Y238D02*
X607Y238D01*
X794Y238D02*
X803Y238D01*
X1111Y238D02*
X1123Y238D01*
X1179Y238D02*
X1186Y238D01*
X0Y237D02*
X7Y237D01*
X275Y237D02*
X324Y237D01*
X598Y237D02*
X607Y237D01*
X793Y237D02*
X803Y237D01*
X1112Y237D02*
X1124Y237D01*
X1179Y237D02*
X1186Y237D01*
X0Y236D02*
X7Y236D01*
X275Y236D02*
X323Y236D01*
X598Y236D02*
X607Y236D01*
X793Y236D02*
X802Y236D01*
X1112Y236D02*
X1124Y236D01*
X1179Y236D02*
X1186Y236D01*
X0Y235D02*
X7Y235D01*
X275Y235D02*
X322Y235D01*
X598Y235D02*
X607Y235D01*
X793Y235D02*
X802Y235D01*
X1113Y235D02*
X1125Y235D01*
X1179Y235D02*
X1186Y235D01*
X0Y234D02*
X7Y234D01*
X275Y234D02*
X319Y234D01*
X599Y234D02*
X608Y234D01*
X793Y234D02*
X802Y234D01*
X1114Y234D02*
X1126Y234D01*
X1179Y234D02*
X1186Y234D01*
X0Y233D02*
X7Y233D01*
X275Y233D02*
X284Y233D01*
X599Y233D02*
X608Y233D01*
X792Y233D02*
X802Y233D01*
X1115Y233D02*
X1127Y233D01*
X1179Y233D02*
X1186Y233D01*
X0Y232D02*
X7Y232D01*
X275Y232D02*
X284Y232D01*
X599Y232D02*
X608Y232D01*
X792Y232D02*
X801Y232D01*
X1115Y232D02*
X1127Y232D01*
X1179Y232D02*
X1186Y232D01*
X0Y231D02*
X7Y231D01*
X275Y231D02*
X284Y231D01*
X599Y231D02*
X609Y231D01*
X792Y231D02*
X801Y231D01*
X1116Y231D02*
X1128Y231D01*
X1179Y231D02*
X1186Y231D01*
X0Y230D02*
X7Y230D01*
X275Y230D02*
X284Y230D01*
X600Y230D02*
X609Y230D01*
X792Y230D02*
X801Y230D01*
X1117Y230D02*
X1129Y230D01*
X1179Y230D02*
X1186Y230D01*
X0Y229D02*
X7Y229D01*
X275Y229D02*
X284Y229D01*
X600Y229D02*
X609Y229D01*
X791Y229D02*
X801Y229D01*
X1118Y229D02*
X1130Y229D01*
X1179Y229D02*
X1186Y229D01*
X0Y228D02*
X7Y228D01*
X275Y228D02*
X284Y228D01*
X600Y228D02*
X610Y228D01*
X791Y228D02*
X800Y228D01*
X1119Y228D02*
X1131Y228D01*
X1179Y228D02*
X1186Y228D01*
X0Y227D02*
X7Y227D01*
X275Y227D02*
X284Y227D01*
X600Y227D02*
X610Y227D01*
X791Y227D02*
X800Y227D01*
X1119Y227D02*
X1131Y227D01*
X1179Y227D02*
X1186Y227D01*
X0Y226D02*
X7Y226D01*
X275Y226D02*
X284Y226D01*
X601Y226D02*
X610Y226D01*
X790Y226D02*
X800Y226D01*
X1120Y226D02*
X1132Y226D01*
X1179Y226D02*
X1186Y226D01*
X0Y225D02*
X7Y225D01*
X275Y225D02*
X284Y225D01*
X601Y225D02*
X611Y225D01*
X790Y225D02*
X799Y225D01*
X1121Y225D02*
X1133Y225D01*
X1179Y225D02*
X1186Y225D01*
X0Y224D02*
X7Y224D01*
X275Y224D02*
X284Y224D01*
X601Y224D02*
X611Y224D01*
X789Y224D02*
X799Y224D01*
X1122Y224D02*
X1134Y224D01*
X1179Y224D02*
X1186Y224D01*
X0Y223D02*
X7Y223D01*
X275Y223D02*
X284Y223D01*
X602Y223D02*
X611Y223D01*
X789Y223D02*
X799Y223D01*
X1122Y223D02*
X1134Y223D01*
X1179Y223D02*
X1186Y223D01*
X0Y222D02*
X7Y222D01*
X275Y222D02*
X284Y222D01*
X602Y222D02*
X612Y222D01*
X789Y222D02*
X798Y222D01*
X1123Y222D02*
X1135Y222D01*
X1179Y222D02*
X1186Y222D01*
X0Y221D02*
X7Y221D01*
X275Y221D02*
X284Y221D01*
X603Y221D02*
X612Y221D01*
X788Y221D02*
X798Y221D01*
X1124Y221D02*
X1136Y221D01*
X1179Y221D02*
X1186Y221D01*
X0Y220D02*
X7Y220D01*
X275Y220D02*
X284Y220D01*
X603Y220D02*
X613Y220D01*
X788Y220D02*
X798Y220D01*
X1125Y220D02*
X1137Y220D01*
X1179Y220D02*
X1186Y220D01*
X0Y219D02*
X7Y219D01*
X275Y219D02*
X284Y219D01*
X603Y219D02*
X613Y219D01*
X787Y219D02*
X797Y219D01*
X1125Y219D02*
X1138Y219D01*
X1179Y219D02*
X1186Y219D01*
X0Y218D02*
X7Y218D01*
X275Y218D02*
X284Y218D01*
X604Y218D02*
X614Y218D01*
X787Y218D02*
X797Y218D01*
X1094Y218D02*
X1098Y218D01*
X1126Y218D02*
X1138Y218D01*
X1179Y218D02*
X1186Y218D01*
X0Y217D02*
X7Y217D01*
X275Y217D02*
X284Y217D01*
X604Y217D02*
X614Y217D01*
X786Y217D02*
X796Y217D01*
X1093Y217D02*
X1099Y217D01*
X1127Y217D02*
X1139Y217D01*
X1179Y217D02*
X1186Y217D01*
X0Y216D02*
X7Y216D01*
X275Y216D02*
X284Y216D01*
X605Y216D02*
X614Y216D01*
X786Y216D02*
X796Y216D01*
X1092Y216D02*
X1100Y216D01*
X1128Y216D02*
X1139Y216D01*
X1179Y216D02*
X1186Y216D01*
X0Y215D02*
X7Y215D01*
X275Y215D02*
X284Y215D01*
X605Y215D02*
X615Y215D01*
X785Y215D02*
X795Y215D01*
X1092Y215D02*
X1100Y215D01*
X1129Y215D02*
X1140Y215D01*
X1179Y215D02*
X1186Y215D01*
X0Y214D02*
X7Y214D01*
X275Y214D02*
X284Y214D01*
X606Y214D02*
X615Y214D01*
X785Y214D02*
X795Y214D01*
X1092Y214D02*
X1101Y214D01*
X1129Y214D02*
X1140Y214D01*
X1179Y214D02*
X1186Y214D01*
X0Y213D02*
X7Y213D01*
X275Y213D02*
X284Y213D01*
X606Y213D02*
X616Y213D01*
X785Y213D02*
X794Y213D01*
X1092Y213D02*
X1101Y213D01*
X1130Y213D02*
X1140Y213D01*
X1179Y213D02*
X1186Y213D01*
X0Y212D02*
X7Y212D01*
X275Y212D02*
X284Y212D01*
X607Y212D02*
X617Y212D01*
X784Y212D02*
X794Y212D01*
X1092Y212D02*
X1101Y212D01*
X1131Y212D02*
X1140Y212D01*
X1179Y212D02*
X1186Y212D01*
X0Y211D02*
X7Y211D01*
X275Y211D02*
X284Y211D01*
X607Y211D02*
X617Y211D01*
X783Y211D02*
X793Y211D01*
X1092Y211D02*
X1102Y211D01*
X1131Y211D02*
X1140Y211D01*
X1179Y211D02*
X1186Y211D01*
X0Y210D02*
X7Y210D01*
X275Y210D02*
X300Y210D01*
X607Y210D02*
X618Y210D01*
X783Y210D02*
X793Y210D01*
X1092Y210D02*
X1140Y210D01*
X1179Y210D02*
X1186Y210D01*
X0Y209D02*
X7Y209D01*
X275Y209D02*
X302Y209D01*
X608Y209D02*
X618Y209D01*
X782Y209D02*
X792Y209D01*
X1092Y209D02*
X1140Y209D01*
X1179Y209D02*
X1186Y209D01*
X0Y208D02*
X7Y208D01*
X275Y208D02*
X303Y208D01*
X608Y208D02*
X619Y208D01*
X781Y208D02*
X792Y208D01*
X1093Y208D02*
X1140Y208D01*
X1179Y208D02*
X1186Y208D01*
X0Y207D02*
X7Y207D01*
X275Y207D02*
X304Y207D01*
X609Y207D02*
X620Y207D01*
X781Y207D02*
X791Y207D01*
X1093Y207D02*
X1139Y207D01*
X1179Y207D02*
X1186Y207D01*
X0Y206D02*
X7Y206D01*
X275Y206D02*
X304Y206D01*
X610Y206D02*
X620Y206D01*
X780Y206D02*
X791Y206D01*
X1094Y206D02*
X1139Y206D01*
X1179Y206D02*
X1186Y206D01*
X0Y205D02*
X7Y205D01*
X275Y205D02*
X304Y205D01*
X610Y205D02*
X621Y205D01*
X780Y205D02*
X790Y205D01*
X1095Y205D02*
X1138Y205D01*
X1179Y205D02*
X1186Y205D01*
X0Y204D02*
X7Y204D01*
X275Y204D02*
X304Y204D01*
X611Y204D02*
X622Y204D01*
X779Y204D02*
X790Y204D01*
X1096Y204D02*
X1137Y204D01*
X1179Y204D02*
X1186Y204D01*
X0Y203D02*
X7Y203D01*
X275Y203D02*
X304Y203D01*
X611Y203D02*
X622Y203D01*
X778Y203D02*
X789Y203D01*
X1097Y203D02*
X1136Y203D01*
X1179Y203D02*
X1186Y203D01*
X0Y202D02*
X7Y202D01*
X275Y202D02*
X303Y202D01*
X612Y202D02*
X623Y202D01*
X777Y202D02*
X788Y202D01*
X1098Y202D02*
X1135Y202D01*
X1179Y202D02*
X1186Y202D01*
X0Y201D02*
X7Y201D01*
X275Y201D02*
X302Y201D01*
X613Y201D02*
X624Y201D01*
X777Y201D02*
X788Y201D01*
X1101Y201D02*
X1133Y201D01*
X1179Y201D02*
X1186Y201D01*
X0Y200D02*
X7Y200D01*
X275Y200D02*
X285Y200D01*
X613Y200D02*
X625Y200D01*
X776Y200D02*
X787Y200D01*
X1179Y200D02*
X1186Y200D01*
X0Y199D02*
X7Y199D01*
X275Y199D02*
X284Y199D01*
X614Y199D02*
X625Y199D01*
X775Y199D02*
X787Y199D01*
X1179Y199D02*
X1186Y199D01*
X0Y198D02*
X7Y198D01*
X275Y198D02*
X284Y198D01*
X615Y198D02*
X626Y198D01*
X774Y198D02*
X786Y198D01*
X1179Y198D02*
X1186Y198D01*
X0Y197D02*
X7Y197D01*
X275Y197D02*
X284Y197D01*
X615Y197D02*
X627Y197D01*
X774Y197D02*
X785Y197D01*
X1179Y197D02*
X1186Y197D01*
X0Y196D02*
X7Y196D01*
X275Y196D02*
X284Y196D01*
X616Y196D02*
X628Y196D01*
X773Y196D02*
X784Y196D01*
X1179Y196D02*
X1186Y196D01*
X0Y195D02*
X7Y195D01*
X275Y195D02*
X284Y195D01*
X617Y195D02*
X629Y195D01*
X772Y195D02*
X784Y195D01*
X1179Y195D02*
X1186Y195D01*
X0Y194D02*
X7Y194D01*
X275Y194D02*
X284Y194D01*
X618Y194D02*
X630Y194D01*
X771Y194D02*
X783Y194D01*
X1179Y194D02*
X1186Y194D01*
X0Y193D02*
X7Y193D01*
X275Y193D02*
X284Y193D01*
X618Y193D02*
X631Y193D01*
X770Y193D02*
X782Y193D01*
X1179Y193D02*
X1186Y193D01*
X0Y192D02*
X7Y192D01*
X275Y192D02*
X284Y192D01*
X619Y192D02*
X631Y192D01*
X769Y192D02*
X781Y192D01*
X1179Y192D02*
X1186Y192D01*
X0Y191D02*
X7Y191D01*
X275Y191D02*
X284Y191D01*
X620Y191D02*
X632Y191D01*
X768Y191D02*
X781Y191D01*
X1179Y191D02*
X1186Y191D01*
X0Y190D02*
X7Y190D01*
X275Y190D02*
X284Y190D01*
X621Y190D02*
X633Y190D01*
X767Y190D02*
X780Y190D01*
X1179Y190D02*
X1186Y190D01*
X0Y189D02*
X7Y189D01*
X275Y189D02*
X284Y189D01*
X622Y189D02*
X634Y189D01*
X766Y189D02*
X779Y189D01*
X1179Y189D02*
X1186Y189D01*
X0Y188D02*
X7Y188D01*
X275Y188D02*
X284Y188D01*
X623Y188D02*
X636Y188D01*
X765Y188D02*
X778Y188D01*
X1179Y188D02*
X1186Y188D01*
X0Y187D02*
X7Y187D01*
X275Y187D02*
X284Y187D01*
X623Y187D02*
X637Y187D01*
X764Y187D02*
X777Y187D01*
X1179Y187D02*
X1186Y187D01*
X0Y186D02*
X7Y186D01*
X275Y186D02*
X284Y186D01*
X624Y186D02*
X638Y186D01*
X763Y186D02*
X776Y186D01*
X1179Y186D02*
X1186Y186D01*
X0Y185D02*
X7Y185D01*
X275Y185D02*
X284Y185D01*
X625Y185D02*
X639Y185D01*
X762Y185D02*
X775Y185D01*
X1179Y185D02*
X1186Y185D01*
X0Y184D02*
X7Y184D01*
X275Y184D02*
X284Y184D01*
X626Y184D02*
X640Y184D01*
X760Y184D02*
X774Y184D01*
X1179Y184D02*
X1186Y184D01*
X0Y183D02*
X7Y183D01*
X275Y183D02*
X284Y183D01*
X627Y183D02*
X641Y183D01*
X759Y183D02*
X773Y183D01*
X1179Y183D02*
X1186Y183D01*
X0Y182D02*
X7Y182D01*
X275Y182D02*
X284Y182D01*
X628Y182D02*
X643Y182D01*
X758Y182D02*
X772Y182D01*
X1179Y182D02*
X1186Y182D01*
X0Y181D02*
X7Y181D01*
X275Y181D02*
X284Y181D01*
X629Y181D02*
X644Y181D01*
X756Y181D02*
X771Y181D01*
X1179Y181D02*
X1186Y181D01*
X0Y180D02*
X7Y180D01*
X275Y180D02*
X284Y180D01*
X631Y180D02*
X645Y180D01*
X755Y180D02*
X770Y180D01*
X1179Y180D02*
X1186Y180D01*
X0Y179D02*
X7Y179D01*
X275Y179D02*
X284Y179D01*
X632Y179D02*
X647Y179D01*
X754Y179D02*
X769Y179D01*
X1179Y179D02*
X1186Y179D01*
X0Y178D02*
X7Y178D01*
X275Y178D02*
X284Y178D01*
X633Y178D02*
X648Y178D01*
X752Y178D02*
X768Y178D01*
X1179Y178D02*
X1186Y178D01*
X0Y177D02*
X7Y177D01*
X275Y177D02*
X284Y177D01*
X634Y177D02*
X650Y177D01*
X750Y177D02*
X767Y177D01*
X1179Y177D02*
X1186Y177D01*
X0Y176D02*
X7Y176D01*
X275Y176D02*
X320Y176D01*
X635Y176D02*
X652Y176D01*
X749Y176D02*
X765Y176D01*
X1179Y176D02*
X1186Y176D01*
X0Y175D02*
X7Y175D01*
X275Y175D02*
X322Y175D01*
X637Y175D02*
X653Y175D01*
X747Y175D02*
X764Y175D01*
X0Y174D02*
X7Y174D01*
X275Y174D02*
X323Y174D01*
X638Y174D02*
X655Y174D01*
X745Y174D02*
X763Y174D01*
X0Y173D02*
X7Y173D01*
X275Y173D02*
X324Y173D01*
X639Y173D02*
X657Y173D01*
X743Y173D02*
X761Y173D01*
X0Y172D02*
X7Y172D01*
X275Y172D02*
X324Y172D01*
X641Y172D02*
X659Y172D01*
X741Y172D02*
X760Y172D01*
X0Y171D02*
X7Y171D01*
X275Y171D02*
X324Y171D01*
X642Y171D02*
X661Y171D01*
X739Y171D02*
X759Y171D01*
X0Y170D02*
X7Y170D01*
X275Y170D02*
X324Y170D01*
X644Y170D02*
X664Y170D01*
X737Y170D02*
X757Y170D01*
X0Y169D02*
X7Y169D01*
X275Y169D02*
X324Y169D01*
X645Y169D02*
X666Y169D01*
X734Y169D02*
X755Y169D01*
X0Y168D02*
X7Y168D01*
X275Y168D02*
X323Y168D01*
X647Y168D02*
X669Y168D01*
X731Y168D02*
X754Y168D01*
X0Y167D02*
X7Y167D01*
X275Y167D02*
X322Y167D01*
X649Y167D02*
X672Y167D01*
X729Y167D02*
X752Y167D01*
X1179Y167D02*
X1186Y167D01*
X0Y166D02*
X7Y166D01*
X650Y166D02*
X675Y166D01*
X725Y166D02*
X750Y166D01*
X1179Y166D02*
X1186Y166D01*
X0Y165D02*
X7Y165D01*
X652Y165D02*
X680Y165D01*
X721Y165D02*
X748Y165D01*
X1179Y165D02*
X1186Y165D01*
X0Y164D02*
X7Y164D01*
X654Y164D02*
X685Y164D01*
X715Y164D02*
X746Y164D01*
X1179Y164D02*
X1186Y164D01*
X0Y163D02*
X7Y163D01*
X656Y163D02*
X696Y163D01*
X704Y163D02*
X744Y163D01*
X1179Y163D02*
X1186Y163D01*
X0Y162D02*
X7Y162D01*
X658Y162D02*
X742Y162D01*
X1179Y162D02*
X1186Y162D01*
X0Y161D02*
X7Y161D01*
X661Y161D02*
X740Y161D01*
X1179Y161D02*
X1186Y161D01*
X0Y160D02*
X7Y160D01*
X663Y160D02*
X737Y160D01*
X1179Y160D02*
X1186Y160D01*
X0Y159D02*
X7Y159D01*
X666Y159D02*
X735Y159D01*
X1179Y159D02*
X1186Y159D01*
X0Y158D02*
X7Y158D01*
X669Y158D02*
X732Y158D01*
X1179Y158D02*
X1186Y158D01*
X0Y157D02*
X7Y157D01*
X672Y157D02*
X728Y157D01*
X1179Y157D02*
X1186Y157D01*
X0Y156D02*
X7Y156D01*
X676Y156D02*
X725Y156D01*
X1179Y156D02*
X1186Y156D01*
X0Y155D02*
X7Y155D01*
X680Y155D02*
X720Y155D01*
X1179Y155D02*
X1186Y155D01*
X0Y154D02*
X7Y154D01*
X686Y154D02*
X714Y154D01*
X1179Y154D02*
X1186Y154D01*
X0Y153D02*
X7Y153D01*
X698Y153D02*
X703Y153D01*
X1179Y153D02*
X1186Y153D01*
X0Y152D02*
X7Y152D01*
X1179Y152D02*
X1186Y152D01*
X0Y151D02*
X7Y151D01*
X1179Y151D02*
X1186Y151D01*
X0Y150D02*
X7Y150D01*
X1179Y150D02*
X1186Y150D01*
X0Y149D02*
X7Y149D01*
X1179Y149D02*
X1186Y149D01*
X0Y148D02*
X7Y148D01*
X1179Y148D02*
X1186Y148D01*
X0Y147D02*
X7Y147D01*
X1179Y147D02*
X1186Y147D01*
X0Y146D02*
X7Y146D01*
X1179Y146D02*
X1186Y146D01*
X0Y145D02*
X7Y145D01*
X1179Y145D02*
X1186Y145D01*
X0Y144D02*
X7Y144D01*
X1179Y144D02*
X1186Y144D01*
X0Y143D02*
X7Y143D01*
X1179Y143D02*
X1186Y143D01*
X0Y142D02*
X7Y142D01*
X1179Y142D02*
X1186Y142D01*
X0Y141D02*
X7Y141D01*
X1179Y141D02*
X1186Y141D01*
X0Y140D02*
X7Y140D01*
X1179Y140D02*
X1186Y140D01*
X0Y139D02*
X7Y139D01*
X1179Y139D02*
X1186Y139D01*
X0Y138D02*
X7Y138D01*
X1179Y138D02*
X1186Y138D01*
X0Y137D02*
X7Y137D01*
X1179Y137D02*
X1186Y137D01*
X0Y136D02*
X7Y136D01*
X1179Y136D02*
X1186Y136D01*
X0Y135D02*
X7Y135D01*
X1179Y135D02*
X1186Y135D01*
X0Y134D02*
X7Y134D01*
X1179Y134D02*
X1186Y134D01*
X0Y133D02*
X7Y133D01*
X1179Y133D02*
X1186Y133D01*
X0Y132D02*
X7Y132D01*
X1179Y132D02*
X1186Y132D01*
X0Y131D02*
X7Y131D01*
X1179Y131D02*
X1186Y131D01*
X0Y130D02*
X7Y130D01*
X1179Y130D02*
X1186Y130D01*
X0Y129D02*
X7Y129D01*
X1179Y129D02*
X1186Y129D01*
X0Y128D02*
X7Y128D01*
X651Y128D02*
X670Y128D01*
X689Y128D02*
X707Y128D01*
X1179Y128D02*
X1186Y128D01*
X0Y127D02*
X7Y127D01*
X649Y127D02*
X670Y127D01*
X688Y127D02*
X707Y127D01*
X1179Y127D02*
X1186Y127D01*
X0Y126D02*
X7Y126D01*
X648Y126D02*
X671Y126D01*
X688Y126D02*
X707Y126D01*
X1179Y126D02*
X1186Y126D01*
X0Y125D02*
X7Y125D01*
X647Y125D02*
X671Y125D01*
X688Y125D02*
X707Y125D01*
X1179Y125D02*
X1186Y125D01*
X0Y124D02*
X7Y124D01*
X647Y124D02*
X671Y124D01*
X688Y124D02*
X707Y124D01*
X1179Y124D02*
X1186Y124D01*
X0Y123D02*
X7Y123D01*
X646Y123D02*
X670Y123D01*
X689Y123D02*
X707Y123D01*
X1179Y123D02*
X1186Y123D01*
X0Y122D02*
X7Y122D01*
X645Y122D02*
X668Y122D01*
X690Y122D02*
X707Y122D01*
X1179Y122D02*
X1186Y122D01*
X0Y121D02*
X7Y121D01*
X645Y121D02*
X652Y121D01*
X701Y121D02*
X707Y121D01*
X1179Y121D02*
X1186Y121D01*
X0Y120D02*
X7Y120D01*
X644Y120D02*
X651Y120D01*
X701Y120D02*
X707Y120D01*
X1179Y120D02*
X1186Y120D01*
X0Y119D02*
X7Y119D01*
X644Y119D02*
X651Y119D01*
X701Y119D02*
X707Y119D01*
X1179Y119D02*
X1186Y119D01*
X0Y118D02*
X7Y118D01*
X643Y118D02*
X650Y118D01*
X701Y118D02*
X707Y118D01*
X1179Y118D02*
X1186Y118D01*
X0Y117D02*
X7Y117D01*
X643Y117D02*
X650Y117D01*
X701Y117D02*
X707Y117D01*
X1179Y117D02*
X1186Y117D01*
X0Y116D02*
X7Y116D01*
X642Y116D02*
X649Y116D01*
X701Y116D02*
X707Y116D01*
X1179Y116D02*
X1186Y116D01*
X0Y115D02*
X7Y115D01*
X642Y115D02*
X649Y115D01*
X701Y115D02*
X707Y115D01*
X1179Y115D02*
X1186Y115D01*
X0Y114D02*
X7Y114D01*
X641Y114D02*
X648Y114D01*
X701Y114D02*
X707Y114D01*
X1179Y114D02*
X1186Y114D01*
X0Y113D02*
X7Y113D01*
X641Y113D02*
X648Y113D01*
X701Y113D02*
X707Y113D01*
X1179Y113D02*
X1186Y113D01*
X0Y112D02*
X7Y112D01*
X640Y112D02*
X647Y112D01*
X701Y112D02*
X707Y112D01*
X1179Y112D02*
X1186Y112D01*
X0Y111D02*
X7Y111D01*
X640Y111D02*
X647Y111D01*
X701Y111D02*
X707Y111D01*
X1179Y111D02*
X1186Y111D01*
X0Y110D02*
X7Y110D01*
X639Y110D02*
X646Y110D01*
X701Y110D02*
X707Y110D01*
X1179Y110D02*
X1186Y110D01*
X0Y109D02*
X7Y109D01*
X639Y109D02*
X646Y109D01*
X701Y109D02*
X707Y109D01*
X1179Y109D02*
X1186Y109D01*
X0Y108D02*
X7Y108D01*
X639Y108D02*
X645Y108D01*
X701Y108D02*
X707Y108D01*
X1179Y108D02*
X1186Y108D01*
X0Y107D02*
X7Y107D01*
X638Y107D02*
X645Y107D01*
X701Y107D02*
X707Y107D01*
X1179Y107D02*
X1186Y107D01*
X0Y106D02*
X7Y106D01*
X638Y106D02*
X644Y106D01*
X701Y106D02*
X707Y106D01*
X1179Y106D02*
X1186Y106D01*
X0Y105D02*
X7Y105D01*
X638Y105D02*
X644Y105D01*
X701Y105D02*
X707Y105D01*
X1179Y105D02*
X1186Y105D01*
X0Y104D02*
X7Y104D01*
X637Y104D02*
X644Y104D01*
X701Y104D02*
X707Y104D01*
X1179Y104D02*
X1186Y104D01*
X0Y103D02*
X7Y103D01*
X637Y103D02*
X643Y103D01*
X701Y103D02*
X707Y103D01*
X1179Y103D02*
X1186Y103D01*
X0Y102D02*
X7Y102D01*
X637Y102D02*
X643Y102D01*
X701Y102D02*
X707Y102D01*
X1179Y102D02*
X1186Y102D01*
X0Y101D02*
X7Y101D01*
X637Y101D02*
X643Y101D01*
X701Y101D02*
X707Y101D01*
X1179Y101D02*
X1186Y101D01*
X0Y100D02*
X7Y100D01*
X637Y100D02*
X644Y100D01*
X701Y100D02*
X707Y100D01*
X1179Y100D02*
X1186Y100D01*
X0Y99D02*
X7Y99D01*
X638Y99D02*
X644Y99D01*
X701Y99D02*
X707Y99D01*
X717Y99D02*
X719Y99D01*
X1179Y99D02*
X1186Y99D01*
X0Y98D02*
X7Y98D01*
X638Y98D02*
X644Y98D01*
X701Y98D02*
X707Y98D01*
X716Y98D02*
X720Y98D01*
X1179Y98D02*
X1186Y98D01*
X0Y97D02*
X7Y97D01*
X638Y97D02*
X645Y97D01*
X701Y97D02*
X707Y97D01*
X715Y97D02*
X721Y97D01*
X1179Y97D02*
X1186Y97D01*
X0Y96D02*
X7Y96D01*
X639Y96D02*
X645Y96D01*
X701Y96D02*
X707Y96D01*
X715Y96D02*
X721Y96D01*
X1179Y96D02*
X1186Y96D01*
X0Y95D02*
X7Y95D01*
X639Y95D02*
X646Y95D01*
X701Y95D02*
X707Y95D01*
X715Y95D02*
X721Y95D01*
X1179Y95D02*
X1186Y95D01*
X0Y94D02*
X7Y94D01*
X639Y94D02*
X646Y94D01*
X701Y94D02*
X707Y94D01*
X715Y94D02*
X721Y94D01*
X1179Y94D02*
X1186Y94D01*
X0Y93D02*
X7Y93D01*
X640Y93D02*
X647Y93D01*
X701Y93D02*
X707Y93D01*
X715Y93D02*
X721Y93D01*
X1179Y93D02*
X1186Y93D01*
X0Y92D02*
X7Y92D01*
X640Y92D02*
X647Y92D01*
X701Y92D02*
X707Y92D01*
X715Y92D02*
X721Y92D01*
X1179Y92D02*
X1186Y92D01*
X0Y91D02*
X7Y91D01*
X641Y91D02*
X648Y91D01*
X701Y91D02*
X707Y91D01*
X715Y91D02*
X721Y91D01*
X1179Y91D02*
X1186Y91D01*
X0Y90D02*
X7Y90D01*
X641Y90D02*
X648Y90D01*
X701Y90D02*
X707Y90D01*
X715Y90D02*
X721Y90D01*
X1179Y90D02*
X1186Y90D01*
X0Y89D02*
X7Y89D01*
X642Y89D02*
X649Y89D01*
X701Y89D02*
X707Y89D01*
X715Y89D02*
X721Y89D01*
X1179Y89D02*
X1186Y89D01*
X0Y88D02*
X7Y88D01*
X642Y88D02*
X649Y88D01*
X701Y88D02*
X707Y88D01*
X715Y88D02*
X721Y88D01*
X1179Y88D02*
X1186Y88D01*
X0Y87D02*
X7Y87D01*
X643Y87D02*
X650Y87D01*
X701Y87D02*
X707Y87D01*
X715Y87D02*
X721Y87D01*
X1179Y87D02*
X1186Y87D01*
X0Y86D02*
X7Y86D01*
X643Y86D02*
X650Y86D01*
X701Y86D02*
X707Y86D01*
X715Y86D02*
X721Y86D01*
X1179Y86D02*
X1186Y86D01*
X0Y85D02*
X7Y85D01*
X644Y85D02*
X651Y85D01*
X701Y85D02*
X707Y85D01*
X715Y85D02*
X721Y85D01*
X1179Y85D02*
X1186Y85D01*
X0Y84D02*
X7Y84D01*
X644Y84D02*
X651Y84D01*
X701Y84D02*
X707Y84D01*
X715Y84D02*
X721Y84D01*
X1179Y84D02*
X1186Y84D01*
X0Y83D02*
X7Y83D01*
X645Y83D02*
X652Y83D01*
X701Y83D02*
X707Y83D01*
X715Y83D02*
X721Y83D01*
X1179Y83D02*
X1186Y83D01*
X0Y82D02*
X7Y82D01*
X645Y82D02*
X653Y82D01*
X701Y82D02*
X707Y82D01*
X715Y82D02*
X721Y82D01*
X1179Y82D02*
X1186Y82D01*
X0Y81D02*
X7Y81D01*
X646Y81D02*
X669Y81D01*
X689Y81D02*
X721Y81D01*
X1179Y81D02*
X1186Y81D01*
X0Y80D02*
X7Y80D01*
X646Y80D02*
X670Y80D01*
X688Y80D02*
X721Y80D01*
X1179Y80D02*
X1186Y80D01*
X0Y79D02*
X7Y79D01*
X647Y79D02*
X671Y79D01*
X688Y79D02*
X721Y79D01*
X1179Y79D02*
X1186Y79D01*
X0Y78D02*
X7Y78D01*
X648Y78D02*
X671Y78D01*
X688Y78D02*
X721Y78D01*
X1179Y78D02*
X1186Y78D01*
X0Y77D02*
X7Y77D01*
X649Y77D02*
X671Y77D01*
X688Y77D02*
X721Y77D01*
X1179Y77D02*
X1186Y77D01*
X0Y76D02*
X7Y76D01*
X651Y76D02*
X670Y76D01*
X688Y76D02*
X720Y76D01*
X1179Y76D02*
X1186Y76D01*
X0Y75D02*
X7Y75D01*
X653Y75D02*
X669Y75D01*
X690Y75D02*
X719Y75D01*
X1179Y75D02*
X1186Y75D01*
X0Y74D02*
X7Y74D01*
X1179Y74D02*
X1186Y74D01*
X0Y73D02*
X7Y73D01*
X1179Y73D02*
X1186Y73D01*
X0Y72D02*
X7Y72D01*
X1179Y72D02*
X1186Y72D01*
X0Y71D02*
X7Y71D01*
X1179Y71D02*
X1186Y71D01*
X0Y70D02*
X7Y70D01*
X1179Y70D02*
X1186Y70D01*
X0Y69D02*
X7Y69D01*
X1179Y69D02*
X1186Y69D01*
X0Y68D02*
X7Y68D01*
X1179Y68D02*
X1186Y68D01*
X0Y67D02*
X7Y67D01*
X1179Y67D02*
X1186Y67D01*
X0Y66D02*
X7Y66D01*
X1179Y66D02*
X1186Y66D01*
X0Y65D02*
X7Y65D01*
X1179Y65D02*
X1186Y65D01*
X0Y64D02*
X7Y64D01*
X1179Y64D02*
X1186Y64D01*
X0Y63D02*
X7Y63D01*
X1179Y63D02*
X1186Y63D01*
X0Y62D02*
X7Y62D01*
X1179Y62D02*
X1186Y62D01*
X0Y61D02*
X7Y61D01*
X1179Y61D02*
X1186Y61D01*
X0Y60D02*
X7Y60D01*
X1179Y60D02*
X1186Y60D01*
X0Y59D02*
X7Y59D01*
X1179Y59D02*
X1186Y59D01*
X0Y58D02*
X7Y58D01*
X1179Y58D02*
X1186Y58D01*
X0Y57D02*
X7Y57D01*
X1179Y57D02*
X1186Y57D01*
X0Y56D02*
X7Y56D01*
X1179Y56D02*
X1186Y56D01*
X0Y55D02*
X7Y55D01*
X1179Y55D02*
X1186Y55D01*
X0Y54D02*
X7Y54D01*
X1179Y54D02*
X1186Y54D01*
X0Y53D02*
X7Y53D01*
X1179Y53D02*
X1186Y53D01*
X0Y52D02*
X7Y52D01*
X1179Y52D02*
X1186Y52D01*
X0Y51D02*
X7Y51D01*
X1179Y51D02*
X1186Y51D01*
X0Y50D02*
X7Y50D01*
X1179Y50D02*
X1186Y50D01*
X0Y49D02*
X7Y49D01*
X1179Y49D02*
X1186Y49D01*
X0Y48D02*
X7Y48D01*
X1179Y48D02*
X1186Y48D01*
X0Y47D02*
X7Y47D01*
X1179Y47D02*
X1186Y47D01*
X0Y46D02*
X7Y46D01*
X1179Y46D02*
X1186Y46D01*
X0Y45D02*
X7Y45D01*
X1179Y45D02*
X1186Y45D01*
X0Y44D02*
X7Y44D01*
X1179Y44D02*
X1186Y44D01*
X0Y43D02*
X7Y43D01*
X1179Y43D02*
X1186Y43D01*
X0Y42D02*
X7Y42D01*
X1179Y42D02*
X1186Y42D01*
X0Y41D02*
X7Y41D01*
X1179Y41D02*
X1186Y41D01*
X0Y40D02*
X7Y40D01*
X1179Y40D02*
X1186Y40D01*
X0Y39D02*
X7Y39D01*
X1179Y39D02*
X1186Y39D01*
X0Y38D02*
X7Y38D01*
X1179Y38D02*
X1186Y38D01*
X0Y37D02*
X7Y37D01*
X1179Y37D02*
X1186Y37D01*
X0Y36D02*
X7Y36D01*
X1179Y36D02*
X1186Y36D01*
X0Y35D02*
X7Y35D01*
X1179Y35D02*
X1186Y35D01*
X0Y34D02*
X7Y34D01*
X1179Y34D02*
X1186Y34D01*
X0Y33D02*
X7Y33D01*
X1179Y33D02*
X1186Y33D01*
X0Y32D02*
X7Y32D01*
X1179Y32D02*
X1186Y32D01*
X0Y31D02*
X7Y31D01*
X1179Y31D02*
X1186Y31D01*
X0Y30D02*
X7Y30D01*
X1179Y30D02*
X1186Y30D01*
X0Y29D02*
X7Y29D01*
X1179Y29D02*
X1186Y29D01*
X0Y28D02*
X7Y28D01*
X1179Y28D02*
X1186Y28D01*
X0Y27D02*
X7Y27D01*
X1179Y27D02*
X1186Y27D01*
X0Y26D02*
X7Y26D01*
X1179Y26D02*
X1186Y26D01*
X0Y25D02*
X7Y25D01*
X1179Y25D02*
X1186Y25D01*
X0Y24D02*
X7Y24D01*
X1179Y24D02*
X1186Y24D01*
X0Y23D02*
X7Y23D01*
X1179Y23D02*
X1186Y23D01*
X0Y22D02*
X7Y22D01*
X1179Y22D02*
X1186Y22D01*
X0Y21D02*
X7Y21D01*
X1179Y21D02*
X1186Y21D01*
X0Y20D02*
X7Y20D01*
X1179Y20D02*
X1186Y20D01*
X0Y19D02*
X7Y19D01*
X1179Y19D02*
X1186Y19D01*
X0Y18D02*
X7Y18D01*
X1179Y18D02*
X1186Y18D01*
X0Y17D02*
X7Y17D01*
X1179Y17D02*
X1186Y17D01*
X0Y16D02*
X7Y16D01*
X1179Y16D02*
X1186Y16D01*
X0Y15D02*
X7Y15D01*
X1179Y15D02*
X1186Y15D01*
X0Y14D02*
X7Y14D01*
X1179Y14D02*
X1186Y14D01*
X0Y13D02*
X7Y13D01*
X1179Y13D02*
X1186Y13D01*
X0Y12D02*
X7Y12D01*
X1179Y12D02*
X1186Y12D01*
X0Y11D02*
X7Y11D01*
X1179Y11D02*
X1186Y11D01*
X0Y10D02*
X7Y10D01*
X1179Y10D02*
X1186Y10D01*
X0Y9D02*
X7Y9D01*
X1179Y9D02*
X1186Y9D01*
X0Y8D02*
X1186Y8D01*
X0Y7D02*
X1186Y7D01*
X0Y6D02*
X1186Y6D01*
X0Y5D02*
X1186Y5D01*
X0Y4D02*
X1186Y4D01*
X0Y3D02*
X1186Y3D01*
X0Y2D02*
X1186Y2D01*
X0Y1D02*
X1186Y1D01*
D02*
G04 End of Silk1*
M02*