G04 MADE WITH FRITZING*
G04 WWW.FRITZING.ORG*
G04 DOUBLE SIDED*
G04 HOLES PLATED*
G04 CONTOUR ON CENTER OF CONTOUR VECTOR*
%ASAXBY*%
%FSLAX23Y23*%
%MOIN*%
%OFA0B0*%
%SFA1.0B1.0*%
%ADD10C,0.085000*%
%ADD11C,0.096614*%
%ADD12C,0.076000*%
%ADD13C,0.155669*%
%ADD14C,0.074000*%
%ADD15R,0.128110X0.128110*%
%ADD16C,0.030000*%
%ADD17R,0.001000X0.001000*%
%LNMASK1*%
G90*
G70*
G54D10*
X892Y480D03*
X892Y380D03*
G54D11*
X1292Y80D03*
X92Y80D03*
G54D12*
X492Y280D03*
X492Y386D03*
X492Y492D03*
X492Y280D03*
X492Y386D03*
X492Y492D03*
G54D13*
X192Y580D03*
X192Y380D03*
X192Y580D03*
X192Y380D03*
G54D10*
X492Y680D03*
X892Y680D03*
X592Y80D03*
X992Y80D03*
G54D14*
X1192Y580D03*
X1192Y502D03*
X1192Y423D03*
X1192Y580D03*
X1192Y502D03*
X1192Y423D03*
G54D15*
X1092Y680D03*
G54D16*
G36*
X919Y453D02*
X864Y453D01*
X864Y508D01*
X919Y508D01*
X919Y453D01*
G37*
D02*
G54D17*
X114Y458D02*
X268Y458D01*
X114Y457D02*
X268Y457D01*
X114Y456D02*
X268Y456D01*
X114Y455D02*
X268Y455D01*
X114Y454D02*
X268Y454D01*
X114Y453D02*
X268Y453D01*
X114Y452D02*
X268Y452D01*
X114Y451D02*
X268Y451D01*
X114Y450D02*
X268Y450D01*
X114Y449D02*
X268Y449D01*
X114Y448D02*
X268Y448D01*
X114Y447D02*
X268Y447D01*
X114Y446D02*
X268Y446D01*
X114Y445D02*
X268Y445D01*
X114Y444D02*
X268Y444D01*
X114Y443D02*
X268Y443D01*
X114Y442D02*
X268Y442D01*
X114Y441D02*
X268Y441D01*
X114Y440D02*
X268Y440D01*
X114Y439D02*
X268Y439D01*
X114Y438D02*
X268Y438D01*
X114Y437D02*
X268Y437D01*
X114Y436D02*
X268Y436D01*
X114Y435D02*
X268Y435D01*
X114Y434D02*
X268Y434D01*
X114Y433D02*
X268Y433D01*
X114Y432D02*
X268Y432D01*
X114Y431D02*
X268Y431D01*
X114Y430D02*
X268Y430D01*
X114Y429D02*
X268Y429D01*
X114Y428D02*
X268Y428D01*
X114Y427D02*
X268Y427D01*
X114Y426D02*
X268Y426D01*
X114Y425D02*
X268Y425D01*
X114Y424D02*
X268Y424D01*
X114Y423D02*
X187Y423D01*
X195Y423D02*
X268Y423D01*
X114Y422D02*
X180Y422D01*
X201Y422D02*
X268Y422D01*
X114Y421D02*
X177Y421D01*
X205Y421D02*
X268Y421D01*
X114Y420D02*
X174Y420D01*
X208Y420D02*
X268Y420D01*
X114Y419D02*
X172Y419D01*
X210Y419D02*
X268Y419D01*
X114Y418D02*
X170Y418D01*
X212Y418D02*
X268Y418D01*
X114Y417D02*
X168Y417D01*
X213Y417D02*
X268Y417D01*
X114Y416D02*
X167Y416D01*
X215Y416D02*
X268Y416D01*
X114Y415D02*
X165Y415D01*
X216Y415D02*
X268Y415D01*
X114Y414D02*
X164Y414D01*
X218Y414D02*
X268Y414D01*
X114Y413D02*
X163Y413D01*
X219Y413D02*
X268Y413D01*
X114Y412D02*
X162Y412D01*
X220Y412D02*
X268Y412D01*
X114Y411D02*
X161Y411D01*
X221Y411D02*
X268Y411D01*
X114Y410D02*
X160Y410D01*
X222Y410D02*
X268Y410D01*
X114Y409D02*
X159Y409D01*
X223Y409D02*
X268Y409D01*
X114Y408D02*
X158Y408D01*
X224Y408D02*
X268Y408D01*
X114Y407D02*
X157Y407D01*
X225Y407D02*
X268Y407D01*
X114Y406D02*
X156Y406D01*
X225Y406D02*
X268Y406D01*
X114Y405D02*
X156Y405D01*
X226Y405D02*
X268Y405D01*
X114Y404D02*
X155Y404D01*
X227Y404D02*
X268Y404D01*
X114Y403D02*
X154Y403D01*
X227Y403D02*
X268Y403D01*
X114Y402D02*
X154Y402D01*
X228Y402D02*
X268Y402D01*
X114Y401D02*
X153Y401D01*
X229Y401D02*
X268Y401D01*
X114Y400D02*
X153Y400D01*
X229Y400D02*
X268Y400D01*
X114Y399D02*
X152Y399D01*
X230Y399D02*
X268Y399D01*
X114Y398D02*
X152Y398D01*
X230Y398D02*
X268Y398D01*
X114Y397D02*
X151Y397D01*
X230Y397D02*
X268Y397D01*
X114Y396D02*
X151Y396D01*
X231Y396D02*
X268Y396D01*
X114Y395D02*
X151Y395D01*
X231Y395D02*
X268Y395D01*
X114Y394D02*
X150Y394D01*
X232Y394D02*
X268Y394D01*
X114Y393D02*
X150Y393D01*
X232Y393D02*
X268Y393D01*
X114Y392D02*
X150Y392D01*
X232Y392D02*
X268Y392D01*
X114Y391D02*
X149Y391D01*
X232Y391D02*
X268Y391D01*
X114Y390D02*
X149Y390D01*
X233Y390D02*
X268Y390D01*
X114Y389D02*
X149Y389D01*
X233Y389D02*
X268Y389D01*
X114Y388D02*
X149Y388D01*
X233Y388D02*
X268Y388D01*
X114Y387D02*
X149Y387D01*
X233Y387D02*
X268Y387D01*
X114Y386D02*
X148Y386D01*
X233Y386D02*
X268Y386D01*
X114Y385D02*
X148Y385D01*
X233Y385D02*
X268Y385D01*
X114Y384D02*
X148Y384D01*
X233Y384D02*
X268Y384D01*
X114Y383D02*
X148Y383D01*
X233Y383D02*
X268Y383D01*
X114Y382D02*
X148Y382D01*
X234Y382D02*
X268Y382D01*
X114Y381D02*
X148Y381D01*
X234Y381D02*
X268Y381D01*
X114Y380D02*
X148Y380D01*
X234Y380D02*
X268Y380D01*
X114Y379D02*
X148Y379D01*
X233Y379D02*
X268Y379D01*
X114Y378D02*
X148Y378D01*
X233Y378D02*
X268Y378D01*
X114Y377D02*
X148Y377D01*
X233Y377D02*
X268Y377D01*
X114Y376D02*
X148Y376D01*
X233Y376D02*
X268Y376D01*
X114Y375D02*
X149Y375D01*
X233Y375D02*
X268Y375D01*
X114Y374D02*
X149Y374D01*
X233Y374D02*
X268Y374D01*
X114Y373D02*
X149Y373D01*
X233Y373D02*
X268Y373D01*
X114Y372D02*
X149Y372D01*
X233Y372D02*
X268Y372D01*
X114Y371D02*
X149Y371D01*
X232Y371D02*
X268Y371D01*
X114Y370D02*
X150Y370D01*
X232Y370D02*
X268Y370D01*
X114Y369D02*
X150Y369D01*
X232Y369D02*
X268Y369D01*
X114Y368D02*
X150Y368D01*
X232Y368D02*
X268Y368D01*
X114Y367D02*
X150Y367D01*
X231Y367D02*
X268Y367D01*
X114Y366D02*
X151Y366D01*
X231Y366D02*
X268Y366D01*
X114Y365D02*
X151Y365D01*
X231Y365D02*
X268Y365D01*
X114Y364D02*
X152Y364D01*
X230Y364D02*
X268Y364D01*
X114Y363D02*
X152Y363D01*
X230Y363D02*
X268Y363D01*
X114Y362D02*
X153Y362D01*
X229Y362D02*
X268Y362D01*
X114Y361D02*
X153Y361D01*
X229Y361D02*
X268Y361D01*
X114Y360D02*
X154Y360D01*
X228Y360D02*
X268Y360D01*
X114Y359D02*
X154Y359D01*
X227Y359D02*
X268Y359D01*
X114Y358D02*
X155Y358D01*
X227Y358D02*
X268Y358D01*
X114Y357D02*
X156Y357D01*
X226Y357D02*
X268Y357D01*
X114Y356D02*
X156Y356D01*
X225Y356D02*
X268Y356D01*
X114Y355D02*
X157Y355D01*
X225Y355D02*
X268Y355D01*
X114Y354D02*
X158Y354D01*
X224Y354D02*
X268Y354D01*
X114Y353D02*
X159Y353D01*
X223Y353D02*
X268Y353D01*
X114Y352D02*
X160Y352D01*
X222Y352D02*
X268Y352D01*
X114Y351D02*
X161Y351D01*
X221Y351D02*
X268Y351D01*
X114Y350D02*
X162Y350D01*
X220Y350D02*
X268Y350D01*
X114Y349D02*
X163Y349D01*
X219Y349D02*
X268Y349D01*
X114Y348D02*
X164Y348D01*
X218Y348D02*
X268Y348D01*
X114Y347D02*
X165Y347D01*
X216Y347D02*
X268Y347D01*
X114Y346D02*
X167Y346D01*
X215Y346D02*
X268Y346D01*
X114Y345D02*
X168Y345D01*
X214Y345D02*
X268Y345D01*
X114Y344D02*
X170Y344D01*
X212Y344D02*
X268Y344D01*
X114Y343D02*
X172Y343D01*
X210Y343D02*
X268Y343D01*
X114Y342D02*
X174Y342D01*
X208Y342D02*
X268Y342D01*
X114Y341D02*
X176Y341D01*
X205Y341D02*
X268Y341D01*
X114Y340D02*
X180Y340D01*
X202Y340D02*
X268Y340D01*
X114Y339D02*
X185Y339D01*
X196Y339D02*
X268Y339D01*
X114Y338D02*
X268Y338D01*
X114Y337D02*
X268Y337D01*
X114Y336D02*
X268Y336D01*
X114Y335D02*
X268Y335D01*
X114Y334D02*
X268Y334D01*
X114Y333D02*
X268Y333D01*
X114Y332D02*
X268Y332D01*
X114Y331D02*
X268Y331D01*
X114Y330D02*
X268Y330D01*
X114Y329D02*
X268Y329D01*
X114Y328D02*
X268Y328D01*
X114Y327D02*
X268Y327D01*
X114Y326D02*
X268Y326D01*
X114Y325D02*
X268Y325D01*
X114Y324D02*
X268Y324D01*
X114Y323D02*
X268Y323D01*
X114Y322D02*
X268Y322D01*
X114Y321D02*
X268Y321D01*
X114Y320D02*
X268Y320D01*
X114Y319D02*
X268Y319D01*
X114Y318D02*
X268Y318D01*
X453Y318D02*
X528Y318D01*
X114Y317D02*
X268Y317D01*
X453Y317D02*
X528Y317D01*
X114Y316D02*
X268Y316D01*
X453Y316D02*
X528Y316D01*
X114Y315D02*
X268Y315D01*
X453Y315D02*
X528Y315D01*
X114Y314D02*
X268Y314D01*
X453Y314D02*
X528Y314D01*
X114Y313D02*
X268Y313D01*
X453Y313D02*
X528Y313D01*
X114Y312D02*
X268Y312D01*
X453Y312D02*
X528Y312D01*
X114Y311D02*
X268Y311D01*
X453Y311D02*
X528Y311D01*
X114Y310D02*
X268Y310D01*
X453Y310D02*
X528Y310D01*
X114Y309D02*
X268Y309D01*
X453Y309D02*
X528Y309D01*
X114Y308D02*
X268Y308D01*
X453Y308D02*
X528Y308D01*
X114Y307D02*
X268Y307D01*
X453Y307D02*
X528Y307D01*
X114Y306D02*
X268Y306D01*
X453Y306D02*
X528Y306D01*
X114Y305D02*
X268Y305D01*
X453Y305D02*
X528Y305D01*
X114Y304D02*
X268Y304D01*
X453Y304D02*
X528Y304D01*
X453Y303D02*
X528Y303D01*
X453Y302D02*
X528Y302D01*
X453Y301D02*
X528Y301D01*
X453Y300D02*
X528Y300D01*
X453Y299D02*
X528Y299D01*
X453Y298D02*
X528Y298D01*
X453Y297D02*
X528Y297D01*
X453Y296D02*
X528Y296D01*
X453Y295D02*
X528Y295D01*
X453Y294D02*
X528Y294D01*
X453Y293D02*
X528Y293D01*
X453Y292D02*
X528Y292D01*
X453Y291D02*
X528Y291D01*
X453Y290D02*
X487Y290D01*
X494Y290D02*
X528Y290D01*
X453Y289D02*
X485Y289D01*
X496Y289D02*
X528Y289D01*
X453Y288D02*
X484Y288D01*
X497Y288D02*
X528Y288D01*
X453Y287D02*
X483Y287D01*
X498Y287D02*
X528Y287D01*
X453Y286D02*
X482Y286D01*
X499Y286D02*
X528Y286D01*
X453Y285D02*
X482Y285D01*
X500Y285D02*
X528Y285D01*
X453Y284D02*
X481Y284D01*
X500Y284D02*
X528Y284D01*
X453Y283D02*
X481Y283D01*
X500Y283D02*
X528Y283D01*
X453Y282D02*
X481Y282D01*
X501Y282D02*
X528Y282D01*
X453Y281D02*
X481Y281D01*
X501Y281D02*
X528Y281D01*
X453Y280D02*
X481Y280D01*
X501Y280D02*
X528Y280D01*
X453Y279D02*
X481Y279D01*
X500Y279D02*
X528Y279D01*
X453Y278D02*
X481Y278D01*
X500Y278D02*
X528Y278D01*
X453Y277D02*
X481Y277D01*
X500Y277D02*
X528Y277D01*
X453Y276D02*
X482Y276D01*
X499Y276D02*
X528Y276D01*
X453Y275D02*
X483Y275D01*
X499Y275D02*
X528Y275D01*
X453Y274D02*
X484Y274D01*
X498Y274D02*
X528Y274D01*
X453Y273D02*
X485Y273D01*
X496Y273D02*
X528Y273D01*
X453Y272D02*
X487Y272D01*
X495Y272D02*
X528Y272D01*
X453Y271D02*
X528Y271D01*
X453Y270D02*
X528Y270D01*
X453Y269D02*
X528Y269D01*
X453Y268D02*
X528Y268D01*
X453Y267D02*
X528Y267D01*
X453Y266D02*
X528Y266D01*
X453Y265D02*
X528Y265D01*
X453Y264D02*
X528Y264D01*
X453Y263D02*
X528Y263D01*
X453Y262D02*
X528Y262D01*
X453Y261D02*
X528Y261D01*
X453Y260D02*
X528Y260D01*
X453Y259D02*
X528Y259D01*
X453Y258D02*
X528Y258D01*
X453Y257D02*
X528Y257D01*
X453Y256D02*
X528Y256D01*
X453Y255D02*
X528Y255D01*
X453Y254D02*
X528Y254D01*
X453Y253D02*
X528Y253D01*
X453Y252D02*
X528Y252D01*
X453Y251D02*
X528Y251D01*
X453Y250D02*
X528Y250D01*
X453Y249D02*
X528Y249D01*
X453Y248D02*
X528Y248D01*
X453Y247D02*
X528Y247D01*
X453Y246D02*
X528Y246D01*
X453Y245D02*
X528Y245D01*
X453Y244D02*
X528Y244D01*
X454Y243D02*
X528Y243D01*
D02*
G04 End of Mask1*
M02*