G04 MADE WITH FRITZING*
G04 WWW.FRITZING.ORG*
G04 DOUBLE SIDED*
G04 HOLES PLATED*
G04 CONTOUR ON CENTER OF CONTOUR VECTOR*
%ASAXBY*%
%FSLAX23Y23*%
%MOIN*%
%OFA0B0*%
%SFA1.0B1.0*%
%ADD10C,0.075000*%
%ADD11C,0.066000*%
%ADD12C,0.145669*%
%ADD13C,0.064000*%
%ADD14C,0.032000*%
%ADD15C,0.024000*%
%ADD16C,0.020000*%
%ADD17R,0.001000X0.001000*%
%LNCOPPER0*%
G90*
G70*
G54D10*
X892Y480D03*
X892Y380D03*
G54D11*
X492Y280D03*
X492Y386D03*
X492Y492D03*
G54D12*
X192Y580D03*
X192Y380D03*
G54D10*
X492Y680D03*
X892Y680D03*
X592Y80D03*
X992Y80D03*
G54D13*
X1192Y580D03*
X1192Y502D03*
X1192Y423D03*
G54D14*
X1191Y280D02*
X1016Y105D01*
D02*
X1191Y393D02*
X1191Y280D01*
D02*
X492Y524D02*
X492Y646D01*
G54D15*
D02*
X517Y386D02*
X863Y381D01*
D02*
X250Y382D02*
X466Y386D01*
D02*
X509Y368D02*
X591Y280D01*
D02*
X591Y280D02*
X591Y109D01*
D02*
X1170Y514D02*
X916Y666D01*
G54D16*
X919Y453D02*
X864Y453D01*
X864Y508D01*
X919Y508D01*
X919Y453D01*
D02*
G54D17*
X119Y453D02*
X263Y453D01*
X119Y452D02*
X263Y452D01*
X119Y451D02*
X263Y451D01*
X119Y450D02*
X263Y450D01*
X119Y449D02*
X263Y449D01*
X119Y448D02*
X263Y448D01*
X119Y447D02*
X263Y447D01*
X119Y446D02*
X263Y446D01*
X119Y445D02*
X263Y445D01*
X119Y444D02*
X263Y444D01*
X119Y443D02*
X263Y443D01*
X119Y442D02*
X263Y442D01*
X119Y441D02*
X263Y441D01*
X119Y440D02*
X263Y440D01*
X119Y439D02*
X263Y439D01*
X119Y438D02*
X263Y438D01*
X119Y437D02*
X263Y437D01*
X119Y436D02*
X263Y436D01*
X119Y435D02*
X263Y435D01*
X119Y434D02*
X263Y434D01*
X119Y433D02*
X263Y433D01*
X119Y432D02*
X263Y432D01*
X119Y431D02*
X263Y431D01*
X119Y430D02*
X263Y430D01*
X119Y429D02*
X263Y429D01*
X119Y428D02*
X187Y428D01*
X195Y428D02*
X263Y428D01*
X119Y427D02*
X180Y427D01*
X202Y427D02*
X263Y427D01*
X119Y426D02*
X176Y426D01*
X206Y426D02*
X263Y426D01*
X119Y425D02*
X173Y425D01*
X208Y425D02*
X263Y425D01*
X119Y424D02*
X171Y424D01*
X211Y424D02*
X263Y424D01*
X119Y423D02*
X169Y423D01*
X213Y423D02*
X263Y423D01*
X119Y422D02*
X167Y422D01*
X215Y422D02*
X263Y422D01*
X119Y421D02*
X165Y421D01*
X216Y421D02*
X263Y421D01*
X119Y420D02*
X164Y420D01*
X218Y420D02*
X263Y420D01*
X119Y419D02*
X163Y419D01*
X219Y419D02*
X263Y419D01*
X119Y418D02*
X161Y418D01*
X221Y418D02*
X263Y418D01*
X119Y417D02*
X160Y417D01*
X222Y417D02*
X263Y417D01*
X119Y416D02*
X159Y416D01*
X223Y416D02*
X263Y416D01*
X119Y415D02*
X158Y415D01*
X224Y415D02*
X263Y415D01*
X119Y414D02*
X157Y414D01*
X225Y414D02*
X263Y414D01*
X119Y413D02*
X156Y413D01*
X226Y413D02*
X263Y413D01*
X119Y412D02*
X155Y412D01*
X227Y412D02*
X263Y412D01*
X119Y411D02*
X154Y411D01*
X228Y411D02*
X263Y411D01*
X119Y410D02*
X153Y410D01*
X229Y410D02*
X263Y410D01*
X119Y409D02*
X152Y409D01*
X229Y409D02*
X263Y409D01*
X119Y408D02*
X152Y408D01*
X230Y408D02*
X263Y408D01*
X119Y407D02*
X151Y407D01*
X231Y407D02*
X263Y407D01*
X119Y406D02*
X150Y406D01*
X231Y406D02*
X263Y406D01*
X119Y405D02*
X150Y405D01*
X232Y405D02*
X263Y405D01*
X119Y404D02*
X149Y404D01*
X233Y404D02*
X263Y404D01*
X119Y403D02*
X149Y403D01*
X233Y403D02*
X263Y403D01*
X119Y402D02*
X148Y402D01*
X234Y402D02*
X263Y402D01*
X119Y401D02*
X148Y401D01*
X234Y401D02*
X263Y401D01*
X119Y400D02*
X147Y400D01*
X235Y400D02*
X263Y400D01*
X119Y399D02*
X147Y399D01*
X235Y399D02*
X263Y399D01*
X119Y398D02*
X146Y398D01*
X235Y398D02*
X263Y398D01*
X119Y397D02*
X146Y397D01*
X236Y397D02*
X263Y397D01*
X119Y396D02*
X146Y396D01*
X236Y396D02*
X263Y396D01*
X119Y395D02*
X145Y395D01*
X236Y395D02*
X263Y395D01*
X119Y394D02*
X145Y394D01*
X237Y394D02*
X263Y394D01*
X119Y393D02*
X145Y393D01*
X237Y393D02*
X263Y393D01*
X119Y392D02*
X145Y392D01*
X237Y392D02*
X263Y392D01*
X119Y391D02*
X144Y391D01*
X237Y391D02*
X263Y391D01*
X119Y390D02*
X144Y390D01*
X238Y390D02*
X263Y390D01*
X119Y389D02*
X144Y389D01*
X238Y389D02*
X263Y389D01*
X119Y388D02*
X144Y388D01*
X238Y388D02*
X263Y388D01*
X119Y387D02*
X144Y387D01*
X238Y387D02*
X263Y387D01*
X119Y386D02*
X143Y386D01*
X238Y386D02*
X263Y386D01*
X119Y385D02*
X143Y385D01*
X238Y385D02*
X263Y385D01*
X119Y384D02*
X143Y384D01*
X238Y384D02*
X263Y384D01*
X119Y383D02*
X143Y383D01*
X238Y383D02*
X263Y383D01*
X119Y382D02*
X143Y382D01*
X239Y382D02*
X263Y382D01*
X119Y381D02*
X143Y381D01*
X239Y381D02*
X263Y381D01*
X119Y380D02*
X143Y380D01*
X239Y380D02*
X263Y380D01*
X119Y379D02*
X143Y379D01*
X238Y379D02*
X263Y379D01*
X119Y378D02*
X143Y378D01*
X238Y378D02*
X263Y378D01*
X119Y377D02*
X143Y377D01*
X238Y377D02*
X263Y377D01*
X119Y376D02*
X143Y376D01*
X238Y376D02*
X263Y376D01*
X119Y375D02*
X144Y375D01*
X238Y375D02*
X263Y375D01*
X119Y374D02*
X144Y374D01*
X238Y374D02*
X263Y374D01*
X119Y373D02*
X144Y373D01*
X238Y373D02*
X263Y373D01*
X119Y372D02*
X144Y372D01*
X238Y372D02*
X263Y372D01*
X119Y371D02*
X144Y371D01*
X238Y371D02*
X263Y371D01*
X119Y370D02*
X144Y370D01*
X237Y370D02*
X263Y370D01*
X119Y369D02*
X145Y369D01*
X237Y369D02*
X263Y369D01*
X119Y368D02*
X145Y368D01*
X237Y368D02*
X263Y368D01*
X119Y367D02*
X145Y367D01*
X236Y367D02*
X263Y367D01*
X119Y366D02*
X146Y366D01*
X236Y366D02*
X263Y366D01*
X119Y365D02*
X146Y365D01*
X236Y365D02*
X263Y365D01*
X119Y364D02*
X146Y364D01*
X235Y364D02*
X263Y364D01*
X119Y363D02*
X147Y363D01*
X235Y363D02*
X263Y363D01*
X119Y362D02*
X147Y362D01*
X235Y362D02*
X263Y362D01*
X119Y361D02*
X148Y361D01*
X234Y361D02*
X263Y361D01*
X119Y360D02*
X148Y360D01*
X234Y360D02*
X263Y360D01*
X119Y359D02*
X149Y359D01*
X233Y359D02*
X263Y359D01*
X119Y358D02*
X149Y358D01*
X233Y358D02*
X263Y358D01*
X119Y357D02*
X150Y357D01*
X232Y357D02*
X263Y357D01*
X119Y356D02*
X150Y356D01*
X231Y356D02*
X263Y356D01*
X119Y355D02*
X151Y355D01*
X231Y355D02*
X263Y355D01*
X119Y354D02*
X152Y354D01*
X230Y354D02*
X263Y354D01*
X119Y353D02*
X152Y353D01*
X229Y353D02*
X263Y353D01*
X119Y352D02*
X153Y352D01*
X229Y352D02*
X263Y352D01*
X119Y351D02*
X154Y351D01*
X228Y351D02*
X263Y351D01*
X119Y350D02*
X155Y350D01*
X227Y350D02*
X263Y350D01*
X119Y349D02*
X156Y349D01*
X226Y349D02*
X263Y349D01*
X119Y348D02*
X157Y348D01*
X225Y348D02*
X263Y348D01*
X119Y347D02*
X158Y347D01*
X224Y347D02*
X263Y347D01*
X119Y346D02*
X159Y346D01*
X223Y346D02*
X263Y346D01*
X119Y345D02*
X160Y345D01*
X222Y345D02*
X263Y345D01*
X119Y344D02*
X161Y344D01*
X221Y344D02*
X263Y344D01*
X119Y343D02*
X162Y343D01*
X219Y343D02*
X263Y343D01*
X119Y342D02*
X164Y342D01*
X218Y342D02*
X263Y342D01*
X119Y341D02*
X165Y341D01*
X217Y341D02*
X263Y341D01*
X119Y340D02*
X167Y340D01*
X215Y340D02*
X263Y340D01*
X119Y339D02*
X169Y339D01*
X213Y339D02*
X263Y339D01*
X119Y338D02*
X171Y338D01*
X211Y338D02*
X263Y338D01*
X119Y337D02*
X173Y337D01*
X209Y337D02*
X263Y337D01*
X119Y336D02*
X176Y336D01*
X206Y336D02*
X263Y336D01*
X119Y335D02*
X180Y335D01*
X202Y335D02*
X263Y335D01*
X119Y334D02*
X185Y334D01*
X197Y334D02*
X263Y334D01*
X119Y333D02*
X263Y333D01*
X119Y332D02*
X263Y332D01*
X119Y331D02*
X263Y331D01*
X119Y330D02*
X263Y330D01*
X119Y329D02*
X263Y329D01*
X119Y328D02*
X263Y328D01*
X119Y327D02*
X263Y327D01*
X119Y326D02*
X263Y326D01*
X119Y325D02*
X263Y325D01*
X119Y324D02*
X263Y324D01*
X119Y323D02*
X263Y323D01*
X119Y322D02*
X263Y322D01*
X119Y321D02*
X263Y321D01*
X119Y320D02*
X263Y320D01*
X119Y319D02*
X263Y319D01*
X119Y318D02*
X263Y318D01*
X119Y317D02*
X263Y317D01*
X119Y316D02*
X263Y316D01*
X119Y315D02*
X263Y315D01*
X119Y314D02*
X263Y314D01*
X119Y313D02*
X263Y313D01*
X458Y313D02*
X523Y313D01*
X119Y312D02*
X263Y312D01*
X458Y312D02*
X523Y312D01*
X119Y311D02*
X263Y311D01*
X458Y311D02*
X523Y311D01*
X119Y310D02*
X263Y310D01*
X458Y310D02*
X523Y310D01*
X119Y309D02*
X263Y309D01*
X458Y309D02*
X523Y309D01*
X458Y308D02*
X523Y308D01*
X458Y307D02*
X523Y307D01*
X458Y306D02*
X523Y306D01*
X458Y305D02*
X523Y305D01*
X458Y304D02*
X523Y304D01*
X458Y303D02*
X523Y303D01*
X458Y302D02*
X523Y302D01*
X458Y301D02*
X523Y301D01*
X458Y300D02*
X523Y300D01*
X458Y299D02*
X523Y299D01*
X458Y298D02*
X523Y298D01*
X458Y297D02*
X523Y297D01*
X458Y296D02*
X523Y296D01*
X458Y295D02*
X487Y295D01*
X495Y295D02*
X523Y295D01*
X458Y294D02*
X484Y294D01*
X497Y294D02*
X523Y294D01*
X458Y293D02*
X482Y293D01*
X499Y293D02*
X523Y293D01*
X458Y292D02*
X481Y292D01*
X500Y292D02*
X523Y292D01*
X458Y291D02*
X480Y291D01*
X502Y291D02*
X523Y291D01*
X458Y290D02*
X479Y290D01*
X502Y290D02*
X523Y290D01*
X458Y289D02*
X478Y289D01*
X503Y289D02*
X523Y289D01*
X458Y288D02*
X478Y288D01*
X504Y288D02*
X523Y288D01*
X458Y287D02*
X477Y287D01*
X504Y287D02*
X523Y287D01*
X458Y286D02*
X477Y286D01*
X505Y286D02*
X523Y286D01*
X458Y285D02*
X476Y285D01*
X505Y285D02*
X523Y285D01*
X458Y284D02*
X476Y284D01*
X505Y284D02*
X523Y284D01*
X458Y283D02*
X476Y283D01*
X505Y283D02*
X523Y283D01*
X458Y282D02*
X476Y282D01*
X506Y282D02*
X523Y282D01*
X458Y281D02*
X476Y281D01*
X506Y281D02*
X523Y281D01*
X458Y280D02*
X476Y280D01*
X506Y280D02*
X523Y280D01*
X458Y279D02*
X476Y279D01*
X505Y279D02*
X523Y279D01*
X458Y278D02*
X476Y278D01*
X505Y278D02*
X523Y278D01*
X458Y277D02*
X476Y277D01*
X505Y277D02*
X523Y277D01*
X458Y276D02*
X477Y276D01*
X505Y276D02*
X523Y276D01*
X458Y275D02*
X477Y275D01*
X504Y275D02*
X523Y275D01*
X458Y274D02*
X478Y274D01*
X504Y274D02*
X523Y274D01*
X458Y273D02*
X478Y273D01*
X503Y273D02*
X523Y273D01*
X458Y272D02*
X479Y272D01*
X502Y272D02*
X523Y272D01*
X458Y271D02*
X480Y271D01*
X502Y271D02*
X523Y271D01*
X458Y270D02*
X481Y270D01*
X501Y270D02*
X523Y270D01*
X458Y269D02*
X482Y269D01*
X499Y269D02*
X523Y269D01*
X458Y268D02*
X484Y268D01*
X498Y268D02*
X523Y268D01*
X458Y267D02*
X486Y267D01*
X495Y267D02*
X523Y267D01*
X458Y266D02*
X523Y266D01*
X458Y265D02*
X523Y265D01*
X458Y264D02*
X523Y264D01*
X458Y263D02*
X523Y263D01*
X458Y262D02*
X523Y262D01*
X458Y261D02*
X523Y261D01*
X458Y260D02*
X523Y260D01*
X458Y259D02*
X523Y259D01*
X458Y258D02*
X523Y258D01*
X458Y257D02*
X523Y257D01*
X458Y256D02*
X523Y256D01*
X458Y255D02*
X523Y255D01*
X458Y254D02*
X523Y254D01*
X458Y253D02*
X523Y253D01*
X458Y252D02*
X523Y252D01*
X458Y251D02*
X523Y251D01*
X458Y250D02*
X523Y250D01*
X458Y249D02*
X523Y249D01*
X459Y248D02*
X523Y248D01*
D02*
G04 End of Copper0*
M02*