G04 MADE WITH FRITZING*
G04 WWW.FRITZING.ORG*
G04 DOUBLE SIDED*
G04 HOLES PLATED*
G04 CONTOUR ON CENTER OF CONTOUR VECTOR*
%ASAXBY*%
%FSLAX23Y23*%
%MOIN*%
%OFA0B0*%
%SFA1.0B1.0*%
%ADD10C,0.016661X0.00666142*%
%ADD11C,0.008000*%
%ADD12C,0.010000*%
%ADD13R,0.001000X0.001000*%
%LNSILK1*%
G90*
G70*
G54D10*
X378Y510D03*
G54D11*
X620Y236D02*
X620Y536D01*
D02*
X620Y536D02*
X356Y536D01*
D02*
X356Y536D02*
X356Y236D01*
D02*
X356Y236D02*
X620Y236D01*
D02*
X113Y284D02*
X270Y284D01*
G54D12*
D02*
X601Y713D02*
X801Y713D01*
D02*
X801Y713D02*
X801Y647D01*
D02*
X801Y647D02*
X601Y647D01*
D02*
X601Y647D02*
X601Y713D01*
D02*
X701Y113D02*
X901Y113D01*
D02*
X901Y113D02*
X901Y47D01*
D02*
X901Y47D02*
X701Y47D01*
D02*
X701Y47D02*
X701Y113D01*
G54D11*
D02*
X1140Y344D02*
X1140Y372D01*
D02*
X1140Y372D02*
X1192Y372D01*
G54D13*
X0Y866D02*
X1376Y866D01*
X0Y865D02*
X1376Y865D01*
X0Y864D02*
X1376Y864D01*
X0Y863D02*
X1376Y863D01*
X0Y862D02*
X1376Y862D01*
X0Y861D02*
X1376Y861D01*
X0Y860D02*
X1376Y860D01*
X0Y859D02*
X1376Y859D01*
X0Y858D02*
X7Y858D01*
X1369Y858D02*
X1376Y858D01*
X0Y857D02*
X7Y857D01*
X1369Y857D02*
X1376Y857D01*
X0Y856D02*
X7Y856D01*
X1369Y856D02*
X1376Y856D01*
X0Y855D02*
X7Y855D01*
X1369Y855D02*
X1376Y855D01*
X0Y854D02*
X7Y854D01*
X1369Y854D02*
X1376Y854D01*
X0Y853D02*
X7Y853D01*
X1369Y853D02*
X1376Y853D01*
X0Y852D02*
X7Y852D01*
X1369Y852D02*
X1376Y852D01*
X0Y851D02*
X7Y851D01*
X1369Y851D02*
X1376Y851D01*
X0Y850D02*
X7Y850D01*
X1369Y850D02*
X1376Y850D01*
X0Y849D02*
X7Y849D01*
X1369Y849D02*
X1376Y849D01*
X0Y848D02*
X7Y848D01*
X1369Y848D02*
X1376Y848D01*
X0Y847D02*
X7Y847D01*
X1369Y847D02*
X1376Y847D01*
X0Y846D02*
X7Y846D01*
X1369Y846D02*
X1376Y846D01*
X0Y845D02*
X7Y845D01*
X1369Y845D02*
X1376Y845D01*
X0Y844D02*
X7Y844D01*
X1369Y844D02*
X1376Y844D01*
X0Y843D02*
X7Y843D01*
X1369Y843D02*
X1376Y843D01*
X0Y842D02*
X7Y842D01*
X1369Y842D02*
X1376Y842D01*
X0Y841D02*
X7Y841D01*
X0Y840D02*
X7Y840D01*
X0Y839D02*
X7Y839D01*
X0Y838D02*
X7Y838D01*
X0Y837D02*
X7Y837D01*
X0Y836D02*
X7Y836D01*
X0Y835D02*
X7Y835D01*
X0Y834D02*
X7Y834D01*
X0Y833D02*
X7Y833D01*
X0Y832D02*
X7Y832D01*
X0Y831D02*
X7Y831D01*
X10Y831D02*
X16Y831D01*
X28Y831D02*
X34Y831D01*
X105Y831D02*
X108Y831D01*
X162Y831D02*
X172Y831D01*
X271Y831D02*
X274Y831D01*
X307Y831D02*
X331Y831D01*
X345Y831D02*
X359Y831D01*
X0Y830D02*
X7Y830D01*
X10Y830D02*
X17Y830D01*
X27Y830D02*
X34Y830D01*
X105Y830D02*
X109Y830D01*
X161Y830D02*
X173Y830D01*
X270Y830D02*
X274Y830D01*
X307Y830D02*
X332Y830D01*
X345Y830D02*
X361Y830D01*
X0Y829D02*
X7Y829D01*
X10Y829D02*
X17Y829D01*
X27Y829D02*
X34Y829D01*
X105Y829D02*
X109Y829D01*
X161Y829D02*
X173Y829D01*
X270Y829D02*
X274Y829D01*
X307Y829D02*
X332Y829D01*
X345Y829D02*
X362Y829D01*
X0Y828D02*
X7Y828D01*
X10Y828D02*
X18Y828D01*
X26Y828D02*
X34Y828D01*
X105Y828D02*
X109Y828D01*
X161Y828D02*
X173Y828D01*
X270Y828D02*
X274Y828D01*
X307Y828D02*
X331Y828D01*
X345Y828D02*
X362Y828D01*
X0Y827D02*
X7Y827D01*
X10Y827D02*
X19Y827D01*
X25Y827D02*
X34Y827D01*
X105Y827D02*
X109Y827D01*
X163Y827D02*
X173Y827D01*
X270Y827D02*
X274Y827D01*
X307Y827D02*
X330Y827D01*
X346Y827D02*
X363Y827D01*
X0Y826D02*
X7Y826D01*
X10Y826D02*
X19Y826D01*
X25Y826D02*
X34Y826D01*
X105Y826D02*
X109Y826D01*
X169Y826D02*
X173Y826D01*
X270Y826D02*
X274Y826D01*
X307Y826D02*
X311Y826D01*
X350Y826D02*
X354Y826D01*
X358Y826D02*
X363Y826D01*
X0Y825D02*
X7Y825D01*
X10Y825D02*
X20Y825D01*
X24Y825D02*
X34Y825D01*
X105Y825D02*
X109Y825D01*
X169Y825D02*
X173Y825D01*
X270Y825D02*
X274Y825D01*
X307Y825D02*
X311Y825D01*
X350Y825D02*
X354Y825D01*
X359Y825D02*
X364Y825D01*
X0Y824D02*
X7Y824D01*
X10Y824D02*
X21Y824D01*
X23Y824D02*
X34Y824D01*
X105Y824D02*
X109Y824D01*
X169Y824D02*
X173Y824D01*
X270Y824D02*
X274Y824D01*
X307Y824D02*
X311Y824D01*
X350Y824D02*
X354Y824D01*
X360Y824D02*
X364Y824D01*
X0Y823D02*
X7Y823D01*
X10Y823D02*
X14Y823D01*
X16Y823D02*
X28Y823D01*
X30Y823D02*
X34Y823D01*
X105Y823D02*
X109Y823D01*
X169Y823D02*
X173Y823D01*
X270Y823D02*
X274Y823D01*
X307Y823D02*
X311Y823D01*
X350Y823D02*
X354Y823D01*
X360Y823D02*
X365Y823D01*
X0Y822D02*
X7Y822D01*
X10Y822D02*
X14Y822D01*
X17Y822D02*
X27Y822D01*
X30Y822D02*
X34Y822D01*
X105Y822D02*
X109Y822D01*
X169Y822D02*
X173Y822D01*
X270Y822D02*
X274Y822D01*
X307Y822D02*
X311Y822D01*
X350Y822D02*
X354Y822D01*
X361Y822D02*
X365Y822D01*
X0Y821D02*
X7Y821D01*
X10Y821D02*
X14Y821D01*
X18Y821D02*
X26Y821D01*
X30Y821D02*
X34Y821D01*
X56Y821D02*
X63Y821D01*
X93Y821D02*
X97Y821D01*
X105Y821D02*
X109Y821D01*
X169Y821D02*
X173Y821D01*
X205Y821D02*
X212Y821D01*
X270Y821D02*
X274Y821D01*
X307Y821D02*
X311Y821D01*
X350Y821D02*
X354Y821D01*
X361Y821D02*
X366Y821D01*
X0Y820D02*
X7Y820D01*
X10Y820D02*
X14Y820D01*
X18Y820D02*
X26Y820D01*
X30Y820D02*
X34Y820D01*
X53Y820D02*
X66Y820D01*
X90Y820D02*
X100Y820D01*
X105Y820D02*
X109Y820D01*
X122Y820D02*
X125Y820D01*
X142Y820D02*
X145Y820D01*
X169Y820D02*
X173Y820D01*
X202Y820D02*
X215Y820D01*
X270Y820D02*
X274Y820D01*
X307Y820D02*
X311Y820D01*
X350Y820D02*
X354Y820D01*
X362Y820D02*
X366Y820D01*
X0Y819D02*
X7Y819D01*
X10Y819D02*
X14Y819D01*
X19Y819D02*
X25Y819D01*
X30Y819D02*
X34Y819D01*
X51Y819D02*
X67Y819D01*
X88Y819D02*
X102Y819D01*
X105Y819D02*
X109Y819D01*
X121Y819D02*
X125Y819D01*
X142Y819D02*
X146Y819D01*
X169Y819D02*
X173Y819D01*
X200Y819D02*
X216Y819D01*
X270Y819D02*
X274Y819D01*
X307Y819D02*
X311Y819D01*
X350Y819D02*
X354Y819D01*
X362Y819D02*
X367Y819D01*
X0Y818D02*
X7Y818D01*
X10Y818D02*
X14Y818D01*
X20Y818D02*
X24Y818D01*
X30Y818D02*
X34Y818D01*
X50Y818D02*
X68Y818D01*
X87Y818D02*
X109Y818D01*
X121Y818D02*
X125Y818D01*
X142Y818D02*
X146Y818D01*
X169Y818D02*
X173Y818D01*
X199Y818D02*
X217Y818D01*
X270Y818D02*
X274Y818D01*
X307Y818D02*
X311Y818D01*
X350Y818D02*
X354Y818D01*
X363Y818D02*
X367Y818D01*
X0Y817D02*
X7Y817D01*
X10Y817D02*
X14Y817D01*
X20Y817D02*
X24Y817D01*
X30Y817D02*
X34Y817D01*
X49Y817D02*
X69Y817D01*
X86Y817D02*
X109Y817D01*
X121Y817D02*
X125Y817D01*
X142Y817D02*
X146Y817D01*
X169Y817D02*
X173Y817D01*
X198Y817D02*
X218Y817D01*
X270Y817D02*
X274Y817D01*
X307Y817D02*
X311Y817D01*
X350Y817D02*
X354Y817D01*
X363Y817D02*
X368Y817D01*
X0Y816D02*
X7Y816D01*
X10Y816D02*
X14Y816D01*
X20Y816D02*
X24Y816D01*
X30Y816D02*
X34Y816D01*
X48Y816D02*
X70Y816D01*
X85Y816D02*
X109Y816D01*
X121Y816D02*
X126Y816D01*
X142Y816D02*
X146Y816D01*
X169Y816D02*
X173Y816D01*
X197Y816D02*
X219Y816D01*
X270Y816D02*
X274Y816D01*
X307Y816D02*
X311Y816D01*
X350Y816D02*
X354Y816D01*
X364Y816D02*
X368Y816D01*
X0Y815D02*
X7Y815D01*
X10Y815D02*
X14Y815D01*
X20Y815D02*
X24Y815D01*
X30Y815D02*
X34Y815D01*
X48Y815D02*
X54Y815D01*
X65Y815D02*
X71Y815D01*
X85Y815D02*
X91Y815D01*
X99Y815D02*
X109Y815D01*
X121Y815D02*
X126Y815D01*
X142Y815D02*
X146Y815D01*
X169Y815D02*
X173Y815D01*
X197Y815D02*
X202Y815D01*
X214Y815D02*
X220Y815D01*
X270Y815D02*
X274Y815D01*
X307Y815D02*
X311Y815D01*
X350Y815D02*
X354Y815D01*
X364Y815D02*
X369Y815D01*
X0Y814D02*
X7Y814D01*
X10Y814D02*
X14Y814D01*
X21Y814D02*
X23Y814D01*
X30Y814D02*
X34Y814D01*
X47Y814D02*
X52Y814D01*
X66Y814D02*
X71Y814D01*
X84Y814D02*
X90Y814D01*
X101Y814D02*
X109Y814D01*
X121Y814D02*
X126Y814D01*
X142Y814D02*
X146Y814D01*
X169Y814D02*
X173Y814D01*
X196Y814D02*
X201Y814D01*
X215Y814D02*
X220Y814D01*
X270Y814D02*
X274Y814D01*
X307Y814D02*
X321Y814D01*
X350Y814D02*
X354Y814D01*
X364Y814D02*
X369Y814D01*
X0Y813D02*
X7Y813D01*
X10Y813D02*
X14Y813D01*
X30Y813D02*
X34Y813D01*
X47Y813D02*
X52Y813D01*
X67Y813D02*
X71Y813D01*
X84Y813D02*
X89Y813D01*
X102Y813D02*
X109Y813D01*
X121Y813D02*
X126Y813D01*
X142Y813D02*
X146Y813D01*
X169Y813D02*
X173Y813D01*
X196Y813D02*
X200Y813D01*
X216Y813D02*
X220Y813D01*
X270Y813D02*
X274Y813D01*
X307Y813D02*
X321Y813D01*
X350Y813D02*
X354Y813D01*
X365Y813D02*
X369Y813D01*
X0Y812D02*
X7Y812D01*
X10Y812D02*
X14Y812D01*
X30Y812D02*
X34Y812D01*
X47Y812D02*
X51Y812D01*
X67Y812D02*
X72Y812D01*
X84Y812D02*
X88Y812D01*
X103Y812D02*
X109Y812D01*
X122Y812D02*
X126Y812D01*
X142Y812D02*
X146Y812D01*
X169Y812D02*
X173Y812D01*
X196Y812D02*
X200Y812D01*
X216Y812D02*
X220Y812D01*
X270Y812D02*
X274Y812D01*
X307Y812D02*
X322Y812D01*
X350Y812D02*
X354Y812D01*
X365Y812D02*
X369Y812D01*
X0Y811D02*
X7Y811D01*
X10Y811D02*
X14Y811D01*
X30Y811D02*
X34Y811D01*
X47Y811D02*
X51Y811D01*
X67Y811D02*
X72Y811D01*
X84Y811D02*
X88Y811D01*
X104Y811D02*
X109Y811D01*
X122Y811D02*
X126Y811D01*
X142Y811D02*
X146Y811D01*
X169Y811D02*
X173Y811D01*
X196Y811D02*
X200Y811D01*
X216Y811D02*
X220Y811D01*
X270Y811D02*
X274Y811D01*
X307Y811D02*
X321Y811D01*
X350Y811D02*
X354Y811D01*
X365Y811D02*
X369Y811D01*
X0Y810D02*
X7Y810D01*
X10Y810D02*
X14Y810D01*
X30Y810D02*
X34Y810D01*
X47Y810D02*
X51Y810D01*
X67Y810D02*
X72Y810D01*
X84Y810D02*
X88Y810D01*
X104Y810D02*
X109Y810D01*
X122Y810D02*
X126Y810D01*
X142Y810D02*
X146Y810D01*
X169Y810D02*
X173Y810D01*
X196Y810D02*
X200Y810D01*
X216Y810D02*
X220Y810D01*
X270Y810D02*
X274Y810D01*
X307Y810D02*
X321Y810D01*
X350Y810D02*
X354Y810D01*
X365Y810D02*
X369Y810D01*
X0Y809D02*
X7Y809D01*
X10Y809D02*
X14Y809D01*
X30Y809D02*
X34Y809D01*
X47Y809D02*
X51Y809D01*
X67Y809D02*
X72Y809D01*
X84Y809D02*
X88Y809D01*
X105Y809D02*
X109Y809D01*
X122Y809D02*
X126Y809D01*
X142Y809D02*
X146Y809D01*
X169Y809D02*
X173Y809D01*
X196Y809D02*
X200Y809D01*
X216Y809D02*
X220Y809D01*
X270Y809D02*
X274Y809D01*
X307Y809D02*
X312Y809D01*
X350Y809D02*
X354Y809D01*
X364Y809D02*
X369Y809D01*
X0Y808D02*
X7Y808D01*
X10Y808D02*
X14Y808D01*
X30Y808D02*
X34Y808D01*
X47Y808D02*
X51Y808D01*
X67Y808D02*
X72Y808D01*
X84Y808D02*
X88Y808D01*
X105Y808D02*
X109Y808D01*
X122Y808D02*
X126Y808D01*
X142Y808D02*
X146Y808D01*
X169Y808D02*
X173Y808D01*
X196Y808D02*
X200Y808D01*
X216Y808D02*
X220Y808D01*
X270Y808D02*
X274Y808D01*
X307Y808D02*
X311Y808D01*
X350Y808D02*
X354Y808D01*
X364Y808D02*
X368Y808D01*
X0Y807D02*
X7Y807D01*
X10Y807D02*
X14Y807D01*
X30Y807D02*
X34Y807D01*
X47Y807D02*
X51Y807D01*
X67Y807D02*
X72Y807D01*
X84Y807D02*
X88Y807D01*
X105Y807D02*
X109Y807D01*
X122Y807D02*
X126Y807D01*
X142Y807D02*
X146Y807D01*
X169Y807D02*
X173Y807D01*
X196Y807D02*
X220Y807D01*
X270Y807D02*
X274Y807D01*
X307Y807D02*
X311Y807D01*
X350Y807D02*
X354Y807D01*
X363Y807D02*
X368Y807D01*
X0Y806D02*
X7Y806D01*
X10Y806D02*
X14Y806D01*
X30Y806D02*
X34Y806D01*
X47Y806D02*
X51Y806D01*
X67Y806D02*
X72Y806D01*
X84Y806D02*
X88Y806D01*
X105Y806D02*
X109Y806D01*
X122Y806D02*
X126Y806D01*
X142Y806D02*
X146Y806D01*
X169Y806D02*
X173Y806D01*
X196Y806D02*
X220Y806D01*
X270Y806D02*
X274Y806D01*
X307Y806D02*
X311Y806D01*
X350Y806D02*
X354Y806D01*
X363Y806D02*
X368Y806D01*
X0Y805D02*
X7Y805D01*
X10Y805D02*
X14Y805D01*
X30Y805D02*
X34Y805D01*
X47Y805D02*
X51Y805D01*
X67Y805D02*
X72Y805D01*
X84Y805D02*
X88Y805D01*
X105Y805D02*
X109Y805D01*
X122Y805D02*
X126Y805D01*
X142Y805D02*
X146Y805D01*
X169Y805D02*
X173Y805D01*
X196Y805D02*
X220Y805D01*
X270Y805D02*
X274Y805D01*
X307Y805D02*
X311Y805D01*
X350Y805D02*
X354Y805D01*
X362Y805D02*
X367Y805D01*
X0Y804D02*
X7Y804D01*
X10Y804D02*
X14Y804D01*
X30Y804D02*
X34Y804D01*
X47Y804D02*
X51Y804D01*
X67Y804D02*
X72Y804D01*
X84Y804D02*
X88Y804D01*
X105Y804D02*
X109Y804D01*
X122Y804D02*
X126Y804D01*
X142Y804D02*
X146Y804D01*
X169Y804D02*
X173Y804D01*
X196Y804D02*
X220Y804D01*
X270Y804D02*
X274Y804D01*
X307Y804D02*
X311Y804D01*
X350Y804D02*
X354Y804D01*
X362Y804D02*
X367Y804D01*
X0Y803D02*
X7Y803D01*
X10Y803D02*
X14Y803D01*
X30Y803D02*
X34Y803D01*
X47Y803D02*
X51Y803D01*
X67Y803D02*
X72Y803D01*
X84Y803D02*
X88Y803D01*
X104Y803D02*
X109Y803D01*
X122Y803D02*
X126Y803D01*
X142Y803D02*
X146Y803D01*
X169Y803D02*
X173Y803D01*
X196Y803D02*
X219Y803D01*
X270Y803D02*
X274Y803D01*
X307Y803D02*
X311Y803D01*
X350Y803D02*
X354Y803D01*
X361Y803D02*
X366Y803D01*
X0Y802D02*
X7Y802D01*
X10Y802D02*
X14Y802D01*
X30Y802D02*
X34Y802D01*
X47Y802D02*
X51Y802D01*
X67Y802D02*
X72Y802D01*
X84Y802D02*
X88Y802D01*
X104Y802D02*
X109Y802D01*
X122Y802D02*
X126Y802D01*
X141Y802D02*
X146Y802D01*
X169Y802D02*
X173Y802D01*
X196Y802D02*
X200Y802D01*
X270Y802D02*
X274Y802D01*
X307Y802D02*
X311Y802D01*
X350Y802D02*
X354Y802D01*
X361Y802D02*
X366Y802D01*
X0Y801D02*
X7Y801D01*
X10Y801D02*
X14Y801D01*
X30Y801D02*
X34Y801D01*
X47Y801D02*
X51Y801D01*
X67Y801D02*
X72Y801D01*
X84Y801D02*
X88Y801D01*
X103Y801D02*
X109Y801D01*
X122Y801D02*
X126Y801D01*
X140Y801D02*
X146Y801D01*
X169Y801D02*
X173Y801D01*
X196Y801D02*
X200Y801D01*
X270Y801D02*
X274Y801D01*
X307Y801D02*
X311Y801D01*
X350Y801D02*
X354Y801D01*
X360Y801D02*
X365Y801D01*
X0Y800D02*
X7Y800D01*
X10Y800D02*
X14Y800D01*
X30Y800D02*
X34Y800D01*
X47Y800D02*
X51Y800D01*
X67Y800D02*
X71Y800D01*
X84Y800D02*
X89Y800D01*
X102Y800D02*
X109Y800D01*
X122Y800D02*
X126Y800D01*
X138Y800D02*
X146Y800D01*
X169Y800D02*
X173Y800D01*
X196Y800D02*
X200Y800D01*
X270Y800D02*
X274Y800D01*
X307Y800D02*
X311Y800D01*
X350Y800D02*
X354Y800D01*
X360Y800D02*
X365Y800D01*
X0Y799D02*
X7Y799D01*
X10Y799D02*
X14Y799D01*
X30Y799D02*
X34Y799D01*
X47Y799D02*
X52Y799D01*
X66Y799D02*
X71Y799D01*
X84Y799D02*
X89Y799D01*
X101Y799D02*
X109Y799D01*
X122Y799D02*
X126Y799D01*
X136Y799D02*
X146Y799D01*
X169Y799D02*
X173Y799D01*
X196Y799D02*
X201Y799D01*
X270Y799D02*
X274Y799D01*
X307Y799D02*
X311Y799D01*
X350Y799D02*
X354Y799D01*
X359Y799D02*
X364Y799D01*
X0Y798D02*
X7Y798D01*
X10Y798D02*
X14Y798D01*
X30Y798D02*
X34Y798D01*
X48Y798D02*
X53Y798D01*
X65Y798D02*
X71Y798D01*
X85Y798D02*
X91Y798D01*
X100Y798D02*
X109Y798D01*
X122Y798D02*
X127Y798D01*
X135Y798D02*
X146Y798D01*
X169Y798D02*
X173Y798D01*
X196Y798D02*
X202Y798D01*
X270Y798D02*
X274Y798D01*
X307Y798D02*
X311Y798D01*
X350Y798D02*
X354Y798D01*
X358Y798D02*
X364Y798D01*
X0Y797D02*
X7Y797D01*
X10Y797D02*
X14Y797D01*
X30Y797D02*
X34Y797D01*
X48Y797D02*
X70Y797D01*
X85Y797D02*
X109Y797D01*
X122Y797D02*
X146Y797D01*
X164Y797D02*
X178Y797D01*
X197Y797D02*
X218Y797D01*
X270Y797D02*
X292Y797D01*
X307Y797D02*
X329Y797D01*
X347Y797D02*
X363Y797D01*
X0Y796D02*
X7Y796D01*
X10Y796D02*
X14Y796D01*
X30Y796D02*
X34Y796D01*
X49Y796D02*
X69Y796D01*
X86Y796D02*
X109Y796D01*
X123Y796D02*
X146Y796D01*
X162Y796D02*
X180Y796D01*
X198Y796D02*
X220Y796D01*
X270Y796D02*
X294Y796D01*
X307Y796D02*
X331Y796D01*
X345Y796D02*
X363Y796D01*
X0Y795D02*
X7Y795D01*
X10Y795D02*
X14Y795D01*
X30Y795D02*
X34Y795D01*
X50Y795D02*
X68Y795D01*
X87Y795D02*
X109Y795D01*
X123Y795D02*
X139Y795D01*
X142Y795D02*
X146Y795D01*
X161Y795D02*
X180Y795D01*
X199Y795D02*
X220Y795D01*
X270Y795D02*
X295Y795D01*
X307Y795D02*
X332Y795D01*
X345Y795D02*
X362Y795D01*
X0Y794D02*
X7Y794D01*
X10Y794D02*
X14Y794D01*
X30Y794D02*
X34Y794D01*
X51Y794D02*
X67Y794D01*
X88Y794D02*
X102Y794D01*
X105Y794D02*
X109Y794D01*
X124Y794D02*
X137Y794D01*
X142Y794D02*
X146Y794D01*
X161Y794D02*
X180Y794D01*
X200Y794D02*
X220Y794D01*
X270Y794D02*
X295Y794D01*
X307Y794D02*
X332Y794D01*
X345Y794D02*
X361Y794D01*
X0Y793D02*
X7Y793D01*
X10Y793D02*
X13Y793D01*
X31Y793D02*
X34Y793D01*
X52Y793D02*
X66Y793D01*
X90Y793D02*
X101Y793D01*
X105Y793D02*
X108Y793D01*
X126Y793D02*
X136Y793D01*
X142Y793D02*
X145Y793D01*
X161Y793D02*
X180Y793D01*
X201Y793D02*
X220Y793D01*
X270Y793D02*
X294Y793D01*
X307Y793D02*
X331Y793D01*
X345Y793D02*
X360Y793D01*
X672Y793D02*
X696Y793D01*
X724Y793D02*
X750Y793D01*
X0Y792D02*
X7Y792D01*
X11Y792D02*
X12Y792D01*
X32Y792D02*
X33Y792D01*
X55Y792D02*
X64Y792D01*
X92Y792D02*
X98Y792D01*
X106Y792D02*
X107Y792D01*
X128Y792D02*
X133Y792D01*
X143Y792D02*
X144Y792D01*
X163Y792D02*
X179Y792D01*
X204Y792D02*
X219Y792D01*
X270Y792D02*
X293Y792D01*
X308Y792D02*
X330Y792D01*
X346Y792D02*
X357Y792D01*
X672Y792D02*
X699Y792D01*
X723Y792D02*
X752Y792D01*
X0Y791D02*
X7Y791D01*
X672Y791D02*
X701Y791D01*
X722Y791D02*
X753Y791D01*
X0Y790D02*
X7Y790D01*
X672Y790D02*
X702Y790D01*
X722Y790D02*
X754Y790D01*
X0Y789D02*
X7Y789D01*
X672Y789D02*
X703Y789D01*
X722Y789D02*
X755Y789D01*
X0Y788D02*
X7Y788D01*
X672Y788D02*
X704Y788D01*
X722Y788D02*
X755Y788D01*
X1369Y788D02*
X1376Y788D01*
X0Y787D02*
X7Y787D01*
X672Y787D02*
X704Y787D01*
X723Y787D02*
X755Y787D01*
X1369Y787D02*
X1376Y787D01*
X0Y786D02*
X7Y786D01*
X672Y786D02*
X678Y786D01*
X696Y786D02*
X705Y786D01*
X749Y786D02*
X755Y786D01*
X1369Y786D02*
X1376Y786D01*
X0Y785D02*
X7Y785D01*
X672Y785D02*
X678Y785D01*
X698Y785D02*
X705Y785D01*
X749Y785D02*
X755Y785D01*
X1369Y785D02*
X1376Y785D01*
X0Y784D02*
X7Y784D01*
X672Y784D02*
X678Y784D01*
X699Y784D02*
X705Y784D01*
X749Y784D02*
X755Y784D01*
X1369Y784D02*
X1376Y784D01*
X0Y783D02*
X7Y783D01*
X672Y783D02*
X678Y783D01*
X699Y783D02*
X705Y783D01*
X749Y783D02*
X755Y783D01*
X1369Y783D02*
X1376Y783D01*
X0Y782D02*
X7Y782D01*
X672Y782D02*
X678Y782D01*
X699Y782D02*
X705Y782D01*
X749Y782D02*
X755Y782D01*
X1369Y782D02*
X1376Y782D01*
X0Y781D02*
X7Y781D01*
X672Y781D02*
X678Y781D01*
X699Y781D02*
X705Y781D01*
X749Y781D02*
X755Y781D01*
X1369Y781D02*
X1376Y781D01*
X0Y780D02*
X7Y780D01*
X672Y780D02*
X678Y780D01*
X699Y780D02*
X705Y780D01*
X749Y780D02*
X755Y780D01*
X881Y780D02*
X884Y780D01*
X1369Y780D02*
X1376Y780D01*
X0Y779D02*
X7Y779D01*
X672Y779D02*
X678Y779D01*
X699Y779D02*
X705Y779D01*
X749Y779D02*
X755Y779D01*
X880Y779D02*
X885Y779D01*
X1369Y779D02*
X1376Y779D01*
X0Y778D02*
X7Y778D01*
X672Y778D02*
X678Y778D01*
X699Y778D02*
X705Y778D01*
X749Y778D02*
X755Y778D01*
X879Y778D02*
X886Y778D01*
X1369Y778D02*
X1376Y778D01*
X0Y777D02*
X7Y777D01*
X672Y777D02*
X678Y777D01*
X698Y777D02*
X705Y777D01*
X749Y777D02*
X755Y777D01*
X878Y777D02*
X887Y777D01*
X1369Y777D02*
X1376Y777D01*
X0Y776D02*
X7Y776D01*
X672Y776D02*
X678Y776D01*
X697Y776D02*
X705Y776D01*
X749Y776D02*
X755Y776D01*
X878Y776D02*
X887Y776D01*
X1369Y776D02*
X1376Y776D01*
X0Y775D02*
X7Y775D01*
X672Y775D02*
X704Y775D01*
X749Y775D02*
X755Y775D01*
X878Y775D02*
X887Y775D01*
X1369Y775D02*
X1376Y775D01*
X0Y774D02*
X7Y774D01*
X672Y774D02*
X704Y774D01*
X749Y774D02*
X755Y774D01*
X878Y774D02*
X887Y774D01*
X1369Y774D02*
X1376Y774D01*
X0Y773D02*
X7Y773D01*
X672Y773D02*
X703Y773D01*
X749Y773D02*
X755Y773D01*
X878Y773D02*
X887Y773D01*
X1369Y773D02*
X1376Y773D01*
X0Y772D02*
X7Y772D01*
X672Y772D02*
X702Y772D01*
X749Y772D02*
X755Y772D01*
X878Y772D02*
X887Y772D01*
X1369Y772D02*
X1376Y772D01*
X0Y771D02*
X7Y771D01*
X672Y771D02*
X701Y771D01*
X748Y771D02*
X755Y771D01*
X878Y771D02*
X887Y771D01*
X1369Y771D02*
X1376Y771D01*
X0Y770D02*
X7Y770D01*
X672Y770D02*
X700Y770D01*
X747Y770D02*
X755Y770D01*
X878Y770D02*
X887Y770D01*
X1369Y770D02*
X1376Y770D01*
X0Y769D02*
X7Y769D01*
X672Y769D02*
X698Y769D01*
X730Y769D02*
X754Y769D01*
X878Y769D02*
X887Y769D01*
X1369Y769D02*
X1376Y769D01*
X0Y768D02*
X7Y768D01*
X672Y768D02*
X678Y768D01*
X684Y768D02*
X691Y768D01*
X729Y768D02*
X754Y768D01*
X878Y768D02*
X887Y768D01*
X1369Y768D02*
X1376Y768D01*
X0Y767D02*
X7Y767D01*
X672Y767D02*
X678Y767D01*
X684Y767D02*
X691Y767D01*
X729Y767D02*
X753Y767D01*
X878Y767D02*
X887Y767D01*
X1369Y767D02*
X1376Y767D01*
X0Y766D02*
X7Y766D01*
X672Y766D02*
X678Y766D01*
X685Y766D02*
X692Y766D01*
X729Y766D02*
X753Y766D01*
X878Y766D02*
X887Y766D01*
X1369Y766D02*
X1376Y766D01*
X0Y765D02*
X7Y765D01*
X672Y765D02*
X678Y765D01*
X685Y765D02*
X693Y765D01*
X729Y765D02*
X753Y765D01*
X878Y765D02*
X887Y765D01*
X1369Y765D02*
X1376Y765D01*
X0Y764D02*
X7Y764D01*
X672Y764D02*
X678Y764D01*
X686Y764D02*
X693Y764D01*
X729Y764D02*
X754Y764D01*
X878Y764D02*
X887Y764D01*
X1369Y764D02*
X1376Y764D01*
X0Y763D02*
X7Y763D01*
X672Y763D02*
X678Y763D01*
X687Y763D02*
X694Y763D01*
X731Y763D02*
X755Y763D01*
X878Y763D02*
X887Y763D01*
X1369Y763D02*
X1376Y763D01*
X0Y762D02*
X7Y762D01*
X672Y762D02*
X678Y762D01*
X687Y762D02*
X694Y762D01*
X748Y762D02*
X755Y762D01*
X878Y762D02*
X887Y762D01*
X1369Y762D02*
X1376Y762D01*
X0Y761D02*
X7Y761D01*
X672Y761D02*
X678Y761D01*
X688Y761D02*
X695Y761D01*
X749Y761D02*
X755Y761D01*
X878Y761D02*
X887Y761D01*
X1369Y761D02*
X1376Y761D01*
X0Y760D02*
X7Y760D01*
X672Y760D02*
X678Y760D01*
X688Y760D02*
X695Y760D01*
X749Y760D02*
X755Y760D01*
X861Y760D02*
X904Y760D01*
X1369Y760D02*
X1376Y760D01*
X0Y759D02*
X7Y759D01*
X672Y759D02*
X678Y759D01*
X689Y759D02*
X696Y759D01*
X749Y759D02*
X755Y759D01*
X860Y759D02*
X906Y759D01*
X1369Y759D02*
X1376Y759D01*
X0Y758D02*
X7Y758D01*
X672Y758D02*
X678Y758D01*
X689Y758D02*
X697Y758D01*
X749Y758D02*
X755Y758D01*
X859Y758D02*
X906Y758D01*
X1369Y758D02*
X1376Y758D01*
X0Y757D02*
X7Y757D01*
X672Y757D02*
X678Y757D01*
X690Y757D02*
X697Y757D01*
X749Y757D02*
X755Y757D01*
X858Y757D02*
X907Y757D01*
X1369Y757D02*
X1376Y757D01*
X0Y756D02*
X7Y756D01*
X672Y756D02*
X678Y756D01*
X691Y756D02*
X698Y756D01*
X749Y756D02*
X755Y756D01*
X858Y756D02*
X907Y756D01*
X1369Y756D02*
X1376Y756D01*
X0Y755D02*
X7Y755D01*
X672Y755D02*
X678Y755D01*
X691Y755D02*
X698Y755D01*
X749Y755D02*
X755Y755D01*
X858Y755D02*
X907Y755D01*
X1369Y755D02*
X1376Y755D01*
X0Y754D02*
X7Y754D01*
X672Y754D02*
X678Y754D01*
X692Y754D02*
X699Y754D01*
X749Y754D02*
X755Y754D01*
X858Y754D02*
X907Y754D01*
X1369Y754D02*
X1376Y754D01*
X0Y753D02*
X7Y753D01*
X672Y753D02*
X678Y753D01*
X692Y753D02*
X700Y753D01*
X749Y753D02*
X755Y753D01*
X859Y753D02*
X906Y753D01*
X1369Y753D02*
X1376Y753D01*
X0Y752D02*
X7Y752D01*
X672Y752D02*
X678Y752D01*
X693Y752D02*
X700Y752D01*
X749Y752D02*
X755Y752D01*
X860Y752D02*
X905Y752D01*
X1369Y752D02*
X1376Y752D01*
X0Y751D02*
X7Y751D01*
X672Y751D02*
X678Y751D01*
X694Y751D02*
X701Y751D01*
X749Y751D02*
X755Y751D01*
X861Y751D02*
X904Y751D01*
X1369Y751D02*
X1376Y751D01*
X0Y750D02*
X7Y750D01*
X672Y750D02*
X678Y750D01*
X694Y750D02*
X701Y750D01*
X749Y750D02*
X755Y750D01*
X878Y750D02*
X887Y750D01*
X1369Y750D02*
X1376Y750D01*
X0Y749D02*
X7Y749D01*
X672Y749D02*
X678Y749D01*
X695Y749D02*
X702Y749D01*
X749Y749D02*
X755Y749D01*
X878Y749D02*
X887Y749D01*
X1369Y749D02*
X1376Y749D01*
X0Y748D02*
X7Y748D01*
X672Y748D02*
X678Y748D01*
X695Y748D02*
X702Y748D01*
X749Y748D02*
X755Y748D01*
X878Y748D02*
X887Y748D01*
X1369Y748D02*
X1376Y748D01*
X0Y747D02*
X7Y747D01*
X672Y747D02*
X678Y747D01*
X696Y747D02*
X703Y747D01*
X749Y747D02*
X755Y747D01*
X878Y747D02*
X887Y747D01*
X1369Y747D02*
X1376Y747D01*
X0Y746D02*
X7Y746D01*
X672Y746D02*
X678Y746D01*
X696Y746D02*
X704Y746D01*
X725Y746D02*
X755Y746D01*
X878Y746D02*
X887Y746D01*
X1369Y746D02*
X1376Y746D01*
X0Y745D02*
X7Y745D01*
X672Y745D02*
X678Y745D01*
X697Y745D02*
X704Y745D01*
X723Y745D02*
X755Y745D01*
X878Y745D02*
X887Y745D01*
X1369Y745D02*
X1376Y745D01*
X0Y744D02*
X7Y744D01*
X672Y744D02*
X678Y744D01*
X698Y744D02*
X705Y744D01*
X722Y744D02*
X755Y744D01*
X878Y744D02*
X887Y744D01*
X1369Y744D02*
X1376Y744D01*
X0Y743D02*
X7Y743D01*
X672Y743D02*
X678Y743D01*
X698Y743D02*
X705Y743D01*
X722Y743D02*
X755Y743D01*
X878Y743D02*
X887Y743D01*
X1369Y743D02*
X1376Y743D01*
X0Y742D02*
X7Y742D01*
X672Y742D02*
X677Y742D01*
X699Y742D02*
X705Y742D01*
X722Y742D02*
X754Y742D01*
X878Y742D02*
X887Y742D01*
X1369Y742D02*
X1376Y742D01*
X0Y741D02*
X7Y741D01*
X672Y741D02*
X677Y741D01*
X699Y741D02*
X705Y741D01*
X722Y741D02*
X753Y741D01*
X878Y741D02*
X887Y741D01*
X1369Y741D02*
X1376Y741D01*
X0Y740D02*
X7Y740D01*
X673Y740D02*
X676Y740D01*
X700Y740D02*
X704Y740D01*
X723Y740D02*
X752Y740D01*
X878Y740D02*
X887Y740D01*
X1369Y740D02*
X1376Y740D01*
X0Y739D02*
X7Y739D01*
X878Y739D02*
X887Y739D01*
X1369Y739D02*
X1376Y739D01*
X0Y738D02*
X7Y738D01*
X878Y738D02*
X887Y738D01*
X1369Y738D02*
X1376Y738D01*
X0Y737D02*
X7Y737D01*
X878Y737D02*
X887Y737D01*
X1369Y737D02*
X1376Y737D01*
X0Y736D02*
X7Y736D01*
X878Y736D02*
X887Y736D01*
X1369Y736D02*
X1376Y736D01*
X0Y735D02*
X7Y735D01*
X878Y735D02*
X887Y735D01*
X1369Y735D02*
X1376Y735D01*
X0Y734D02*
X7Y734D01*
X878Y734D02*
X887Y734D01*
X1369Y734D02*
X1376Y734D01*
X0Y733D02*
X7Y733D01*
X879Y733D02*
X886Y733D01*
X1369Y733D02*
X1376Y733D01*
X0Y732D02*
X7Y732D01*
X880Y732D02*
X885Y732D01*
X1369Y732D02*
X1376Y732D01*
X0Y731D02*
X7Y731D01*
X881Y731D02*
X884Y731D01*
X1369Y731D02*
X1376Y731D01*
X0Y730D02*
X7Y730D01*
X1369Y730D02*
X1376Y730D01*
X0Y729D02*
X7Y729D01*
X1369Y729D02*
X1376Y729D01*
X0Y728D02*
X7Y728D01*
X1369Y728D02*
X1376Y728D01*
X0Y727D02*
X7Y727D01*
X1369Y727D02*
X1376Y727D01*
X0Y726D02*
X7Y726D01*
X1369Y726D02*
X1376Y726D01*
X0Y725D02*
X7Y725D01*
X1369Y725D02*
X1376Y725D01*
X0Y724D02*
X7Y724D01*
X1369Y724D02*
X1376Y724D01*
X0Y723D02*
X7Y723D01*
X1369Y723D02*
X1376Y723D01*
X0Y722D02*
X7Y722D01*
X1369Y722D02*
X1376Y722D01*
X0Y721D02*
X7Y721D01*
X1369Y721D02*
X1376Y721D01*
X0Y720D02*
X7Y720D01*
X1369Y720D02*
X1376Y720D01*
X0Y719D02*
X7Y719D01*
X1369Y719D02*
X1376Y719D01*
X0Y718D02*
X7Y718D01*
X1369Y718D02*
X1376Y718D01*
X0Y717D02*
X7Y717D01*
X1369Y717D02*
X1376Y717D01*
X0Y716D02*
X7Y716D01*
X1369Y716D02*
X1376Y716D01*
X0Y715D02*
X7Y715D01*
X1369Y715D02*
X1376Y715D01*
X0Y714D02*
X7Y714D01*
X1369Y714D02*
X1376Y714D01*
X0Y713D02*
X7Y713D01*
X1369Y713D02*
X1376Y713D01*
X0Y712D02*
X7Y712D01*
X1369Y712D02*
X1376Y712D01*
X0Y711D02*
X7Y711D01*
X1369Y711D02*
X1376Y711D01*
X0Y710D02*
X7Y710D01*
X1369Y710D02*
X1376Y710D01*
X0Y709D02*
X7Y709D01*
X1369Y709D02*
X1376Y709D01*
X0Y708D02*
X7Y708D01*
X1369Y708D02*
X1376Y708D01*
X0Y707D02*
X7Y707D01*
X1369Y707D02*
X1376Y707D01*
X0Y706D02*
X7Y706D01*
X1369Y706D02*
X1376Y706D01*
X0Y705D02*
X7Y705D01*
X1369Y705D02*
X1376Y705D01*
X0Y704D02*
X7Y704D01*
X1369Y704D02*
X1376Y704D01*
X0Y703D02*
X7Y703D01*
X1369Y703D02*
X1376Y703D01*
X0Y702D02*
X7Y702D01*
X1369Y702D02*
X1376Y702D01*
X0Y701D02*
X7Y701D01*
X179Y701D02*
X203Y701D01*
X1369Y701D02*
X1376Y701D01*
X0Y700D02*
X7Y700D01*
X167Y700D02*
X215Y700D01*
X1162Y700D02*
X1203Y700D01*
X1369Y700D02*
X1376Y700D01*
X0Y699D02*
X7Y699D01*
X159Y699D02*
X222Y699D01*
X1160Y699D02*
X1205Y699D01*
X1369Y699D02*
X1376Y699D01*
X0Y698D02*
X7Y698D01*
X153Y698D02*
X229Y698D01*
X1159Y698D02*
X1206Y698D01*
X1369Y698D02*
X1376Y698D01*
X0Y697D02*
X7Y697D01*
X148Y697D02*
X234Y697D01*
X1159Y697D02*
X1207Y697D01*
X1369Y697D02*
X1376Y697D01*
X0Y696D02*
X7Y696D01*
X143Y696D02*
X238Y696D01*
X1158Y696D02*
X1207Y696D01*
X1369Y696D02*
X1376Y696D01*
X0Y695D02*
X7Y695D01*
X139Y695D02*
X242Y695D01*
X1158Y695D02*
X1207Y695D01*
X1369Y695D02*
X1376Y695D01*
X0Y694D02*
X7Y694D01*
X135Y694D02*
X246Y694D01*
X1158Y694D02*
X1207Y694D01*
X1369Y694D02*
X1376Y694D01*
X0Y693D02*
X7Y693D01*
X132Y693D02*
X178Y693D01*
X204Y693D02*
X250Y693D01*
X1158Y693D02*
X1207Y693D01*
X1369Y693D02*
X1376Y693D01*
X0Y692D02*
X7Y692D01*
X128Y692D02*
X166Y692D01*
X215Y692D02*
X253Y692D01*
X1158Y692D02*
X1207Y692D01*
X1369Y692D02*
X1376Y692D01*
X0Y691D02*
X7Y691D01*
X125Y691D02*
X159Y691D01*
X223Y691D02*
X257Y691D01*
X1158Y691D02*
X1207Y691D01*
X1369Y691D02*
X1376Y691D01*
X0Y690D02*
X7Y690D01*
X122Y690D02*
X152Y690D01*
X229Y690D02*
X260Y690D01*
X1158Y690D02*
X1207Y690D01*
X1369Y690D02*
X1376Y690D01*
X0Y689D02*
X7Y689D01*
X119Y689D02*
X147Y689D01*
X234Y689D02*
X262Y689D01*
X1159Y689D02*
X1206Y689D01*
X1369Y689D02*
X1376Y689D01*
X0Y688D02*
X7Y688D01*
X116Y688D02*
X143Y688D01*
X239Y688D02*
X265Y688D01*
X1159Y688D02*
X1206Y688D01*
X1369Y688D02*
X1376Y688D01*
X0Y687D02*
X7Y687D01*
X114Y687D02*
X139Y687D01*
X243Y687D02*
X268Y687D01*
X1160Y687D02*
X1205Y687D01*
X1369Y687D02*
X1376Y687D01*
X0Y686D02*
X7Y686D01*
X111Y686D02*
X135Y686D01*
X247Y686D02*
X270Y686D01*
X1163Y686D02*
X1202Y686D01*
X1369Y686D02*
X1376Y686D01*
X0Y685D02*
X7Y685D01*
X109Y685D02*
X131Y685D01*
X250Y685D02*
X273Y685D01*
X533Y685D02*
X600Y685D01*
X800Y685D02*
X848Y685D01*
X1369Y685D02*
X1376Y685D01*
X0Y684D02*
X7Y684D01*
X106Y684D02*
X128Y684D01*
X254Y684D02*
X275Y684D01*
X533Y684D02*
X600Y684D01*
X800Y684D02*
X848Y684D01*
X1369Y684D02*
X1376Y684D01*
X0Y683D02*
X7Y683D01*
X104Y683D02*
X125Y683D01*
X257Y683D02*
X278Y683D01*
X534Y683D02*
X600Y683D01*
X800Y683D02*
X848Y683D01*
X1369Y683D02*
X1376Y683D01*
X0Y682D02*
X7Y682D01*
X102Y682D02*
X122Y682D01*
X260Y682D02*
X280Y682D01*
X534Y682D02*
X600Y682D01*
X800Y682D02*
X847Y682D01*
X1369Y682D02*
X1376Y682D01*
X0Y681D02*
X7Y681D01*
X100Y681D02*
X119Y681D01*
X263Y681D02*
X282Y681D01*
X534Y681D02*
X600Y681D01*
X800Y681D02*
X847Y681D01*
X1369Y681D02*
X1376Y681D01*
X0Y680D02*
X7Y680D01*
X98Y680D02*
X116Y680D01*
X266Y680D02*
X284Y680D01*
X534Y680D02*
X600Y680D01*
X800Y680D02*
X847Y680D01*
X1369Y680D02*
X1376Y680D01*
X0Y679D02*
X7Y679D01*
X96Y679D02*
X114Y679D01*
X268Y679D02*
X286Y679D01*
X534Y679D02*
X600Y679D01*
X800Y679D02*
X848Y679D01*
X1369Y679D02*
X1376Y679D01*
X0Y678D02*
X7Y678D01*
X94Y678D02*
X111Y678D01*
X271Y678D02*
X288Y678D01*
X533Y678D02*
X600Y678D01*
X800Y678D02*
X848Y678D01*
X1369Y678D02*
X1376Y678D01*
X0Y677D02*
X7Y677D01*
X92Y677D02*
X109Y677D01*
X273Y677D02*
X290Y677D01*
X533Y677D02*
X600Y677D01*
X800Y677D02*
X848Y677D01*
X1369Y677D02*
X1376Y677D01*
X0Y676D02*
X7Y676D01*
X90Y676D02*
X106Y676D01*
X275Y676D02*
X292Y676D01*
X533Y676D02*
X599Y676D01*
X801Y676D02*
X848Y676D01*
X1369Y676D02*
X1376Y676D01*
X0Y675D02*
X7Y675D01*
X88Y675D02*
X104Y675D01*
X278Y675D02*
X294Y675D01*
X1369Y675D02*
X1376Y675D01*
X0Y674D02*
X7Y674D01*
X86Y674D02*
X102Y674D01*
X280Y674D02*
X296Y674D01*
X1369Y674D02*
X1376Y674D01*
X0Y673D02*
X7Y673D01*
X84Y673D02*
X100Y673D01*
X282Y673D02*
X298Y673D01*
X1369Y673D02*
X1376Y673D01*
X0Y672D02*
X7Y672D01*
X82Y672D02*
X98Y672D01*
X284Y672D02*
X299Y672D01*
X1369Y672D02*
X1376Y672D01*
X0Y671D02*
X7Y671D01*
X81Y671D02*
X96Y671D01*
X286Y671D02*
X301Y671D01*
X1369Y671D02*
X1376Y671D01*
X0Y670D02*
X7Y670D01*
X79Y670D02*
X94Y670D01*
X288Y670D02*
X303Y670D01*
X1369Y670D02*
X1376Y670D01*
X0Y669D02*
X7Y669D01*
X77Y669D02*
X92Y669D01*
X290Y669D02*
X304Y669D01*
X1369Y669D02*
X1376Y669D01*
X0Y668D02*
X7Y668D01*
X76Y668D02*
X90Y668D01*
X292Y668D02*
X306Y668D01*
X1369Y668D02*
X1376Y668D01*
X0Y667D02*
X7Y667D01*
X74Y667D02*
X88Y667D01*
X294Y667D02*
X308Y667D01*
X1369Y667D02*
X1376Y667D01*
X0Y666D02*
X7Y666D01*
X73Y666D02*
X86Y666D01*
X295Y666D02*
X309Y666D01*
X1369Y666D02*
X1376Y666D01*
X0Y665D02*
X7Y665D01*
X71Y665D02*
X85Y665D01*
X297Y665D02*
X311Y665D01*
X1369Y665D02*
X1376Y665D01*
X0Y664D02*
X7Y664D01*
X70Y664D02*
X83Y664D01*
X299Y664D02*
X312Y664D01*
X1369Y664D02*
X1376Y664D01*
X0Y663D02*
X7Y663D01*
X68Y663D02*
X81Y663D01*
X301Y663D02*
X314Y663D01*
X0Y662D02*
X7Y662D01*
X67Y662D02*
X80Y662D01*
X302Y662D02*
X315Y662D01*
X0Y661D02*
X7Y661D01*
X65Y661D02*
X78Y661D01*
X304Y661D02*
X316Y661D01*
X0Y660D02*
X7Y660D01*
X64Y660D02*
X76Y660D01*
X305Y660D02*
X318Y660D01*
X0Y659D02*
X7Y659D01*
X63Y659D02*
X75Y659D01*
X307Y659D02*
X319Y659D01*
X0Y658D02*
X7Y658D01*
X61Y658D02*
X73Y658D01*
X308Y658D02*
X320Y658D01*
X0Y657D02*
X7Y657D01*
X60Y657D02*
X72Y657D01*
X310Y657D02*
X322Y657D01*
X0Y656D02*
X7Y656D01*
X59Y656D02*
X70Y656D01*
X311Y656D02*
X323Y656D01*
X0Y655D02*
X7Y655D01*
X57Y655D02*
X69Y655D01*
X313Y655D02*
X324Y655D01*
X1369Y655D02*
X1376Y655D01*
X0Y654D02*
X7Y654D01*
X56Y654D02*
X68Y654D01*
X314Y654D02*
X326Y654D01*
X1369Y654D02*
X1376Y654D01*
X0Y653D02*
X7Y653D01*
X55Y653D02*
X66Y653D01*
X316Y653D02*
X327Y653D01*
X1369Y653D02*
X1376Y653D01*
X0Y652D02*
X7Y652D01*
X54Y652D02*
X65Y652D01*
X317Y652D02*
X328Y652D01*
X1369Y652D02*
X1376Y652D01*
X0Y651D02*
X7Y651D01*
X52Y651D02*
X63Y651D01*
X318Y651D02*
X329Y651D01*
X1369Y651D02*
X1376Y651D01*
X0Y650D02*
X7Y650D01*
X51Y650D02*
X62Y650D01*
X320Y650D02*
X331Y650D01*
X1369Y650D02*
X1376Y650D01*
X0Y649D02*
X7Y649D01*
X50Y649D02*
X61Y649D01*
X321Y649D02*
X332Y649D01*
X1369Y649D02*
X1376Y649D01*
X0Y648D02*
X7Y648D01*
X49Y648D02*
X60Y648D01*
X322Y648D02*
X333Y648D01*
X1369Y648D02*
X1376Y648D01*
X0Y647D02*
X7Y647D01*
X48Y647D02*
X58Y647D01*
X323Y647D02*
X334Y647D01*
X1369Y647D02*
X1376Y647D01*
X0Y646D02*
X7Y646D01*
X47Y646D02*
X57Y646D01*
X325Y646D02*
X335Y646D01*
X1369Y646D02*
X1376Y646D01*
X0Y645D02*
X7Y645D01*
X45Y645D02*
X56Y645D01*
X326Y645D02*
X336Y645D01*
X1369Y645D02*
X1376Y645D01*
X0Y644D02*
X7Y644D01*
X44Y644D02*
X55Y644D01*
X327Y644D02*
X337Y644D01*
X1369Y644D02*
X1376Y644D01*
X0Y643D02*
X7Y643D01*
X43Y643D02*
X54Y643D01*
X328Y643D02*
X338Y643D01*
X1369Y643D02*
X1376Y643D01*
X0Y642D02*
X7Y642D01*
X42Y642D02*
X52Y642D01*
X329Y642D02*
X340Y642D01*
X1369Y642D02*
X1376Y642D01*
X0Y641D02*
X7Y641D01*
X41Y641D02*
X51Y641D01*
X297Y641D02*
X341Y641D01*
X1369Y641D02*
X1376Y641D01*
X0Y640D02*
X7Y640D01*
X40Y640D02*
X50Y640D01*
X296Y640D02*
X342Y640D01*
X1369Y640D02*
X1376Y640D01*
X0Y639D02*
X7Y639D01*
X39Y639D02*
X49Y639D01*
X295Y639D02*
X343Y639D01*
X1369Y639D02*
X1376Y639D01*
X0Y638D02*
X7Y638D01*
X38Y638D02*
X48Y638D01*
X295Y638D02*
X344Y638D01*
X1369Y638D02*
X1376Y638D01*
X0Y637D02*
X7Y637D01*
X37Y637D02*
X47Y637D01*
X295Y637D02*
X345Y637D01*
X1369Y637D02*
X1376Y637D01*
X0Y636D02*
X7Y636D01*
X36Y636D02*
X46Y636D01*
X294Y636D02*
X346Y636D01*
X1155Y636D02*
X1190Y636D01*
X1369Y636D02*
X1376Y636D01*
X0Y635D02*
X7Y635D01*
X35Y635D02*
X45Y635D01*
X294Y635D02*
X347Y635D01*
X1155Y635D02*
X1192Y635D01*
X1369Y635D02*
X1376Y635D01*
X0Y634D02*
X7Y634D01*
X34Y634D02*
X44Y634D01*
X294Y634D02*
X348Y634D01*
X1155Y634D02*
X1193Y634D01*
X1369Y634D02*
X1376Y634D01*
X0Y633D02*
X7Y633D01*
X33Y633D02*
X43Y633D01*
X294Y633D02*
X349Y633D01*
X1155Y633D02*
X1193Y633D01*
X1369Y633D02*
X1376Y633D01*
X0Y632D02*
X7Y632D01*
X32Y632D02*
X42Y632D01*
X295Y632D02*
X350Y632D01*
X1155Y632D02*
X1194Y632D01*
X1369Y632D02*
X1376Y632D01*
X0Y631D02*
X7Y631D01*
X31Y631D02*
X41Y631D01*
X295Y631D02*
X350Y631D01*
X1155Y631D02*
X1193Y631D01*
X1369Y631D02*
X1376Y631D01*
X0Y630D02*
X7Y630D01*
X30Y630D02*
X40Y630D01*
X295Y630D02*
X351Y630D01*
X1155Y630D02*
X1193Y630D01*
X1369Y630D02*
X1376Y630D01*
X0Y629D02*
X7Y629D01*
X29Y629D02*
X39Y629D01*
X296Y629D02*
X352Y629D01*
X1155Y629D02*
X1192Y629D01*
X1369Y629D02*
X1376Y629D01*
X0Y628D02*
X7Y628D01*
X29Y628D02*
X38Y628D01*
X297Y628D02*
X340Y628D01*
X344Y628D02*
X353Y628D01*
X1369Y628D02*
X1376Y628D01*
X0Y627D02*
X7Y627D01*
X28Y627D02*
X37Y627D01*
X345Y627D02*
X354Y627D01*
X1369Y627D02*
X1376Y627D01*
X0Y626D02*
X7Y626D01*
X27Y626D02*
X36Y626D01*
X346Y626D02*
X355Y626D01*
X1369Y626D02*
X1376Y626D01*
X0Y625D02*
X7Y625D01*
X26Y625D02*
X35Y625D01*
X347Y625D02*
X356Y625D01*
X1304Y625D02*
X1326Y625D01*
X1369Y625D02*
X1376Y625D01*
X0Y624D02*
X7Y624D01*
X25Y624D02*
X34Y624D01*
X348Y624D02*
X357Y624D01*
X1302Y624D02*
X1327Y624D01*
X1369Y624D02*
X1376Y624D01*
X0Y623D02*
X7Y623D01*
X24Y623D02*
X33Y623D01*
X348Y623D02*
X358Y623D01*
X1300Y623D02*
X1328Y623D01*
X1369Y623D02*
X1376Y623D01*
X0Y622D02*
X7Y622D01*
X23Y622D02*
X32Y622D01*
X349Y622D02*
X358Y622D01*
X1299Y622D02*
X1328Y622D01*
X1369Y622D02*
X1376Y622D01*
X0Y621D02*
X7Y621D01*
X23Y621D02*
X31Y621D01*
X350Y621D02*
X359Y621D01*
X1298Y621D02*
X1328Y621D01*
X1369Y621D02*
X1376Y621D01*
X0Y620D02*
X7Y620D01*
X22Y620D02*
X31Y620D01*
X351Y620D02*
X360Y620D01*
X1297Y620D02*
X1328Y620D01*
X1369Y620D02*
X1376Y620D01*
X0Y619D02*
X7Y619D01*
X21Y619D02*
X30Y619D01*
X352Y619D02*
X361Y619D01*
X1296Y619D02*
X1328Y619D01*
X1369Y619D02*
X1376Y619D01*
X0Y618D02*
X7Y618D01*
X20Y618D02*
X29Y618D01*
X353Y618D02*
X362Y618D01*
X1296Y618D02*
X1327Y618D01*
X1369Y618D02*
X1376Y618D01*
X0Y617D02*
X7Y617D01*
X19Y617D02*
X28Y617D01*
X354Y617D02*
X362Y617D01*
X1295Y617D02*
X1326Y617D01*
X1369Y617D02*
X1376Y617D01*
X0Y616D02*
X7Y616D01*
X19Y616D02*
X27Y616D01*
X354Y616D02*
X363Y616D01*
X1294Y616D02*
X1324Y616D01*
X1369Y616D02*
X1376Y616D01*
X0Y615D02*
X7Y615D01*
X18Y615D02*
X27Y615D01*
X355Y615D02*
X364Y615D01*
X1293Y615D02*
X1305Y615D01*
X1369Y615D02*
X1376Y615D01*
X0Y614D02*
X7Y614D01*
X17Y614D02*
X26Y614D01*
X356Y614D02*
X365Y614D01*
X1292Y614D02*
X1304Y614D01*
X1369Y614D02*
X1376Y614D01*
X0Y613D02*
X7Y613D01*
X16Y613D02*
X25Y613D01*
X357Y613D02*
X365Y613D01*
X1292Y613D02*
X1304Y613D01*
X1369Y613D02*
X1376Y613D01*
X0Y612D02*
X7Y612D01*
X16Y612D02*
X24Y612D01*
X358Y612D02*
X366Y612D01*
X1291Y612D02*
X1303Y612D01*
X1369Y612D02*
X1376Y612D01*
X0Y611D02*
X7Y611D01*
X15Y611D02*
X23Y611D01*
X358Y611D02*
X367Y611D01*
X1290Y611D02*
X1302Y611D01*
X1369Y611D02*
X1376Y611D01*
X0Y610D02*
X7Y610D01*
X14Y610D02*
X23Y610D01*
X359Y610D02*
X368Y610D01*
X1289Y610D02*
X1301Y610D01*
X1369Y610D02*
X1376Y610D01*
X0Y609D02*
X7Y609D01*
X13Y609D02*
X22Y609D01*
X360Y609D02*
X368Y609D01*
X1289Y609D02*
X1300Y609D01*
X1369Y609D02*
X1376Y609D01*
X0Y608D02*
X7Y608D01*
X13Y608D02*
X21Y608D01*
X361Y608D02*
X369Y608D01*
X1288Y608D02*
X1300Y608D01*
X1369Y608D02*
X1376Y608D01*
X0Y607D02*
X7Y607D01*
X12Y607D02*
X20Y607D01*
X361Y607D02*
X370Y607D01*
X1287Y607D02*
X1299Y607D01*
X1369Y607D02*
X1376Y607D01*
X0Y606D02*
X7Y606D01*
X11Y606D02*
X20Y606D01*
X362Y606D02*
X370Y606D01*
X1286Y606D02*
X1298Y606D01*
X1369Y606D02*
X1376Y606D01*
X0Y605D02*
X7Y605D01*
X11Y605D02*
X19Y605D01*
X363Y605D02*
X371Y605D01*
X1285Y605D02*
X1297Y605D01*
X1369Y605D02*
X1376Y605D01*
X0Y604D02*
X7Y604D01*
X10Y604D02*
X18Y604D01*
X363Y604D02*
X372Y604D01*
X1285Y604D02*
X1296Y604D01*
X1369Y604D02*
X1376Y604D01*
X0Y603D02*
X7Y603D01*
X9Y603D02*
X18Y603D01*
X364Y603D02*
X372Y603D01*
X1284Y603D02*
X1296Y603D01*
X1369Y603D02*
X1376Y603D01*
X0Y602D02*
X7Y602D01*
X9Y602D02*
X17Y602D01*
X365Y602D02*
X373Y602D01*
X1283Y602D02*
X1295Y602D01*
X1369Y602D02*
X1376Y602D01*
X0Y601D02*
X16Y601D01*
X366Y601D02*
X374Y601D01*
X1283Y601D02*
X1294Y601D01*
X1369Y601D02*
X1376Y601D01*
X0Y600D02*
X16Y600D01*
X366Y600D02*
X374Y600D01*
X1282Y600D02*
X1293Y600D01*
X1369Y600D02*
X1376Y600D01*
X0Y599D02*
X15Y599D01*
X367Y599D02*
X375Y599D01*
X1281Y599D02*
X1293Y599D01*
X1369Y599D02*
X1376Y599D01*
X0Y598D02*
X14Y598D01*
X368Y598D02*
X376Y598D01*
X1281Y598D02*
X1292Y598D01*
X1369Y598D02*
X1376Y598D01*
X0Y597D02*
X14Y597D01*
X368Y597D02*
X376Y597D01*
X1281Y597D02*
X1291Y597D01*
X1369Y597D02*
X1376Y597D01*
X0Y596D02*
X13Y596D01*
X369Y596D02*
X377Y596D01*
X1280Y596D02*
X1290Y596D01*
X1369Y596D02*
X1376Y596D01*
X0Y595D02*
X12Y595D01*
X369Y595D02*
X378Y595D01*
X1280Y595D02*
X1290Y595D01*
X1369Y595D02*
X1376Y595D01*
X0Y594D02*
X12Y594D01*
X370Y594D02*
X378Y594D01*
X1280Y594D02*
X1289Y594D01*
X1369Y594D02*
X1376Y594D01*
X0Y593D02*
X11Y593D01*
X371Y593D02*
X379Y593D01*
X1280Y593D02*
X1289Y593D01*
X1369Y593D02*
X1376Y593D01*
X0Y592D02*
X10Y592D01*
X371Y592D02*
X379Y592D01*
X1280Y592D02*
X1289Y592D01*
X1369Y592D02*
X1376Y592D01*
X0Y591D02*
X10Y591D01*
X372Y591D02*
X380Y591D01*
X1279Y591D02*
X1289Y591D01*
X1369Y591D02*
X1376Y591D01*
X0Y590D02*
X9Y590D01*
X372Y590D02*
X380Y590D01*
X1279Y590D02*
X1288Y590D01*
X1369Y590D02*
X1376Y590D01*
X0Y589D02*
X9Y589D01*
X373Y589D02*
X381Y589D01*
X1279Y589D02*
X1288Y589D01*
X1369Y589D02*
X1376Y589D01*
X0Y588D02*
X8Y588D01*
X374Y588D02*
X382Y588D01*
X1279Y588D02*
X1288Y588D01*
X1369Y588D02*
X1376Y588D01*
X0Y587D02*
X8Y587D01*
X374Y587D02*
X382Y587D01*
X1279Y587D02*
X1288Y587D01*
X1369Y587D02*
X1376Y587D01*
X0Y586D02*
X7Y586D01*
X375Y586D02*
X383Y586D01*
X1279Y586D02*
X1288Y586D01*
X1369Y586D02*
X1376Y586D01*
X0Y585D02*
X7Y585D01*
X375Y585D02*
X383Y585D01*
X1279Y585D02*
X1288Y585D01*
X1369Y585D02*
X1376Y585D01*
X0Y584D02*
X7Y584D01*
X376Y584D02*
X384Y584D01*
X1279Y584D02*
X1288Y584D01*
X1369Y584D02*
X1376Y584D01*
X0Y583D02*
X7Y583D01*
X376Y583D02*
X384Y583D01*
X1279Y583D02*
X1288Y583D01*
X1307Y583D02*
X1328Y583D01*
X1369Y583D02*
X1376Y583D01*
X0Y582D02*
X7Y582D01*
X377Y582D02*
X385Y582D01*
X1279Y582D02*
X1288Y582D01*
X1306Y582D02*
X1328Y582D01*
X1369Y582D02*
X1376Y582D01*
X0Y581D02*
X7Y581D01*
X377Y581D02*
X385Y581D01*
X1279Y581D02*
X1288Y581D01*
X1305Y581D02*
X1328Y581D01*
X1369Y581D02*
X1376Y581D01*
X0Y580D02*
X7Y580D01*
X378Y580D02*
X386Y580D01*
X1279Y580D02*
X1288Y580D01*
X1304Y580D02*
X1328Y580D01*
X1369Y580D02*
X1376Y580D01*
X0Y579D02*
X7Y579D01*
X378Y579D02*
X386Y579D01*
X1279Y579D02*
X1288Y579D01*
X1304Y579D02*
X1328Y579D01*
X1369Y579D02*
X1376Y579D01*
X0Y578D02*
X7Y578D01*
X379Y578D02*
X387Y578D01*
X1279Y578D02*
X1288Y578D01*
X1304Y578D02*
X1328Y578D01*
X1369Y578D02*
X1376Y578D01*
X0Y577D02*
X7Y577D01*
X379Y577D02*
X387Y577D01*
X1279Y577D02*
X1288Y577D01*
X1304Y577D02*
X1328Y577D01*
X1369Y577D02*
X1376Y577D01*
X0Y576D02*
X7Y576D01*
X380Y576D02*
X388Y576D01*
X1279Y576D02*
X1288Y576D01*
X1305Y576D02*
X1328Y576D01*
X1369Y576D02*
X1376Y576D01*
X0Y575D02*
X7Y575D01*
X380Y575D02*
X388Y575D01*
X1279Y575D02*
X1288Y575D01*
X1306Y575D02*
X1328Y575D01*
X1369Y575D02*
X1376Y575D01*
X0Y574D02*
X7Y574D01*
X381Y574D02*
X389Y574D01*
X1279Y574D02*
X1288Y574D01*
X1307Y574D02*
X1328Y574D01*
X1369Y574D02*
X1376Y574D01*
X0Y573D02*
X7Y573D01*
X381Y573D02*
X389Y573D01*
X1279Y573D02*
X1288Y573D01*
X1319Y573D02*
X1328Y573D01*
X1369Y573D02*
X1376Y573D01*
X0Y572D02*
X7Y572D01*
X382Y572D02*
X389Y572D01*
X1279Y572D02*
X1288Y572D01*
X1319Y572D02*
X1328Y572D01*
X1369Y572D02*
X1376Y572D01*
X0Y571D02*
X7Y571D01*
X382Y571D02*
X390Y571D01*
X1279Y571D02*
X1288Y571D01*
X1319Y571D02*
X1328Y571D01*
X1369Y571D02*
X1376Y571D01*
X0Y570D02*
X7Y570D01*
X383Y570D02*
X390Y570D01*
X1279Y570D02*
X1288Y570D01*
X1319Y570D02*
X1328Y570D01*
X1369Y570D02*
X1376Y570D01*
X0Y569D02*
X7Y569D01*
X383Y569D02*
X391Y569D01*
X1279Y569D02*
X1288Y569D01*
X1319Y569D02*
X1328Y569D01*
X1369Y569D02*
X1376Y569D01*
X0Y568D02*
X7Y568D01*
X384Y568D02*
X391Y568D01*
X1279Y568D02*
X1288Y568D01*
X1319Y568D02*
X1328Y568D01*
X1369Y568D02*
X1376Y568D01*
X0Y567D02*
X7Y567D01*
X384Y567D02*
X392Y567D01*
X1279Y567D02*
X1288Y567D01*
X1319Y567D02*
X1328Y567D01*
X1369Y567D02*
X1376Y567D01*
X0Y566D02*
X7Y566D01*
X385Y566D02*
X392Y566D01*
X1279Y566D02*
X1288Y566D01*
X1319Y566D02*
X1328Y566D01*
X1369Y566D02*
X1376Y566D01*
X0Y565D02*
X7Y565D01*
X385Y565D02*
X392Y565D01*
X1279Y565D02*
X1288Y565D01*
X1319Y565D02*
X1328Y565D01*
X1369Y565D02*
X1376Y565D01*
X0Y564D02*
X7Y564D01*
X385Y564D02*
X393Y564D01*
X1279Y564D02*
X1288Y564D01*
X1319Y564D02*
X1328Y564D01*
X1369Y564D02*
X1376Y564D01*
X0Y563D02*
X7Y563D01*
X386Y563D02*
X393Y563D01*
X1279Y563D02*
X1289Y563D01*
X1319Y563D02*
X1328Y563D01*
X1369Y563D02*
X1376Y563D01*
X0Y562D02*
X7Y562D01*
X386Y562D02*
X394Y562D01*
X1279Y562D02*
X1289Y562D01*
X1319Y562D02*
X1328Y562D01*
X1369Y562D02*
X1376Y562D01*
X0Y561D02*
X7Y561D01*
X387Y561D02*
X394Y561D01*
X1280Y561D02*
X1289Y561D01*
X1319Y561D02*
X1328Y561D01*
X1369Y561D02*
X1376Y561D01*
X0Y560D02*
X7Y560D01*
X387Y560D02*
X394Y560D01*
X1280Y560D02*
X1290Y560D01*
X1318Y560D02*
X1328Y560D01*
X1369Y560D02*
X1376Y560D01*
X0Y559D02*
X7Y559D01*
X387Y559D02*
X395Y559D01*
X1280Y559D02*
X1291Y559D01*
X1317Y559D02*
X1328Y559D01*
X1369Y559D02*
X1376Y559D01*
X0Y558D02*
X7Y558D01*
X388Y558D02*
X395Y558D01*
X1280Y558D02*
X1327Y558D01*
X1369Y558D02*
X1376Y558D01*
X0Y557D02*
X7Y557D01*
X388Y557D02*
X395Y557D01*
X1281Y557D02*
X1327Y557D01*
X1369Y557D02*
X1376Y557D01*
X0Y556D02*
X7Y556D01*
X388Y556D02*
X396Y556D01*
X1281Y556D02*
X1326Y556D01*
X1369Y556D02*
X1376Y556D01*
X0Y555D02*
X7Y555D01*
X389Y555D02*
X396Y555D01*
X1282Y555D02*
X1326Y555D01*
X1369Y555D02*
X1376Y555D01*
X0Y554D02*
X7Y554D01*
X389Y554D02*
X397Y554D01*
X1282Y554D02*
X1325Y554D01*
X1369Y554D02*
X1376Y554D01*
X0Y553D02*
X7Y553D01*
X390Y553D02*
X397Y553D01*
X1283Y553D02*
X1324Y553D01*
X1369Y553D02*
X1376Y553D01*
X0Y552D02*
X7Y552D01*
X390Y552D02*
X397Y552D01*
X1284Y552D02*
X1323Y552D01*
X1369Y552D02*
X1376Y552D01*
X0Y551D02*
X7Y551D01*
X390Y551D02*
X398Y551D01*
X1285Y551D02*
X1322Y551D01*
X1369Y551D02*
X1376Y551D01*
X0Y550D02*
X7Y550D01*
X391Y550D02*
X398Y550D01*
X1287Y550D02*
X1320Y550D01*
X1369Y550D02*
X1376Y550D01*
X0Y549D02*
X7Y549D01*
X391Y549D02*
X398Y549D01*
X1289Y549D02*
X1318Y549D01*
X1369Y549D02*
X1376Y549D01*
X0Y548D02*
X7Y548D01*
X391Y548D02*
X399Y548D01*
X1294Y548D02*
X1313Y548D01*
X1369Y548D02*
X1376Y548D01*
X0Y547D02*
X7Y547D01*
X392Y547D02*
X399Y547D01*
X1369Y547D02*
X1376Y547D01*
X0Y546D02*
X7Y546D01*
X392Y546D02*
X399Y546D01*
X1369Y546D02*
X1376Y546D01*
X0Y545D02*
X7Y545D01*
X392Y545D02*
X399Y545D01*
X1369Y545D02*
X1376Y545D01*
X0Y544D02*
X7Y544D01*
X392Y544D02*
X400Y544D01*
X1369Y544D02*
X1376Y544D01*
X0Y543D02*
X7Y543D01*
X393Y543D02*
X400Y543D01*
X1369Y543D02*
X1376Y543D01*
X0Y542D02*
X7Y542D01*
X393Y542D02*
X400Y542D01*
X1369Y542D02*
X1376Y542D01*
X0Y541D02*
X7Y541D01*
X393Y541D02*
X401Y541D01*
X1369Y541D02*
X1376Y541D01*
X0Y540D02*
X7Y540D01*
X394Y540D02*
X401Y540D01*
X1369Y540D02*
X1376Y540D01*
X0Y539D02*
X7Y539D01*
X394Y539D02*
X401Y539D01*
X1369Y539D02*
X1376Y539D01*
X0Y538D02*
X7Y538D01*
X394Y538D02*
X401Y538D01*
X973Y538D02*
X1016Y538D01*
X1369Y538D02*
X1376Y538D01*
X0Y537D02*
X7Y537D01*
X394Y537D02*
X402Y537D01*
X971Y537D02*
X1017Y537D01*
X1369Y537D02*
X1376Y537D01*
X0Y536D02*
X7Y536D01*
X395Y536D02*
X402Y536D01*
X971Y536D02*
X1018Y536D01*
X1369Y536D02*
X1376Y536D01*
X0Y535D02*
X7Y535D01*
X395Y535D02*
X402Y535D01*
X877Y535D02*
X903Y535D01*
X970Y535D02*
X1018Y535D01*
X1282Y535D02*
X1285Y535D01*
X1322Y535D02*
X1325Y535D01*
X1369Y535D02*
X1376Y535D01*
X0Y534D02*
X7Y534D01*
X395Y534D02*
X402Y534D01*
X871Y534D02*
X910Y534D01*
X970Y534D02*
X1019Y534D01*
X1281Y534D02*
X1287Y534D01*
X1321Y534D02*
X1326Y534D01*
X1369Y534D02*
X1376Y534D01*
X0Y533D02*
X7Y533D01*
X395Y533D02*
X403Y533D01*
X867Y533D02*
X914Y533D01*
X970Y533D02*
X1019Y533D01*
X1280Y533D02*
X1287Y533D01*
X1320Y533D02*
X1327Y533D01*
X1369Y533D02*
X1376Y533D01*
X0Y532D02*
X7Y532D01*
X396Y532D02*
X403Y532D01*
X863Y532D02*
X918Y532D01*
X970Y532D02*
X1019Y532D01*
X1280Y532D02*
X1288Y532D01*
X1319Y532D02*
X1328Y532D01*
X1369Y532D02*
X1376Y532D01*
X0Y531D02*
X7Y531D01*
X396Y531D02*
X403Y531D01*
X859Y531D02*
X921Y531D01*
X970Y531D02*
X1019Y531D01*
X1279Y531D02*
X1288Y531D01*
X1319Y531D02*
X1328Y531D01*
X1369Y531D02*
X1376Y531D01*
X0Y530D02*
X7Y530D01*
X396Y530D02*
X403Y530D01*
X856Y530D02*
X924Y530D01*
X970Y530D02*
X1019Y530D01*
X1279Y530D02*
X1288Y530D01*
X1319Y530D02*
X1328Y530D01*
X1369Y530D02*
X1376Y530D01*
X0Y529D02*
X7Y529D01*
X396Y529D02*
X404Y529D01*
X854Y529D02*
X927Y529D01*
X970Y529D02*
X1019Y529D01*
X1279Y529D02*
X1288Y529D01*
X1319Y529D02*
X1328Y529D01*
X1369Y529D02*
X1376Y529D01*
X0Y528D02*
X7Y528D01*
X397Y528D02*
X404Y528D01*
X851Y528D02*
X930Y528D01*
X970Y528D02*
X1018Y528D01*
X1279Y528D02*
X1288Y528D01*
X1319Y528D02*
X1328Y528D01*
X1369Y528D02*
X1376Y528D01*
X0Y527D02*
X7Y527D01*
X397Y527D02*
X404Y527D01*
X849Y527D02*
X932Y527D01*
X971Y527D02*
X1018Y527D01*
X1279Y527D02*
X1288Y527D01*
X1319Y527D02*
X1328Y527D01*
X1369Y527D02*
X1376Y527D01*
X0Y526D02*
X7Y526D01*
X397Y526D02*
X404Y526D01*
X847Y526D02*
X934Y526D01*
X971Y526D02*
X1017Y526D01*
X1279Y526D02*
X1288Y526D01*
X1319Y526D02*
X1328Y526D01*
X1369Y526D02*
X1376Y526D01*
X0Y525D02*
X7Y525D01*
X397Y525D02*
X404Y525D01*
X845Y525D02*
X877Y525D01*
X904Y525D02*
X936Y525D01*
X972Y525D02*
X1016Y525D01*
X1279Y525D02*
X1288Y525D01*
X1319Y525D02*
X1328Y525D01*
X1369Y525D02*
X1376Y525D01*
X0Y524D02*
X7Y524D01*
X397Y524D02*
X405Y524D01*
X843Y524D02*
X871Y524D01*
X910Y524D02*
X938Y524D01*
X1279Y524D02*
X1288Y524D01*
X1319Y524D02*
X1328Y524D01*
X1369Y524D02*
X1376Y524D01*
X0Y523D02*
X7Y523D01*
X398Y523D02*
X405Y523D01*
X841Y523D02*
X847Y523D01*
X933Y523D02*
X940Y523D01*
X1279Y523D02*
X1288Y523D01*
X1319Y523D02*
X1328Y523D01*
X1369Y523D02*
X1376Y523D01*
X0Y522D02*
X7Y522D01*
X398Y522D02*
X405Y522D01*
X839Y522D02*
X847Y522D01*
X933Y522D02*
X942Y522D01*
X1279Y522D02*
X1288Y522D01*
X1319Y522D02*
X1328Y522D01*
X1369Y522D02*
X1376Y522D01*
X0Y521D02*
X7Y521D01*
X398Y521D02*
X405Y521D01*
X837Y521D02*
X847Y521D01*
X933Y521D02*
X943Y521D01*
X1279Y521D02*
X1288Y521D01*
X1319Y521D02*
X1328Y521D01*
X1369Y521D02*
X1376Y521D01*
X0Y520D02*
X7Y520D01*
X398Y520D02*
X405Y520D01*
X836Y520D02*
X847Y520D01*
X933Y520D02*
X945Y520D01*
X1279Y520D02*
X1288Y520D01*
X1319Y520D02*
X1328Y520D01*
X1369Y520D02*
X1376Y520D01*
X0Y519D02*
X7Y519D01*
X398Y519D02*
X405Y519D01*
X834Y519D02*
X847Y519D01*
X933Y519D02*
X947Y519D01*
X1279Y519D02*
X1288Y519D01*
X1319Y519D02*
X1328Y519D01*
X1369Y519D02*
X1376Y519D01*
X0Y518D02*
X7Y518D01*
X398Y518D02*
X406Y518D01*
X832Y518D02*
X847Y518D01*
X933Y518D02*
X948Y518D01*
X1279Y518D02*
X1288Y518D01*
X1319Y518D02*
X1328Y518D01*
X1369Y518D02*
X1376Y518D01*
X0Y517D02*
X7Y517D01*
X399Y517D02*
X406Y517D01*
X831Y517D02*
X847Y517D01*
X933Y517D02*
X950Y517D01*
X1279Y517D02*
X1288Y517D01*
X1319Y517D02*
X1328Y517D01*
X1369Y517D02*
X1376Y517D01*
X0Y516D02*
X7Y516D01*
X399Y516D02*
X406Y516D01*
X830Y516D02*
X847Y516D01*
X933Y516D02*
X951Y516D01*
X1279Y516D02*
X1288Y516D01*
X1319Y516D02*
X1328Y516D01*
X1369Y516D02*
X1376Y516D01*
X0Y515D02*
X7Y515D01*
X399Y515D02*
X406Y515D01*
X828Y515D02*
X846Y515D01*
X935Y515D02*
X952Y515D01*
X1279Y515D02*
X1288Y515D01*
X1319Y515D02*
X1328Y515D01*
X1369Y515D02*
X1376Y515D01*
X0Y514D02*
X7Y514D01*
X399Y514D02*
X406Y514D01*
X827Y514D02*
X844Y514D01*
X937Y514D02*
X954Y514D01*
X1279Y514D02*
X1288Y514D01*
X1319Y514D02*
X1328Y514D01*
X1369Y514D02*
X1376Y514D01*
X0Y513D02*
X7Y513D01*
X399Y513D02*
X406Y513D01*
X826Y513D02*
X842Y513D01*
X939Y513D02*
X955Y513D01*
X1279Y513D02*
X1289Y513D01*
X1318Y513D02*
X1328Y513D01*
X1369Y513D02*
X1376Y513D01*
X0Y512D02*
X7Y512D01*
X399Y512D02*
X406Y512D01*
X824Y512D02*
X840Y512D01*
X940Y512D02*
X957Y512D01*
X1279Y512D02*
X1289Y512D01*
X1318Y512D02*
X1328Y512D01*
X1369Y512D02*
X1376Y512D01*
X0Y511D02*
X7Y511D01*
X400Y511D02*
X407Y511D01*
X823Y511D02*
X839Y511D01*
X942Y511D02*
X958Y511D01*
X1280Y511D02*
X1290Y511D01*
X1318Y511D02*
X1328Y511D01*
X1369Y511D02*
X1376Y511D01*
X0Y510D02*
X7Y510D01*
X400Y510D02*
X407Y510D01*
X822Y510D02*
X837Y510D01*
X944Y510D02*
X959Y510D01*
X1280Y510D02*
X1290Y510D01*
X1317Y510D02*
X1327Y510D01*
X1369Y510D02*
X1376Y510D01*
X0Y509D02*
X7Y509D01*
X400Y509D02*
X407Y509D01*
X821Y509D02*
X836Y509D01*
X945Y509D02*
X960Y509D01*
X1281Y509D02*
X1290Y509D01*
X1317Y509D02*
X1327Y509D01*
X1369Y509D02*
X1376Y509D01*
X0Y508D02*
X7Y508D01*
X400Y508D02*
X407Y508D01*
X820Y508D02*
X834Y508D01*
X946Y508D02*
X961Y508D01*
X1281Y508D02*
X1291Y508D01*
X1316Y508D02*
X1326Y508D01*
X1369Y508D02*
X1376Y508D01*
X0Y507D02*
X7Y507D01*
X400Y507D02*
X407Y507D01*
X819Y507D02*
X833Y507D01*
X948Y507D02*
X962Y507D01*
X1281Y507D02*
X1291Y507D01*
X1316Y507D02*
X1326Y507D01*
X1369Y507D02*
X1376Y507D01*
X0Y506D02*
X7Y506D01*
X400Y506D02*
X407Y506D01*
X818Y506D02*
X832Y506D01*
X949Y506D02*
X963Y506D01*
X1282Y506D02*
X1292Y506D01*
X1316Y506D02*
X1326Y506D01*
X1369Y506D02*
X1376Y506D01*
X0Y505D02*
X7Y505D01*
X400Y505D02*
X407Y505D01*
X817Y505D02*
X831Y505D01*
X950Y505D02*
X964Y505D01*
X1282Y505D02*
X1292Y505D01*
X1315Y505D02*
X1325Y505D01*
X1369Y505D02*
X1376Y505D01*
X0Y504D02*
X7Y504D01*
X400Y504D02*
X407Y504D01*
X816Y504D02*
X829Y504D01*
X952Y504D02*
X965Y504D01*
X1282Y504D02*
X1292Y504D01*
X1315Y504D02*
X1325Y504D01*
X1369Y504D02*
X1376Y504D01*
X0Y503D02*
X7Y503D01*
X400Y503D02*
X407Y503D01*
X815Y503D02*
X828Y503D01*
X953Y503D02*
X966Y503D01*
X1283Y503D02*
X1293Y503D01*
X1315Y503D02*
X1324Y503D01*
X1369Y503D02*
X1376Y503D01*
X0Y502D02*
X7Y502D01*
X401Y502D02*
X408Y502D01*
X814Y502D02*
X827Y502D01*
X954Y502D02*
X967Y502D01*
X1283Y502D02*
X1293Y502D01*
X1314Y502D02*
X1324Y502D01*
X1369Y502D02*
X1376Y502D01*
X0Y501D02*
X7Y501D01*
X401Y501D02*
X408Y501D01*
X813Y501D02*
X826Y501D01*
X834Y501D02*
X837Y501D01*
X944Y501D02*
X947Y501D01*
X955Y501D02*
X968Y501D01*
X1284Y501D02*
X1294Y501D01*
X1314Y501D02*
X1324Y501D01*
X1369Y501D02*
X1376Y501D01*
X0Y500D02*
X7Y500D01*
X401Y500D02*
X408Y500D01*
X812Y500D02*
X825Y500D01*
X832Y500D02*
X839Y500D01*
X942Y500D02*
X948Y500D01*
X956Y500D02*
X969Y500D01*
X1284Y500D02*
X1294Y500D01*
X1313Y500D02*
X1323Y500D01*
X1369Y500D02*
X1376Y500D01*
X0Y499D02*
X7Y499D01*
X401Y499D02*
X408Y499D01*
X811Y499D02*
X824Y499D01*
X832Y499D02*
X839Y499D01*
X941Y499D02*
X949Y499D01*
X957Y499D02*
X970Y499D01*
X1284Y499D02*
X1294Y499D01*
X1313Y499D02*
X1323Y499D01*
X1369Y499D02*
X1376Y499D01*
X0Y498D02*
X7Y498D01*
X401Y498D02*
X408Y498D01*
X810Y498D02*
X823Y498D01*
X831Y498D02*
X840Y498D01*
X941Y498D02*
X950Y498D01*
X958Y498D02*
X971Y498D01*
X1285Y498D02*
X1295Y498D01*
X1313Y498D02*
X1322Y498D01*
X1369Y498D02*
X1376Y498D01*
X0Y497D02*
X7Y497D01*
X401Y497D02*
X408Y497D01*
X809Y497D02*
X822Y497D01*
X831Y497D02*
X840Y497D01*
X941Y497D02*
X950Y497D01*
X959Y497D02*
X971Y497D01*
X1285Y497D02*
X1295Y497D01*
X1312Y497D02*
X1322Y497D01*
X1369Y497D02*
X1376Y497D01*
X0Y496D02*
X7Y496D01*
X401Y496D02*
X408Y496D01*
X809Y496D02*
X821Y496D01*
X830Y496D02*
X840Y496D01*
X940Y496D02*
X950Y496D01*
X960Y496D02*
X972Y496D01*
X1286Y496D02*
X1296Y496D01*
X1312Y496D02*
X1322Y496D01*
X1369Y496D02*
X1376Y496D01*
X0Y495D02*
X7Y495D01*
X401Y495D02*
X408Y495D01*
X808Y495D02*
X820Y495D01*
X830Y495D02*
X840Y495D01*
X940Y495D02*
X950Y495D01*
X961Y495D02*
X973Y495D01*
X1286Y495D02*
X1296Y495D01*
X1311Y495D02*
X1321Y495D01*
X1369Y495D02*
X1376Y495D01*
X0Y494D02*
X7Y494D01*
X401Y494D02*
X408Y494D01*
X807Y494D02*
X819Y494D01*
X830Y494D02*
X840Y494D01*
X940Y494D02*
X950Y494D01*
X962Y494D02*
X974Y494D01*
X1286Y494D02*
X1296Y494D01*
X1311Y494D02*
X1321Y494D01*
X1369Y494D02*
X1376Y494D01*
X0Y493D02*
X7Y493D01*
X401Y493D02*
X408Y493D01*
X806Y493D02*
X818Y493D01*
X830Y493D02*
X840Y493D01*
X940Y493D02*
X950Y493D01*
X963Y493D02*
X974Y493D01*
X1287Y493D02*
X1297Y493D01*
X1311Y493D02*
X1320Y493D01*
X1369Y493D02*
X1376Y493D01*
X0Y492D02*
X7Y492D01*
X401Y492D02*
X408Y492D01*
X806Y492D02*
X817Y492D01*
X830Y492D02*
X840Y492D01*
X940Y492D02*
X950Y492D01*
X964Y492D02*
X975Y492D01*
X1287Y492D02*
X1297Y492D01*
X1310Y492D02*
X1320Y492D01*
X1369Y492D02*
X1376Y492D01*
X0Y491D02*
X7Y491D01*
X401Y491D02*
X408Y491D01*
X805Y491D02*
X816Y491D01*
X830Y491D02*
X840Y491D01*
X940Y491D02*
X950Y491D01*
X964Y491D02*
X976Y491D01*
X1288Y491D02*
X1297Y491D01*
X1310Y491D02*
X1320Y491D01*
X1369Y491D02*
X1376Y491D01*
X0Y490D02*
X7Y490D01*
X401Y490D02*
X408Y490D01*
X804Y490D02*
X816Y490D01*
X830Y490D02*
X840Y490D01*
X940Y490D02*
X950Y490D01*
X965Y490D02*
X977Y490D01*
X1288Y490D02*
X1298Y490D01*
X1309Y490D02*
X1319Y490D01*
X1369Y490D02*
X1376Y490D01*
X0Y489D02*
X7Y489D01*
X401Y489D02*
X408Y489D01*
X804Y489D02*
X815Y489D01*
X830Y489D02*
X840Y489D01*
X940Y489D02*
X950Y489D01*
X966Y489D02*
X977Y489D01*
X1288Y489D02*
X1298Y489D01*
X1309Y489D02*
X1319Y489D01*
X1369Y489D02*
X1376Y489D01*
X0Y488D02*
X7Y488D01*
X401Y488D02*
X408Y488D01*
X803Y488D02*
X814Y488D01*
X830Y488D02*
X840Y488D01*
X940Y488D02*
X950Y488D01*
X967Y488D02*
X978Y488D01*
X1289Y488D02*
X1299Y488D01*
X1309Y488D02*
X1319Y488D01*
X1369Y488D02*
X1376Y488D01*
X0Y487D02*
X7Y487D01*
X401Y487D02*
X408Y487D01*
X802Y487D02*
X813Y487D01*
X830Y487D02*
X840Y487D01*
X940Y487D02*
X950Y487D01*
X967Y487D02*
X978Y487D01*
X1289Y487D02*
X1299Y487D01*
X1308Y487D02*
X1318Y487D01*
X1369Y487D02*
X1376Y487D01*
X0Y486D02*
X7Y486D01*
X401Y486D02*
X408Y486D01*
X802Y486D02*
X813Y486D01*
X830Y486D02*
X840Y486D01*
X940Y486D02*
X950Y486D01*
X968Y486D02*
X979Y486D01*
X1289Y486D02*
X1299Y486D01*
X1308Y486D02*
X1318Y486D01*
X1369Y486D02*
X1376Y486D01*
X0Y485D02*
X7Y485D01*
X401Y485D02*
X408Y485D01*
X801Y485D02*
X812Y485D01*
X830Y485D02*
X840Y485D01*
X940Y485D02*
X950Y485D01*
X969Y485D02*
X980Y485D01*
X1290Y485D02*
X1300Y485D01*
X1307Y485D02*
X1317Y485D01*
X1369Y485D02*
X1376Y485D01*
X0Y484D02*
X7Y484D01*
X401Y484D02*
X408Y484D01*
X801Y484D02*
X811Y484D01*
X830Y484D02*
X840Y484D01*
X940Y484D02*
X950Y484D01*
X970Y484D02*
X980Y484D01*
X1290Y484D02*
X1300Y484D01*
X1307Y484D02*
X1317Y484D01*
X1369Y484D02*
X1376Y484D01*
X0Y483D02*
X7Y483D01*
X401Y483D02*
X408Y483D01*
X800Y483D02*
X810Y483D01*
X830Y483D02*
X840Y483D01*
X940Y483D02*
X950Y483D01*
X970Y483D02*
X981Y483D01*
X1291Y483D02*
X1301Y483D01*
X1307Y483D02*
X1317Y483D01*
X1369Y483D02*
X1376Y483D01*
X0Y482D02*
X7Y482D01*
X401Y482D02*
X408Y482D01*
X799Y482D02*
X810Y482D01*
X830Y482D02*
X840Y482D01*
X940Y482D02*
X950Y482D01*
X971Y482D02*
X981Y482D01*
X1291Y482D02*
X1301Y482D01*
X1306Y482D02*
X1316Y482D01*
X1369Y482D02*
X1376Y482D01*
X0Y481D02*
X7Y481D01*
X401Y481D02*
X408Y481D01*
X799Y481D02*
X809Y481D01*
X830Y481D02*
X840Y481D01*
X940Y481D02*
X950Y481D01*
X972Y481D02*
X982Y481D01*
X1291Y481D02*
X1301Y481D01*
X1306Y481D02*
X1316Y481D01*
X1369Y481D02*
X1376Y481D01*
X0Y480D02*
X7Y480D01*
X401Y480D02*
X408Y480D01*
X798Y480D02*
X809Y480D01*
X830Y480D02*
X840Y480D01*
X940Y480D02*
X950Y480D01*
X972Y480D02*
X983Y480D01*
X1292Y480D02*
X1302Y480D01*
X1306Y480D02*
X1315Y480D01*
X1369Y480D02*
X1376Y480D01*
X0Y479D02*
X7Y479D01*
X401Y479D02*
X408Y479D01*
X798Y479D02*
X808Y479D01*
X830Y479D02*
X840Y479D01*
X940Y479D02*
X950Y479D01*
X973Y479D02*
X983Y479D01*
X1292Y479D02*
X1302Y479D01*
X1305Y479D02*
X1315Y479D01*
X1369Y479D02*
X1376Y479D01*
X0Y478D02*
X7Y478D01*
X401Y478D02*
X408Y478D01*
X797Y478D02*
X807Y478D01*
X830Y478D02*
X840Y478D01*
X940Y478D02*
X950Y478D01*
X973Y478D02*
X983Y478D01*
X1293Y478D02*
X1303Y478D01*
X1305Y478D02*
X1315Y478D01*
X1369Y478D02*
X1376Y478D01*
X0Y477D02*
X7Y477D01*
X401Y477D02*
X408Y477D01*
X797Y477D02*
X807Y477D01*
X830Y477D02*
X840Y477D01*
X940Y477D02*
X950Y477D01*
X974Y477D02*
X984Y477D01*
X1293Y477D02*
X1314Y477D01*
X1369Y477D02*
X1376Y477D01*
X0Y476D02*
X7Y476D01*
X401Y476D02*
X408Y476D01*
X796Y476D02*
X806Y476D01*
X830Y476D02*
X840Y476D01*
X940Y476D02*
X950Y476D01*
X975Y476D02*
X984Y476D01*
X1293Y476D02*
X1314Y476D01*
X1369Y476D02*
X1376Y476D01*
X0Y475D02*
X7Y475D01*
X401Y475D02*
X408Y475D01*
X796Y475D02*
X806Y475D01*
X830Y475D02*
X840Y475D01*
X940Y475D02*
X950Y475D01*
X975Y475D02*
X985Y475D01*
X1294Y475D02*
X1313Y475D01*
X1369Y475D02*
X1376Y475D01*
X0Y474D02*
X7Y474D01*
X401Y474D02*
X408Y474D01*
X795Y474D02*
X805Y474D01*
X830Y474D02*
X840Y474D01*
X940Y474D02*
X950Y474D01*
X976Y474D02*
X985Y474D01*
X1294Y474D02*
X1313Y474D01*
X1369Y474D02*
X1376Y474D01*
X0Y473D02*
X7Y473D01*
X401Y473D02*
X408Y473D01*
X795Y473D02*
X805Y473D01*
X830Y473D02*
X840Y473D01*
X940Y473D02*
X950Y473D01*
X976Y473D02*
X986Y473D01*
X1295Y473D02*
X1313Y473D01*
X1369Y473D02*
X1376Y473D01*
X0Y472D02*
X7Y472D01*
X401Y472D02*
X408Y472D01*
X794Y472D02*
X804Y472D01*
X830Y472D02*
X840Y472D01*
X940Y472D02*
X950Y472D01*
X976Y472D02*
X986Y472D01*
X1295Y472D02*
X1312Y472D01*
X1369Y472D02*
X1376Y472D01*
X0Y471D02*
X7Y471D01*
X401Y471D02*
X408Y471D01*
X794Y471D02*
X804Y471D01*
X830Y471D02*
X840Y471D01*
X940Y471D02*
X950Y471D01*
X977Y471D02*
X987Y471D01*
X1295Y471D02*
X1312Y471D01*
X1369Y471D02*
X1376Y471D01*
X0Y470D02*
X7Y470D01*
X401Y470D02*
X408Y470D01*
X794Y470D02*
X803Y470D01*
X830Y470D02*
X840Y470D01*
X940Y470D02*
X950Y470D01*
X977Y470D02*
X987Y470D01*
X1296Y470D02*
X1312Y470D01*
X1369Y470D02*
X1376Y470D01*
X0Y469D02*
X7Y469D01*
X401Y469D02*
X408Y469D01*
X793Y469D02*
X803Y469D01*
X830Y469D02*
X840Y469D01*
X940Y469D02*
X950Y469D01*
X978Y469D02*
X988Y469D01*
X1296Y469D02*
X1311Y469D01*
X1369Y469D02*
X1376Y469D01*
X0Y468D02*
X7Y468D01*
X401Y468D02*
X408Y468D01*
X793Y468D02*
X802Y468D01*
X830Y468D02*
X840Y468D01*
X940Y468D02*
X950Y468D01*
X978Y468D02*
X988Y468D01*
X1296Y468D02*
X1311Y468D01*
X1369Y468D02*
X1376Y468D01*
X0Y467D02*
X7Y467D01*
X401Y467D02*
X408Y467D01*
X792Y467D02*
X802Y467D01*
X830Y467D02*
X840Y467D01*
X940Y467D02*
X950Y467D01*
X979Y467D02*
X988Y467D01*
X1297Y467D02*
X1310Y467D01*
X1369Y467D02*
X1376Y467D01*
X0Y466D02*
X7Y466D01*
X401Y466D02*
X408Y466D01*
X792Y466D02*
X802Y466D01*
X830Y466D02*
X840Y466D01*
X940Y466D02*
X950Y466D01*
X979Y466D02*
X989Y466D01*
X1297Y466D02*
X1310Y466D01*
X1369Y466D02*
X1376Y466D01*
X0Y465D02*
X7Y465D01*
X401Y465D02*
X408Y465D01*
X792Y465D02*
X801Y465D01*
X831Y465D02*
X840Y465D01*
X941Y465D02*
X950Y465D01*
X980Y465D02*
X989Y465D01*
X1298Y465D02*
X1310Y465D01*
X1369Y465D02*
X1376Y465D01*
X0Y464D02*
X7Y464D01*
X401Y464D02*
X407Y464D01*
X791Y464D02*
X801Y464D01*
X831Y464D02*
X840Y464D01*
X941Y464D02*
X950Y464D01*
X980Y464D02*
X989Y464D01*
X1298Y464D02*
X1309Y464D01*
X1369Y464D02*
X1376Y464D01*
X0Y463D02*
X7Y463D01*
X401Y463D02*
X407Y463D01*
X791Y463D02*
X801Y463D01*
X831Y463D02*
X839Y463D01*
X941Y463D02*
X949Y463D01*
X980Y463D02*
X990Y463D01*
X1298Y463D02*
X1309Y463D01*
X1369Y463D02*
X1376Y463D01*
X0Y462D02*
X7Y462D01*
X400Y462D02*
X407Y462D01*
X791Y462D02*
X800Y462D01*
X832Y462D02*
X839Y462D01*
X942Y462D02*
X949Y462D01*
X981Y462D02*
X990Y462D01*
X1299Y462D02*
X1308Y462D01*
X1369Y462D02*
X1376Y462D01*
X0Y461D02*
X7Y461D01*
X400Y461D02*
X407Y461D01*
X790Y461D02*
X800Y461D01*
X834Y461D02*
X837Y461D01*
X944Y461D02*
X947Y461D01*
X981Y461D02*
X990Y461D01*
X1299Y461D02*
X1308Y461D01*
X1369Y461D02*
X1376Y461D01*
X0Y460D02*
X7Y460D01*
X400Y460D02*
X407Y460D01*
X790Y460D02*
X799Y460D01*
X981Y460D02*
X991Y460D01*
X1300Y460D02*
X1308Y460D01*
X1369Y460D02*
X1376Y460D01*
X0Y459D02*
X7Y459D01*
X400Y459D02*
X407Y459D01*
X790Y459D02*
X799Y459D01*
X982Y459D02*
X991Y459D01*
X1300Y459D02*
X1307Y459D01*
X1369Y459D02*
X1376Y459D01*
X0Y458D02*
X7Y458D01*
X400Y458D02*
X407Y458D01*
X790Y458D02*
X799Y458D01*
X982Y458D02*
X991Y458D01*
X1302Y458D02*
X1306Y458D01*
X1369Y458D02*
X1376Y458D01*
X0Y457D02*
X7Y457D01*
X400Y457D02*
X407Y457D01*
X789Y457D02*
X799Y457D01*
X982Y457D02*
X991Y457D01*
X1369Y457D02*
X1376Y457D01*
X0Y456D02*
X7Y456D01*
X400Y456D02*
X407Y456D01*
X789Y456D02*
X798Y456D01*
X983Y456D02*
X992Y456D01*
X1369Y456D02*
X1376Y456D01*
X0Y455D02*
X7Y455D01*
X400Y455D02*
X406Y455D01*
X789Y455D02*
X798Y455D01*
X983Y455D02*
X992Y455D01*
X1369Y455D02*
X1376Y455D01*
X0Y454D02*
X7Y454D01*
X399Y454D02*
X406Y454D01*
X789Y454D02*
X798Y454D01*
X983Y454D02*
X992Y454D01*
X1369Y454D02*
X1376Y454D01*
X0Y453D02*
X7Y453D01*
X399Y453D02*
X406Y453D01*
X788Y453D02*
X798Y453D01*
X983Y453D02*
X992Y453D01*
X1369Y453D02*
X1376Y453D01*
X0Y452D02*
X7Y452D01*
X399Y452D02*
X406Y452D01*
X788Y452D02*
X797Y452D01*
X984Y452D02*
X993Y452D01*
X1369Y452D02*
X1376Y452D01*
X0Y451D02*
X7Y451D01*
X399Y451D02*
X406Y451D01*
X788Y451D02*
X797Y451D01*
X984Y451D02*
X993Y451D01*
X1291Y451D02*
X1319Y451D01*
X1369Y451D02*
X1376Y451D01*
X0Y450D02*
X7Y450D01*
X399Y450D02*
X406Y450D01*
X788Y450D02*
X797Y450D01*
X984Y450D02*
X993Y450D01*
X1288Y450D02*
X1322Y450D01*
X1369Y450D02*
X1376Y450D01*
X0Y449D02*
X7Y449D01*
X399Y449D02*
X406Y449D01*
X788Y449D02*
X797Y449D01*
X984Y449D02*
X993Y449D01*
X1286Y449D02*
X1324Y449D01*
X1369Y449D02*
X1376Y449D01*
X0Y448D02*
X7Y448D01*
X399Y448D02*
X405Y448D01*
X787Y448D02*
X796Y448D01*
X984Y448D02*
X993Y448D01*
X1285Y448D02*
X1325Y448D01*
X1369Y448D02*
X1376Y448D01*
X0Y447D02*
X7Y447D01*
X398Y447D02*
X405Y447D01*
X787Y447D02*
X796Y447D01*
X984Y447D02*
X994Y447D01*
X1284Y447D02*
X1326Y447D01*
X1369Y447D02*
X1376Y447D01*
X0Y446D02*
X7Y446D01*
X398Y446D02*
X405Y446D01*
X787Y446D02*
X796Y446D01*
X985Y446D02*
X994Y446D01*
X1283Y446D02*
X1327Y446D01*
X1369Y446D02*
X1376Y446D01*
X0Y445D02*
X7Y445D01*
X398Y445D02*
X405Y445D01*
X787Y445D02*
X796Y445D01*
X985Y445D02*
X994Y445D01*
X1283Y445D02*
X1328Y445D01*
X1369Y445D02*
X1376Y445D01*
X0Y444D02*
X7Y444D01*
X398Y444D02*
X405Y444D01*
X787Y444D02*
X796Y444D01*
X985Y444D02*
X994Y444D01*
X1282Y444D02*
X1329Y444D01*
X1369Y444D02*
X1376Y444D01*
X0Y443D02*
X7Y443D01*
X398Y443D02*
X405Y443D01*
X787Y443D02*
X796Y443D01*
X985Y443D02*
X994Y443D01*
X1282Y443D02*
X1329Y443D01*
X1369Y443D02*
X1376Y443D01*
X0Y442D02*
X7Y442D01*
X397Y442D02*
X404Y442D01*
X787Y442D02*
X796Y442D01*
X985Y442D02*
X994Y442D01*
X1282Y442D02*
X1330Y442D01*
X1369Y442D02*
X1376Y442D01*
X0Y441D02*
X7Y441D01*
X397Y441D02*
X404Y441D01*
X786Y441D02*
X795Y441D01*
X985Y441D02*
X994Y441D01*
X1282Y441D02*
X1292Y441D01*
X1318Y441D02*
X1330Y441D01*
X1369Y441D02*
X1376Y441D01*
X0Y440D02*
X7Y440D01*
X397Y440D02*
X404Y440D01*
X786Y440D02*
X795Y440D01*
X985Y440D02*
X994Y440D01*
X1282Y440D02*
X1291Y440D01*
X1320Y440D02*
X1330Y440D01*
X1369Y440D02*
X1376Y440D01*
X0Y439D02*
X7Y439D01*
X397Y439D02*
X404Y439D01*
X786Y439D02*
X795Y439D01*
X985Y439D02*
X994Y439D01*
X1282Y439D02*
X1291Y439D01*
X1321Y439D02*
X1330Y439D01*
X1369Y439D02*
X1376Y439D01*
X0Y438D02*
X7Y438D01*
X397Y438D02*
X404Y438D01*
X786Y438D02*
X795Y438D01*
X986Y438D02*
X995Y438D01*
X1282Y438D02*
X1292Y438D01*
X1321Y438D02*
X1330Y438D01*
X1369Y438D02*
X1376Y438D01*
X0Y437D02*
X7Y437D01*
X396Y437D02*
X403Y437D01*
X786Y437D02*
X795Y437D01*
X986Y437D02*
X995Y437D01*
X1282Y437D02*
X1293Y437D01*
X1321Y437D02*
X1330Y437D01*
X1369Y437D02*
X1376Y437D01*
X0Y436D02*
X7Y436D01*
X396Y436D02*
X403Y436D01*
X786Y436D02*
X795Y436D01*
X986Y436D02*
X995Y436D01*
X1282Y436D02*
X1293Y436D01*
X1322Y436D02*
X1330Y436D01*
X1369Y436D02*
X1376Y436D01*
X0Y435D02*
X7Y435D01*
X396Y435D02*
X403Y435D01*
X786Y435D02*
X795Y435D01*
X986Y435D02*
X995Y435D01*
X1283Y435D02*
X1294Y435D01*
X1322Y435D02*
X1329Y435D01*
X1369Y435D02*
X1376Y435D01*
X0Y434D02*
X7Y434D01*
X396Y434D02*
X403Y434D01*
X786Y434D02*
X795Y434D01*
X986Y434D02*
X995Y434D01*
X1283Y434D02*
X1295Y434D01*
X1323Y434D02*
X1329Y434D01*
X1369Y434D02*
X1376Y434D01*
X0Y433D02*
X7Y433D01*
X395Y433D02*
X402Y433D01*
X786Y433D02*
X795Y433D01*
X986Y433D02*
X995Y433D01*
X1284Y433D02*
X1296Y433D01*
X1324Y433D02*
X1327Y433D01*
X1369Y433D02*
X1376Y433D01*
X0Y432D02*
X7Y432D01*
X395Y432D02*
X402Y432D01*
X786Y432D02*
X795Y432D01*
X986Y432D02*
X995Y432D01*
X1285Y432D02*
X1296Y432D01*
X1369Y432D02*
X1376Y432D01*
X0Y431D02*
X7Y431D01*
X395Y431D02*
X402Y431D01*
X786Y431D02*
X795Y431D01*
X986Y431D02*
X995Y431D01*
X1285Y431D02*
X1297Y431D01*
X1369Y431D02*
X1376Y431D01*
X0Y430D02*
X7Y430D01*
X395Y430D02*
X402Y430D01*
X786Y430D02*
X795Y430D01*
X986Y430D02*
X995Y430D01*
X1286Y430D02*
X1298Y430D01*
X1369Y430D02*
X1376Y430D01*
X0Y429D02*
X7Y429D01*
X394Y429D02*
X401Y429D01*
X786Y429D02*
X795Y429D01*
X986Y429D02*
X995Y429D01*
X1287Y429D02*
X1299Y429D01*
X1369Y429D02*
X1376Y429D01*
X0Y428D02*
X7Y428D01*
X394Y428D02*
X401Y428D01*
X786Y428D02*
X795Y428D01*
X986Y428D02*
X995Y428D01*
X1288Y428D02*
X1300Y428D01*
X1369Y428D02*
X1376Y428D01*
X0Y427D02*
X7Y427D01*
X394Y427D02*
X401Y427D01*
X786Y427D02*
X795Y427D01*
X986Y427D02*
X995Y427D01*
X1288Y427D02*
X1300Y427D01*
X1369Y427D02*
X1376Y427D01*
X0Y426D02*
X7Y426D01*
X394Y426D02*
X401Y426D01*
X786Y426D02*
X795Y426D01*
X986Y426D02*
X995Y426D01*
X1289Y426D02*
X1301Y426D01*
X1369Y426D02*
X1376Y426D01*
X0Y425D02*
X7Y425D01*
X393Y425D02*
X400Y425D01*
X786Y425D02*
X795Y425D01*
X986Y425D02*
X995Y425D01*
X1290Y425D02*
X1302Y425D01*
X1369Y425D02*
X1376Y425D01*
X0Y424D02*
X7Y424D01*
X393Y424D02*
X400Y424D01*
X786Y424D02*
X795Y424D01*
X986Y424D02*
X995Y424D01*
X1291Y424D02*
X1303Y424D01*
X1369Y424D02*
X1376Y424D01*
X0Y423D02*
X7Y423D01*
X393Y423D02*
X400Y423D01*
X786Y423D02*
X795Y423D01*
X985Y423D02*
X994Y423D01*
X1291Y423D02*
X1303Y423D01*
X1369Y423D02*
X1376Y423D01*
X0Y422D02*
X7Y422D01*
X392Y422D02*
X399Y422D01*
X786Y422D02*
X795Y422D01*
X985Y422D02*
X994Y422D01*
X1292Y422D02*
X1304Y422D01*
X1369Y422D02*
X1376Y422D01*
X0Y421D02*
X7Y421D01*
X392Y421D02*
X399Y421D01*
X786Y421D02*
X795Y421D01*
X985Y421D02*
X994Y421D01*
X1293Y421D02*
X1305Y421D01*
X1369Y421D02*
X1376Y421D01*
X0Y420D02*
X7Y420D01*
X392Y420D02*
X399Y420D01*
X787Y420D02*
X796Y420D01*
X985Y420D02*
X994Y420D01*
X1294Y420D02*
X1306Y420D01*
X1369Y420D02*
X1376Y420D01*
X0Y419D02*
X7Y419D01*
X392Y419D02*
X399Y419D01*
X787Y419D02*
X796Y419D01*
X985Y419D02*
X994Y419D01*
X1295Y419D02*
X1307Y419D01*
X1369Y419D02*
X1376Y419D01*
X0Y418D02*
X7Y418D01*
X391Y418D02*
X398Y418D01*
X787Y418D02*
X796Y418D01*
X985Y418D02*
X994Y418D01*
X1295Y418D02*
X1307Y418D01*
X1369Y418D02*
X1376Y418D01*
X0Y417D02*
X7Y417D01*
X391Y417D02*
X398Y417D01*
X787Y417D02*
X796Y417D01*
X985Y417D02*
X994Y417D01*
X1296Y417D02*
X1308Y417D01*
X1369Y417D02*
X1376Y417D01*
X0Y416D02*
X7Y416D01*
X391Y416D02*
X398Y416D01*
X787Y416D02*
X796Y416D01*
X985Y416D02*
X994Y416D01*
X1297Y416D02*
X1309Y416D01*
X1369Y416D02*
X1376Y416D01*
X0Y415D02*
X7Y415D01*
X390Y415D02*
X397Y415D01*
X787Y415D02*
X796Y415D01*
X985Y415D02*
X994Y415D01*
X1298Y415D02*
X1310Y415D01*
X1369Y415D02*
X1376Y415D01*
X0Y414D02*
X7Y414D01*
X390Y414D02*
X397Y414D01*
X787Y414D02*
X796Y414D01*
X984Y414D02*
X993Y414D01*
X1298Y414D02*
X1310Y414D01*
X1369Y414D02*
X1376Y414D01*
X0Y413D02*
X7Y413D01*
X390Y413D02*
X397Y413D01*
X788Y413D02*
X797Y413D01*
X984Y413D02*
X993Y413D01*
X1299Y413D02*
X1311Y413D01*
X1369Y413D02*
X1376Y413D01*
X0Y412D02*
X7Y412D01*
X389Y412D02*
X396Y412D01*
X788Y412D02*
X797Y412D01*
X984Y412D02*
X993Y412D01*
X1300Y412D02*
X1312Y412D01*
X1369Y412D02*
X1376Y412D01*
X0Y411D02*
X7Y411D01*
X389Y411D02*
X396Y411D01*
X788Y411D02*
X797Y411D01*
X984Y411D02*
X993Y411D01*
X1301Y411D02*
X1313Y411D01*
X1369Y411D02*
X1376Y411D01*
X0Y410D02*
X7Y410D01*
X388Y410D02*
X396Y410D01*
X788Y410D02*
X797Y410D01*
X984Y410D02*
X993Y410D01*
X1302Y410D02*
X1314Y410D01*
X1369Y410D02*
X1376Y410D01*
X0Y409D02*
X7Y409D01*
X388Y409D02*
X395Y409D01*
X788Y409D02*
X797Y409D01*
X983Y409D02*
X992Y409D01*
X1302Y409D02*
X1314Y409D01*
X1369Y409D02*
X1376Y409D01*
X0Y408D02*
X7Y408D01*
X388Y408D02*
X395Y408D01*
X789Y408D02*
X798Y408D01*
X983Y408D02*
X992Y408D01*
X1303Y408D02*
X1315Y408D01*
X1369Y408D02*
X1376Y408D01*
X0Y407D02*
X7Y407D01*
X387Y407D02*
X394Y407D01*
X789Y407D02*
X798Y407D01*
X983Y407D02*
X992Y407D01*
X1304Y407D02*
X1316Y407D01*
X1369Y407D02*
X1376Y407D01*
X0Y406D02*
X7Y406D01*
X387Y406D02*
X394Y406D01*
X789Y406D02*
X798Y406D01*
X983Y406D02*
X992Y406D01*
X1305Y406D02*
X1317Y406D01*
X1369Y406D02*
X1376Y406D01*
X0Y405D02*
X7Y405D01*
X387Y405D02*
X394Y405D01*
X789Y405D02*
X798Y405D01*
X982Y405D02*
X992Y405D01*
X1305Y405D02*
X1317Y405D01*
X1369Y405D02*
X1376Y405D01*
X0Y404D02*
X7Y404D01*
X386Y404D02*
X393Y404D01*
X790Y404D02*
X799Y404D01*
X982Y404D02*
X991Y404D01*
X1306Y404D02*
X1318Y404D01*
X1369Y404D02*
X1376Y404D01*
X0Y403D02*
X7Y403D01*
X386Y403D02*
X393Y403D01*
X790Y403D02*
X799Y403D01*
X982Y403D02*
X991Y403D01*
X1307Y403D02*
X1319Y403D01*
X1369Y403D02*
X1376Y403D01*
X0Y402D02*
X7Y402D01*
X385Y402D02*
X392Y402D01*
X790Y402D02*
X799Y402D01*
X981Y402D02*
X991Y402D01*
X1308Y402D02*
X1320Y402D01*
X1369Y402D02*
X1376Y402D01*
X0Y401D02*
X7Y401D01*
X385Y401D02*
X392Y401D01*
X790Y401D02*
X800Y401D01*
X981Y401D02*
X990Y401D01*
X1309Y401D02*
X1321Y401D01*
X1369Y401D02*
X1376Y401D01*
X0Y400D02*
X7Y400D01*
X384Y400D02*
X392Y400D01*
X791Y400D02*
X800Y400D01*
X981Y400D02*
X990Y400D01*
X1309Y400D02*
X1321Y400D01*
X1369Y400D02*
X1376Y400D01*
X0Y399D02*
X7Y399D01*
X384Y399D02*
X391Y399D01*
X791Y399D02*
X800Y399D01*
X980Y399D02*
X990Y399D01*
X1310Y399D02*
X1322Y399D01*
X1369Y399D02*
X1376Y399D01*
X0Y398D02*
X7Y398D01*
X384Y398D02*
X391Y398D01*
X791Y398D02*
X801Y398D01*
X980Y398D02*
X989Y398D01*
X1311Y398D02*
X1323Y398D01*
X1369Y398D02*
X1376Y398D01*
X0Y397D02*
X7Y397D01*
X383Y397D02*
X390Y397D01*
X792Y397D02*
X801Y397D01*
X980Y397D02*
X989Y397D01*
X1312Y397D02*
X1324Y397D01*
X1369Y397D02*
X1376Y397D01*
X0Y396D02*
X7Y396D01*
X383Y396D02*
X390Y396D01*
X792Y396D02*
X802Y396D01*
X979Y396D02*
X989Y396D01*
X1312Y396D02*
X1324Y396D01*
X1369Y396D02*
X1376Y396D01*
X0Y395D02*
X7Y395D01*
X382Y395D02*
X390Y395D01*
X792Y395D02*
X802Y395D01*
X979Y395D02*
X988Y395D01*
X1313Y395D02*
X1325Y395D01*
X1369Y395D02*
X1376Y395D01*
X0Y394D02*
X7Y394D01*
X382Y394D02*
X389Y394D01*
X793Y394D02*
X802Y394D01*
X978Y394D02*
X988Y394D01*
X1314Y394D02*
X1326Y394D01*
X1369Y394D02*
X1376Y394D01*
X0Y393D02*
X7Y393D01*
X381Y393D02*
X389Y393D01*
X793Y393D02*
X803Y393D01*
X978Y393D02*
X988Y393D01*
X1315Y393D02*
X1327Y393D01*
X1369Y393D02*
X1376Y393D01*
X0Y392D02*
X7Y392D01*
X381Y392D02*
X388Y392D01*
X794Y392D02*
X803Y392D01*
X978Y392D02*
X987Y392D01*
X1316Y392D02*
X1328Y392D01*
X1369Y392D02*
X1376Y392D01*
X0Y391D02*
X7Y391D01*
X380Y391D02*
X388Y391D01*
X794Y391D02*
X804Y391D01*
X977Y391D02*
X987Y391D01*
X1284Y391D02*
X1288Y391D01*
X1316Y391D02*
X1328Y391D01*
X1369Y391D02*
X1376Y391D01*
X0Y390D02*
X7Y390D01*
X380Y390D02*
X387Y390D01*
X794Y390D02*
X804Y390D01*
X977Y390D02*
X986Y390D01*
X1283Y390D02*
X1289Y390D01*
X1317Y390D02*
X1329Y390D01*
X1369Y390D02*
X1376Y390D01*
X0Y389D02*
X7Y389D01*
X379Y389D02*
X387Y389D01*
X795Y389D02*
X805Y389D01*
X976Y389D02*
X986Y389D01*
X1282Y389D02*
X1290Y389D01*
X1318Y389D02*
X1329Y389D01*
X1369Y389D02*
X1376Y389D01*
X0Y388D02*
X7Y388D01*
X379Y388D02*
X386Y388D01*
X795Y388D02*
X805Y388D01*
X976Y388D02*
X985Y388D01*
X1282Y388D02*
X1290Y388D01*
X1319Y388D02*
X1330Y388D01*
X1369Y388D02*
X1376Y388D01*
X0Y387D02*
X7Y387D01*
X378Y387D02*
X386Y387D01*
X796Y387D02*
X806Y387D01*
X975Y387D02*
X985Y387D01*
X1282Y387D02*
X1291Y387D01*
X1319Y387D02*
X1330Y387D01*
X1369Y387D02*
X1376Y387D01*
X0Y386D02*
X7Y386D01*
X378Y386D02*
X385Y386D01*
X796Y386D02*
X806Y386D01*
X975Y386D02*
X985Y386D01*
X1282Y386D02*
X1291Y386D01*
X1320Y386D02*
X1330Y386D01*
X1369Y386D02*
X1376Y386D01*
X0Y385D02*
X7Y385D01*
X377Y385D02*
X385Y385D01*
X797Y385D02*
X807Y385D01*
X974Y385D02*
X984Y385D01*
X1282Y385D02*
X1291Y385D01*
X1321Y385D02*
X1330Y385D01*
X1369Y385D02*
X1376Y385D01*
X0Y384D02*
X7Y384D01*
X377Y384D02*
X384Y384D01*
X797Y384D02*
X807Y384D01*
X973Y384D02*
X984Y384D01*
X1282Y384D02*
X1292Y384D01*
X1321Y384D02*
X1330Y384D01*
X1369Y384D02*
X1376Y384D01*
X0Y383D02*
X7Y383D01*
X376Y383D02*
X384Y383D01*
X798Y383D02*
X808Y383D01*
X973Y383D02*
X983Y383D01*
X1282Y383D02*
X1330Y383D01*
X1369Y383D02*
X1376Y383D01*
X0Y382D02*
X7Y382D01*
X376Y382D02*
X383Y382D01*
X798Y382D02*
X809Y382D01*
X972Y382D02*
X983Y382D01*
X1282Y382D02*
X1330Y382D01*
X1369Y382D02*
X1376Y382D01*
X0Y381D02*
X7Y381D01*
X375Y381D02*
X383Y381D01*
X799Y381D02*
X809Y381D01*
X972Y381D02*
X982Y381D01*
X1283Y381D02*
X1330Y381D01*
X1369Y381D02*
X1376Y381D01*
X0Y380D02*
X7Y380D01*
X375Y380D02*
X382Y380D01*
X799Y380D02*
X810Y380D01*
X971Y380D02*
X982Y380D01*
X1283Y380D02*
X1329Y380D01*
X1369Y380D02*
X1376Y380D01*
X0Y379D02*
X8Y379D01*
X374Y379D02*
X382Y379D01*
X800Y379D02*
X810Y379D01*
X970Y379D02*
X981Y379D01*
X1284Y379D02*
X1329Y379D01*
X1369Y379D02*
X1376Y379D01*
X0Y378D02*
X8Y378D01*
X373Y378D02*
X381Y378D01*
X800Y378D02*
X811Y378D01*
X970Y378D02*
X980Y378D01*
X1285Y378D02*
X1328Y378D01*
X1369Y378D02*
X1376Y378D01*
X0Y377D02*
X9Y377D01*
X373Y377D02*
X381Y377D01*
X801Y377D02*
X812Y377D01*
X969Y377D02*
X980Y377D01*
X1286Y377D02*
X1327Y377D01*
X1369Y377D02*
X1376Y377D01*
X0Y376D02*
X10Y376D01*
X372Y376D02*
X380Y376D01*
X802Y376D02*
X812Y376D01*
X968Y376D02*
X979Y376D01*
X1287Y376D02*
X1326Y376D01*
X1369Y376D02*
X1376Y376D01*
X0Y375D02*
X10Y375D01*
X372Y375D02*
X379Y375D01*
X802Y375D02*
X813Y375D01*
X968Y375D02*
X979Y375D01*
X1289Y375D02*
X1325Y375D01*
X1369Y375D02*
X1376Y375D01*
X0Y374D02*
X11Y374D01*
X371Y374D02*
X379Y374D01*
X803Y374D02*
X814Y374D01*
X967Y374D02*
X978Y374D01*
X1291Y374D02*
X1323Y374D01*
X1369Y374D02*
X1376Y374D01*
X0Y373D02*
X11Y373D01*
X370Y373D02*
X378Y373D01*
X803Y373D02*
X815Y373D01*
X966Y373D02*
X977Y373D01*
X1369Y373D02*
X1376Y373D01*
X0Y372D02*
X12Y372D01*
X370Y372D02*
X378Y372D01*
X804Y372D02*
X815Y372D01*
X965Y372D02*
X977Y372D01*
X1369Y372D02*
X1376Y372D01*
X0Y371D02*
X13Y371D01*
X369Y371D02*
X377Y371D01*
X805Y371D02*
X816Y371D01*
X965Y371D02*
X976Y371D01*
X1369Y371D02*
X1376Y371D01*
X0Y370D02*
X13Y370D01*
X369Y370D02*
X376Y370D01*
X806Y370D02*
X817Y370D01*
X964Y370D02*
X975Y370D01*
X1369Y370D02*
X1376Y370D01*
X0Y369D02*
X14Y369D01*
X368Y369D02*
X376Y369D01*
X806Y369D02*
X818Y369D01*
X963Y369D02*
X974Y369D01*
X1369Y369D02*
X1376Y369D01*
X0Y368D02*
X14Y368D01*
X367Y368D02*
X375Y368D01*
X807Y368D02*
X819Y368D01*
X962Y368D02*
X974Y368D01*
X1369Y368D02*
X1376Y368D01*
X0Y367D02*
X15Y367D01*
X367Y367D02*
X375Y367D01*
X808Y367D02*
X820Y367D01*
X961Y367D02*
X973Y367D01*
X1369Y367D02*
X1376Y367D01*
X0Y366D02*
X16Y366D01*
X366Y366D02*
X374Y366D01*
X809Y366D02*
X821Y366D01*
X960Y366D02*
X972Y366D01*
X1369Y366D02*
X1376Y366D01*
X0Y365D02*
X17Y365D01*
X365Y365D02*
X373Y365D01*
X809Y365D02*
X822Y365D01*
X959Y365D02*
X971Y365D01*
X1369Y365D02*
X1376Y365D01*
X0Y364D02*
X7Y364D01*
X9Y364D02*
X17Y364D01*
X365Y364D02*
X373Y364D01*
X810Y364D02*
X823Y364D01*
X958Y364D02*
X971Y364D01*
X1369Y364D02*
X1376Y364D01*
X0Y363D02*
X7Y363D01*
X10Y363D02*
X18Y363D01*
X364Y363D02*
X372Y363D01*
X811Y363D02*
X824Y363D01*
X957Y363D02*
X970Y363D01*
X1369Y363D02*
X1376Y363D01*
X0Y362D02*
X7Y362D01*
X10Y362D02*
X19Y362D01*
X363Y362D02*
X371Y362D01*
X812Y362D02*
X825Y362D01*
X956Y362D02*
X969Y362D01*
X1369Y362D02*
X1376Y362D01*
X0Y361D02*
X7Y361D01*
X11Y361D02*
X19Y361D01*
X362Y361D02*
X371Y361D01*
X813Y361D02*
X826Y361D01*
X955Y361D02*
X968Y361D01*
X1369Y361D02*
X1376Y361D01*
X0Y360D02*
X7Y360D01*
X12Y360D02*
X20Y360D01*
X362Y360D02*
X370Y360D01*
X814Y360D02*
X827Y360D01*
X954Y360D02*
X967Y360D01*
X1369Y360D02*
X1376Y360D01*
X0Y359D02*
X7Y359D01*
X12Y359D02*
X21Y359D01*
X361Y359D02*
X369Y359D01*
X815Y359D02*
X828Y359D01*
X953Y359D02*
X966Y359D01*
X1369Y359D02*
X1376Y359D01*
X0Y358D02*
X7Y358D01*
X13Y358D02*
X21Y358D01*
X360Y358D02*
X369Y358D01*
X816Y358D02*
X829Y358D01*
X952Y358D02*
X965Y358D01*
X1369Y358D02*
X1376Y358D01*
X0Y357D02*
X7Y357D01*
X14Y357D02*
X22Y357D01*
X359Y357D02*
X368Y357D01*
X816Y357D02*
X830Y357D01*
X950Y357D02*
X964Y357D01*
X1369Y357D02*
X1376Y357D01*
X0Y356D02*
X7Y356D01*
X15Y356D02*
X23Y356D01*
X359Y356D02*
X367Y356D01*
X817Y356D02*
X832Y356D01*
X949Y356D02*
X963Y356D01*
X1369Y356D02*
X1376Y356D01*
X0Y355D02*
X7Y355D01*
X15Y355D02*
X24Y355D01*
X358Y355D02*
X366Y355D01*
X819Y355D02*
X833Y355D01*
X948Y355D02*
X962Y355D01*
X1369Y355D02*
X1376Y355D01*
X0Y354D02*
X7Y354D01*
X16Y354D02*
X25Y354D01*
X357Y354D02*
X366Y354D01*
X820Y354D02*
X834Y354D01*
X946Y354D02*
X961Y354D01*
X1369Y354D02*
X1376Y354D01*
X0Y353D02*
X7Y353D01*
X17Y353D02*
X25Y353D01*
X356Y353D02*
X365Y353D01*
X821Y353D02*
X836Y353D01*
X945Y353D02*
X960Y353D01*
X1369Y353D02*
X1376Y353D01*
X0Y352D02*
X7Y352D01*
X18Y352D02*
X26Y352D01*
X356Y352D02*
X364Y352D01*
X822Y352D02*
X837Y352D01*
X944Y352D02*
X959Y352D01*
X1369Y352D02*
X1376Y352D01*
X0Y351D02*
X7Y351D01*
X18Y351D02*
X27Y351D01*
X355Y351D02*
X363Y351D01*
X823Y351D02*
X839Y351D01*
X942Y351D02*
X958Y351D01*
X1369Y351D02*
X1376Y351D01*
X0Y350D02*
X7Y350D01*
X19Y350D02*
X28Y350D01*
X354Y350D02*
X363Y350D01*
X824Y350D02*
X840Y350D01*
X941Y350D02*
X957Y350D01*
X1369Y350D02*
X1376Y350D01*
X0Y349D02*
X7Y349D01*
X20Y349D02*
X29Y349D01*
X353Y349D02*
X362Y349D01*
X825Y349D02*
X842Y349D01*
X939Y349D02*
X955Y349D01*
X1369Y349D02*
X1376Y349D01*
X0Y348D02*
X7Y348D01*
X21Y348D02*
X29Y348D01*
X352Y348D02*
X361Y348D01*
X827Y348D02*
X844Y348D01*
X937Y348D02*
X954Y348D01*
X0Y347D02*
X7Y347D01*
X21Y347D02*
X30Y347D01*
X352Y347D02*
X360Y347D01*
X828Y347D02*
X845Y347D01*
X935Y347D02*
X953Y347D01*
X0Y346D02*
X7Y346D01*
X22Y346D02*
X31Y346D01*
X351Y346D02*
X360Y346D01*
X829Y346D02*
X847Y346D01*
X933Y346D02*
X951Y346D01*
X0Y345D02*
X7Y345D01*
X23Y345D02*
X32Y345D01*
X350Y345D02*
X359Y345D01*
X831Y345D02*
X849Y345D01*
X931Y345D02*
X950Y345D01*
X0Y344D02*
X7Y344D01*
X24Y344D02*
X33Y344D01*
X349Y344D02*
X358Y344D01*
X832Y344D02*
X852Y344D01*
X929Y344D02*
X949Y344D01*
X0Y343D02*
X7Y343D01*
X25Y343D02*
X34Y343D01*
X348Y343D02*
X357Y343D01*
X834Y343D02*
X854Y343D01*
X927Y343D02*
X947Y343D01*
X0Y342D02*
X7Y342D01*
X25Y342D02*
X35Y342D01*
X347Y342D02*
X356Y342D01*
X835Y342D02*
X857Y342D01*
X924Y342D02*
X945Y342D01*
X0Y341D02*
X7Y341D01*
X26Y341D02*
X36Y341D01*
X346Y341D02*
X355Y341D01*
X837Y341D02*
X859Y341D01*
X922Y341D02*
X944Y341D01*
X0Y340D02*
X7Y340D01*
X27Y340D02*
X36Y340D01*
X345Y340D02*
X355Y340D01*
X839Y340D02*
X862Y340D01*
X919Y340D02*
X942Y340D01*
X1369Y340D02*
X1376Y340D01*
X0Y339D02*
X7Y339D01*
X28Y339D02*
X37Y339D01*
X344Y339D02*
X354Y339D01*
X840Y339D02*
X866Y339D01*
X915Y339D02*
X940Y339D01*
X1369Y339D02*
X1376Y339D01*
X0Y338D02*
X7Y338D01*
X29Y338D02*
X38Y338D01*
X343Y338D02*
X353Y338D01*
X842Y338D02*
X870Y338D01*
X911Y338D02*
X938Y338D01*
X1369Y338D02*
X1376Y338D01*
X0Y337D02*
X7Y337D01*
X30Y337D02*
X39Y337D01*
X342Y337D02*
X352Y337D01*
X844Y337D02*
X876Y337D01*
X905Y337D02*
X936Y337D01*
X1369Y337D02*
X1376Y337D01*
X0Y336D02*
X7Y336D01*
X31Y336D02*
X40Y336D01*
X341Y336D02*
X351Y336D01*
X847Y336D02*
X888Y336D01*
X893Y336D02*
X934Y336D01*
X1369Y336D02*
X1376Y336D01*
X0Y335D02*
X7Y335D01*
X32Y335D02*
X41Y335D01*
X340Y335D02*
X350Y335D01*
X849Y335D02*
X932Y335D01*
X1369Y335D02*
X1376Y335D01*
X0Y334D02*
X7Y334D01*
X33Y334D02*
X42Y334D01*
X339Y334D02*
X349Y334D01*
X851Y334D02*
X930Y334D01*
X1369Y334D02*
X1376Y334D01*
X0Y333D02*
X7Y333D01*
X34Y333D02*
X43Y333D01*
X338Y333D02*
X348Y333D01*
X853Y333D02*
X927Y333D01*
X1369Y333D02*
X1376Y333D01*
X0Y332D02*
X7Y332D01*
X34Y332D02*
X44Y332D01*
X337Y332D02*
X347Y332D01*
X856Y332D02*
X925Y332D01*
X1369Y332D02*
X1376Y332D01*
X0Y331D02*
X7Y331D01*
X35Y331D02*
X45Y331D01*
X336Y331D02*
X346Y331D01*
X859Y331D02*
X922Y331D01*
X1369Y331D02*
X1376Y331D01*
X0Y330D02*
X7Y330D01*
X36Y330D02*
X46Y330D01*
X335Y330D02*
X345Y330D01*
X862Y330D02*
X919Y330D01*
X1369Y330D02*
X1376Y330D01*
X0Y329D02*
X7Y329D01*
X37Y329D02*
X48Y329D01*
X334Y329D02*
X344Y329D01*
X866Y329D02*
X915Y329D01*
X1369Y329D02*
X1376Y329D01*
X0Y328D02*
X7Y328D01*
X38Y328D02*
X49Y328D01*
X333Y328D02*
X343Y328D01*
X870Y328D02*
X910Y328D01*
X1369Y328D02*
X1376Y328D01*
X0Y327D02*
X7Y327D01*
X39Y327D02*
X50Y327D01*
X332Y327D02*
X342Y327D01*
X876Y327D02*
X904Y327D01*
X1369Y327D02*
X1376Y327D01*
X0Y326D02*
X7Y326D01*
X40Y326D02*
X51Y326D01*
X331Y326D02*
X341Y326D01*
X888Y326D02*
X892Y326D01*
X1369Y326D02*
X1376Y326D01*
X0Y325D02*
X7Y325D01*
X42Y325D02*
X52Y325D01*
X330Y325D02*
X340Y325D01*
X1247Y325D02*
X1250Y325D01*
X1272Y325D02*
X1298Y325D01*
X1324Y325D02*
X1342Y325D01*
X1369Y325D02*
X1376Y325D01*
X0Y324D02*
X7Y324D01*
X43Y324D02*
X53Y324D01*
X329Y324D02*
X339Y324D01*
X1246Y324D02*
X1251Y324D01*
X1272Y324D02*
X1300Y324D01*
X1323Y324D02*
X1342Y324D01*
X1369Y324D02*
X1376Y324D01*
X0Y323D02*
X7Y323D01*
X44Y323D02*
X54Y323D01*
X327Y323D02*
X338Y323D01*
X1246Y323D02*
X1252Y323D01*
X1272Y323D02*
X1302Y323D01*
X1322Y323D02*
X1342Y323D01*
X1369Y323D02*
X1376Y323D01*
X0Y322D02*
X7Y322D01*
X45Y322D02*
X56Y322D01*
X326Y322D02*
X337Y322D01*
X1246Y322D02*
X1252Y322D01*
X1272Y322D02*
X1303Y322D01*
X1322Y322D02*
X1342Y322D01*
X1369Y322D02*
X1376Y322D01*
X0Y321D02*
X7Y321D01*
X46Y321D02*
X57Y321D01*
X325Y321D02*
X336Y321D01*
X1246Y321D02*
X1252Y321D01*
X1272Y321D02*
X1304Y321D01*
X1322Y321D02*
X1342Y321D01*
X1369Y321D02*
X1376Y321D01*
X0Y320D02*
X7Y320D01*
X47Y320D02*
X58Y320D01*
X324Y320D02*
X335Y320D01*
X1246Y320D02*
X1252Y320D01*
X1272Y320D02*
X1304Y320D01*
X1323Y320D02*
X1342Y320D01*
X1369Y320D02*
X1376Y320D01*
X0Y319D02*
X7Y319D01*
X48Y319D02*
X59Y319D01*
X323Y319D02*
X334Y319D01*
X1246Y319D02*
X1252Y319D01*
X1272Y319D02*
X1305Y319D01*
X1324Y319D02*
X1342Y319D01*
X1369Y319D02*
X1376Y319D01*
X0Y318D02*
X7Y318D01*
X49Y318D02*
X60Y318D01*
X321Y318D02*
X332Y318D01*
X1246Y318D02*
X1252Y318D01*
X1272Y318D02*
X1278Y318D01*
X1298Y318D02*
X1305Y318D01*
X1336Y318D02*
X1342Y318D01*
X1369Y318D02*
X1376Y318D01*
X0Y317D02*
X7Y317D01*
X50Y317D02*
X62Y317D01*
X320Y317D02*
X331Y317D01*
X1246Y317D02*
X1252Y317D01*
X1272Y317D02*
X1278Y317D01*
X1299Y317D02*
X1305Y317D01*
X1336Y317D02*
X1342Y317D01*
X1369Y317D02*
X1376Y317D01*
X0Y316D02*
X7Y316D01*
X52Y316D02*
X63Y316D01*
X319Y316D02*
X330Y316D01*
X1246Y316D02*
X1252Y316D01*
X1272Y316D02*
X1278Y316D01*
X1299Y316D02*
X1305Y316D01*
X1336Y316D02*
X1342Y316D01*
X1369Y316D02*
X1376Y316D01*
X0Y315D02*
X7Y315D01*
X53Y315D02*
X64Y315D01*
X317Y315D02*
X329Y315D01*
X1246Y315D02*
X1252Y315D01*
X1272Y315D02*
X1278Y315D01*
X1299Y315D02*
X1305Y315D01*
X1336Y315D02*
X1342Y315D01*
X1369Y315D02*
X1376Y315D01*
X0Y314D02*
X7Y314D01*
X54Y314D02*
X66Y314D01*
X316Y314D02*
X328Y314D01*
X1246Y314D02*
X1252Y314D01*
X1272Y314D02*
X1278Y314D01*
X1299Y314D02*
X1305Y314D01*
X1336Y314D02*
X1342Y314D01*
X1369Y314D02*
X1376Y314D01*
X0Y313D02*
X7Y313D01*
X55Y313D02*
X67Y313D01*
X315Y313D02*
X327Y313D01*
X1246Y313D02*
X1252Y313D01*
X1272Y313D02*
X1278Y313D01*
X1299Y313D02*
X1305Y313D01*
X1336Y313D02*
X1342Y313D01*
X1369Y313D02*
X1376Y313D01*
X0Y312D02*
X7Y312D01*
X56Y312D02*
X69Y312D01*
X313Y312D02*
X325Y312D01*
X1246Y312D02*
X1252Y312D01*
X1272Y312D02*
X1278Y312D01*
X1299Y312D02*
X1305Y312D01*
X1336Y312D02*
X1342Y312D01*
X1369Y312D02*
X1376Y312D01*
X0Y311D02*
X7Y311D01*
X58Y311D02*
X70Y311D01*
X312Y311D02*
X324Y311D01*
X1246Y311D02*
X1252Y311D01*
X1272Y311D02*
X1278Y311D01*
X1299Y311D02*
X1305Y311D01*
X1336Y311D02*
X1342Y311D01*
X1369Y311D02*
X1376Y311D01*
X0Y310D02*
X7Y310D01*
X59Y310D02*
X71Y310D01*
X310Y310D02*
X323Y310D01*
X1246Y310D02*
X1252Y310D01*
X1272Y310D02*
X1278Y310D01*
X1299Y310D02*
X1305Y310D01*
X1336Y310D02*
X1342Y310D01*
X1369Y310D02*
X1376Y310D01*
X0Y309D02*
X7Y309D01*
X60Y309D02*
X73Y309D01*
X309Y309D02*
X321Y309D01*
X1246Y309D02*
X1252Y309D01*
X1272Y309D02*
X1278Y309D01*
X1299Y309D02*
X1305Y309D01*
X1336Y309D02*
X1342Y309D01*
X1369Y309D02*
X1376Y309D01*
X0Y308D02*
X7Y308D01*
X62Y308D02*
X74Y308D01*
X307Y308D02*
X320Y308D01*
X1246Y308D02*
X1252Y308D01*
X1272Y308D02*
X1278Y308D01*
X1299Y308D02*
X1305Y308D01*
X1336Y308D02*
X1342Y308D01*
X1369Y308D02*
X1376Y308D01*
X0Y307D02*
X7Y307D01*
X63Y307D02*
X76Y307D01*
X306Y307D02*
X319Y307D01*
X1246Y307D02*
X1252Y307D01*
X1272Y307D02*
X1278Y307D01*
X1299Y307D02*
X1305Y307D01*
X1336Y307D02*
X1342Y307D01*
X1369Y307D02*
X1376Y307D01*
X0Y306D02*
X7Y306D01*
X64Y306D02*
X77Y306D01*
X304Y306D02*
X317Y306D01*
X1246Y306D02*
X1252Y306D01*
X1272Y306D02*
X1278Y306D01*
X1299Y306D02*
X1305Y306D01*
X1336Y306D02*
X1342Y306D01*
X1369Y306D02*
X1376Y306D01*
X0Y305D02*
X7Y305D01*
X66Y305D02*
X79Y305D01*
X303Y305D02*
X316Y305D01*
X1246Y305D02*
X1252Y305D01*
X1272Y305D02*
X1278Y305D01*
X1299Y305D02*
X1305Y305D01*
X1336Y305D02*
X1342Y305D01*
X1369Y305D02*
X1376Y305D01*
X0Y304D02*
X7Y304D01*
X67Y304D02*
X81Y304D01*
X301Y304D02*
X315Y304D01*
X1246Y304D02*
X1252Y304D01*
X1272Y304D02*
X1278Y304D01*
X1299Y304D02*
X1305Y304D01*
X1336Y304D02*
X1342Y304D01*
X1369Y304D02*
X1376Y304D01*
X0Y303D02*
X7Y303D01*
X69Y303D02*
X82Y303D01*
X299Y303D02*
X313Y303D01*
X1246Y303D02*
X1252Y303D01*
X1272Y303D02*
X1278Y303D01*
X1299Y303D02*
X1305Y303D01*
X1336Y303D02*
X1342Y303D01*
X1369Y303D02*
X1376Y303D01*
X0Y302D02*
X7Y302D01*
X70Y302D02*
X84Y302D01*
X298Y302D02*
X312Y302D01*
X1246Y302D02*
X1252Y302D01*
X1272Y302D02*
X1278Y302D01*
X1299Y302D02*
X1305Y302D01*
X1336Y302D02*
X1342Y302D01*
X1369Y302D02*
X1376Y302D01*
X0Y301D02*
X7Y301D01*
X72Y301D02*
X86Y301D01*
X296Y301D02*
X310Y301D01*
X842Y301D02*
X860Y301D01*
X879Y301D02*
X897Y301D01*
X1246Y301D02*
X1252Y301D01*
X1272Y301D02*
X1278Y301D01*
X1299Y301D02*
X1305Y301D01*
X1336Y301D02*
X1342Y301D01*
X1369Y301D02*
X1376Y301D01*
X0Y300D02*
X7Y300D01*
X73Y300D02*
X87Y300D01*
X294Y300D02*
X309Y300D01*
X840Y300D02*
X861Y300D01*
X878Y300D02*
X897Y300D01*
X1246Y300D02*
X1252Y300D01*
X1272Y300D02*
X1278Y300D01*
X1298Y300D02*
X1305Y300D01*
X1336Y300D02*
X1342Y300D01*
X1369Y300D02*
X1376Y300D01*
X0Y299D02*
X7Y299D01*
X75Y299D02*
X89Y299D01*
X292Y299D02*
X307Y299D01*
X838Y299D02*
X861Y299D01*
X878Y299D02*
X897Y299D01*
X1246Y299D02*
X1252Y299D01*
X1272Y299D02*
X1305Y299D01*
X1336Y299D02*
X1342Y299D01*
X1369Y299D02*
X1376Y299D01*
X0Y298D02*
X7Y298D01*
X76Y298D02*
X91Y298D01*
X290Y298D02*
X305Y298D01*
X837Y298D02*
X861Y298D01*
X878Y298D02*
X897Y298D01*
X1246Y298D02*
X1252Y298D01*
X1272Y298D02*
X1304Y298D01*
X1336Y298D02*
X1342Y298D01*
X1369Y298D02*
X1376Y298D01*
X0Y297D02*
X7Y297D01*
X78Y297D02*
X93Y297D01*
X289Y297D02*
X304Y297D01*
X837Y297D02*
X861Y297D01*
X878Y297D02*
X897Y297D01*
X1246Y297D02*
X1252Y297D01*
X1272Y297D02*
X1304Y297D01*
X1336Y297D02*
X1342Y297D01*
X1369Y297D02*
X1376Y297D01*
X0Y296D02*
X7Y296D01*
X80Y296D02*
X95Y296D01*
X287Y296D02*
X302Y296D01*
X836Y296D02*
X860Y296D01*
X879Y296D02*
X897Y296D01*
X1227Y296D02*
X1229Y296D01*
X1246Y296D02*
X1252Y296D01*
X1272Y296D02*
X1303Y296D01*
X1336Y296D02*
X1342Y296D01*
X1352Y296D02*
X1353Y296D01*
X1369Y296D02*
X1376Y296D01*
X0Y295D02*
X7Y295D01*
X81Y295D02*
X97Y295D01*
X285Y295D02*
X300Y295D01*
X836Y295D02*
X858Y295D01*
X881Y295D02*
X897Y295D01*
X1226Y295D02*
X1230Y295D01*
X1246Y295D02*
X1252Y295D01*
X1272Y295D02*
X1302Y295D01*
X1336Y295D02*
X1342Y295D01*
X1350Y295D02*
X1355Y295D01*
X1369Y295D02*
X1376Y295D01*
X0Y294D02*
X7Y294D01*
X83Y294D02*
X99Y294D01*
X283Y294D02*
X299Y294D01*
X835Y294D02*
X842Y294D01*
X891Y294D02*
X897Y294D01*
X1225Y294D02*
X1231Y294D01*
X1246Y294D02*
X1252Y294D01*
X1272Y294D02*
X1301Y294D01*
X1336Y294D02*
X1342Y294D01*
X1350Y294D02*
X1355Y294D01*
X1369Y294D02*
X1376Y294D01*
X0Y293D02*
X7Y293D01*
X85Y293D02*
X101Y293D01*
X280Y293D02*
X297Y293D01*
X835Y293D02*
X842Y293D01*
X891Y293D02*
X897Y293D01*
X1225Y293D02*
X1231Y293D01*
X1246Y293D02*
X1252Y293D01*
X1272Y293D02*
X1299Y293D01*
X1336Y293D02*
X1342Y293D01*
X1350Y293D02*
X1355Y293D01*
X1369Y293D02*
X1376Y293D01*
X0Y292D02*
X7Y292D01*
X87Y292D02*
X103Y292D01*
X278Y292D02*
X295Y292D01*
X834Y292D02*
X841Y292D01*
X891Y292D02*
X897Y292D01*
X1225Y292D02*
X1231Y292D01*
X1246Y292D02*
X1252Y292D01*
X1272Y292D02*
X1278Y292D01*
X1336Y292D02*
X1342Y292D01*
X1349Y292D02*
X1356Y292D01*
X1369Y292D02*
X1376Y292D01*
X0Y291D02*
X7Y291D01*
X88Y291D02*
X106Y291D01*
X276Y291D02*
X293Y291D01*
X834Y291D02*
X841Y291D01*
X891Y291D02*
X897Y291D01*
X1225Y291D02*
X1231Y291D01*
X1246Y291D02*
X1252Y291D01*
X1272Y291D02*
X1278Y291D01*
X1336Y291D02*
X1342Y291D01*
X1349Y291D02*
X1356Y291D01*
X1369Y291D02*
X1376Y291D01*
X0Y290D02*
X7Y290D01*
X90Y290D02*
X108Y290D01*
X274Y290D02*
X291Y290D01*
X833Y290D02*
X840Y290D01*
X891Y290D02*
X897Y290D01*
X1225Y290D02*
X1231Y290D01*
X1246Y290D02*
X1252Y290D01*
X1272Y290D02*
X1278Y290D01*
X1336Y290D02*
X1342Y290D01*
X1349Y290D02*
X1356Y290D01*
X1369Y290D02*
X1376Y290D01*
X0Y289D02*
X7Y289D01*
X92Y289D02*
X110Y289D01*
X271Y289D02*
X290Y289D01*
X833Y289D02*
X840Y289D01*
X891Y289D02*
X897Y289D01*
X1225Y289D02*
X1231Y289D01*
X1246Y289D02*
X1252Y289D01*
X1272Y289D02*
X1278Y289D01*
X1336Y289D02*
X1342Y289D01*
X1349Y289D02*
X1356Y289D01*
X1369Y289D02*
X1376Y289D01*
X0Y288D02*
X7Y288D01*
X94Y288D02*
X113Y288D01*
X269Y288D02*
X288Y288D01*
X832Y288D02*
X839Y288D01*
X891Y288D02*
X897Y288D01*
X1225Y288D02*
X1231Y288D01*
X1246Y288D02*
X1252Y288D01*
X1272Y288D02*
X1278Y288D01*
X1336Y288D02*
X1342Y288D01*
X1349Y288D02*
X1356Y288D01*
X1369Y288D02*
X1376Y288D01*
X0Y287D02*
X7Y287D01*
X96Y287D02*
X113Y287D01*
X269Y287D02*
X285Y287D01*
X832Y287D02*
X839Y287D01*
X891Y287D02*
X897Y287D01*
X1225Y287D02*
X1231Y287D01*
X1246Y287D02*
X1252Y287D01*
X1272Y287D02*
X1278Y287D01*
X1336Y287D02*
X1342Y287D01*
X1349Y287D02*
X1356Y287D01*
X1369Y287D02*
X1376Y287D01*
X0Y286D02*
X7Y286D01*
X98Y286D02*
X112Y286D01*
X269Y286D02*
X283Y286D01*
X831Y286D02*
X838Y286D01*
X891Y286D02*
X897Y286D01*
X1225Y286D02*
X1231Y286D01*
X1246Y286D02*
X1252Y286D01*
X1272Y286D02*
X1278Y286D01*
X1336Y286D02*
X1342Y286D01*
X1349Y286D02*
X1356Y286D01*
X1369Y286D02*
X1376Y286D01*
X0Y285D02*
X7Y285D01*
X100Y285D02*
X112Y285D01*
X270Y285D02*
X281Y285D01*
X831Y285D02*
X838Y285D01*
X891Y285D02*
X897Y285D01*
X1225Y285D02*
X1231Y285D01*
X1246Y285D02*
X1252Y285D01*
X1272Y285D02*
X1278Y285D01*
X1336Y285D02*
X1342Y285D01*
X1349Y285D02*
X1356Y285D01*
X1369Y285D02*
X1376Y285D01*
X0Y284D02*
X7Y284D01*
X103Y284D02*
X112Y284D01*
X270Y284D02*
X279Y284D01*
X830Y284D02*
X837Y284D01*
X891Y284D02*
X897Y284D01*
X1225Y284D02*
X1231Y284D01*
X1246Y284D02*
X1252Y284D01*
X1272Y284D02*
X1278Y284D01*
X1336Y284D02*
X1342Y284D01*
X1349Y284D02*
X1356Y284D01*
X1369Y284D02*
X1376Y284D01*
X0Y283D02*
X7Y283D01*
X105Y283D02*
X111Y283D01*
X270Y283D02*
X277Y283D01*
X830Y283D02*
X837Y283D01*
X891Y283D02*
X897Y283D01*
X1225Y283D02*
X1231Y283D01*
X1246Y283D02*
X1252Y283D01*
X1272Y283D02*
X1278Y283D01*
X1336Y283D02*
X1342Y283D01*
X1349Y283D02*
X1356Y283D01*
X1369Y283D02*
X1376Y283D01*
X0Y282D02*
X7Y282D01*
X107Y282D02*
X111Y282D01*
X271Y282D02*
X274Y282D01*
X829Y282D02*
X836Y282D01*
X891Y282D02*
X897Y282D01*
X1225Y282D02*
X1231Y282D01*
X1246Y282D02*
X1252Y282D01*
X1272Y282D02*
X1278Y282D01*
X1336Y282D02*
X1342Y282D01*
X1349Y282D02*
X1356Y282D01*
X1369Y282D02*
X1376Y282D01*
X0Y281D02*
X7Y281D01*
X110Y281D02*
X110Y281D01*
X271Y281D02*
X272Y281D01*
X829Y281D02*
X836Y281D01*
X891Y281D02*
X897Y281D01*
X1225Y281D02*
X1231Y281D01*
X1245Y281D02*
X1252Y281D01*
X1272Y281D02*
X1278Y281D01*
X1336Y281D02*
X1342Y281D01*
X1349Y281D02*
X1356Y281D01*
X1369Y281D02*
X1376Y281D01*
X0Y280D02*
X7Y280D01*
X828Y280D02*
X835Y280D01*
X891Y280D02*
X897Y280D01*
X1225Y280D02*
X1232Y280D01*
X1245Y280D02*
X1251Y280D01*
X1272Y280D02*
X1278Y280D01*
X1336Y280D02*
X1342Y280D01*
X1349Y280D02*
X1356Y280D01*
X1369Y280D02*
X1376Y280D01*
X0Y279D02*
X7Y279D01*
X828Y279D02*
X835Y279D01*
X891Y279D02*
X897Y279D01*
X1225Y279D02*
X1233Y279D01*
X1244Y279D02*
X1251Y279D01*
X1272Y279D02*
X1278Y279D01*
X1336Y279D02*
X1342Y279D01*
X1349Y279D02*
X1356Y279D01*
X1369Y279D02*
X1376Y279D01*
X0Y278D02*
X7Y278D01*
X828Y278D02*
X834Y278D01*
X891Y278D02*
X897Y278D01*
X1226Y278D02*
X1251Y278D01*
X1272Y278D02*
X1278Y278D01*
X1324Y278D02*
X1356Y278D01*
X1369Y278D02*
X1376Y278D01*
X0Y277D02*
X7Y277D01*
X828Y277D02*
X834Y277D01*
X891Y277D02*
X897Y277D01*
X1226Y277D02*
X1250Y277D01*
X1272Y277D02*
X1278Y277D01*
X1323Y277D02*
X1356Y277D01*
X1369Y277D02*
X1376Y277D01*
X0Y276D02*
X7Y276D01*
X828Y276D02*
X834Y276D01*
X891Y276D02*
X897Y276D01*
X1227Y276D02*
X1250Y276D01*
X1272Y276D02*
X1278Y276D01*
X1322Y276D02*
X1356Y276D01*
X1369Y276D02*
X1376Y276D01*
X0Y275D02*
X7Y275D01*
X828Y275D02*
X834Y275D01*
X891Y275D02*
X897Y275D01*
X1228Y275D02*
X1249Y275D01*
X1272Y275D02*
X1278Y275D01*
X1322Y275D02*
X1355Y275D01*
X1369Y275D02*
X1376Y275D01*
X0Y274D02*
X7Y274D01*
X828Y274D02*
X834Y274D01*
X891Y274D02*
X897Y274D01*
X1229Y274D02*
X1248Y274D01*
X1272Y274D02*
X1278Y274D01*
X1322Y274D02*
X1355Y274D01*
X1369Y274D02*
X1376Y274D01*
X0Y273D02*
X7Y273D01*
X828Y273D02*
X834Y273D01*
X891Y273D02*
X897Y273D01*
X1230Y273D02*
X1247Y273D01*
X1272Y273D02*
X1277Y273D01*
X1323Y273D02*
X1355Y273D01*
X1369Y273D02*
X1376Y273D01*
X0Y272D02*
X7Y272D01*
X828Y272D02*
X834Y272D01*
X891Y272D02*
X897Y272D01*
X907Y272D02*
X909Y272D01*
X1232Y272D02*
X1244Y272D01*
X1274Y272D02*
X1276Y272D01*
X1324Y272D02*
X1354Y272D01*
X1369Y272D02*
X1376Y272D01*
X0Y271D02*
X7Y271D01*
X828Y271D02*
X834Y271D01*
X891Y271D02*
X897Y271D01*
X906Y271D02*
X910Y271D01*
X1369Y271D02*
X1376Y271D01*
X0Y270D02*
X7Y270D01*
X828Y270D02*
X835Y270D01*
X891Y270D02*
X897Y270D01*
X905Y270D02*
X911Y270D01*
X1369Y270D02*
X1376Y270D01*
X0Y269D02*
X7Y269D01*
X829Y269D02*
X835Y269D01*
X891Y269D02*
X897Y269D01*
X905Y269D02*
X911Y269D01*
X1369Y269D02*
X1376Y269D01*
X0Y268D02*
X7Y268D01*
X829Y268D02*
X836Y268D01*
X891Y268D02*
X897Y268D01*
X905Y268D02*
X911Y268D01*
X1369Y268D02*
X1376Y268D01*
X0Y267D02*
X7Y267D01*
X830Y267D02*
X836Y267D01*
X891Y267D02*
X897Y267D01*
X905Y267D02*
X911Y267D01*
X1369Y267D02*
X1376Y267D01*
X0Y266D02*
X7Y266D01*
X65Y266D02*
X66Y266D01*
X112Y266D02*
X143Y266D01*
X165Y266D02*
X180Y266D01*
X215Y266D02*
X232Y266D01*
X830Y266D02*
X837Y266D01*
X891Y266D02*
X897Y266D01*
X905Y266D02*
X911Y266D01*
X1369Y266D02*
X1376Y266D01*
X0Y265D02*
X7Y265D01*
X63Y265D02*
X67Y265D01*
X112Y265D02*
X145Y265D01*
X163Y265D02*
X182Y265D01*
X214Y265D02*
X232Y265D01*
X831Y265D02*
X837Y265D01*
X891Y265D02*
X897Y265D01*
X905Y265D02*
X911Y265D01*
X1369Y265D02*
X1376Y265D01*
X0Y264D02*
X7Y264D01*
X62Y264D02*
X68Y264D01*
X112Y264D02*
X146Y264D01*
X163Y264D02*
X184Y264D01*
X213Y264D02*
X232Y264D01*
X831Y264D02*
X838Y264D01*
X891Y264D02*
X897Y264D01*
X905Y264D02*
X911Y264D01*
X1369Y264D02*
X1376Y264D01*
X0Y263D02*
X7Y263D01*
X62Y263D02*
X68Y263D01*
X112Y263D02*
X146Y263D01*
X163Y263D02*
X185Y263D01*
X213Y263D02*
X232Y263D01*
X832Y263D02*
X838Y263D01*
X891Y263D02*
X897Y263D01*
X905Y263D02*
X911Y263D01*
X1369Y263D02*
X1376Y263D01*
X0Y262D02*
X7Y262D01*
X62Y262D02*
X68Y262D01*
X112Y262D02*
X146Y262D01*
X163Y262D02*
X186Y262D01*
X213Y262D02*
X232Y262D01*
X832Y262D02*
X839Y262D01*
X891Y262D02*
X897Y262D01*
X905Y262D02*
X911Y262D01*
X1369Y262D02*
X1376Y262D01*
X0Y261D02*
X7Y261D01*
X62Y261D02*
X68Y261D01*
X112Y261D02*
X145Y261D01*
X163Y261D02*
X187Y261D01*
X213Y261D02*
X232Y261D01*
X833Y261D02*
X839Y261D01*
X891Y261D02*
X897Y261D01*
X905Y261D02*
X911Y261D01*
X1369Y261D02*
X1376Y261D01*
X0Y260D02*
X7Y260D01*
X62Y260D02*
X68Y260D01*
X112Y260D02*
X144Y260D01*
X164Y260D02*
X187Y260D01*
X214Y260D02*
X232Y260D01*
X833Y260D02*
X840Y260D01*
X891Y260D02*
X897Y260D01*
X905Y260D02*
X911Y260D01*
X1369Y260D02*
X1376Y260D01*
X0Y259D02*
X7Y259D01*
X62Y259D02*
X68Y259D01*
X112Y259D02*
X119Y259D01*
X169Y259D02*
X176Y259D01*
X180Y259D02*
X188Y259D01*
X226Y259D02*
X232Y259D01*
X834Y259D02*
X840Y259D01*
X891Y259D02*
X897Y259D01*
X905Y259D02*
X911Y259D01*
X1369Y259D02*
X1376Y259D01*
X0Y258D02*
X7Y258D01*
X62Y258D02*
X68Y258D01*
X112Y258D02*
X118Y258D01*
X169Y258D02*
X175Y258D01*
X181Y258D02*
X188Y258D01*
X226Y258D02*
X232Y258D01*
X834Y258D02*
X841Y258D01*
X891Y258D02*
X897Y258D01*
X905Y258D02*
X911Y258D01*
X1369Y258D02*
X1376Y258D01*
X0Y257D02*
X7Y257D01*
X62Y257D02*
X68Y257D01*
X112Y257D02*
X118Y257D01*
X169Y257D02*
X175Y257D01*
X182Y257D02*
X189Y257D01*
X226Y257D02*
X232Y257D01*
X835Y257D02*
X841Y257D01*
X891Y257D02*
X897Y257D01*
X905Y257D02*
X911Y257D01*
X1369Y257D02*
X1376Y257D01*
X0Y256D02*
X7Y256D01*
X62Y256D02*
X68Y256D01*
X112Y256D02*
X118Y256D01*
X169Y256D02*
X175Y256D01*
X183Y256D02*
X189Y256D01*
X226Y256D02*
X232Y256D01*
X835Y256D02*
X842Y256D01*
X891Y256D02*
X897Y256D01*
X905Y256D02*
X911Y256D01*
X1369Y256D02*
X1376Y256D01*
X0Y255D02*
X7Y255D01*
X62Y255D02*
X68Y255D01*
X112Y255D02*
X118Y255D01*
X169Y255D02*
X175Y255D01*
X183Y255D02*
X190Y255D01*
X226Y255D02*
X232Y255D01*
X836Y255D02*
X843Y255D01*
X891Y255D02*
X898Y255D01*
X905Y255D02*
X911Y255D01*
X1369Y255D02*
X1376Y255D01*
X0Y254D02*
X7Y254D01*
X62Y254D02*
X68Y254D01*
X112Y254D02*
X118Y254D01*
X169Y254D02*
X175Y254D01*
X184Y254D02*
X190Y254D01*
X226Y254D02*
X232Y254D01*
X836Y254D02*
X860Y254D01*
X879Y254D02*
X911Y254D01*
X1369Y254D02*
X1376Y254D01*
X0Y253D02*
X7Y253D01*
X62Y253D02*
X68Y253D01*
X112Y253D02*
X118Y253D01*
X169Y253D02*
X175Y253D01*
X184Y253D02*
X191Y253D01*
X226Y253D02*
X232Y253D01*
X837Y253D02*
X861Y253D01*
X878Y253D02*
X911Y253D01*
X1369Y253D02*
X1376Y253D01*
X0Y252D02*
X7Y252D01*
X62Y252D02*
X68Y252D01*
X112Y252D02*
X118Y252D01*
X169Y252D02*
X175Y252D01*
X185Y252D02*
X191Y252D01*
X226Y252D02*
X232Y252D01*
X837Y252D02*
X861Y252D01*
X878Y252D02*
X911Y252D01*
X1369Y252D02*
X1376Y252D01*
X0Y251D02*
X7Y251D01*
X62Y251D02*
X68Y251D01*
X112Y251D02*
X118Y251D01*
X169Y251D02*
X175Y251D01*
X185Y251D02*
X192Y251D01*
X226Y251D02*
X232Y251D01*
X838Y251D02*
X861Y251D01*
X878Y251D02*
X911Y251D01*
X1369Y251D02*
X1376Y251D01*
X0Y250D02*
X7Y250D01*
X62Y250D02*
X68Y250D01*
X112Y250D02*
X118Y250D01*
X169Y250D02*
X175Y250D01*
X186Y250D02*
X192Y250D01*
X226Y250D02*
X232Y250D01*
X839Y250D02*
X861Y250D01*
X878Y250D02*
X911Y250D01*
X1369Y250D02*
X1376Y250D01*
X0Y249D02*
X7Y249D01*
X62Y249D02*
X68Y249D01*
X112Y249D02*
X118Y249D01*
X169Y249D02*
X175Y249D01*
X186Y249D02*
X193Y249D01*
X226Y249D02*
X232Y249D01*
X841Y249D02*
X860Y249D01*
X879Y249D02*
X910Y249D01*
X1369Y249D02*
X1376Y249D01*
X0Y248D02*
X7Y248D01*
X62Y248D02*
X68Y248D01*
X112Y248D02*
X118Y248D01*
X169Y248D02*
X175Y248D01*
X187Y248D02*
X193Y248D01*
X226Y248D02*
X232Y248D01*
X843Y248D02*
X859Y248D01*
X880Y248D02*
X909Y248D01*
X1369Y248D02*
X1376Y248D01*
X0Y247D02*
X7Y247D01*
X62Y247D02*
X68Y247D01*
X112Y247D02*
X118Y247D01*
X169Y247D02*
X175Y247D01*
X187Y247D02*
X194Y247D01*
X226Y247D02*
X232Y247D01*
X1369Y247D02*
X1376Y247D01*
X0Y246D02*
X7Y246D01*
X62Y246D02*
X68Y246D01*
X112Y246D02*
X118Y246D01*
X169Y246D02*
X175Y246D01*
X188Y246D02*
X194Y246D01*
X226Y246D02*
X232Y246D01*
X1369Y246D02*
X1376Y246D01*
X0Y245D02*
X7Y245D01*
X62Y245D02*
X68Y245D01*
X112Y245D02*
X118Y245D01*
X169Y245D02*
X175Y245D01*
X188Y245D02*
X195Y245D01*
X226Y245D02*
X232Y245D01*
X1369Y245D02*
X1376Y245D01*
X0Y244D02*
X7Y244D01*
X62Y244D02*
X68Y244D01*
X112Y244D02*
X118Y244D01*
X169Y244D02*
X175Y244D01*
X189Y244D02*
X195Y244D01*
X226Y244D02*
X232Y244D01*
X1369Y244D02*
X1376Y244D01*
X0Y243D02*
X7Y243D01*
X62Y243D02*
X68Y243D01*
X112Y243D02*
X118Y243D01*
X169Y243D02*
X175Y243D01*
X189Y243D02*
X195Y243D01*
X226Y243D02*
X232Y243D01*
X1369Y243D02*
X1376Y243D01*
X0Y242D02*
X7Y242D01*
X62Y242D02*
X68Y242D01*
X112Y242D02*
X130Y242D01*
X169Y242D02*
X175Y242D01*
X189Y242D02*
X196Y242D01*
X226Y242D02*
X232Y242D01*
X1369Y242D02*
X1376Y242D01*
X0Y241D02*
X7Y241D01*
X62Y241D02*
X68Y241D01*
X112Y241D02*
X131Y241D01*
X169Y241D02*
X175Y241D01*
X190Y241D02*
X196Y241D01*
X226Y241D02*
X232Y241D01*
X1369Y241D02*
X1376Y241D01*
X0Y240D02*
X7Y240D01*
X62Y240D02*
X68Y240D01*
X112Y240D02*
X132Y240D01*
X169Y240D02*
X175Y240D01*
X190Y240D02*
X196Y240D01*
X226Y240D02*
X232Y240D01*
X1369Y240D02*
X1376Y240D01*
X0Y239D02*
X7Y239D01*
X62Y239D02*
X68Y239D01*
X112Y239D02*
X132Y239D01*
X169Y239D02*
X175Y239D01*
X190Y239D02*
X196Y239D01*
X226Y239D02*
X232Y239D01*
X1369Y239D02*
X1376Y239D01*
X0Y238D02*
X7Y238D01*
X62Y238D02*
X68Y238D01*
X112Y238D02*
X132Y238D01*
X169Y238D02*
X175Y238D01*
X190Y238D02*
X196Y238D01*
X226Y238D02*
X232Y238D01*
X1369Y238D02*
X1376Y238D01*
X0Y237D02*
X7Y237D01*
X62Y237D02*
X68Y237D01*
X112Y237D02*
X131Y237D01*
X169Y237D02*
X175Y237D01*
X190Y237D02*
X196Y237D01*
X226Y237D02*
X232Y237D01*
X1369Y237D02*
X1376Y237D01*
X0Y236D02*
X7Y236D01*
X62Y236D02*
X68Y236D01*
X112Y236D02*
X130Y236D01*
X169Y236D02*
X175Y236D01*
X189Y236D02*
X196Y236D01*
X226Y236D02*
X232Y236D01*
X242Y236D02*
X245Y236D01*
X1369Y236D02*
X1376Y236D01*
X0Y235D02*
X7Y235D01*
X62Y235D02*
X68Y235D01*
X112Y235D02*
X118Y235D01*
X169Y235D02*
X175Y235D01*
X189Y235D02*
X195Y235D01*
X226Y235D02*
X232Y235D01*
X241Y235D02*
X246Y235D01*
X1369Y235D02*
X1376Y235D01*
X0Y234D02*
X7Y234D01*
X62Y234D02*
X68Y234D01*
X112Y234D02*
X118Y234D01*
X169Y234D02*
X175Y234D01*
X188Y234D02*
X195Y234D01*
X226Y234D02*
X232Y234D01*
X240Y234D02*
X246Y234D01*
X1369Y234D02*
X1376Y234D01*
X0Y233D02*
X7Y233D01*
X62Y233D02*
X68Y233D01*
X112Y233D02*
X118Y233D01*
X169Y233D02*
X175Y233D01*
X188Y233D02*
X195Y233D01*
X226Y233D02*
X232Y233D01*
X240Y233D02*
X246Y233D01*
X1369Y233D02*
X1376Y233D01*
X0Y232D02*
X7Y232D01*
X62Y232D02*
X68Y232D01*
X112Y232D02*
X118Y232D01*
X169Y232D02*
X175Y232D01*
X187Y232D02*
X194Y232D01*
X226Y232D02*
X232Y232D01*
X240Y232D02*
X246Y232D01*
X1369Y232D02*
X1376Y232D01*
X0Y231D02*
X7Y231D01*
X62Y231D02*
X68Y231D01*
X112Y231D02*
X118Y231D01*
X169Y231D02*
X175Y231D01*
X187Y231D02*
X194Y231D01*
X226Y231D02*
X232Y231D01*
X240Y231D02*
X246Y231D01*
X1369Y231D02*
X1376Y231D01*
X0Y230D02*
X7Y230D01*
X62Y230D02*
X68Y230D01*
X112Y230D02*
X118Y230D01*
X169Y230D02*
X175Y230D01*
X186Y230D02*
X193Y230D01*
X226Y230D02*
X232Y230D01*
X240Y230D02*
X246Y230D01*
X1369Y230D02*
X1376Y230D01*
X0Y229D02*
X7Y229D01*
X62Y229D02*
X68Y229D01*
X112Y229D02*
X118Y229D01*
X169Y229D02*
X175Y229D01*
X186Y229D02*
X193Y229D01*
X226Y229D02*
X232Y229D01*
X240Y229D02*
X246Y229D01*
X1369Y229D02*
X1376Y229D01*
X0Y228D02*
X7Y228D01*
X62Y228D02*
X68Y228D01*
X112Y228D02*
X118Y228D01*
X169Y228D02*
X175Y228D01*
X185Y228D02*
X192Y228D01*
X226Y228D02*
X232Y228D01*
X240Y228D02*
X246Y228D01*
X1369Y228D02*
X1376Y228D01*
X0Y227D02*
X7Y227D01*
X62Y227D02*
X68Y227D01*
X112Y227D02*
X118Y227D01*
X169Y227D02*
X175Y227D01*
X185Y227D02*
X192Y227D01*
X226Y227D02*
X232Y227D01*
X240Y227D02*
X246Y227D01*
X1369Y227D02*
X1376Y227D01*
X0Y226D02*
X7Y226D01*
X62Y226D02*
X68Y226D01*
X112Y226D02*
X118Y226D01*
X169Y226D02*
X175Y226D01*
X184Y226D02*
X191Y226D01*
X226Y226D02*
X232Y226D01*
X240Y226D02*
X246Y226D01*
X1369Y226D02*
X1376Y226D01*
X0Y225D02*
X7Y225D01*
X62Y225D02*
X68Y225D01*
X112Y225D02*
X118Y225D01*
X169Y225D02*
X175Y225D01*
X184Y225D02*
X191Y225D01*
X226Y225D02*
X232Y225D01*
X240Y225D02*
X246Y225D01*
X1369Y225D02*
X1376Y225D01*
X0Y224D02*
X7Y224D01*
X62Y224D02*
X68Y224D01*
X112Y224D02*
X118Y224D01*
X169Y224D02*
X175Y224D01*
X183Y224D02*
X190Y224D01*
X226Y224D02*
X232Y224D01*
X240Y224D02*
X246Y224D01*
X1369Y224D02*
X1376Y224D01*
X0Y223D02*
X7Y223D01*
X62Y223D02*
X68Y223D01*
X112Y223D02*
X118Y223D01*
X169Y223D02*
X175Y223D01*
X183Y223D02*
X190Y223D01*
X226Y223D02*
X232Y223D01*
X240Y223D02*
X246Y223D01*
X1369Y223D02*
X1376Y223D01*
X0Y222D02*
X7Y222D01*
X62Y222D02*
X68Y222D01*
X112Y222D02*
X118Y222D01*
X169Y222D02*
X175Y222D01*
X182Y222D02*
X189Y222D01*
X226Y222D02*
X232Y222D01*
X240Y222D02*
X246Y222D01*
X1369Y222D02*
X1376Y222D01*
X0Y221D02*
X7Y221D01*
X62Y221D02*
X68Y221D01*
X112Y221D02*
X118Y221D01*
X169Y221D02*
X175Y221D01*
X182Y221D02*
X189Y221D01*
X226Y221D02*
X232Y221D01*
X240Y221D02*
X246Y221D01*
X1369Y221D02*
X1376Y221D01*
X0Y220D02*
X7Y220D01*
X62Y220D02*
X68Y220D01*
X112Y220D02*
X118Y220D01*
X169Y220D02*
X175Y220D01*
X181Y220D02*
X188Y220D01*
X226Y220D02*
X232Y220D01*
X240Y220D02*
X246Y220D01*
X1369Y220D02*
X1376Y220D01*
X0Y219D02*
X7Y219D01*
X62Y219D02*
X92Y219D01*
X112Y219D02*
X143Y219D01*
X166Y219D02*
X188Y219D01*
X216Y219D02*
X246Y219D01*
X1369Y219D02*
X1376Y219D01*
X0Y218D02*
X7Y218D01*
X62Y218D02*
X95Y218D01*
X112Y218D02*
X145Y218D01*
X164Y218D02*
X187Y218D01*
X214Y218D02*
X246Y218D01*
X1369Y218D02*
X1376Y218D01*
X0Y217D02*
X7Y217D01*
X62Y217D02*
X95Y217D01*
X112Y217D02*
X145Y217D01*
X163Y217D02*
X187Y217D01*
X213Y217D02*
X246Y217D01*
X1369Y217D02*
X1376Y217D01*
X0Y216D02*
X7Y216D01*
X62Y216D02*
X96Y216D01*
X112Y216D02*
X146Y216D01*
X163Y216D02*
X186Y216D01*
X213Y216D02*
X246Y216D01*
X1369Y216D02*
X1376Y216D01*
X0Y215D02*
X7Y215D01*
X62Y215D02*
X96Y215D01*
X112Y215D02*
X146Y215D01*
X163Y215D02*
X185Y215D01*
X213Y215D02*
X246Y215D01*
X1369Y215D02*
X1376Y215D01*
X0Y214D02*
X7Y214D01*
X62Y214D02*
X95Y214D01*
X112Y214D02*
X145Y214D01*
X163Y214D02*
X184Y214D01*
X213Y214D02*
X246Y214D01*
X1369Y214D02*
X1376Y214D01*
X0Y213D02*
X7Y213D01*
X62Y213D02*
X94Y213D01*
X112Y213D02*
X145Y213D01*
X164Y213D02*
X182Y213D01*
X214Y213D02*
X245Y213D01*
X1369Y213D02*
X1376Y213D01*
X0Y212D02*
X7Y212D01*
X1369Y212D02*
X1376Y212D01*
X0Y211D02*
X7Y211D01*
X1369Y211D02*
X1376Y211D01*
X0Y210D02*
X7Y210D01*
X1369Y210D02*
X1376Y210D01*
X0Y209D02*
X7Y209D01*
X366Y209D02*
X391Y209D01*
X418Y209D02*
X435Y209D01*
X1369Y209D02*
X1376Y209D01*
X0Y208D02*
X7Y208D01*
X365Y208D02*
X393Y208D01*
X416Y208D02*
X435Y208D01*
X1369Y208D02*
X1376Y208D01*
X0Y207D02*
X7Y207D01*
X365Y207D02*
X395Y207D01*
X416Y207D02*
X435Y207D01*
X1369Y207D02*
X1376Y207D01*
X0Y206D02*
X7Y206D01*
X365Y206D02*
X396Y206D01*
X416Y206D02*
X435Y206D01*
X1369Y206D02*
X1376Y206D01*
X0Y205D02*
X7Y205D01*
X365Y205D02*
X397Y205D01*
X416Y205D02*
X435Y205D01*
X1369Y205D02*
X1376Y205D01*
X0Y204D02*
X7Y204D01*
X365Y204D02*
X398Y204D01*
X416Y204D02*
X435Y204D01*
X1369Y204D02*
X1376Y204D01*
X0Y203D02*
X7Y203D01*
X365Y203D02*
X398Y203D01*
X417Y203D02*
X435Y203D01*
X1369Y203D02*
X1376Y203D01*
X0Y202D02*
X7Y202D01*
X365Y202D02*
X372Y202D01*
X391Y202D02*
X398Y202D01*
X429Y202D02*
X435Y202D01*
X1369Y202D02*
X1376Y202D01*
X0Y201D02*
X7Y201D01*
X365Y201D02*
X372Y201D01*
X392Y201D02*
X399Y201D01*
X429Y201D02*
X435Y201D01*
X1369Y201D02*
X1376Y201D01*
X0Y200D02*
X7Y200D01*
X365Y200D02*
X372Y200D01*
X393Y200D02*
X399Y200D01*
X429Y200D02*
X435Y200D01*
X1369Y200D02*
X1376Y200D01*
X0Y199D02*
X7Y199D01*
X365Y199D02*
X372Y199D01*
X393Y199D02*
X399Y199D01*
X429Y199D02*
X435Y199D01*
X1369Y199D02*
X1376Y199D01*
X0Y198D02*
X7Y198D01*
X365Y198D02*
X372Y198D01*
X393Y198D02*
X399Y198D01*
X429Y198D02*
X435Y198D01*
X1369Y198D02*
X1376Y198D01*
X0Y197D02*
X7Y197D01*
X365Y197D02*
X372Y197D01*
X393Y197D02*
X399Y197D01*
X429Y197D02*
X435Y197D01*
X1369Y197D02*
X1376Y197D01*
X0Y196D02*
X7Y196D01*
X365Y196D02*
X372Y196D01*
X393Y196D02*
X399Y196D01*
X429Y196D02*
X435Y196D01*
X1369Y196D02*
X1376Y196D01*
X0Y195D02*
X7Y195D01*
X365Y195D02*
X372Y195D01*
X393Y195D02*
X399Y195D01*
X429Y195D02*
X435Y195D01*
X1369Y195D02*
X1376Y195D01*
X0Y194D02*
X7Y194D01*
X365Y194D02*
X372Y194D01*
X393Y194D02*
X399Y194D01*
X429Y194D02*
X435Y194D01*
X1369Y194D02*
X1376Y194D01*
X0Y193D02*
X7Y193D01*
X365Y193D02*
X372Y193D01*
X392Y193D02*
X399Y193D01*
X429Y193D02*
X435Y193D01*
X1369Y193D02*
X1376Y193D01*
X0Y192D02*
X7Y192D01*
X365Y192D02*
X372Y192D01*
X391Y192D02*
X399Y192D01*
X429Y192D02*
X435Y192D01*
X1369Y192D02*
X1376Y192D01*
X0Y191D02*
X7Y191D01*
X365Y191D02*
X398Y191D01*
X429Y191D02*
X435Y191D01*
X1369Y191D02*
X1376Y191D01*
X0Y190D02*
X7Y190D01*
X365Y190D02*
X398Y190D01*
X429Y190D02*
X435Y190D01*
X1369Y190D02*
X1376Y190D01*
X0Y189D02*
X7Y189D01*
X365Y189D02*
X397Y189D01*
X429Y189D02*
X435Y189D01*
X1369Y189D02*
X1376Y189D01*
X0Y188D02*
X7Y188D01*
X365Y188D02*
X396Y188D01*
X429Y188D02*
X435Y188D01*
X1369Y188D02*
X1376Y188D01*
X0Y187D02*
X7Y187D01*
X365Y187D02*
X395Y187D01*
X429Y187D02*
X435Y187D01*
X1369Y187D02*
X1376Y187D01*
X0Y186D02*
X7Y186D01*
X365Y186D02*
X394Y186D01*
X429Y186D02*
X435Y186D01*
X1369Y186D02*
X1376Y186D01*
X0Y185D02*
X7Y185D01*
X365Y185D02*
X391Y185D01*
X429Y185D02*
X435Y185D01*
X1369Y185D02*
X1376Y185D01*
X0Y184D02*
X7Y184D01*
X365Y184D02*
X372Y184D01*
X378Y184D02*
X385Y184D01*
X429Y184D02*
X435Y184D01*
X777Y184D02*
X803Y184D01*
X828Y184D02*
X856Y184D01*
X1369Y184D02*
X1376Y184D01*
X0Y183D02*
X7Y183D01*
X365Y183D02*
X372Y183D01*
X378Y183D02*
X385Y183D01*
X429Y183D02*
X435Y183D01*
X777Y183D02*
X805Y183D01*
X827Y183D02*
X858Y183D01*
X1369Y183D02*
X1376Y183D01*
X0Y182D02*
X7Y182D01*
X365Y182D02*
X372Y182D01*
X379Y182D02*
X386Y182D01*
X429Y182D02*
X435Y182D01*
X777Y182D02*
X807Y182D01*
X827Y182D02*
X859Y182D01*
X1369Y182D02*
X1376Y182D01*
X0Y181D02*
X7Y181D01*
X365Y181D02*
X372Y181D01*
X379Y181D02*
X387Y181D01*
X429Y181D02*
X435Y181D01*
X777Y181D02*
X807Y181D01*
X827Y181D02*
X859Y181D01*
X1369Y181D02*
X1376Y181D01*
X0Y180D02*
X7Y180D01*
X365Y180D02*
X372Y180D01*
X380Y180D02*
X387Y180D01*
X429Y180D02*
X435Y180D01*
X777Y180D02*
X808Y180D01*
X827Y180D02*
X860Y180D01*
X1369Y180D02*
X1376Y180D01*
X0Y179D02*
X7Y179D01*
X365Y179D02*
X372Y179D01*
X381Y179D02*
X388Y179D01*
X429Y179D02*
X435Y179D01*
X444Y179D02*
X448Y179D01*
X777Y179D02*
X809Y179D01*
X828Y179D02*
X860Y179D01*
X1369Y179D02*
X1376Y179D01*
X0Y178D02*
X7Y178D01*
X365Y178D02*
X372Y178D01*
X381Y178D02*
X388Y178D01*
X429Y178D02*
X435Y178D01*
X444Y178D02*
X449Y178D01*
X777Y178D02*
X809Y178D01*
X829Y178D02*
X860Y178D01*
X1369Y178D02*
X1376Y178D01*
X0Y177D02*
X7Y177D01*
X365Y177D02*
X372Y177D01*
X382Y177D02*
X389Y177D01*
X429Y177D02*
X435Y177D01*
X443Y177D02*
X449Y177D01*
X777Y177D02*
X783Y177D01*
X803Y177D02*
X810Y177D01*
X854Y177D02*
X860Y177D01*
X1369Y177D02*
X1376Y177D01*
X0Y176D02*
X7Y176D01*
X365Y176D02*
X372Y176D01*
X382Y176D02*
X389Y176D01*
X429Y176D02*
X435Y176D01*
X443Y176D02*
X449Y176D01*
X777Y176D02*
X783Y176D01*
X803Y176D02*
X810Y176D01*
X854Y176D02*
X860Y176D01*
X1369Y176D02*
X1376Y176D01*
X0Y175D02*
X7Y175D01*
X365Y175D02*
X372Y175D01*
X383Y175D02*
X390Y175D01*
X429Y175D02*
X435Y175D01*
X443Y175D02*
X449Y175D01*
X777Y175D02*
X783Y175D01*
X804Y175D02*
X810Y175D01*
X854Y175D02*
X860Y175D01*
X1369Y175D02*
X1376Y175D01*
X0Y174D02*
X7Y174D01*
X365Y174D02*
X372Y174D01*
X383Y174D02*
X391Y174D01*
X429Y174D02*
X435Y174D01*
X443Y174D02*
X449Y174D01*
X777Y174D02*
X783Y174D01*
X804Y174D02*
X810Y174D01*
X854Y174D02*
X860Y174D01*
X1369Y174D02*
X1376Y174D01*
X0Y173D02*
X7Y173D01*
X365Y173D02*
X372Y173D01*
X384Y173D02*
X391Y173D01*
X429Y173D02*
X435Y173D01*
X443Y173D02*
X449Y173D01*
X777Y173D02*
X783Y173D01*
X804Y173D02*
X810Y173D01*
X854Y173D02*
X860Y173D01*
X1369Y173D02*
X1376Y173D01*
X0Y172D02*
X7Y172D01*
X365Y172D02*
X372Y172D01*
X385Y172D02*
X392Y172D01*
X429Y172D02*
X435Y172D01*
X443Y172D02*
X449Y172D01*
X777Y172D02*
X783Y172D01*
X804Y172D02*
X810Y172D01*
X854Y172D02*
X860Y172D01*
X1369Y172D02*
X1376Y172D01*
X0Y171D02*
X7Y171D01*
X365Y171D02*
X372Y171D01*
X385Y171D02*
X392Y171D01*
X429Y171D02*
X435Y171D01*
X443Y171D02*
X449Y171D01*
X777Y171D02*
X783Y171D01*
X804Y171D02*
X810Y171D01*
X854Y171D02*
X860Y171D01*
X1369Y171D02*
X1376Y171D01*
X0Y170D02*
X7Y170D01*
X365Y170D02*
X372Y170D01*
X386Y170D02*
X393Y170D01*
X429Y170D02*
X435Y170D01*
X443Y170D02*
X449Y170D01*
X777Y170D02*
X783Y170D01*
X804Y170D02*
X810Y170D01*
X854Y170D02*
X860Y170D01*
X1369Y170D02*
X1376Y170D01*
X0Y169D02*
X7Y169D01*
X365Y169D02*
X372Y169D01*
X386Y169D02*
X394Y169D01*
X429Y169D02*
X435Y169D01*
X443Y169D02*
X449Y169D01*
X777Y169D02*
X783Y169D01*
X804Y169D02*
X810Y169D01*
X854Y169D02*
X860Y169D01*
X1369Y169D02*
X1376Y169D01*
X0Y168D02*
X7Y168D01*
X365Y168D02*
X372Y168D01*
X387Y168D02*
X394Y168D01*
X429Y168D02*
X435Y168D01*
X443Y168D02*
X449Y168D01*
X777Y168D02*
X783Y168D01*
X803Y168D02*
X810Y168D01*
X854Y168D02*
X860Y168D01*
X1369Y168D02*
X1376Y168D01*
X0Y167D02*
X7Y167D01*
X365Y167D02*
X372Y167D01*
X388Y167D02*
X395Y167D01*
X429Y167D02*
X435Y167D01*
X443Y167D02*
X449Y167D01*
X777Y167D02*
X809Y167D01*
X854Y167D02*
X860Y167D01*
X1369Y167D02*
X1376Y167D01*
X0Y166D02*
X7Y166D01*
X365Y166D02*
X372Y166D01*
X388Y166D02*
X395Y166D01*
X429Y166D02*
X435Y166D01*
X443Y166D02*
X449Y166D01*
X777Y166D02*
X809Y166D01*
X854Y166D02*
X860Y166D01*
X1369Y166D02*
X1376Y166D01*
X0Y165D02*
X7Y165D01*
X365Y165D02*
X372Y165D01*
X389Y165D02*
X396Y165D01*
X429Y165D02*
X435Y165D01*
X443Y165D02*
X449Y165D01*
X777Y165D02*
X808Y165D01*
X854Y165D02*
X860Y165D01*
X1369Y165D02*
X1376Y165D01*
X0Y164D02*
X7Y164D01*
X365Y164D02*
X372Y164D01*
X389Y164D02*
X396Y164D01*
X429Y164D02*
X435Y164D01*
X443Y164D02*
X449Y164D01*
X777Y164D02*
X808Y164D01*
X854Y164D02*
X860Y164D01*
X1369Y164D02*
X1376Y164D01*
X0Y163D02*
X7Y163D01*
X365Y163D02*
X372Y163D01*
X390Y163D02*
X397Y163D01*
X429Y163D02*
X435Y163D01*
X443Y163D02*
X449Y163D01*
X777Y163D02*
X807Y163D01*
X854Y163D02*
X860Y163D01*
X1369Y163D02*
X1376Y163D01*
X0Y162D02*
X7Y162D01*
X365Y162D02*
X372Y162D01*
X390Y162D02*
X398Y162D01*
X418Y162D02*
X449Y162D01*
X777Y162D02*
X805Y162D01*
X854Y162D02*
X860Y162D01*
X1369Y162D02*
X1376Y162D01*
X0Y161D02*
X7Y161D01*
X365Y161D02*
X372Y161D01*
X391Y161D02*
X398Y161D01*
X417Y161D02*
X449Y161D01*
X777Y161D02*
X804Y161D01*
X832Y161D02*
X860Y161D01*
X1369Y161D02*
X1376Y161D01*
X0Y160D02*
X7Y160D01*
X365Y160D02*
X372Y160D01*
X392Y160D02*
X399Y160D01*
X416Y160D02*
X449Y160D01*
X777Y160D02*
X783Y160D01*
X788Y160D02*
X796Y160D01*
X830Y160D02*
X860Y160D01*
X1369Y160D02*
X1376Y160D01*
X0Y159D02*
X7Y159D01*
X365Y159D02*
X371Y159D01*
X392Y159D02*
X399Y159D01*
X416Y159D02*
X449Y159D01*
X777Y159D02*
X783Y159D01*
X789Y159D02*
X796Y159D01*
X829Y159D02*
X860Y159D01*
X1369Y159D02*
X1376Y159D01*
X0Y158D02*
X7Y158D01*
X366Y158D02*
X371Y158D01*
X393Y158D02*
X399Y158D01*
X416Y158D02*
X449Y158D01*
X777Y158D02*
X783Y158D01*
X790Y158D02*
X797Y158D01*
X828Y158D02*
X859Y158D01*
X1369Y158D02*
X1376Y158D01*
X0Y157D02*
X7Y157D01*
X366Y157D02*
X371Y157D01*
X393Y157D02*
X399Y157D01*
X416Y157D02*
X449Y157D01*
X777Y157D02*
X783Y157D01*
X790Y157D02*
X797Y157D01*
X827Y157D02*
X859Y157D01*
X1369Y157D02*
X1376Y157D01*
X0Y156D02*
X7Y156D01*
X367Y156D02*
X370Y156D01*
X394Y156D02*
X398Y156D01*
X417Y156D02*
X448Y156D01*
X777Y156D02*
X783Y156D01*
X791Y156D02*
X798Y156D01*
X827Y156D02*
X858Y156D01*
X1369Y156D02*
X1376Y156D01*
X0Y155D02*
X7Y155D01*
X777Y155D02*
X783Y155D01*
X791Y155D02*
X798Y155D01*
X827Y155D02*
X856Y155D01*
X1369Y155D02*
X1376Y155D01*
X0Y154D02*
X7Y154D01*
X777Y154D02*
X783Y154D01*
X792Y154D02*
X799Y154D01*
X827Y154D02*
X833Y154D01*
X1369Y154D02*
X1376Y154D01*
X0Y153D02*
X7Y153D01*
X777Y153D02*
X783Y153D01*
X792Y153D02*
X800Y153D01*
X827Y153D02*
X833Y153D01*
X1369Y153D02*
X1376Y153D01*
X0Y152D02*
X7Y152D01*
X777Y152D02*
X783Y152D01*
X793Y152D02*
X800Y152D01*
X827Y152D02*
X833Y152D01*
X1369Y152D02*
X1376Y152D01*
X0Y151D02*
X7Y151D01*
X777Y151D02*
X783Y151D01*
X794Y151D02*
X801Y151D01*
X827Y151D02*
X833Y151D01*
X1369Y151D02*
X1376Y151D01*
X0Y150D02*
X7Y150D01*
X777Y150D02*
X783Y150D01*
X794Y150D02*
X801Y150D01*
X827Y150D02*
X833Y150D01*
X1369Y150D02*
X1376Y150D01*
X0Y149D02*
X7Y149D01*
X777Y149D02*
X783Y149D01*
X795Y149D02*
X802Y149D01*
X827Y149D02*
X833Y149D01*
X1369Y149D02*
X1376Y149D01*
X0Y148D02*
X7Y148D01*
X777Y148D02*
X783Y148D01*
X795Y148D02*
X803Y148D01*
X827Y148D02*
X833Y148D01*
X1369Y148D02*
X1376Y148D01*
X0Y147D02*
X7Y147D01*
X777Y147D02*
X783Y147D01*
X796Y147D02*
X803Y147D01*
X827Y147D02*
X833Y147D01*
X1369Y147D02*
X1376Y147D01*
X0Y146D02*
X7Y146D01*
X777Y146D02*
X783Y146D01*
X797Y146D02*
X804Y146D01*
X827Y146D02*
X833Y146D01*
X1369Y146D02*
X1376Y146D01*
X0Y145D02*
X7Y145D01*
X777Y145D02*
X783Y145D01*
X797Y145D02*
X804Y145D01*
X827Y145D02*
X833Y145D01*
X1369Y145D02*
X1376Y145D01*
X0Y144D02*
X7Y144D01*
X777Y144D02*
X783Y144D01*
X798Y144D02*
X805Y144D01*
X827Y144D02*
X833Y144D01*
X1369Y144D02*
X1376Y144D01*
X0Y143D02*
X7Y143D01*
X777Y143D02*
X783Y143D01*
X798Y143D02*
X805Y143D01*
X827Y143D02*
X833Y143D01*
X1369Y143D02*
X1376Y143D01*
X0Y142D02*
X7Y142D01*
X777Y142D02*
X783Y142D01*
X799Y142D02*
X806Y142D01*
X827Y142D02*
X833Y142D01*
X1369Y142D02*
X1376Y142D01*
X0Y141D02*
X7Y141D01*
X777Y141D02*
X783Y141D01*
X799Y141D02*
X807Y141D01*
X827Y141D02*
X833Y141D01*
X1369Y141D02*
X1376Y141D01*
X0Y140D02*
X7Y140D01*
X777Y140D02*
X783Y140D01*
X800Y140D02*
X807Y140D01*
X827Y140D02*
X833Y140D01*
X1369Y140D02*
X1376Y140D01*
X0Y139D02*
X7Y139D01*
X777Y139D02*
X783Y139D01*
X801Y139D02*
X808Y139D01*
X827Y139D02*
X833Y139D01*
X1369Y139D02*
X1376Y139D01*
X0Y138D02*
X7Y138D01*
X777Y138D02*
X783Y138D01*
X801Y138D02*
X808Y138D01*
X827Y138D02*
X833Y138D01*
X1369Y138D02*
X1376Y138D01*
X0Y137D02*
X7Y137D01*
X777Y137D02*
X783Y137D01*
X802Y137D02*
X809Y137D01*
X827Y137D02*
X859Y137D01*
X1369Y137D02*
X1376Y137D01*
X0Y136D02*
X7Y136D01*
X777Y136D02*
X783Y136D01*
X802Y136D02*
X810Y136D01*
X827Y136D02*
X860Y136D01*
X1369Y136D02*
X1376Y136D01*
X0Y135D02*
X7Y135D01*
X777Y135D02*
X783Y135D01*
X803Y135D02*
X810Y135D01*
X827Y135D02*
X860Y135D01*
X1369Y135D02*
X1376Y135D01*
X0Y134D02*
X7Y134D01*
X777Y134D02*
X782Y134D01*
X804Y134D02*
X810Y134D01*
X827Y134D02*
X860Y134D01*
X1369Y134D02*
X1376Y134D01*
X0Y133D02*
X7Y133D01*
X777Y133D02*
X782Y133D01*
X804Y133D02*
X810Y133D01*
X827Y133D02*
X860Y133D01*
X1369Y133D02*
X1376Y133D01*
X0Y132D02*
X7Y132D01*
X777Y132D02*
X782Y132D01*
X805Y132D02*
X809Y132D01*
X827Y132D02*
X859Y132D01*
X1369Y132D02*
X1376Y132D01*
X0Y131D02*
X7Y131D01*
X779Y131D02*
X780Y131D01*
X806Y131D02*
X808Y131D01*
X827Y131D02*
X858Y131D01*
X1369Y131D02*
X1376Y131D01*
X0Y130D02*
X7Y130D01*
X1369Y130D02*
X1376Y130D01*
X0Y129D02*
X7Y129D01*
X1369Y129D02*
X1376Y129D01*
X0Y128D02*
X7Y128D01*
X1369Y128D02*
X1376Y128D01*
X0Y127D02*
X7Y127D01*
X1369Y127D02*
X1376Y127D01*
X0Y126D02*
X7Y126D01*
X1369Y126D02*
X1376Y126D01*
X0Y125D02*
X7Y125D01*
X1369Y125D02*
X1376Y125D01*
X0Y124D02*
X7Y124D01*
X1369Y124D02*
X1376Y124D01*
X0Y123D02*
X7Y123D01*
X1369Y123D02*
X1376Y123D01*
X0Y122D02*
X7Y122D01*
X1369Y122D02*
X1376Y122D01*
X0Y121D02*
X7Y121D01*
X1369Y121D02*
X1376Y121D01*
X0Y120D02*
X7Y120D01*
X1369Y120D02*
X1376Y120D01*
X0Y119D02*
X7Y119D01*
X1369Y119D02*
X1376Y119D01*
X0Y118D02*
X7Y118D01*
X1369Y118D02*
X1376Y118D01*
X0Y117D02*
X7Y117D01*
X1369Y117D02*
X1376Y117D01*
X0Y116D02*
X7Y116D01*
X1369Y116D02*
X1376Y116D01*
X0Y115D02*
X7Y115D01*
X1369Y115D02*
X1376Y115D01*
X0Y114D02*
X7Y114D01*
X1369Y114D02*
X1376Y114D01*
X0Y113D02*
X7Y113D01*
X1369Y113D02*
X1376Y113D01*
X0Y112D02*
X7Y112D01*
X1369Y112D02*
X1376Y112D01*
X0Y111D02*
X7Y111D01*
X1369Y111D02*
X1376Y111D01*
X0Y110D02*
X7Y110D01*
X1369Y110D02*
X1376Y110D01*
X0Y109D02*
X7Y109D01*
X1369Y109D02*
X1376Y109D01*
X0Y108D02*
X7Y108D01*
X1369Y108D02*
X1376Y108D01*
X0Y107D02*
X7Y107D01*
X1369Y107D02*
X1376Y107D01*
X0Y106D02*
X7Y106D01*
X1369Y106D02*
X1376Y106D01*
X0Y105D02*
X7Y105D01*
X1369Y105D02*
X1376Y105D01*
X0Y104D02*
X7Y104D01*
X1369Y104D02*
X1376Y104D01*
X0Y103D02*
X7Y103D01*
X1369Y103D02*
X1376Y103D01*
X0Y102D02*
X7Y102D01*
X1369Y102D02*
X1376Y102D01*
X0Y101D02*
X7Y101D01*
X1369Y101D02*
X1376Y101D01*
X0Y100D02*
X7Y100D01*
X1369Y100D02*
X1376Y100D01*
X0Y99D02*
X7Y99D01*
X1369Y99D02*
X1376Y99D01*
X0Y98D02*
X7Y98D01*
X1369Y98D02*
X1376Y98D01*
X0Y97D02*
X7Y97D01*
X1369Y97D02*
X1376Y97D01*
X0Y96D02*
X7Y96D01*
X1369Y96D02*
X1376Y96D01*
X0Y95D02*
X7Y95D01*
X1369Y95D02*
X1376Y95D01*
X0Y94D02*
X7Y94D01*
X1369Y94D02*
X1376Y94D01*
X0Y93D02*
X7Y93D01*
X1369Y93D02*
X1376Y93D01*
X0Y92D02*
X7Y92D01*
X1369Y92D02*
X1376Y92D01*
X0Y91D02*
X7Y91D01*
X1369Y91D02*
X1376Y91D01*
X0Y90D02*
X7Y90D01*
X1369Y90D02*
X1376Y90D01*
X0Y89D02*
X7Y89D01*
X1369Y89D02*
X1376Y89D01*
X0Y88D02*
X7Y88D01*
X1369Y88D02*
X1376Y88D01*
X0Y87D02*
X7Y87D01*
X1369Y87D02*
X1376Y87D01*
X0Y86D02*
X7Y86D01*
X1369Y86D02*
X1376Y86D01*
X0Y85D02*
X7Y85D01*
X633Y85D02*
X700Y85D01*
X900Y85D02*
X948Y85D01*
X1369Y85D02*
X1376Y85D01*
X0Y84D02*
X7Y84D01*
X633Y84D02*
X700Y84D01*
X900Y84D02*
X948Y84D01*
X1369Y84D02*
X1376Y84D01*
X0Y83D02*
X7Y83D01*
X633Y83D02*
X700Y83D01*
X900Y83D02*
X947Y83D01*
X1369Y83D02*
X1376Y83D01*
X0Y82D02*
X7Y82D01*
X634Y82D02*
X700Y82D01*
X900Y82D02*
X947Y82D01*
X1369Y82D02*
X1376Y82D01*
X0Y81D02*
X7Y81D01*
X634Y81D02*
X700Y81D01*
X900Y81D02*
X947Y81D01*
X1369Y81D02*
X1376Y81D01*
X0Y80D02*
X7Y80D01*
X634Y80D02*
X700Y80D01*
X900Y80D02*
X947Y80D01*
X1369Y80D02*
X1376Y80D01*
X0Y79D02*
X7Y79D01*
X633Y79D02*
X700Y79D01*
X900Y79D02*
X947Y79D01*
X1369Y79D02*
X1376Y79D01*
X0Y78D02*
X7Y78D01*
X633Y78D02*
X700Y78D01*
X900Y78D02*
X948Y78D01*
X1369Y78D02*
X1376Y78D01*
X0Y77D02*
X7Y77D01*
X633Y77D02*
X700Y77D01*
X900Y77D02*
X948Y77D01*
X1369Y77D02*
X1376Y77D01*
X0Y76D02*
X7Y76D01*
X633Y76D02*
X699Y76D01*
X901Y76D02*
X948Y76D01*
X1369Y76D02*
X1376Y76D01*
X0Y75D02*
X7Y75D01*
X1369Y75D02*
X1376Y75D01*
X0Y74D02*
X7Y74D01*
X1369Y74D02*
X1376Y74D01*
X0Y73D02*
X7Y73D01*
X1369Y73D02*
X1376Y73D01*
X0Y72D02*
X7Y72D01*
X1369Y72D02*
X1376Y72D01*
X0Y71D02*
X7Y71D01*
X1369Y71D02*
X1376Y71D01*
X0Y70D02*
X7Y70D01*
X1369Y70D02*
X1376Y70D01*
X0Y69D02*
X7Y69D01*
X1369Y69D02*
X1376Y69D01*
X0Y68D02*
X7Y68D01*
X1369Y68D02*
X1376Y68D01*
X0Y67D02*
X7Y67D01*
X1369Y67D02*
X1376Y67D01*
X0Y66D02*
X7Y66D01*
X1369Y66D02*
X1376Y66D01*
X0Y65D02*
X7Y65D01*
X1369Y65D02*
X1376Y65D01*
X0Y64D02*
X7Y64D01*
X1369Y64D02*
X1376Y64D01*
X0Y63D02*
X7Y63D01*
X1369Y63D02*
X1376Y63D01*
X0Y62D02*
X7Y62D01*
X1369Y62D02*
X1376Y62D01*
X0Y61D02*
X7Y61D01*
X1369Y61D02*
X1376Y61D01*
X0Y60D02*
X7Y60D01*
X1369Y60D02*
X1376Y60D01*
X0Y59D02*
X7Y59D01*
X1369Y59D02*
X1376Y59D01*
X0Y58D02*
X7Y58D01*
X1369Y58D02*
X1376Y58D01*
X0Y57D02*
X7Y57D01*
X1369Y57D02*
X1376Y57D01*
X0Y56D02*
X7Y56D01*
X1369Y56D02*
X1376Y56D01*
X0Y55D02*
X7Y55D01*
X1369Y55D02*
X1376Y55D01*
X0Y54D02*
X7Y54D01*
X1369Y54D02*
X1376Y54D01*
X0Y53D02*
X7Y53D01*
X1369Y53D02*
X1376Y53D01*
X0Y52D02*
X7Y52D01*
X1369Y52D02*
X1376Y52D01*
X0Y51D02*
X7Y51D01*
X1369Y51D02*
X1376Y51D01*
X0Y50D02*
X7Y50D01*
X1369Y50D02*
X1376Y50D01*
X0Y49D02*
X7Y49D01*
X1369Y49D02*
X1376Y49D01*
X0Y48D02*
X7Y48D01*
X1369Y48D02*
X1376Y48D01*
X0Y47D02*
X7Y47D01*
X1369Y47D02*
X1376Y47D01*
X0Y46D02*
X7Y46D01*
X1369Y46D02*
X1376Y46D01*
X0Y45D02*
X7Y45D01*
X1369Y45D02*
X1376Y45D01*
X0Y44D02*
X7Y44D01*
X1369Y44D02*
X1376Y44D01*
X0Y43D02*
X7Y43D01*
X1369Y43D02*
X1376Y43D01*
X0Y42D02*
X7Y42D01*
X1369Y42D02*
X1376Y42D01*
X0Y41D02*
X7Y41D01*
X1369Y41D02*
X1376Y41D01*
X0Y40D02*
X7Y40D01*
X1369Y40D02*
X1376Y40D01*
X0Y39D02*
X7Y39D01*
X1369Y39D02*
X1376Y39D01*
X0Y38D02*
X7Y38D01*
X1369Y38D02*
X1376Y38D01*
X0Y37D02*
X7Y37D01*
X1369Y37D02*
X1376Y37D01*
X0Y36D02*
X7Y36D01*
X1369Y36D02*
X1376Y36D01*
X0Y35D02*
X7Y35D01*
X1369Y35D02*
X1376Y35D01*
X0Y34D02*
X7Y34D01*
X1369Y34D02*
X1376Y34D01*
X0Y33D02*
X7Y33D01*
X1369Y33D02*
X1376Y33D01*
X0Y32D02*
X7Y32D01*
X1369Y32D02*
X1376Y32D01*
X0Y31D02*
X7Y31D01*
X1369Y31D02*
X1376Y31D01*
X0Y30D02*
X7Y30D01*
X1369Y30D02*
X1376Y30D01*
X0Y29D02*
X7Y29D01*
X1369Y29D02*
X1376Y29D01*
X0Y28D02*
X7Y28D01*
X1369Y28D02*
X1376Y28D01*
X0Y27D02*
X7Y27D01*
X1369Y27D02*
X1376Y27D01*
X0Y26D02*
X7Y26D01*
X1369Y26D02*
X1376Y26D01*
X0Y25D02*
X7Y25D01*
X1369Y25D02*
X1376Y25D01*
X0Y24D02*
X7Y24D01*
X1369Y24D02*
X1376Y24D01*
X0Y23D02*
X7Y23D01*
X1369Y23D02*
X1376Y23D01*
X0Y22D02*
X7Y22D01*
X1369Y22D02*
X1376Y22D01*
X0Y21D02*
X7Y21D01*
X1369Y21D02*
X1376Y21D01*
X0Y20D02*
X7Y20D01*
X1369Y20D02*
X1376Y20D01*
X0Y19D02*
X7Y19D01*
X1369Y19D02*
X1376Y19D01*
X0Y18D02*
X7Y18D01*
X1369Y18D02*
X1376Y18D01*
X0Y17D02*
X7Y17D01*
X1369Y17D02*
X1376Y17D01*
X0Y16D02*
X7Y16D01*
X1369Y16D02*
X1376Y16D01*
X0Y15D02*
X7Y15D01*
X1369Y15D02*
X1376Y15D01*
X0Y14D02*
X7Y14D01*
X1369Y14D02*
X1376Y14D01*
X0Y13D02*
X7Y13D01*
X1369Y13D02*
X1376Y13D01*
X0Y12D02*
X7Y12D01*
X1369Y12D02*
X1376Y12D01*
X0Y11D02*
X7Y11D01*
X1369Y11D02*
X1376Y11D01*
X0Y10D02*
X7Y10D01*
X1369Y10D02*
X1376Y10D01*
X0Y9D02*
X7Y9D01*
X1369Y9D02*
X1376Y9D01*
X0Y8D02*
X1376Y8D01*
X0Y7D02*
X1376Y7D01*
X0Y6D02*
X1376Y6D01*
X0Y5D02*
X1376Y5D01*
X0Y4D02*
X1376Y4D01*
X0Y3D02*
X1376Y3D01*
X0Y2D02*
X1376Y2D01*
X0Y1D02*
X1376Y1D01*
D02*
G04 End of Silk1*
M02*